<svg width="16" height="16" viewBox="0 0 16 16" fill="none" xmlns="http://www.w3.org/2000/svg">
<path d="M1.33341 12.6665V11.3332H14.6667V12.6665H1.33341ZM2.10008 8.63317L1.23341 8.13317L1.80008 7.13317H0.666748V6.13317H1.80008L1.23341 5.1665L2.10008 4.6665L2.66675 5.63317L3.23341 4.6665L4.10008 5.1665L3.53341 6.13317H4.66675V7.13317H3.53341L4.10008 8.13317L3.23341 8.63317L2.66675 7.63317L2.10008 8.63317ZM7.43341 8.63317L6.56675 8.13317L7.13341 7.13317H6.00008V6.13317H7.13341L6.56675 5.1665L7.43341 4.6665L8.00008 5.63317L8.56675 4.6665L9.43341 5.1665L8.86675 6.13317H10.0001V7.13317H8.86675L9.43341 8.13317L8.56675 8.63317L8.00008 7.63317L7.43341 8.63317ZM12.7667 8.63317L11.9001 8.13317L12.4667 7.13317H11.3334V6.13317H12.4667L11.9001 5.1665L12.7667 4.6665L13.3334 5.63317L13.9001 4.6665L14.7667 5.1665L14.2001 6.13317H15.3334V7.13317H14.2001L14.7667 8.13317L13.9001 8.63317L13.3334 7.63317L12.7667 8.63317Z" fill="#F7685A"/>
</svg>
