<svg width="16" height="16" viewBox="0 0 16 16" fill="none" xmlns="http://www.w3.org/2000/svg">
<path d="M15.5 12.9998C15.5 13.1324 15.4473 13.2596 15.3536 13.3534C15.2598 13.4471 15.1326 13.4998 15 13.4998H1C0.867392 13.4998 0.740215 13.4471 0.646447 13.3534C0.552678 13.2596 0.5 13.1324 0.5 12.9998C0.5 12.8672 0.552678 12.74 0.646447 12.6463C0.740215 12.5525 0.867392 12.4998 1 12.4998H15C15.1326 12.4998 15.2598 12.5525 15.3536 12.6463C15.4473 12.74 15.5 12.8672 15.5 12.9998ZM1.01875 6.13608C0.989011 6.03122 0.994349 5.91952 1.03395 5.81798C1.07355 5.71643 1.14525 5.63061 1.23812 5.57358L7.73812 1.57358C7.81689 1.52515 7.90754 1.49951 8 1.49951C8.09246 1.49951 8.18311 1.52515 8.26188 1.57358L14.7619 5.57358C14.8548 5.63054 14.9265 5.7163 14.9662 5.8178C15.0059 5.91931 15.0113 6.03099 14.9817 6.13586C14.952 6.24073 14.8889 6.33304 14.802 6.39874C14.715 6.46444 14.609 6.49994 14.5 6.49983H13V10.4998H14C14.1326 10.4998 14.2598 10.5525 14.3536 10.6463C14.4473 10.74 14.5 10.8672 14.5 10.9998C14.5 11.1324 14.4473 11.2596 14.3536 11.3534C14.2598 11.4471 14.1326 11.4998 14 11.4998H2C1.86739 11.4998 1.74021 11.4471 1.64645 11.3534C1.55268 11.2596 1.5 11.1324 1.5 10.9998C1.5 10.8672 1.55268 10.74 1.64645 10.6463C1.74021 10.5525 1.86739 10.4998 2 10.4998H3V6.49983H1.5C1.39112 6.49986 1.2852 6.46436 1.19834 6.3987C1.11148 6.33305 1.04842 6.24084 1.01875 6.13608ZM9 9.99983C9 10.1324 9.05268 10.2596 9.14645 10.3534C9.24021 10.4471 9.36739 10.4998 9.5 10.4998C9.63261 10.4998 9.75979 10.4471 9.85355 10.3534C9.94732 10.2596 10 10.1324 10 9.99983V6.99983C10 6.86722 9.94732 6.74004 9.85355 6.64627C9.75979 6.55251 9.63261 6.49983 9.5 6.49983C9.36739 6.49983 9.24021 6.55251 9.14645 6.64627C9.05268 6.74004 9 6.86722 9 6.99983V9.99983ZM6 9.99983C6 10.1324 6.05268 10.2596 6.14645 10.3534C6.24021 10.4471 6.36739 10.4998 6.5 10.4998C6.63261 10.4998 6.75979 10.4471 6.85355 10.3534C6.94732 10.2596 7 10.1324 7 9.99983V6.99983C7 6.86722 6.94732 6.74004 6.85355 6.64627C6.75979 6.55251 6.63261 6.49983 6.5 6.49983C6.36739 6.49983 6.24021 6.55251 6.14645 6.64627C6.05268 6.74004 6 6.86722 6 6.99983V9.99983Z" fill="#B69260"/>
</svg>
