<svg width="22" height="17" viewBox="0 0 22 17" fill="none" xmlns="http://www.w3.org/2000/svg">
<path d="M14.6429 10.6433C14.4724 10.6433 14.3089 10.711 14.1883 10.8316C14.0678 10.9521 14.0001 11.1156 14.0001 11.2861C14.0001 11.4566 14.0678 11.6201 14.1883 11.7407C14.3089 11.8613 14.4724 11.929 14.6429 11.929H17.6429C17.8134 11.929 17.9769 11.8613 18.0975 11.7407C18.218 11.6201 18.2858 11.4566 18.2858 11.2861C18.2858 11.1156 18.218 10.9521 18.0975 10.8316C17.9769 10.711 17.8134 10.6433 17.6429 10.6433H14.6429ZM0.717773 4.00042C0.717773 3.14794 1.05642 2.33037 1.65922 1.72758C2.26201 1.12478 3.07958 0.786133 3.93206 0.786133H18.0715C18.924 0.786133 19.7415 1.12478 20.3443 1.72758C20.9471 2.33037 21.2858 3.14794 21.2858 4.00042V13.0004C21.2858 13.8529 20.9471 14.6705 20.3443 15.2733C19.7415 15.8761 18.924 16.2147 18.0715 16.2147H3.93292C3.08043 16.2147 2.26287 15.8761 1.66007 15.2733C1.05728 14.6705 0.718631 13.8529 0.718631 13.0004L0.717773 4.00042ZM3.93206 2.07185C3.42057 2.07185 2.93003 2.27504 2.56835 2.63671C2.20668 2.99839 2.00349 3.48893 2.00349 4.00042V4.64328H20.0001V4.00042C20.0001 3.48893 19.7969 2.99839 19.4352 2.63671C19.0735 2.27504 18.583 2.07185 18.0715 2.07185H3.93206ZM2.00349 13.0004C2.00349 13.5119 2.20668 14.0024 2.56835 14.3641C2.93003 14.7258 3.42057 14.929 3.93206 14.929H18.0715C18.583 14.929 19.0735 14.7258 19.4352 14.3641C19.7969 14.0024 20.0001 13.5119 20.0001 13.0004V5.92899H2.00434L2.00349 13.0004Z" fill="#B1B2B7"/>
</svg>
