<svg width="92" height="24" viewBox="0 0 92 24" fill="none" xmlns="http://www.w3.org/2000/svg">
<path d="M17.6373 20.4603C17.1675 20.5092 16.6775 20.5269 16.6191 20.364C16.4563 19.9105 15.8835 19.7764 15.9438 19.7199C15.9673 19.6974 16.1708 19.7084 16.508 19.7697C16.6747 19.7999 17.1699 19.9608 17.3346 19.9958C17.4189 20.0135 17.4893 20.0427 17.5492 20.0733C17.7915 20.1969 18.2077 20.2352 18.5272 20.3114C18.7001 20.353 18.8442 20.4503 18.9175 20.4742C18.8322 20.3708 18.702 20.3344 18.632 20.308C18.508 20.2606 18.3993 20.2137 18.2863 20.194C18.0971 20.161 17.9788 20.1504 17.8409 20.0824C17.5085 19.9186 17.3217 19.8415 16.9994 19.7917C17.0128 19.7563 17.5794 19.7094 17.8212 19.7194C18.0741 19.7295 18.4869 19.7927 18.793 19.7759C18.9036 19.7697 18.9979 19.7505 19.1024 19.7395C19.2068 19.7285 19.3318 19.7582 19.4467 19.7841C19.3466 19.7237 19.1426 19.7026 18.986 19.707C18.8294 19.7117 18.6857 19.7338 18.52 19.7242C18.2772 19.7108 18.0391 19.6322 17.7949 19.6155C17.4745 19.5935 17.2278 19.6835 16.9074 19.6634C16.7283 19.6519 16.5616 19.5992 16.3816 19.5743C15.9333 19.513 15.189 19.6078 14.5425 19.5709C14.2082 19.5513 13.827 19.558 13.542 19.4752C13.3116 19.4086 12.8375 19.1121 12.8126 19.0719C12.7412 18.9584 13.064 18.8746 13.3116 18.8995C13.5588 18.9244 13.746 18.957 13.9936 18.9809C14.2939 19.0101 14.6148 18.9996 14.9156 18.9857C15.1622 18.9742 15.6775 18.956 15.9256 18.9766C16.3586 19.0116 16.5276 19.0824 16.9596 19.1193C16.7159 19.0657 16.4678 19.0168 16.2278 18.9603C15.9386 18.8913 15.531 18.9014 15.3638 18.9019C13.6828 18.9105 13.7585 18.6246 12.7556 18.5618C12.2906 18.5341 11.4769 18.5245 11.0104 18.5389C10.7039 18.548 10.3979 18.6164 10.0913 18.6193C9.93281 18.6203 9.77477 18.6212 9.61672 18.6227C9.54009 18.6227 9.44574 18.514 9.41509 18.5427C9.27046 18.5278 8.89737 18.6002 8.87869 18.6021C8.66797 18.6184 8.42994 18.6102 8.22927 18.6423C8.06643 18.6677 7.77285 18.7386 7.67946 18.8118C7.45341 18.9086 7.23214 19.0173 6.94766 19.0666C6.82793 19.0877 6.70053 19.0968 6.58463 19.1227C6.32936 19.1797 6.16797 19.3056 5.92563 19.3751C5.68856 19.4431 5.40168 19.4503 5.13492 19.4431C4.86816 19.4359 4.60092 19.4167 4.33272 19.4402C4.06452 19.4632 3.78482 19.5398 3.68329 19.6595C3.92611 19.512 4.37869 19.4962 4.7513 19.5197C5.1239 19.5427 5.52381 19.5867 5.87582 19.5053C6.13731 19.4445 6.32745 19.3214 6.59996 19.275C6.69574 19.2587 6.81643 19.2563 6.87726 19.2917C6.93233 19.3238 6.90216 19.3717 6.88252 19.4134C6.78674 19.6193 6.59804 19.6471 6.39258 19.7414C6.24459 19.8099 6.08319 19.8401 5.89977 19.8846C5.59277 19.9594 5.24699 20.0092 4.9127 20.0393C4.57841 20.069 4.22735 20.1203 3.98933 20.239C3.85235 20.308 3.76471 20.3937 3.63683 20.4656C3.34373 20.6308 2.91988 20.7453 2.79105 20.9445C2.71825 21.0571 2.71011 21.1548 2.70388 21.2697C2.69814 21.3808 2.61433 21.4938 2.46777 21.5872C2.6354 21.4761 2.78722 21.3981 2.85427 21.2687C2.9285 21.126 2.88396 20.9843 3.08846 20.8664C3.26471 20.7644 3.57745 20.6179 3.77285 20.5231C3.89641 20.4632 3.9807 20.422 4.09421 20.3578C4.34996 20.2137 4.6627 20.1921 5.04153 20.1423C5.42036 20.0925 5.8854 20.0082 6.24986 19.9359C6.61433 19.8631 6.98358 19.6907 7.09565 19.514C7.14689 19.4325 7.12343 19.3894 7.1809 19.309C7.28387 19.1658 7.55733 19.0599 7.84229 18.9886C8.12774 18.9172 8.26184 18.8435 8.75226 18.8382C8.85762 18.8367 9.40168 18.7865 9.62821 18.9196C9.75082 18.9914 9.61911 19.0796 9.51662 19.161C9.28291 19.3473 8.84996 19.4541 8.46586 19.5757C8.08176 19.6969 7.69718 19.8679 7.67323 20.0815C7.65982 20.2031 7.6785 20.3166 7.79967 20.4373C7.90791 20.5456 8.03961 20.6366 7.62869 20.7079C7.41126 20.7462 7.03674 20.7295 6.82601 20.7759C6.60187 20.8257 6.4989 20.9321 6.31739 21.012C6.06835 21.1217 5.72927 21.1231 5.39737 21.1447C4.88923 21.1782 4.43569 21.3664 4.26519 21.5911C4.36672 21.5001 4.58846 21.445 4.77093 21.3818C5.18329 21.2381 5.72017 21.2817 6.04392 21.2319C5.92371 21.3981 6.09661 21.672 6.18042 21.8387C6.27237 22.0226 6.11001 22.025 6.07601 22.2549C6.05206 22.4163 6.19431 22.603 6.51519 22.6562C6.31931 22.5829 6.27333 22.4507 6.29967 22.3315C6.32601 22.2122 6.40982 22.0954 6.41701 21.9761C6.43281 21.7299 6.07888 21.4426 6.37869 21.2347C6.59996 21.082 6.65934 20.9622 7.01088 20.9C7.5286 20.8085 8.07649 20.8669 8.24699 20.6605C8.3217 20.5705 8.17371 20.4459 8.13396 20.3526C7.90408 19.8114 8.96107 19.6835 9.04344 19.7213C9.1603 19.7735 8.90025 19.944 9.08272 20.1002C9.20628 20.2055 9.50848 20.252 9.57649 20.3688C9.63971 20.4776 9.43569 20.58 9.37534 20.6912C9.25034 20.9201 9.75657 21.1514 9.58415 21.3741C9.41892 21.5877 8.80733 21.6083 8.39258 21.7256C7.77525 21.9009 7.65839 22.365 8.17371 22.5891C7.82649 22.285 7.96251 21.9273 8.54392 21.8344C8.79919 21.7932 9.10427 21.7563 9.33607 21.6907C9.56356 21.627 9.72017 21.4301 9.98214 21.4239C10.1771 21.4196 10.3207 21.6509 10.4146 21.7309C10.509 21.8109 10.5564 21.9024 10.6546 21.9814C10.8155 22.1102 11.1191 22.2208 11.0779 22.3708C11.0573 22.445 11.0305 22.4991 11.0276 22.5882C11.2369 22.4503 11.2556 22.2544 11.0722 22.1112C10.9606 22.0235 10.781 21.9541 10.7187 21.8559C10.6775 21.7913 10.5224 21.5259 10.4596 21.4656C10.2331 21.2462 9.97208 21.2927 9.8059 21.0618C9.46346 20.5867 10.1933 20.6064 10.0353 20.3909C9.89593 20.1998 9.30973 20.1002 9.36576 19.899C9.40456 19.7601 9.73693 19.6825 9.87582 19.558C9.93616 19.5039 9.95772 19.4416 10.02 19.3875C10.1273 19.2951 10.3581 19.2381 10.5784 19.2496C10.7987 19.2611 10.8538 19.3779 10.9113 19.4785C11.0372 19.6998 10.6771 19.8875 10.8092 20.1083C10.8504 20.1768 10.9515 20.239 10.9419 20.3104C10.9328 20.3779 10.8274 20.4321 10.759 20.4914C10.6014 20.6279 10.6479 20.8094 10.8686 20.922C11.0937 21.0374 11.4429 21.0729 11.7374 21.1457C12.0319 21.2185 12.3021 21.3765 12.1694 21.5207C12.3504 21.399 12.3231 21.2185 12.1076 21.1102C11.928 21.0202 11.6593 20.9862 11.4285 20.9277C11.1972 20.8693 10.9783 20.7572 11.0396 20.6366C11.0937 20.5312 11.3423 20.4622 11.3686 20.3549C11.3797 20.309 11.3816 20.2596 11.3428 20.217C11.0123 19.8569 11.4333 19.5436 12.3686 19.9206C12.6804 20.046 12.4218 20.2731 12.666 20.3621C12.9462 20.4641 13.6799 20.3339 13.8409 20.4828C13.9927 20.6227 13.4534 20.8827 13.4678 21.0393C13.4821 21.1959 13.7968 21.3147 13.8677 21.468C13.9663 21.6811 13.5784 21.8731 13.5008 22.0887C13.4342 22.274 13.6277 22.4742 13.9683 22.5724C13.6641 22.4651 13.6804 22.2462 13.8054 22.0772C13.9304 21.9076 14.1354 21.7438 14.1095 21.5652C14.0856 21.4028 13.8725 21.2587 13.8069 21.0987C13.7408 20.9383 13.9457 20.7721 14.2896 20.7501C15.1201 20.6979 14.8078 21.1471 15.1637 21.3229C15.497 21.4871 16.3538 21.5935 16.3528 21.899C16.3528 22.0374 16.3222 22.2165 16.064 22.2869C16.5746 22.1672 16.7345 21.82 16.372 21.6107C16.0722 21.4373 15.1316 21.2362 15.2853 21.069C15.2355 21.1231 16.1325 21.1696 16.8629 21.0858C17.2925 21.0365 17.7422 21.1643 17.8629 21.3617C17.7618 21.1959 17.5425 21.0666 17.2283 21.0226C16.9137 20.9785 16.6795 21.014 16.3552 21.0197C16.031 21.025 15.587 21.0475 15.3581 20.9373C15.19 20.8564 15.1986 20.6931 14.997 20.6308C14.8121 20.5729 14.5578 20.5781 14.3878 20.5111C14.2551 20.4584 14.2053 20.3736 14.0923 20.3118C13.7547 20.126 12.9295 20.389 12.9074 20.149C12.8801 19.8425 12.4778 19.684 12.0755 19.6289C11.8107 19.593 11.543 19.5331 11.4007 19.4225C11.2585 19.3118 11.2867 19.1471 11.5142 19.0748C11.7436 19.0025 12.0664 19.0499 12.2743 19.137C12.4817 19.2237 12.6143 19.3425 12.7906 19.4435C13.2125 19.684 13.997 19.7716 14.6488 19.7419C14.8399 19.7314 16.0037 19.6979 16.28 20.2807C16.3495 20.4268 16.4927 20.5882 16.7887 20.6524C17.1431 20.729 17.6071 20.5135 17.9548 20.5992C18.2417 20.6696 18.2925 20.9349 18.4625 21.0599C18.6541 21.2007 19.0272 21.2424 19.3509 21.3176C18.8576 21.2036 18.6052 21.0187 18.4472 20.8502C18.2671 20.6595 18.166 20.4057 17.6373 20.4603Z" fill="white"/>
<mask id="mask0_1_5522" style="mask-type:luminance" maskUnits="userSpaceOnUse" x="4" y="18" width="14" height="6">
<path d="M4.37354 18.6738H17.898V24H4.37354V18.6738Z" fill="white"/>
</mask>
<g mask="url(#mask0_1_5522)">
<path d="M5.85319 21.1706C6.22628 21.2473 6.61516 21.2784 6.66114 21.0614C6.78997 20.458 7.24448 20.2913 7.19658 20.2142C7.1779 20.1836 7.01651 20.1951 6.74831 20.2693C6.6166 20.3062 6.22292 20.5102 6.09218 20.5528C6.02561 20.5748 5.96957 20.6122 5.92216 20.6519C5.72963 20.8124 5.39917 20.8531 5.14534 20.9474C5.00789 20.9992 4.89342 21.127 4.83547 21.1572C4.90252 21.0193 5.00645 20.9738 5.062 20.9398C5.16066 20.8785 5.24639 20.8186 5.33643 20.7951C5.48681 20.7559 5.58068 20.7449 5.68988 20.6567C5.95425 20.4446 6.10223 20.3459 6.35846 20.2875C6.34744 20.2401 5.89725 20.162 5.7052 20.1682C5.50405 20.174 5.17551 20.2463 4.93174 20.2128C4.84361 20.2003 4.7689 20.1711 4.68557 20.1519C4.60271 20.1328 4.5031 20.1687 4.41162 20.1998C4.49112 20.1213 4.65348 20.0997 4.778 20.1122C4.90252 20.1242 5.01699 20.1591 5.14917 20.1519C5.34218 20.1419 5.53135 20.0432 5.7258 20.0284C5.98011 20.0088 6.17647 20.1371 6.43126 20.1179C6.5735 20.1069 6.70616 20.0399 6.84888 20.0111C7.2052 19.9403 7.79572 20.0801 8.30865 20.0389C8.57398 20.0174 8.87618 20.0293 9.10271 19.923C9.28471 19.8368 9.66114 19.4503 9.68078 19.3981C9.73777 19.2492 9.48154 19.1371 9.28518 19.1673C9.08882 19.197 8.94084 19.2382 8.744 19.2664C8.50597 19.3009 8.25118 19.2827 8.01267 19.2583C7.81631 19.2386 7.40779 19.2037 7.20999 19.2243C6.8666 19.2602 6.73202 19.3497 6.38863 19.3871C6.58212 19.3229 6.77944 19.2645 6.97005 19.1946C7.19994 19.1108 7.52369 19.1342 7.65635 19.1385C8.99112 19.1816 8.93078 18.799 9.72676 18.7286C10.0955 18.6965 10.7411 18.6869 11.1109 18.7051C11.3532 18.7166 11.5965 18.8042 11.8393 18.8062C11.9648 18.8066 12.0903 18.8066 12.2153 18.8062C12.2761 18.8062 12.3513 18.6644 12.3752 18.7008C12.4897 18.6802 12.7263 18.7784 12.756 18.7717C12.7703 18.7683 12.7857 18.7702 12.8 18.7717C12.9672 18.7904 13.1559 18.7765 13.3154 18.8143C13.4442 18.845 13.6765 18.9316 13.7502 19.0241C13.9293 19.1452 14.1041 19.2817 14.3297 19.3392C14.4246 19.3632 14.5256 19.3723 14.6171 19.4029C14.8192 19.47 14.9466 19.6285 15.1386 19.7113C15.3264 19.7928 15.5539 19.7928 15.7655 19.775C15.9768 19.7568 16.1889 19.7233 16.402 19.7434C16.6147 19.7635 16.8359 19.8517 16.9159 20.0025C16.7244 19.821 16.3652 19.8177 16.0692 19.8608C15.7732 19.9039 15.4566 19.9738 15.1774 19.8785C14.971 19.8071 14.8201 19.6539 14.6046 19.6007C14.5285 19.582 14.4327 19.5811 14.3848 19.629C14.3412 19.6716 14.3647 19.7329 14.38 19.7865C14.4552 20.0509 14.6046 20.082 14.767 20.1989C14.8843 20.2837 15.0117 20.3181 15.1573 20.3703C15.4001 20.458 15.6741 20.5116 15.9389 20.5394C16.2038 20.5672 16.4825 20.6203 16.6702 20.7659C16.7785 20.8497 16.8479 20.957 16.949 21.0451C17.1808 21.2482 17.5165 21.3794 17.6176 21.6323C17.675 21.775 17.6808 21.9019 17.6851 22.0504C17.6894 22.1946 17.755 22.3378 17.8709 22.4532C17.7387 22.3157 17.6185 22.2204 17.5658 22.0557C17.5074 21.8732 17.5438 21.6883 17.3819 21.5432C17.2426 21.4187 16.9954 21.2406 16.8407 21.1256C16.743 21.0523 16.6765 21.0016 16.5864 20.923C16.3848 20.7458 16.1367 20.7291 15.8364 20.6773C15.5366 20.6251 15.1678 20.5298 14.8795 20.4465C14.5912 20.3627 14.2986 20.1486 14.2109 19.9216C14.1702 19.8177 14.1894 19.7607 14.1439 19.6577C14.063 19.4747 13.8465 19.344 13.6204 19.2568C13.3949 19.1697 13.2885 19.0763 12.8996 19.0768C12.8163 19.0768 12.3853 19.0179 12.2052 19.1931C12.1085 19.288 12.2124 19.401 12.2928 19.5059C12.4782 19.7453 12.8206 19.8785 13.1247 20.0293C13.4289 20.1802 13.733 20.3938 13.7512 20.6701C13.7612 20.8277 13.7464 20.9752 13.6501 21.1342C13.5639 21.2769 13.4595 21.3976 13.7842 21.4815C13.9566 21.526 14.2531 21.4953 14.4198 21.5499C14.5974 21.6084 14.6784 21.7434 14.8216 21.8421C15.0189 21.9771 15.2871 21.969 15.5505 21.9867C15.9528 22.014 16.3115 22.242 16.4456 22.5265C16.3656 22.4125 16.1904 22.3493 16.0457 22.2731C15.7196 22.1012 15.2938 22.1745 15.0376 22.1189C15.1319 22.3301 14.9945 22.6898 14.9274 22.9082C14.8532 23.1491 14.9825 23.1476 15.0084 23.4446C15.0266 23.6519 14.9135 23.8981 14.6592 23.9767C14.8149 23.8766 14.8513 23.7032 14.8307 23.5499C14.8106 23.3967 14.7445 23.2477 14.7392 23.0935C14.7282 22.775 15.0093 22.3928 14.7723 22.1318C14.5979 21.9398 14.5515 21.7865 14.2727 21.7152C13.8632 21.6098 13.4293 21.6974 13.2948 21.4331C13.2359 21.3177 13.3537 21.1529 13.3853 21.0313C13.5692 20.3258 12.732 20.1788 12.6664 20.2276C12.574 20.2971 12.7794 20.5145 12.6348 20.7204C12.5366 20.8593 12.2972 20.924 12.243 21.0768C12.1923 21.219 12.3537 21.3497 12.4011 21.4925C12.4997 21.7884 12.0984 22.0969 12.2344 22.3842C12.3647 22.6591 12.8484 22.6745 13.1765 22.8181C13.6645 23.0317 13.7555 23.6294 13.3474 23.9331C13.6228 23.5298 13.516 23.0701 13.0563 22.9618C12.8541 22.9144 12.6132 22.8718 12.4298 22.7913C12.2497 22.7128 12.1262 22.4594 11.9193 22.4556C11.7651 22.4527 11.6506 22.7564 11.5764 22.8617C11.5017 22.9676 11.4638 23.0873 11.3858 23.1917C11.2584 23.3617 11.0179 23.5111 11.05 23.7061C11.0658 23.8028 11.0874 23.8727 11.0893 23.9891C10.9241 23.8124 10.9097 23.5566 11.0548 23.367C11.1434 23.2511 11.2857 23.1577 11.3355 23.0289C11.368 22.9441 11.4916 22.5964 11.5409 22.5169C11.721 22.2281 11.9274 22.2841 12.0596 21.9815C12.3316 21.3588 11.7541 21.3948 11.8795 21.1112C11.9906 20.8612 12.4547 20.7243 12.4107 20.4633C12.3805 20.2832 12.1176 20.1869 12.0079 20.026C11.96 19.9561 11.9428 19.8756 11.8934 19.8062C11.8091 19.6864 11.6262 19.6136 11.4514 19.6299C11.277 19.6462 11.2335 19.7985 11.1875 19.9302C11.0869 20.22 11.3723 20.4623 11.267 20.7511C11.2344 20.8406 11.154 20.9235 11.1616 21.0164C11.1688 21.1036 11.2521 21.174 11.3063 21.2506C11.4308 21.4269 11.3934 21.6639 11.2181 21.8133C11.04 21.9661 10.7636 22.0159 10.5304 22.1136C10.2972 22.2113 10.0831 22.4201 10.1875 22.6079C10.0448 22.4498 10.0663 22.2128 10.2373 22.0701C10.3795 21.9508 10.5922 21.9043 10.7756 21.8263C10.9586 21.7477 11.1319 21.5997 11.0831 21.4422C11.0409 21.3057 10.8441 21.2176 10.824 21.0772C10.8149 21.0174 10.8134 20.9527 10.8446 20.8972C11.1065 20.4249 10.7737 20.0188 10.0318 20.5121C9.78471 20.6769 9.98921 20.9743 9.79572 21.0916C9.5735 21.2262 8.99256 21.0533 8.86469 21.2487C8.74448 21.4326 9.17168 21.7765 9.16018 21.9819C9.14869 22.1888 8.89917 22.3454 8.84313 22.548C8.76507 22.8292 9.07206 23.0806 9.13289 23.3636C9.18605 23.6074 9.03279 23.8723 8.76315 24.0049C9.00357 23.8603 8.99112 23.5724 8.89198 23.3502C8.79333 23.128 8.63097 22.912 8.65156 22.6764C8.67024 22.4623 8.8393 22.2717 8.89151 22.0605C8.94371 21.8493 8.78135 21.6299 8.50884 21.5993C7.8508 21.526 8.0984 22.1227 7.81679 22.3545C7.55243 22.5715 6.87331 22.7089 6.87426 23.117C6.87474 23.3019 6.89917 23.5413 7.10367 23.6352C6.69946 23.4757 6.57158 23.0087 6.85894 22.7315C7.09649 22.502 7.8417 22.2396 7.72005 22.0174C7.75932 22.0892 7.04859 22.1467 6.46909 22.025C6.1281 21.9532 5.7713 22.117 5.67599 22.3814C5.75597 22.1596 5.92982 21.9891 6.17886 21.9345C6.42838 21.8804 6.61469 21.9307 6.87139 21.9417C7.12858 21.9527 7.48107 21.9862 7.6621 21.8416C7.79572 21.7358 7.78854 21.5188 7.94802 21.4374C8.09505 21.3627 8.29668 21.3708 8.43126 21.2832C8.53662 21.2147 8.57589 21.1026 8.66593 21.0217C8.93317 20.7798 9.58739 21.1275 9.60463 20.8119C9.62666 20.4091 9.94562 20.2027 10.2646 20.1304C10.4744 20.083 10.687 20.0044 10.7996 19.8588C10.9126 19.7142 10.8905 19.4997 10.71 19.4053C10.529 19.311 10.2727 19.3723 10.108 19.4853C9.94323 19.5988 9.83787 19.754 9.69802 19.8857C9.36325 20.1998 8.74112 20.311 8.22436 20.2635C8.07302 20.2492 7.14917 20.184 6.93078 20.9561C6.8757 21.15 6.76172 21.3636 6.52704 21.4451C6.24591 21.5423 5.87714 21.2434 5.60128 21.3512C5.37331 21.4398 5.33356 21.7975 5.1985 21.9637C5.04716 22.15 4.75118 22.1994 4.494 22.2947C4.88576 22.1496 5.08547 21.9039 5.21047 21.6797C5.35319 21.4249 5.43269 21.0854 5.85319 21.1706Z" fill="white"/>
</g>
<path d="M16.3663 9.79061L16.4333 9.76571L16.4645 9.77528C16.7738 9.87299 17.0454 9.94339 17.2949 9.98937C17.5387 10.0334 17.7877 10.0646 18.0396 10.0832C17.9664 10.0722 17.8936 10.0602 17.8222 10.0478C17.542 9.99751 17.2149 9.91034 16.85 9.78869L16.5962 9.70392L16.9132 9.58659C17.8519 9.24272 18.4592 8.80977 18.8495 8.41657C18.52 8.63735 18.1349 8.82605 17.7595 8.99415L17.5914 9.06983L17.6292 8.88975C17.6857 8.61772 17.7619 8.39023 17.8562 8.21207C17.8064 8.28391 17.7595 8.36149 17.7173 8.44435C17.6345 8.60574 17.566 8.81216 17.5143 9.05737L17.5042 9.10574L17.4587 9.12442C16.9223 9.34952 16.3418 9.56743 15.781 9.77816C15.2183 9.98937 14.6872 10.1891 14.2336 10.3821L13.9731 10.4927L14.1158 10.248C14.2168 10.0741 14.3011 9.91226 14.3735 9.75278C14.4755 9.52672 14.5813 9.24032 14.6929 8.93668L14.7216 8.85814L14.7815 8.85287C15.0851 8.82845 15.3337 8.79109 15.5425 8.73841C15.612 8.72069 15.68 8.70153 15.7461 8.68094C15.5119 8.7317 15.2245 8.76666 14.8893 8.78534L14.7456 8.79348L14.7959 8.65843C15.0018 8.10814 15.3141 7.27241 15.8251 6.5818C15.4908 6.89598 15.1661 7.30354 14.9448 7.81839C14.9194 7.87634 14.8955 7.93381 14.8715 7.9908L14.7643 8.24799L14.6939 7.97835C14.6124 7.66561 14.5655 7.38496 14.5554 7.14406C14.5487 6.99176 14.5487 6.78726 14.5713 6.54971C14.5047 6.86437 14.4697 7.22117 14.4975 7.60718C14.5157 7.8567 14.5708 8.14454 14.6618 8.46255L14.6704 8.4932L14.6498 8.54636C14.3644 9.27912 14.1608 9.92663 13.5406 10.6761L13.4386 10.7547C13.0842 10.9429 12.7317 11.1656 12.3912 11.4156L12.2753 11.5013L12.2441 11.3601C12.1393 10.8859 12.0938 10.4664 12.1081 10.1134C12.1167 9.89981 12.144 9.59712 12.2197 9.24415C12.0789 9.65555 11.9735 10.1378 11.9678 10.6656C11.9649 10.94 11.9975 11.2552 12.0645 11.6029L12.0756 11.6584L12.032 11.6939C11.6326 12.0181 11.3404 12.3088 11.1656 12.4956L11.0463 12.6225L11.0056 12.4534C10.9434 12.1963 10.8864 11.8878 10.8404 11.6402C10.8007 11.4247 10.7662 11.2384 10.7437 11.1661C10.6364 10.827 10.8347 8.75661 11.2628 7.43668L11.2695 7.41561L11.3313 7.35431C11.554 7.13209 11.7303 6.9568 11.952 6.74894L12.0684 6.63735C12.5387 6.18573 13.2149 5.53678 13.8117 4.7135C13.5554 5.03917 13.2576 5.36484 12.9122 5.67232C12.4348 6.1 11.9917 6.50661 11.5952 6.88065L11.3256 7.10575C11.3758 6.96207 11.5416 6.49559 11.5909 6.35718C11.7882 5.79875 12.1302 4.8318 12.2561 3.66465C12.2006 4.03103 12.1144 4.40939 11.9889 4.78774L11.941 4.93142L11.7561 4.74847C11.5167 4.51331 11.3102 4.30977 11.1642 4.05929C11.1029 3.9544 11.042 3.84665 10.9846 3.73458C11.0598 3.90843 11.1551 4.09138 11.2767 4.28199C11.3873 4.45584 11.5885 4.70536 11.86 5.00278L11.8984 5.04492L11.7528 5.44291C10.9956 7.51235 10.4486 9.00756 10.2772 10.1536L10.2394 10.4046L10.1043 10.1891C9.76665 9.64933 9.44865 9.05498 9.16033 8.42232L9.13878 8.3749L9.16752 8.33132C9.361 8.03917 9.51043 7.7705 9.61148 7.53247C9.83562 7.00613 9.91608 6.51331 9.92566 6.09521C9.86388 6.49799 9.75372 6.83611 9.6656 7.0612C9.55688 7.33946 9.38016 7.66226 9.1407 8.02002L9.04395 8.16417L8.97642 8.00421C8.71541 7.39166 8.47786 6.73937 8.27001 6.06408L8.2566 6.0205L8.28294 5.98266C8.48361 5.69674 8.62585 5.45057 8.71876 5.23027C8.80209 5.03247 8.85717 4.84186 8.89213 4.66274C8.86292 4.75948 8.83322 4.84377 8.8064 4.91322C8.71397 5.15172 8.55545 5.43333 8.33514 5.74942L8.22259 5.91082L8.16752 5.72212C7.91129 4.8409 7.73983 4.04588 7.6292 3.41992C7.65219 3.78917 7.70248 4.23362 7.80401 4.76188L7.84711 4.98649L7.65842 4.85718C7.24414 4.57222 6.9314 4.31456 6.70344 4.06887C6.69098 4.05546 6.67805 4.04157 6.6656 4.0272C6.77049 4.16465 6.8883 4.30115 7.01953 4.43429C7.22978 4.64933 7.50229 4.87251 7.85142 5.11628L7.8816 5.13735L7.88926 5.1728C8.03916 5.84281 8.25372 6.57414 8.52815 7.34473L8.59903 7.54492L8.40315 7.46302C7.63255 7.14214 5.74606 6.30115 4.8792 5.42423C4.85861 5.40268 4.83754 5.38065 4.81694 5.35814C4.92709 5.49847 5.05114 5.63735 5.19146 5.77193C6.0157 6.56408 7.47642 7.29684 8.54252 7.8318L8.60047 7.86101L8.61388 7.89502C8.65602 8.00661 8.69913 8.12011 8.74271 8.23506C8.98936 8.88831 9.26857 9.62873 9.64884 10.4271L9.73121 10.601L9.54347 10.5593C9.00229 10.4391 8.66273 10.2949 8.26953 10.1278L8.1996 10.0981C7.69003 9.88209 7.21062 9.62059 6.78102 9.32845C7.25564 9.73601 7.90698 10.1805 8.75372 10.5215C8.88734 10.5761 8.99127 10.6268 9.09137 10.6761C9.27767 10.7671 9.43859 10.8462 9.73073 10.9151L9.77384 10.9252L9.79347 10.9645C9.82796 11.0344 10.0851 12.4625 10.088 12.4764L10.1172 12.6374C10.1263 12.6627 9.93236 12.5622 9.93428 12.5636C9.90985 12.5459 9.74798 12.4606 9.56119 12.362C8.3816 11.7408 5.24941 10.0914 4.04826 8.66417C3.90794 8.48937 3.77767 8.28822 3.66033 8.06695C3.82604 8.42615 4.0497 8.7954 4.34951 9.15029C5.05449 9.98937 6.13639 10.6244 7.18236 11.2384L7.55593 11.5033L7.1905 11.4539C5.42614 11.1498 3.87872 10.6977 2.56934 10.1053C3.07891 10.3715 3.78246 10.6709 4.76282 10.9726L5.00085 11.0454L4.7657 11.1512C4.59855 11.2082 4.44194 11.2513 4.30114 11.2796C4.18332 11.3035 4.06407 11.3232 3.9429 11.3385C4.24079 11.3289 4.53342 11.2935 4.8155 11.2331C4.85765 11.224 5.13591 11.1086 5.16321 11.0957C6.00516 11.3471 7.02336 11.6101 8.27623 11.8984L8.29204 11.9017L8.30545 11.9103C8.48744 12.0248 8.6474 12.1311 8.79491 12.2351L9.00276 12.3816L8.74941 12.4051C8.50133 12.4285 8.25468 12.4937 8.01665 12.599C7.89501 12.6527 7.78102 12.726 7.65985 12.8031C7.5679 12.862 7.47211 12.9228 7.36962 12.9779C6.89213 13.2317 6.36675 13.3265 5.98217 13.3955C5.76617 13.4343 5.54156 13.4635 5.3155 13.4831C5.31838 13.4831 5.32029 13.4831 5.32269 13.4831C5.736 13.4831 6.14788 13.4448 6.54539 13.3701L6.55257 13.3682L6.87298 13.3189L6.62681 13.5358C6.33083 13.758 6.00516 13.9879 5.63926 14.1532C5.8337 14.0875 6.06215 13.9927 6.32748 13.8581C6.48504 13.7777 6.65027 13.6886 6.80976 13.6029C7.49367 13.2346 8.20056 12.8533 8.82413 12.8533C9.25995 12.8533 9.61483 13.0454 9.8792 13.4233C10.1378 13.792 10.1996 14.2719 10.2236 14.6005C10.3327 16.0981 10.0693 17.8481 9.25516 18.5856C9.43332 18.6019 9.66129 18.7212 9.83466 18.7212C9.88255 18.7212 10.0818 18.816 10.1172 18.8141C10.8835 18.7609 11.5018 18.6608 12.2547 18.6259C12.111 18.1848 11.6594 16.5928 11.7973 15.5713C12.0301 13.8495 13.3337 13.6503 14.294 13.6503C14.3984 13.6503 14.508 13.6527 14.6383 13.6575L14.6766 13.6589L14.703 13.6867C14.8414 13.8318 14.9774 13.9573 15.1081 14.0593C15.3332 14.2341 15.5698 14.3773 15.7983 14.4937C15.6551 14.3941 15.5315 14.3011 15.4333 14.2274C15.315 14.1388 15.1867 14.0157 15.0301 13.8404L14.8749 13.667L15.1072 13.6843C15.1924 13.6905 15.2791 13.6977 15.3672 13.7044C15.644 13.7264 15.93 13.7494 16.2365 13.76C16.3849 13.7662 16.5281 13.7695 16.6632 13.7695C16.8553 13.7695 17.0253 13.7633 17.1752 13.7523C16.5962 13.7518 15.9764 13.6479 15.3778 13.5468C14.964 13.4769 14.5363 13.4051 14.1345 13.3701L13.7935 13.3404L14.1014 13.192C14.2293 13.1302 14.3495 13.0641 14.4611 12.9961C14.1637 13.1287 13.8988 13.2097 13.7101 13.258C13.5123 13.3069 13.1086 13.3854 12.9563 13.4151C12.9328 13.4194 12.9041 13.4252 12.9041 13.4252C12.2724 13.5598 11.8763 13.8366 11.656 14.0449L11.5339 14.1603L11.4917 13.9606C11.4357 13.6948 11.3869 13.4649 11.4472 13.2916C11.6838 12.612 12.736 11.6484 13.4075 11.1814L13.4415 11.1575L13.7121 11.2188C14.9036 11.4889 16.3859 11.8246 17.5167 11.8246C17.5832 11.8241 17.6493 11.8227 17.714 11.8208C16.7398 11.7743 15.3294 11.5028 13.8586 11.0746L13.6512 11.0143L13.8366 10.9036C14.5985 10.4496 15.418 10.1445 16.3663 9.79061Z" fill="white"/>
<path d="M7.17206 0.533691C7.17158 0.536086 6.51784 1.41779 7.49246 2.08015C7.49246 2.08302 8.15578 1.23484 7.17206 0.533691Z" fill="white"/>
<path d="M0.377418 7.60272C0.377897 7.60559 0.300311 8.31344 1.21937 8.25885C1.22033 8.26268 1.31228 7.53806 0.377418 7.60272Z" fill="white"/>
<path d="M1.35232 6.87488C1.35279 6.87728 1.31256 7.44241 2.04963 7.39069C2.05011 7.39308 2.10375 6.81933 1.35232 6.87488Z" fill="white"/>
<path d="M8.05364 0.798828C8.05364 0.798828 7.59339 1.21741 8.02969 1.69107C8.02921 1.69107 8.48946 1.29643 8.05364 0.798828Z" fill="white"/>
<path d="M8.36715 0.530273C8.36715 0.530752 8.24455 0.859296 8.61428 1.09014C8.63822 0.984296 8.73832 0.768779 8.36715 0.530273Z" fill="white"/>
<path d="M10.9865 0.376968C10.986 0.373615 10.0559 0.954075 10.6972 1.95886C10.6967 1.95551 11.6206 1.42821 10.9865 0.376968Z" fill="white"/>
<path d="M11.9668 0.207031C11.9663 0.20751 11.3188 0.998698 12.3058 1.8033C12.3054 1.80377 12.9625 1.05713 11.9668 0.207031Z" fill="white"/>
<path d="M6.5056 1.68555C6.5056 1.69034 6.03003 2.64005 7.1397 3.11706C7.1397 3.12185 7.63156 2.18746 6.5056 1.68555Z" fill="white"/>
<path d="M8.56971 1.51566C8.56923 1.51087 7.50745 1.96107 7.85276 3.03865C7.85276 3.03434 8.8973 2.63348 8.56971 1.51566Z" fill="white"/>
<path d="M9.43307 1.71145C9.43259 1.70857 8.64475 2.01652 8.90002 2.82399C8.89954 2.8216 9.67493 2.54669 9.43307 1.71145Z" fill="white"/>
<path d="M11.478 1.93118C11.478 1.9283 10.6892 2.18453 10.9421 3.00828C10.9416 3.00589 11.7175 2.78031 11.478 1.93118Z" fill="white"/>
<path d="M9.35845 0.302761C9.35845 0.299409 8.56918 0.610711 8.82493 1.41722C8.82445 1.41435 9.60079 1.13705 9.35845 0.302761Z" fill="white"/>
<path d="M10.0047 3.16707C10.0047 3.16371 9.16273 3.27052 9.16799 4.12061C9.16799 4.11774 9.98887 4.03297 10.0047 3.16707Z" fill="white"/>
<path d="M11.6748 2.37793C11.6748 2.37841 11.2969 2.90331 11.9885 3.31423C11.9885 3.31471 12.3745 2.81232 11.6748 2.37793Z" fill="white"/>
<path d="M2.83068 3.48194C2.83116 3.48481 2.67359 4.11221 3.45089 4.1079C3.45137 4.11077 3.62139 3.47955 2.83068 3.48194Z" fill="white"/>
<path d="M9.7518 4.26667C9.7518 4.26427 9.02862 4.32414 9.07221 5.04013C9.07221 5.03822 9.77862 4.99751 9.7518 4.26667Z" fill="white"/>
<path d="M13.1425 1.49478C13.1425 1.49191 12.4174 1.4718 12.4577 2.19019C12.4577 2.18779 13.166 2.22228 13.1425 1.49478Z" fill="white"/>
<path d="M10.6015 4.32325C10.6015 4.32229 10.0172 4.39509 10.1034 4.97459C10.1034 4.97316 10.6757 4.91664 10.6015 4.32325Z" fill="white"/>
<path d="M10.607 3.11548C10.607 3.11692 10.5769 2.59345 9.91162 2.62171C9.91162 2.62315 9.92599 3.12315 10.607 3.11548Z" fill="white"/>
<path d="M10.7382 3.74028C10.7382 3.74124 10.7123 3.2853 10.1318 3.30637C10.1318 3.30733 10.1448 3.74459 10.7382 3.74028Z" fill="white"/>
<path d="M10.9569 4.09914C10.9569 4.09962 10.807 3.75815 10.3735 3.90039C10.3735 3.90087 10.51 4.23085 10.9569 4.09914Z" fill="white"/>
<path d="M11.4638 4.89764C11.4638 4.8986 11.2641 4.43883 10.6855 4.62322C10.6855 4.62466 10.8671 5.06575 11.4638 4.89764Z" fill="white"/>
<path d="M10.1952 3.73048C10.1952 3.72904 9.65212 3.93833 9.90595 4.47521C9.90547 4.47377 10.4419 4.28603 10.1952 3.73048Z" fill="white"/>
<path d="M11.7066 1.58398C11.7066 1.58494 11.47 2.04567 12.0763 2.31579C12.0763 2.31674 12.3225 1.87086 11.7066 1.58398Z" fill="white"/>
<mask id="mask1_1_5522" style="mask-type:luminance" maskUnits="userSpaceOnUse" x="9" y="0" width="2" height="1">
<path d="M9.68457 0H10.2976V0.773467H9.68457V0Z" fill="white"/>
</mask>
<g mask="url(#mask1_1_5522)">
<path d="M9.81508 0.0146484C9.81508 0.0160851 9.57897 0.491181 10.1877 0.725855C10.1877 0.726813 10.4334 0.264169 9.81508 0.0146484Z" fill="white"/>
</g>
<path d="M6.31235 0.871094C6.31235 0.872531 6.08007 1.37061 6.68543 1.53249C6.68543 1.53393 6.92681 1.04494 6.31235 0.871094Z" fill="white"/>
<path d="M9.512 6.16467C9.512 6.16515 9.95453 5.65126 9.3166 5.2207C9.3166 5.22118 8.87024 5.714 9.512 6.16467Z" fill="white"/>
<path d="M10.5061 2.45577C10.5061 2.45817 10.6416 1.82646 9.83893 1.69141C9.83893 1.69332 9.68902 2.29581 10.5061 2.45577Z" fill="white"/>
<path d="M10.1742 5.67339C10.1742 5.67195 10.8021 5.64273 10.77 5.02204C10.77 5.02061 10.1556 5.0345 10.1742 5.67339Z" fill="white"/>
<path d="M7.71196 8.57354C7.71196 8.5721 8.33552 8.50553 8.30152 7.88723C8.30152 7.8858 7.69089 7.93848 7.71196 8.57354Z" fill="white"/>
<path d="M9.0747 3.31217C9.07422 3.31025 9.70401 3.2614 9.67096 2.64167C9.67096 2.63975 9.05459 2.67424 9.0747 3.31217Z" fill="white"/>
<path d="M9.44917 1.50029C9.44917 1.49837 10.0804 1.45623 10.0478 0.836017C10.0478 0.834101 9.43001 0.861878 9.44917 1.50029Z" fill="white"/>
<path d="M8.96009 6.19775C8.96009 6.19967 8.66363 6.82419 9.44955 7.10532C9.44955 7.10724 9.75798 6.49804 8.96009 6.19775Z" fill="white"/>
<path d="M8.14862 3.72852C8.14814 3.72995 7.85216 4.3607 8.64 4.62171C8.64 4.62363 8.94842 4.00581 8.14862 3.72852Z" fill="white"/>
<path d="M8.29739 3.07422C8.29739 3.07613 8.12545 3.61972 8.81415 3.76435C8.81415 3.76579 8.99854 3.23035 8.29739 3.07422Z" fill="white"/>
<path d="M11.3815 3.18994C11.3815 3.1909 11.0822 3.79483 11.87 4.13008C11.87 4.13103 12.1823 3.54578 11.3815 3.18994Z" fill="white"/>
<path d="M11.5126 8.59375C11.5121 8.59423 11.1376 9.12632 11.8239 9.52383C11.8234 9.52431 12.2061 9.01425 11.5126 8.59375Z" fill="white"/>
<path d="M11.7736 8.03369C11.7736 8.03369 11.539 8.49873 12.14 8.75927C12.1395 8.75975 12.3838 8.31099 11.7736 8.03369Z" fill="white"/>
<path d="M11.2224 9.40967C11.2224 9.41063 10.9254 10.0208 11.7066 10.3412C11.7061 10.3426 12.016 9.75162 11.2224 9.40967Z" fill="white"/>
<path d="M11.2124 10.3525C11.2124 10.354 10.9164 10.9646 11.6961 11.2836C11.6961 11.2841 12.005 10.6931 11.2124 10.3525Z" fill="white"/>
<path d="M10.6865 6.89366C10.6865 6.89175 9.92741 6.82805 9.83594 7.5838C9.83594 7.58188 10.574 7.65851 10.6865 6.89366Z" fill="white"/>
<path d="M10.1416 6.43093C10.1416 6.42949 10.8466 6.61292 11.0899 5.92375C11.0904 5.92231 10.406 5.71781 10.1416 6.43093Z" fill="white"/>
<path d="M12.1973 4.95973C12.1973 4.95829 12.9003 5.18722 13.1522 4.51959C13.1527 4.51815 12.4712 4.2672 12.1973 4.95973Z" fill="white"/>
<path d="M12.4512 4.2391C12.4512 4.23719 13.1835 4.35452 13.2788 3.64619C13.2792 3.64427 12.5656 3.50682 12.4512 4.2391Z" fill="white"/>
<path d="M12.4805 3.43977C12.4805 3.43785 13.2094 3.58584 13.3416 2.88661C13.3421 2.88469 12.6323 2.71563 12.4805 3.43977Z" fill="white"/>
<path d="M12.54 2.74013C12.5405 2.73821 13.2699 2.88955 13.4026 2.19128C13.4026 2.18936 12.6928 2.01647 12.54 2.74013Z" fill="white"/>
<path d="M15.2732 1.13917C15.2732 1.13678 14.5898 1.4773 15.0797 2.28094C15.0797 2.27854 15.7579 1.97442 15.2732 1.13917Z" fill="white"/>
<path d="M14.549 5.69863C14.549 5.69911 13.9647 5.20006 13.3306 5.6742C13.3306 5.67516 13.888 6.1469 14.549 5.69863Z" fill="white"/>
<path d="M14.0745 6.20452C14.075 6.20452 13.417 5.79887 12.8901 6.3755C12.8901 6.37598 13.5209 6.76152 14.0745 6.20452Z" fill="white"/>
<path d="M13.2478 6.77357C13.2478 6.77309 12.5634 6.42395 12.0869 7.04799C12.0874 7.04752 12.744 7.38324 13.2478 6.77357Z" fill="white"/>
<path d="M14.2639 2.56397C14.2639 2.56206 13.7093 2.90257 14.2232 3.51033C14.2227 3.50938 14.7763 3.19807 14.2639 2.56397Z" fill="white"/>
<path d="M15.876 2.51131C15.8765 2.50988 15.2333 2.2479 15.0269 2.84752C15.0273 2.84656 15.6504 3.10375 15.876 2.51131Z" fill="white"/>
<path d="M14.5846 1.86914C14.5846 1.86866 14.1881 2.19385 14.6718 2.65075C14.6718 2.65027 15.0703 2.34759 14.5846 1.86914Z" fill="white"/>
<path d="M16.0278 5.49854C16.0278 5.49711 15.5427 5.70688 15.9009 6.23753C15.9009 6.23609 16.3822 6.04835 16.0278 5.49854Z" fill="white"/>
<path d="M16.4986 5.08985C16.4986 5.08841 16.0144 5.28813 16.3717 5.82309C16.3717 5.82165 16.8525 5.64349 16.4986 5.08985Z" fill="white"/>
<mask id="mask2_1_5522" style="mask-type:luminance" maskUnits="userSpaceOnUse" x="11" y="0" width="1" height="1">
<path d="M11.1562 0H11.6467V0.773467H11.1562V0Z" fill="white"/>
</mask>
<g mask="url(#mask2_1_5522)">
<path d="M11.3763 0C11.3763 0 10.9884 0.360153 11.4654 0.762931C11.4654 0.762452 11.8552 0.423372 11.3763 0Z" fill="white"/>
</g>
<path d="M17.85 3.2306C17.8504 3.2282 17.2039 3.25167 17.418 3.92983C17.4184 3.92744 18.054 3.92169 17.85 3.2306Z" fill="white"/>
<path d="M18.2388 6.72803C18.2388 6.72707 17.8595 7.00485 18.3193 7.46989C18.3193 7.46845 18.7001 7.21414 18.2388 6.72803Z" fill="white"/>
<path d="M20.1705 7.65691C20.171 7.65595 19.6188 7.46773 19.5508 7.98258C19.5508 7.98162 20.0891 8.16888 20.1705 7.65691Z" fill="white"/>
<path d="M19.5963 5.33012C19.5968 5.3282 18.9373 5.12945 18.9004 5.75828C18.9009 5.75684 19.5441 5.9556 19.5963 5.33012Z" fill="white"/>
<path d="M18.9497 4.349C18.9502 4.3466 18.3156 4.26758 18.4167 4.90839C18.4171 4.90599 19.0388 4.99507 18.9497 4.349Z" fill="white"/>
<path d="M19.928 8.26589C19.928 8.26589 19.4165 7.95603 19.1655 8.39233C19.1655 8.39233 19.6612 8.69166 19.928 8.26589Z" fill="white"/>
<path d="M19.0012 7.49953C19.0012 7.4981 18.4825 7.56371 18.71 8.11496C18.71 8.11304 19.2215 8.06371 19.0012 7.49953Z" fill="white"/>
<path d="M17.01 2.56446C17.01 2.56302 16.5914 2.80584 17.0158 3.3044C17.0158 3.30344 17.4339 3.08314 17.01 2.56446Z" fill="white"/>
<path d="M15.9834 1.78714C15.9834 1.7857 15.4197 1.7608 15.5097 2.32881C15.5102 2.32737 16.0624 2.36329 15.9834 1.78714Z" fill="white"/>
<path d="M18.4158 7.94436C18.4163 7.94292 17.8957 8.02146 18.1237 8.57127C18.1241 8.56983 18.6371 8.50709 18.4158 7.94436Z" fill="white"/>
<path d="M19.2267 9.308C19.2267 9.30943 18.8963 8.85302 18.3848 9.07045C18.3848 9.07188 18.698 9.5101 19.2267 9.308Z" fill="white"/>
<path d="M18.7789 9.73881C18.7789 9.74025 18.5705 9.25222 17.9824 9.34466C17.9824 9.34657 18.1745 9.81592 18.7789 9.73881Z" fill="white"/>
<path d="M17.834 10.5371C17.834 10.5385 17.6242 10.0524 17.0342 10.1669C17.0342 10.1683 17.2272 10.6367 17.834 10.5371Z" fill="white"/>
<path d="M18.7511 10.6852C18.7511 10.6861 18.5427 10.201 17.9551 10.3006C17.9546 10.3025 18.1466 10.7699 18.7511 10.6852Z" fill="white"/>
<path d="M19.5964 9.52447C19.5969 9.52303 19.0399 9.41958 19.0509 9.95933C19.0509 9.95837 19.595 10.0661 19.5964 9.52447Z" fill="white"/>
<path d="M19.7356 10.4337C19.7356 10.4347 19.3189 10.0324 18.8979 10.3518C18.8979 10.3528 19.2974 10.7397 19.7356 10.4337Z" fill="white"/>
<path d="M19.6252 8.7722C19.6252 8.7722 19.1578 8.40678 18.8105 8.78417C18.8105 8.78465 19.2612 9.13666 19.6252 8.7722Z" fill="white"/>
<path d="M16.2638 9.18288C16.2638 9.18384 15.9606 8.72551 15.4189 8.95587C15.4189 8.95731 15.7039 9.39888 16.2638 9.18288Z" fill="white"/>
<path d="M16.8615 9.01187C16.8615 9.01283 16.5602 8.55067 16.0181 8.77001C16.0181 8.77145 16.3011 9.2159 16.8615 9.01187Z" fill="white"/>
<path d="M17.3469 8.7123C17.3469 8.71374 17.0744 8.29228 16.5835 8.48146C16.5835 8.48242 16.8402 8.88855 17.3469 8.7123Z" fill="white"/>
<path d="M17.5373 8.25233C17.5373 8.25281 17.2246 8.00903 16.9746 8.27196C16.9751 8.27244 17.2749 8.51047 17.5373 8.25233Z" fill="white"/>
<path d="M16.2254 7.56398C16.2254 7.56206 15.5899 7.76034 15.9486 8.43419C15.9486 8.43227 16.577 8.2589 16.2254 7.56398Z" fill="white"/>
<path d="M16.7546 7.39454C16.7546 7.3931 16.2426 7.55259 16.5434 8.10048C16.5434 8.09952 17.0501 7.95967 16.7546 7.39454Z" fill="white"/>
<path d="M15.5567 7.78614C15.5567 7.78518 15.0428 7.96478 15.3455 8.5074C15.3455 8.50644 15.8541 8.34648 15.5567 7.78614Z" fill="white"/>
<path d="M13.3641 4.00781C13.3636 4.00733 12.968 4.35504 13.4522 4.79038C13.4522 4.7899 13.8502 4.46423 13.3641 4.00781Z" fill="white"/>
<path d="M12.3085 5.14795C12.3085 5.14747 11.9134 5.51002 12.3981 5.93052C12.3981 5.93004 12.7956 5.58856 12.3085 5.14795Z" fill="white"/>
<path d="M13.687 3.18945C13.6865 3.1885 13.1784 3.63677 13.8115 4.2043C13.8115 4.20334 14.323 3.78524 13.687 3.18945Z" fill="white"/>
<path d="M13.8813 5.07656C13.8813 5.07704 14.4767 5.50711 14.9652 4.9937C14.9656 4.99418 14.3962 4.54064 13.8813 5.07656Z" fill="white"/>
<path d="M12.4257 8.4763C12.4257 8.47247 13.3984 8.31299 13.1354 7.33406C13.1359 7.33023 12.178 7.46672 12.4257 8.4763Z" fill="white"/>
<path d="M16.6836 5.82576C16.6841 5.82288 17.6616 6.14903 17.867 5.25871C17.868 5.25583 16.9183 4.89041 16.6836 5.82576Z" fill="white"/>
<path d="M17.4513 4.9452C17.4518 4.94042 18.4317 5.04482 18.2952 4.0726C18.2962 4.06781 17.334 3.93563 17.4513 4.9452Z" fill="white"/>
<path d="M17.074 8.00199C17.0744 7.99768 18.0208 7.91866 17.709 6.94356C17.7095 6.93925 16.7756 6.99528 17.074 8.00199Z" fill="white"/>
<path d="M18.6264 7.41046C18.6269 7.40758 19.3223 7.38651 19.0934 6.66477C19.0939 6.66237 18.408 6.66668 18.6264 7.41046Z" fill="white"/>
<path d="M17.3712 6.83319C17.3712 6.8308 18.0718 6.78482 17.841 6.05973C17.8415 6.05685 17.1504 6.08607 17.3712 6.83319Z" fill="white"/>
<path d="M19.5561 7.44799C19.5566 7.4432 20.3842 7.29761 19.9105 6.37759C19.911 6.37232 19.0892 6.50307 19.5561 7.44799Z" fill="white"/>
<path d="M16.2164 3.53306C16.2164 3.53019 16.9621 3.16093 16.3012 2.29982C16.3012 2.29695 15.556 2.65183 16.2164 3.53306Z" fill="white"/>
<path d="M12.721 1.32105C12.721 1.31817 13.4212 1.21281 13.2115 0.506393C13.2119 0.503998 12.5223 0.594516 12.721 1.32105Z" fill="white"/>
<path d="M14.5856 1.68273C14.5851 1.68369 14.9237 1.17459 14.2077 0.73877C14.2077 0.739248 13.8615 1.22823 14.5856 1.68273Z" fill="white"/>
<path d="M15.0557 5.06476C15.0561 5.06141 16.0413 5.34924 16.2472 4.43401C16.2482 4.43066 15.2899 4.10595 15.0557 5.06476Z" fill="white"/>
<path d="M14.2407 4.44074C14.2407 4.44074 14.792 4.84639 15.2446 4.37752C15.245 4.378 14.7177 3.95224 14.2407 4.44074Z" fill="white"/>
<path d="M14.6245 3.88079C14.625 3.88031 15.2284 4.22706 15.5852 3.70024C15.5852 3.70024 15.0048 3.33146 14.6245 3.88079Z" fill="white"/>
<path d="M16.3278 3.60822C16.3283 3.60582 15.6641 3.60151 15.7982 4.27536C15.7982 4.27297 16.4495 4.29212 16.3278 3.60822Z" fill="white"/>
<path d="M18.0045 5.94242C18.0055 5.93811 18.9715 6.06071 18.8273 5.10765C18.8278 5.10238 17.8795 4.95295 18.0045 5.94242Z" fill="white"/>
<path d="M18.2617 6.52997C18.2627 6.52806 19.1894 6.87576 19.3589 6.04099C19.3594 6.03907 18.46 5.65402 18.2617 6.52997Z" fill="white"/>
<path d="M14.9141 3.32392C14.9141 3.32344 15.5175 3.67737 15.8743 3.15726C15.8743 3.15678 15.2943 2.7813 14.9141 3.32392Z" fill="white"/>
<path d="M13.2082 8.50485C13.2082 8.50389 12.6354 8.38464 12.5181 8.94738C12.5185 8.9469 13.0746 9.0719 13.2082 8.50485Z" fill="white"/>
<path d="M12.313 10.0941C12.313 10.0931 12.9859 10.255 13.166 9.60224C13.166 9.6008 12.5122 9.41977 12.313 10.0941Z" fill="white"/>
<path d="M12.3408 10.6244C12.3413 10.624 13.0017 10.8811 13.3059 10.2475C13.3059 10.247 12.667 9.97023 12.3408 10.6244Z" fill="white"/>
<path d="M12.3984 9.47324C12.3989 9.47228 12.9751 9.61117 13.1259 9.0513C13.1264 9.05082 12.5661 8.89661 12.3984 9.47324Z" fill="white"/>
<path d="M15.7898 5.32202C15.7898 5.32154 15.2644 5.04615 15.0024 5.52748C15.0024 5.527 15.5096 5.79615 15.7898 5.32202Z" fill="white"/>
<path d="M14.8774 6.09388C14.8774 6.09388 15.3913 6.39321 15.7055 5.94062C15.7055 5.94062 15.2117 5.62549 14.8774 6.09388Z" fill="white"/>
<path d="M16.2676 6.29313C16.2676 6.29313 16.7786 6.60874 17.0913 6.17483C17.0913 6.17531 16.6009 5.84294 16.2676 6.29313Z" fill="white"/>
<path d="M16.0288 6.68905C16.0293 6.68953 16.5001 7.04968 16.8851 6.66271C16.8851 6.66319 16.4354 6.28819 16.0288 6.68905Z" fill="white"/>
<path d="M15.7407 7.16836C15.7412 7.16884 16.2125 7.5242 16.5975 7.131C16.598 7.13148 16.1473 6.76175 15.7407 7.16836Z" fill="white"/>
<path d="M13.6724 6.7627C13.6724 6.76365 13.6518 7.2694 14.307 7.35752C14.307 7.35896 14.3439 6.86088 13.6724 6.7627Z" fill="white"/>
<path d="M13.606 7.37402C13.606 7.37546 13.5821 7.97603 14.3599 8.07805C14.3594 8.07948 14.403 7.48753 13.606 7.37402Z" fill="white"/>
<path d="M14.7139 6.7289C14.7143 6.72795 15.2733 6.93245 15.462 6.41377C15.462 6.41281 14.9203 6.19251 14.7139 6.7289Z" fill="white"/>
<mask id="mask3_1_5522" style="mask-type:luminance" maskUnits="userSpaceOnUse" x="0" y="8" width="2" height="2">
<path d="M0 8.375H1.34722V9.35584H0V8.375Z" fill="white"/>
</mask>
<g mask="url(#mask3_1_5522)">
<path d="M0.0161133 8.47608C0.0175501 8.48182 0.00749271 9.39705 1.25558 9.24476C1.25701 9.25098 1.28623 8.29217 0.0161133 8.47608Z" fill="white"/>
</g>
<path d="M3.14096 4.12598C3.14048 4.12741 2.35504 4.92004 3.06097 5.6231C3.0605 5.62502 3.84689 4.87167 3.14096 4.12598Z" fill="white"/>
<path d="M16.9287 3.48099C16.9287 3.47668 16.125 3.94124 16.8233 4.93836C16.8233 4.93357 17.6236 4.52074 16.9287 3.48099Z" fill="white"/>
<path d="M13.8098 1.13478C13.8093 1.1319 12.9966 1.67932 13.7078 2.63621C13.7078 2.63286 14.5176 2.13621 13.8098 1.13478Z" fill="white"/>
<path d="M4.75502 2.41895C4.75502 2.41895 4.28136 2.84423 4.66115 3.28916C4.66115 3.28916 5.13289 2.88734 4.75502 2.41895Z" fill="white"/>
<path d="M4.76755 1.98535C4.76755 1.98727 4.67033 2.5275 5.34562 2.58545C5.3461 2.58784 5.45577 2.04761 4.76755 1.98535Z" fill="white"/>
<path d="M5.59878 1.31641C5.5983 1.31928 5.00156 2.18901 5.94169 2.74936C5.94169 2.75271 6.54849 1.90932 5.59878 1.31641Z" fill="white"/>
<path d="M0.855957 6.22083C0.856915 6.22371 0.986225 6.90426 1.96851 6.63989C1.96946 6.64373 1.85835 5.93204 0.855957 6.22083Z" fill="white"/>
<path d="M4.58651 7.38135C4.58699 7.38422 4.55107 8.11027 5.49408 8.12847C5.49456 8.13135 5.55012 7.39715 4.58651 7.38135Z" fill="white"/>
<path d="M3.89016 2.60254C3.89016 2.60589 3.1847 3.50627 4.08365 4.12696C4.08317 4.13032 4.79534 3.26059 3.89016 2.60254Z" fill="white"/>
<path d="M0.183594 9.72495C0.184552 9.72639 0.551889 10.508 1.78082 10.0185C1.78225 10.0214 1.43982 9.18759 0.183594 9.72495Z" fill="white"/>
<path d="M1.60976 8.19629C1.61024 8.20204 1.16723 9.15845 2.26158 9.49227C2.26206 9.49801 2.71848 8.53968 1.60976 8.19629Z" fill="white"/>
<path d="M5.20361 8.88376C5.20361 8.88471 5.36741 9.47044 6.15237 9.24056C6.15285 9.24199 6.00965 8.64573 5.20361 8.88376Z" fill="white"/>
<path d="M5.33399 4.4751C5.33351 4.47558 4.75593 4.96887 5.27508 5.46935C5.27461 5.46935 5.85219 5.0024 5.33399 4.4751Z" fill="white"/>
<path d="M4.7996 10.1176C4.80008 10.119 4.56828 9.43414 3.66406 9.78519C3.66454 9.78663 3.86617 10.438 4.7996 10.1176Z" fill="white"/>
<path d="M4.90423 3.99756C4.90423 3.99756 4.40087 4.40369 4.81179 4.83712C4.81179 4.83712 5.31371 4.4535 4.90423 3.99756Z" fill="white"/>
<path d="M5.93116 3.37207C5.93164 3.37351 5.69888 2.80023 4.93164 3.14506C4.93212 3.1465 5.13902 3.68912 5.93116 3.37207Z" fill="white"/>
<path d="M6.34032 4.05242C6.3408 4.05386 6.10804 3.47627 5.33984 3.80769C5.34032 3.80912 5.54722 4.35749 6.34032 4.05242Z" fill="white"/>
<path d="M6.76899 4.55979C6.76899 4.56074 6.60616 4.15366 6.06641 4.373C6.06641 4.37348 6.212 4.76525 6.76899 4.55979Z" fill="white"/>
<path d="M7.27829 4.32083C7.27829 4.32083 7.65808 3.99468 7.28548 3.64746C7.28548 3.64746 6.90617 3.9602 7.27829 4.32083Z" fill="white"/>
<path d="M7.90128 7.03663C7.90128 7.03711 8.28011 6.71958 7.90894 6.3623C7.90894 6.3623 7.53011 6.66547 7.90128 7.03663Z" fill="white"/>
<path d="M14.3414 8.67901C14.3414 8.67949 14.4204 8.24893 13.8615 8.11914C13.8615 8.11962 13.7724 8.53485 14.3414 8.67901Z" fill="white"/>
<path d="M7.26068 5.02724C7.26068 5.0282 7.09833 4.61776 6.55762 4.82801C6.55762 4.82897 6.70321 5.22408 7.26068 5.02724Z" fill="white"/>
<path d="M6.5672 3.48713C6.5672 3.48713 6.88138 3.14804 6.49489 2.87793C6.49489 2.87841 6.17975 3.2036 6.5672 3.48713Z" fill="white"/>
<path d="M6.97314 5.3497C6.97314 5.3497 7.19824 5.68686 7.66184 5.43495C7.66232 5.43542 7.45207 5.09108 6.97314 5.3497Z" fill="white"/>
<path d="M6.85327 3.88918C6.85327 3.8887 7.2503 3.63295 6.97635 3.26514C6.97635 3.26466 6.58267 3.50795 6.85327 3.88918Z" fill="white"/>
<path d="M3.88255 6.40723C3.88207 6.40627 3.25276 6.75158 3.54443 7.32006C3.54395 7.31911 4.16608 7.00158 3.88255 6.40723Z" fill="white"/>
<path d="M4.19283 7.01025C4.19283 7.00978 3.56304 7.34646 3.85423 7.92069C3.85375 7.92022 4.47683 7.61035 4.19283 7.01025Z" fill="white"/>
<path d="M4.3188 7.7168C4.3188 7.7168 3.86622 8.0712 4.22828 8.46632C4.22828 8.46632 4.67896 8.13107 4.3188 7.7168Z" fill="white"/>
<path d="M2.36335 10.3913C2.36335 10.3908 2.07408 10.0326 1.54199 10.4123C1.54199 10.4123 1.80923 10.7615 2.36335 10.3913Z" fill="white"/>
<path d="M3.80124 10.9856C3.80124 10.9851 3.51101 10.6087 2.97461 10.9707C2.97461 10.9707 3.24377 11.3371 3.80124 10.9856Z" fill="white"/>
<path d="M2.87378 10.006C2.87378 10.0069 3.11277 9.52754 2.55338 9.3877C2.55338 9.38913 2.30673 9.84747 2.87378 10.006Z" fill="white"/>
<path d="M3.45763 10.249C3.45763 10.2499 3.69757 9.77196 3.13627 9.62109C3.13675 9.62253 2.88914 10.0794 3.45763 10.249Z" fill="white"/>
<path d="M3.62162 8.86075C3.6221 8.86123 3.35773 8.35022 2.64844 8.73192C2.64892 8.73288 2.88742 9.22234 3.62162 8.86075Z" fill="white"/>
<path d="M3.6302 5.77002C3.62972 5.76954 3.10338 6.08563 3.37445 6.55259C3.37445 6.55211 3.89552 6.259 3.6302 5.77002Z" fill="white"/>
<path d="M5.45858 10.5052C5.45906 10.5052 5.16644 10.1426 4.66309 10.4865C4.66309 10.4865 4.9356 10.8404 5.45858 10.5052Z" fill="white"/>
<path d="M5.40638 13.9608C5.40638 13.9608 5.1152 13.5925 4.61328 13.924C4.61376 13.9235 4.88531 14.2846 5.40638 13.9608Z" fill="white"/>
<path d="M1.61719 7.63417C1.61719 7.63513 1.69382 8.10495 2.33845 7.90189C2.33893 7.90381 2.27667 7.4244 1.61719 7.63417Z" fill="white"/>
<path d="M4.71943 3.36914C4.71943 3.36866 4.15334 3.67374 4.41005 4.18667C4.40957 4.18571 4.96895 3.90554 4.71943 3.36914Z" fill="white"/>
<path d="M8.39565 10.6577C8.39565 10.6577 7.94498 10.2324 7.37793 10.7104C7.37793 10.7104 7.8037 11.1252 8.39565 10.6577Z" fill="white"/>
<path d="M5.59574 11.4775C5.59526 11.4775 5.08329 11.8181 5.44919 12.2955C5.44919 12.296 5.95829 11.9766 5.59574 11.4775Z" fill="white"/>
<path d="M6.16087 11.6416C6.16087 11.6416 5.76575 11.9002 6.04784 12.2728C6.04784 12.2728 6.44056 12.0305 6.16087 11.6416Z" fill="white"/>
<path d="M10.0026 8.16162C10.0021 8.16067 9.43077 8.37523 9.68556 8.94275C9.68556 8.94132 10.2493 8.74831 10.0026 8.16162Z" fill="white"/>
<path d="M4.82471 8.35288C4.82471 8.35383 5.03352 8.79828 5.64702 8.5296C5.64702 8.53056 5.45641 8.07654 4.82471 8.35288Z" fill="white"/>
<path d="M5.87646 9.56524C5.87646 9.5662 6.15328 10.1529 6.94783 9.82578C6.9483 9.82721 6.69495 9.22712 5.87646 9.56524Z" fill="white"/>
<path d="M6.61328 10.1857C6.61376 10.1861 6.99403 10.7292 7.73445 10.3159C7.73493 10.3169 7.37861 9.75893 6.61328 10.1857Z" fill="white"/>
<path d="M8.44469 9.99861C8.44469 9.99861 8.96049 9.52399 8.39009 9.02734C8.39009 9.02782 7.87333 9.48185 8.44469 9.99861Z" fill="white"/>
<path d="M7.64819 9.62495C7.64819 9.62591 8.10317 9.0919 7.4662 8.67236C7.4662 8.67332 7.00739 9.18434 7.64819 9.62495Z" fill="white"/>
<path d="M6.92431 9.12679C6.92431 9.12727 7.35008 8.65313 6.79452 8.26855C6.79404 8.26951 6.36588 8.72306 6.92431 9.12679Z" fill="white"/>
<path d="M6.23788 8.63887C6.23788 8.63982 6.63587 8.14126 6.05541 7.79883C6.05541 7.79979 5.65407 8.27728 6.23788 8.63887Z" fill="white"/>
<path d="M7.36164 6.80241C7.36164 6.80337 7.87984 6.22818 7.20311 5.76074C7.20311 5.7617 6.68204 6.31247 7.36164 6.80241Z" fill="white"/>
<path d="M6.51954 6.30439C6.51906 6.30487 7.07653 5.7881 6.49272 5.28906C6.49272 5.28954 5.93573 5.78475 6.51954 6.30439Z" fill="white"/>
<path d="M5.83428 5.83383C5.83428 5.83383 6.39271 5.40184 5.93054 4.90088C5.93006 4.90088 5.37499 5.31467 5.83428 5.83383Z" fill="white"/>
<path d="M18.8308 10.9053C18.8308 10.9081 19.0731 11.5777 18.2331 11.6079C18.2331 11.6103 17.9778 10.9393 18.8308 10.9053Z" fill="white"/>
<path d="M19.5681 10.811C19.5676 10.813 19.7994 11.3762 19.1064 11.413C19.1064 11.415 18.865 10.8527 19.5681 10.811Z" fill="white"/>
<path d="M20.1631 10.5293C20.1631 10.5307 20.5271 11.0667 19.9342 11.2348C19.9342 11.2367 19.5645 10.7094 20.1631 10.5293Z" fill="white"/>
<path d="M15.3504 11.2608C15.3504 11.2632 15.2426 10.5247 16.188 10.6018C16.188 10.6042 16.3159 11.3068 15.3504 11.2608Z" fill="white"/>
<path d="M16.4784 11.5C16.4779 11.5029 16.2878 10.7931 17.1738 10.7999C17.1733 10.8022 17.3802 11.4771 16.4784 11.5Z" fill="white"/>
<path d="M17.4472 11.5747C17.4472 11.5771 17.1938 10.9358 17.9707 10.875C17.9702 10.8769 18.236 11.488 17.4472 11.5747Z" fill="white"/>
<path d="M6.53857 8.00117C6.53905 7.99974 7.19231 8.39868 7.7857 7.71909C7.7857 7.71813 7.15831 7.29571 6.53857 8.00117Z" fill="white"/>
<path d="M5.66406 7.57763C5.66406 7.57619 6.31684 7.95741 6.90879 7.26584C6.90879 7.26489 6.28188 6.85923 5.66406 7.57763Z" fill="white"/>
<path d="M3.00439 9.29928C3.00439 9.29928 3.34395 9.80407 4.08102 9.37016C4.0815 9.37064 3.76397 8.84813 3.00439 9.29928Z" fill="white"/>
<path d="M2.05811 10.7722C2.05858 10.7712 2.52602 11.1725 3.16347 10.6208C3.16347 10.6199 2.71759 10.2018 2.05811 10.7722Z" fill="white"/>
<mask id="mask4_1_5522" style="mask-type:luminance" maskUnits="userSpaceOnUse" x="0" y="10" width="2" height="1">
<path d="M0 10.3359H1.22462V10.8264H0V10.3359Z" fill="white"/>
</mask>
<g mask="url(#mask4_1_5522)">
<path d="M0.0361328 10.6836C0.0361328 10.6821 0.498298 11.0466 1.12857 10.4729C1.12857 10.4714 0.687474 10.0892 0.0361328 10.6836Z" fill="white"/>
</g>
<path d="M5.16113 7.05947C5.16113 7.05851 5.66065 7.34012 6.11228 6.80181C6.11228 6.80133 5.63288 6.50344 5.16113 7.05947Z" fill="white"/>
<path d="M4.45654 6.49059C4.45702 6.49059 4.85309 6.88857 5.45319 6.42545C5.45319 6.42545 5.07723 6.01022 4.45654 6.49059Z" fill="white"/>
<path d="M3.40839 12.5991C3.40887 12.6006 3.29585 13.2428 4.11146 13.2706C4.11194 13.272 4.24029 12.6307 3.40839 12.5991Z" fill="white"/>
<path d="M6.50886 13.0773C6.50886 13.0782 6.62667 12.5289 5.94612 12.458C5.9466 12.4594 5.81537 12.9858 6.50886 13.0773Z" fill="white"/>
<path d="M3.77921 13.6179C3.77969 13.6169 3.34914 13.3018 2.875 13.7802C2.875 13.7793 3.28257 14.0934 3.77921 13.6179Z" fill="white"/>
<path d="M7.58686 12.6148C7.58638 12.6153 7.83016 12.2125 7.34021 11.9912C7.34021 11.9917 7.09165 12.3782 7.58686 12.6148Z" fill="white"/>
<path d="M5.81187 13.2251C5.81187 13.2265 5.94836 12.5943 5.16675 12.5229C5.16675 12.5244 5.01541 13.1288 5.81187 13.2251Z" fill="white"/>
<path d="M4.99734 13.3058C4.99734 13.3077 5.12857 12.6932 4.36994 12.6367C4.36994 12.6382 4.22339 13.2244 4.99734 13.3058Z" fill="white"/>
<path d="M6.63889 12.1953C6.63889 12.1967 6.48994 12.7126 7.13506 12.8294C7.13506 12.8304 7.29597 12.3227 6.63889 12.1953Z" fill="white"/>
<path d="M2.43652 7.92824C2.437 7.93016 2.49926 8.57383 3.36516 8.36981C3.36564 8.37221 3.32158 7.71368 2.43652 7.92824Z" fill="white"/>
<path d="M2.2793 7.27821C2.27978 7.2806 2.36215 7.87878 3.17633 7.65369C3.17681 7.6556 3.11167 7.0421 2.2793 7.27821Z" fill="white"/>
<path d="M2.18652 6.60386C2.187 6.60529 2.26124 7.14313 2.99256 6.93096C2.99304 6.93336 2.93461 6.38355 2.18652 6.60386Z" fill="white"/>
<path d="M2.4189 5.74609C2.41938 5.74753 2.28001 6.19629 2.82599 6.22215C2.82599 6.22358 2.97398 5.7777 2.4189 5.74609Z" fill="white"/>
<path d="M0.524902 7.18315C0.524902 7.18363 0.660918 7.55528 1.2045 7.29139C1.20498 7.29187 1.08189 6.91064 0.524902 7.18315Z" fill="white"/>
<path d="M3.95605 6.0119C3.95605 6.01143 4.35213 6.40079 4.95079 5.92857C4.95079 5.92857 4.57483 5.52148 3.95605 6.0119Z" fill="white"/>
<path d="M3.64258 5.26485C3.64306 5.26629 3.80685 5.78353 4.52716 5.51102C4.52764 5.51245 4.38156 4.98037 3.64258 5.26485Z" fill="white"/>
<path d="M1.45596 5.1377C1.45692 5.14201 1.12886 5.94325 2.07713 6.04191C2.07761 6.04622 2.41813 5.24066 1.45596 5.1377Z" fill="white"/>
<path d="M2.20907 4.23535C2.20907 4.23775 1.73446 4.8819 2.41884 5.18842C2.41884 5.19033 2.89873 4.56246 2.20907 4.23535Z" fill="white"/>
<path d="M3.55273 4.63729C3.55273 4.63825 3.63176 5.07264 4.22084 4.89543C4.22132 4.89639 4.15618 4.4553 3.55273 4.63729Z" fill="white"/>
<path d="M15.0024 12.8607C15.0024 12.8612 15.171 12.4416 15.8353 12.6825C15.8353 12.683 15.6868 13.0882 15.0024 12.8607Z" fill="white"/>
<path d="M15.5117 13.3814C15.5117 13.3828 15.5079 12.9254 16.2023 12.9676C16.2019 12.9685 16.2229 13.4053 15.5117 13.3814Z" fill="white"/>
<path d="M16.2035 13.4971C16.2035 13.4981 16.1 13.0436 16.7748 12.9746C16.7748 12.976 16.8921 13.4085 16.2035 13.4971Z" fill="white"/>
<path d="M16.9208 13.5602C16.9208 13.5617 16.7436 13.1192 17.3859 12.9697C17.3859 12.9712 17.5746 13.3912 16.9208 13.5602Z" fill="white"/>
<path d="M17.6203 13.4694C17.6203 13.4708 17.5001 13.0201 18.1662 12.9512C18.1658 12.9531 18.2994 13.3803 17.6203 13.4694Z" fill="white"/>
<path d="M18.2945 13.5297C18.294 13.5316 18.2351 12.9741 19.0795 13.0105C19.079 13.0129 19.1585 13.5388 18.2945 13.5297Z" fill="white"/>
<path d="M16.6201 14.9151C16.6201 14.9127 17.2772 14.5664 17.9333 15.3797C17.9329 15.3773 17.3098 15.7317 16.6201 14.9151Z" fill="white"/>
<path d="M14.4138 12.7086C14.4138 12.7096 14.1447 12.1962 14.7299 11.8149C14.7304 11.8164 15.0063 12.3039 14.4138 12.7086Z" fill="white"/>
<path d="M13.8845 13.0228C13.8845 13.0233 13.4908 12.6249 13.9295 12.0425C13.9295 12.043 14.3242 12.4184 13.8845 13.0228Z" fill="white"/>
<path d="M16.394 12.6189C16.3945 12.6175 15.6536 12.6242 15.6924 11.8661C15.6929 11.8642 16.418 11.8469 16.394 12.6189Z" fill="white"/>
<path d="M17.3194 12.6943C17.3199 12.6929 16.5809 12.6857 16.6207 11.9348C16.6207 11.9328 17.3443 11.9305 17.3194 12.6943Z" fill="white"/>
<mask id="mask5_1_5522" style="mask-type:luminance" maskUnits="userSpaceOnUse" x="20" y="10" width="2" height="2">
<path d="M20.3877 10.6377H21.1176V11.2603H20.3877V10.6377Z" fill="white"/>
</mask>
<g mask="url(#mask5_1_5522)">
<path d="M21.0908 10.6768C21.0904 10.6797 21.3135 11.3047 20.4673 11.2219C20.4668 11.2247 20.2316 10.5916 21.0908 10.6768Z" fill="white"/>
</g>
<path d="M20.9157 9.53833C20.9148 9.54216 21.0273 10.3726 19.875 10.0661C19.8736 10.0704 19.7438 9.2093 20.9157 9.53833Z" fill="white"/>
<path d="M18.043 12.6463C18.0435 12.6458 17.4793 12.63 17.51 12.0606C17.51 12.0596 18.0622 12.0668 18.043 12.6463Z" fill="white"/>
<path d="M18.9612 12.4635C18.9612 12.4616 18.388 12.5655 18.2515 11.9942C18.2515 11.9927 18.8094 11.8821 18.9612 12.4635Z" fill="white"/>
<path d="M19.6707 12.359C19.6707 12.3576 19.0994 12.4495 18.9629 11.881C18.9634 11.8791 19.5189 11.7805 19.6707 12.359Z" fill="white"/>
<path d="M20.4194 12.0158C20.4194 12.0139 19.9371 12.2764 19.5664 11.7927C19.5664 11.7912 20.0305 11.5211 20.4194 12.0158Z" fill="white"/>
<path d="M17.2608 14.4702C17.2613 14.4692 16.6669 14.5602 16.5889 13.9831C16.5889 13.9816 17.1684 13.8835 17.2608 14.4702Z" fill="white"/>
<path d="M16.6572 15.4342C16.6577 15.4332 16.0447 15.4586 16.0629 14.883C16.0629 14.882 16.662 14.8485 16.6572 15.4342Z" fill="white"/>
<path d="M15.7547 15.2551C15.7547 15.2547 15.1527 15.0866 15.4094 14.5684C15.4094 14.5679 16.0033 14.7245 15.7547 15.2551Z" fill="white"/>
<path d="M14.9792 14.9339C14.9792 14.9344 14.4648 14.5967 14.9184 14.1997C14.9184 14.2002 15.4308 14.5215 14.9792 14.9339Z" fill="white"/>
<path d="M14.1908 14.5811C14.1908 14.5821 13.9106 14.0749 14.5428 13.9341C14.5428 13.9355 14.8306 14.4226 14.1908 14.5811Z" fill="white"/>
<path d="M16.565 14.3996C16.565 14.3981 15.9701 14.4973 15.8916 13.9173C15.8916 13.9163 16.4716 13.8095 16.565 14.3996Z" fill="white"/>
<path d="M17.9962 14.3784C17.9962 14.3774 17.4033 14.4593 17.3257 13.8856C17.3262 13.8841 17.9037 13.795 17.9962 14.3784Z" fill="white"/>
<path d="M18.7998 14.0441C18.7998 14.0422 18.2773 14.2998 17.9512 13.808C17.9512 13.8065 18.455 13.5426 18.7998 14.0441Z" fill="white"/>
<path d="M20.9122 11.6674C20.9122 11.6665 20.5549 11.9016 20.2153 11.5367C20.2153 11.5357 20.5578 11.2943 20.9122 11.6674Z" fill="white"/>
<path d="M0.281738 11.1648C0.282217 11.1629 0.861719 11.7778 1.8531 11.0407C1.85358 11.0393 1.3009 10.3889 0.281738 11.1648Z" fill="white"/>
<path d="M1.97949 13.1838C1.97949 13.1828 2.45986 13.7657 3.32193 13.1929C3.3224 13.1924 2.86838 12.5894 1.97949 13.1838Z" fill="white"/>
<path d="M3.01562 14.289C3.01562 14.2875 3.56543 14.8019 4.32118 14.1913C4.32118 14.1903 3.79819 13.6601 3.01562 14.289Z" fill="white"/>
<path d="M2.62256 12.2438C2.62208 12.2419 3.32323 12.2768 3.50522 11.5637C3.50522 11.5618 2.82323 11.5153 2.62256 12.2438Z" fill="white"/>
<path d="M4.60857 12.2902C4.60857 12.2892 5.30205 12.0397 5.08271 11.3721C5.08223 11.3711 4.39976 11.6053 4.60857 12.2902Z" fill="white"/>
<path d="M3.60592 12.4408C3.60544 12.4389 4.41195 12.3215 4.28599 11.5581C4.28551 11.5567 3.49481 11.6616 3.60592 12.4408Z" fill="white"/>
<path d="M1.86084 11.8757C1.86084 11.8742 2.39389 12.1079 2.82013 11.5246C2.82013 11.5237 2.30672 11.2775 1.86084 11.8757Z" fill="white"/>
<path d="M1.37402 11.5823C1.37402 11.5813 1.76866 11.8026 2.15659 11.3552C2.15659 11.3548 1.77872 11.1244 1.37402 11.5823Z" fill="white"/>
<path d="M3.93164 14.7059C3.93164 14.7054 4.32915 14.9674 4.72091 14.5426C4.72091 14.5421 4.34017 14.273 3.93164 14.7059Z" fill="white"/>
<path d="M6.46343 14.9009C6.46295 14.9004 7.11669 14.5872 6.77473 13.9497C6.77473 13.9492 6.12866 14.2442 6.46343 14.9009Z" fill="white"/>
<path d="M7.48112 14.5773C7.48112 14.5778 8.10804 14.0893 7.46149 13.561C7.46101 13.5615 6.83457 14.0275 7.48112 14.5773Z" fill="white"/>
<path d="M5.50615 14.9824C5.50615 14.9819 6.16132 14.9067 6.13163 14.2539C6.13163 14.253 5.49034 14.3147 5.50615 14.9824Z" fill="white"/>
<path d="M4.84375 14.9894C4.84375 14.9889 5.36913 14.9702 5.40553 14.4448C5.40553 14.4444 4.8926 14.452 4.84375 14.9894Z" fill="white"/>
<path d="M27.1177 7.57617H30.9595C32.0807 7.57617 32.9531 7.84403 33.5769 8.37209C34.1968 8.90398 34.5105 9.66546 34.5105 10.6527C34.5105 11.6859 34.1968 12.4856 33.5769 13.0558C32.9531 13.6297 32.0807 13.9129 30.9595 13.9129H29.3524V16.3925H27.1177V7.57617ZM29.3524 9.33638V12.1527H30.8371C31.3345 12.1527 31.7172 12.0303 31.985 11.7854C32.2491 11.5405 32.383 11.1884 32.383 10.7292C32.383 10.27 32.2491 9.92566 31.985 9.68842C31.7172 9.455 31.3345 9.33638 30.8371 9.33638H29.3524Z" fill="white"/>
<path d="M44.9052 7.5C46.2713 7.5 47.4078 7.92857 48.3185 8.78571C49.2254 9.6352 49.6807 10.6952 49.6807 11.9694C49.6807 13.2551 49.2215 14.3342 48.3032 15.199C47.3925 16.0676 46.2598 16.5 44.9052 16.5C43.5468 16.5 42.4142 16.0714 41.5073 15.2143C40.5966 14.3495 40.145 13.2666 40.145 11.9694C40.145 10.6837 40.5966 9.6199 41.5073 8.77041C42.4142 7.92475 43.5468 7.5 44.9052 7.5ZM44.9205 9.38265C44.2356 9.38265 43.6501 9.6352 43.1603 10.1327C42.6782 10.6339 42.4409 11.25 42.4409 11.9847C42.4409 12.7194 42.6858 13.3431 43.1756 13.852C43.6654 14.3648 44.2471 14.6173 44.9205 14.6173C45.6017 14.6173 46.1795 14.3648 46.6501 13.852C47.1284 13.3431 47.3695 12.7194 47.3695 11.9847C47.3695 11.25 47.1284 10.6339 46.6501 10.1327C46.1795 9.6352 45.6017 9.38265 44.9205 9.38265Z" fill="white"/>
<path d="M61.2204 16.393L59.9041 13.9134H58.1439V16.393H55.9092V7.57666H59.8429C61.0138 7.57666 61.9168 7.84452 62.552 8.37258C63.1949 8.90447 63.5163 9.66595 63.5163 10.6532C63.5163 12.0116 62.9806 12.9568 61.9092 13.4848L63.7612 16.393H61.2204ZM58.1439 12.1532H59.8429C60.3326 12.1532 60.7076 12.0307 60.9755 11.7858C61.251 11.5409 61.3888 11.1889 61.3888 10.7297C61.3888 10.2705 61.251 9.92615 60.9755 9.68891C60.7076 9.45549 60.3326 9.33686 59.8429 9.33686H58.1439V12.1532Z" fill="white"/>
<path d="M76.8065 9.38246H74.1432V16.3927H71.9085V9.38246H69.2759V7.56104H76.8065V9.38246Z" fill="white"/>
<path d="M86.9892 7.5C88.3553 7.5 89.4918 7.92857 90.4025 8.78571C91.3094 9.6352 91.7647 10.6952 91.7647 11.9694C91.7647 13.2551 91.3055 14.3342 90.3872 15.199C89.4765 16.0676 88.3438 16.5 86.9892 16.5C85.6308 16.5 84.4981 16.0714 83.5912 15.2143C82.6805 14.3495 82.229 13.2666 82.229 11.9694C82.229 10.6837 82.6805 9.6199 83.5912 8.77041C84.4981 7.92475 85.6308 7.5 86.9892 7.5ZM87.0045 9.38265C86.3196 9.38265 85.7341 9.6352 85.2443 10.1327C84.7622 10.6339 84.5249 11.25 84.5249 11.9847C84.5249 12.7194 84.7698 13.3431 85.2596 13.852C85.7494 14.3648 86.331 14.6173 87.0045 14.6173C87.6856 14.6173 88.2634 14.3648 88.7341 13.852C89.2124 13.3431 89.4535 12.7194 89.4535 11.9847C89.4535 11.25 89.2124 10.6339 88.7341 10.1327C88.2634 9.6352 87.6856 9.38265 87.0045 9.38265Z" fill="white"/>
</svg>
