<svg width="22" height="15" viewBox="0 0 22 15" fill="none" xmlns="http://www.w3.org/2000/svg">
<path d="M4.41675 0C3.42219 0 2.46836 0.395088 1.7651 1.09835C1.06184 1.80161 0.666748 2.75544 0.666748 3.75V4.5H21.6667V3.75C21.6667 2.75544 21.2717 1.80161 20.5684 1.09835C19.8651 0.395088 18.9113 0 17.9167 0H4.41675ZM21.6667 6H0.666748V11.25C0.666748 12.2446 1.06184 13.1984 1.7651 13.9017C2.46836 14.6049 3.42219 15 4.41675 15H17.9167C18.9113 15 19.8651 14.6049 20.5684 13.9017C21.2717 13.1984 21.6667 12.2446 21.6667 11.25V6ZM14.9167 10.5H17.9167C18.1157 10.5 18.3064 10.579 18.4471 10.7197C18.5877 10.8603 18.6667 11.0511 18.6667 11.25C18.6667 11.4489 18.5877 11.6397 18.4471 11.7803C18.3064 11.921 18.1157 12 17.9167 12H14.9167C14.7178 12 14.5271 11.921 14.3864 11.7803C14.2458 11.6397 14.1667 11.4489 14.1667 11.25C14.1667 11.0511 14.2458 10.8603 14.3864 10.7197C14.5271 10.579 14.7178 10.5 14.9167 10.5Z" fill="white"/>
</svg>
