<svg width="69" height="24" viewBox="0 0 69 24" fill="none" xmlns="http://www.w3.org/2000/svg">
<path fill-rule="evenodd" clip-rule="evenodd" d="M23.9037 12.0088C23.9037 18.5591 18.5937 23.8691 12.0434 23.8691C5.4928 23.8691 0.182617 18.5591 0.182617 12.0088C0.182617 5.4585 5.4928 0.148464 12.0434 0.148464C18.5937 0.148464 23.9037 5.4585 23.9037 12.0088Z" fill="#ED342B"/>
<path fill-rule="evenodd" clip-rule="evenodd" d="M12.0435 17.0894C9.39054 11.0759 7.44535 5.45819 7.44535 5.45819H3.37842C3.37842 5.45819 5.85374 12.6686 10.4517 21.6855H13.6352C18.2332 12.6686 20.7084 5.45819 20.7084 5.45819H16.6414C16.6414 5.45819 14.6964 11.0759 12.0435 17.0894Z" fill="#FEFEFE"/>
<path fill-rule="evenodd" clip-rule="evenodd" d="M63.1218 11.3902C60.8227 11.3902 60.6461 13.866 60.6461 13.866H65.5969C65.5969 13.866 65.4204 11.3902 63.1218 11.3902ZM68.6033 16.3413H60.6461C60.6461 16.3413 60.8227 18.9941 64.3596 18.9941C66.1277 18.9941 67.896 18.463 67.896 18.463L68.2499 21.2922C68.2499 21.2922 66.4815 22 64.0058 22C60.4693 22 57.2864 20.2315 57.2864 15.2804C57.2864 11.3902 59.7621 8.91457 63.2986 8.91457C68.6033 8.91457 68.9567 14.2194 68.6033 16.3413ZM41.546 12.1631L42.0936 9.24349C42.0936 9.24349 37.8657 7.96061 34.4293 10.338V22.0166H38.0788V12.5277C39.5385 11.4333 41.546 12.1631 41.546 12.1631ZM26.3341 11.3902C24.0355 11.3902 23.8588 13.866 23.8588 13.866H28.8097C28.8097 13.866 28.6332 11.3902 26.3341 11.3902ZM31.8156 16.3413H23.8588C23.8588 16.3413 24.0355 18.9941 27.572 18.9941C29.3399 18.9941 31.1083 18.463 31.1083 18.463L31.4622 21.2922C31.4622 21.2922 29.6937 22 27.2181 22C23.6816 22 20.4985 20.2315 20.4985 15.2804C20.4985 11.3902 22.9743 8.91457 26.5108 8.91457C31.8156 8.91457 32.169 14.2194 31.8156 16.3413ZM50.4522 17.5531C48.5991 13.1054 47.6729 8.9167 47.6729 8.9167L43.9674 8.91715C43.9674 8.91715 45.8204 16.0705 48.9705 21.9978H51.9338C55.0841 16.0705 56.9371 8.91819 56.9371 8.91819H53.2314C53.2314 8.91819 52.3053 13.1054 50.4522 17.5531Z" fill="#03435F"/>
</svg>
