<svg width="12" height="12" viewBox="0 0 12 12" fill="none" xmlns="http://www.w3.org/2000/svg">
<path d="M8.5 11L8.35 10.25C8.25 10.2083 8.15633 10.1647 8.069 10.119C7.98167 10.0733 7.892 10.017 7.8 9.95L7.075 10.175L6.575 9.325L7.15 8.825C7.13333 8.725 7.125 8.61667 7.125 8.5C7.125 8.38333 7.13333 8.275 7.15 8.175L6.575 7.675L7.075 6.825L7.8 7.05C7.89167 6.98333 7.98133 6.92717 8.069 6.8815C8.15667 6.83583 8.25033 6.792 8.35 6.75L8.5 6H9.5L9.65 6.75C9.75 6.79167 9.84383 6.8355 9.9315 6.8815C10.0192 6.9275 10.1087 6.98367 10.2 7.05L10.925 6.825L11.425 7.675L10.85 8.175C10.8667 8.275 10.875 8.38333 10.875 8.5C10.875 8.61667 10.8667 8.725 10.85 8.825L11.425 9.325L10.925 10.175L10.2 9.95C10.1083 10.0167 10.0188 10.073 9.9315 10.119C9.84417 10.165 9.75033 10.2087 9.65 10.25L9.5 11H8.5ZM9 9.5C9.275 9.5 9.5105 9.40217 9.7065 9.2065C9.9025 9.01083 10.0003 8.77533 10 8.5C9.99967 8.22467 9.90183 7.98933 9.7065 7.794C9.51117 7.59867 9.27567 7.50067 9 7.5C8.72433 7.49933 8.489 7.59733 8.294 7.794C8.099 7.99067 8.001 8.226 8 8.5C7.999 8.774 8.097 9.0095 8.294 9.2065C8.491 9.4035 8.72633 9.50133 9 9.5ZM1 10V2H5L6 3H11V5.6375C10.7083 5.42917 10.3917 5.27083 10.05 5.1625C9.70833 5.05417 9.35417 5 8.9875 5C8.00417 5 7.17717 5.34383 6.5065 6.0315C5.83583 6.71917 5.50033 7.53783 5.5 8.4875C5.5 8.75417 5.52917 9.0125 5.5875 9.2625C5.64583 9.5125 5.73333 9.75833 5.85 10H1Z" fill="#F7685B"/>
</svg>
