<svg width="15" height="15" viewBox="0 0 15 15" fill="none" xmlns="http://www.w3.org/2000/svg">
<g clip-path="url(#clip0_232_3351)">
<path d="M7.50002 9.83333V12.75M7.50002 9.83333L11 12.75M7.50002 9.83333L4.00002 12.75M5.16669 4.58333V7.5M7.50002 5.75V7.5M9.83335 6.91667V7.5M13.3334 2.25H1.66669M2.25002 2.25H12.75V7.03333C12.75 8.01343 12.75 8.50347 12.5593 8.87782C12.3915 9.2071 12.1238 9.47482 11.7945 9.6426C11.4202 9.83333 10.9301 9.83333 9.95002 9.83333H5.05002C4.06993 9.83333 3.57988 9.83333 3.20554 9.6426C2.87625 9.47482 2.60854 9.2071 2.44076 8.87782C2.25002 8.50347 2.25002 8.01343 2.25002 7.03333V2.25Z" stroke="black" stroke-width="1.37005" stroke-linecap="round" stroke-linejoin="round"/>
</g>
<defs>
<clipPath id="clip0_232_3351">
<rect width="14" height="14" fill="white" transform="translate(0.5 0.5)"/>
</clipPath>
</defs>
</svg>
