<svg width="16" height="18" viewBox="0 0 16 18" fill="none" xmlns="http://www.w3.org/2000/svg">
<path d="M6.33331 3.37484V3.58317H9.66665V3.37484C9.66665 2.93281 9.49105 2.50889 9.17849 2.19633C8.86593 1.88377 8.44201 1.70817 7.99998 1.70817C7.55795 1.70817 7.13403 1.88377 6.82147 2.19633C6.50891 2.50889 6.33331 2.93281 6.33331 3.37484ZM5.29165 3.58317V3.37484C5.29165 2.65654 5.57699 1.96767 6.0849 1.45976C6.59281 0.951845 7.28168 0.666504 7.99998 0.666504C8.71827 0.666504 9.40715 0.951845 9.91506 1.45976C10.423 1.96767 10.7083 2.65654 10.7083 3.37484V3.58317H15.3958C15.5339 3.58317 15.6664 3.63804 15.7641 3.73572C15.8618 3.83339 15.9166 3.96587 15.9166 4.104C15.9166 4.24214 15.8618 4.37461 15.7641 4.47229C15.6664 4.56996 15.5339 4.62484 15.3958 4.62484H14.1804L13.3471 14.5648C13.2837 15.3197 12.9392 16.0232 12.3816 16.5359C11.824 17.0487 11.0941 17.3332 10.3366 17.3332H5.66331C4.90589 17.3331 4.17614 17.0485 3.61865 16.5358C3.06116 16.0231 2.71662 15.3196 2.65331 14.5648L1.81998 4.62484H0.604146C0.466013 4.62484 0.333537 4.56996 0.235862 4.47229C0.138186 4.37461 0.083313 4.24214 0.083313 4.104C0.083313 3.96587 0.138186 3.83339 0.235862 3.73572C0.333537 3.63804 0.466013 3.58317 0.604146 3.58317H5.29165ZM3.69123 14.4778C3.73271 14.9723 3.95844 15.4331 4.32369 15.7691C4.68894 16.105 5.16707 16.2915 5.66331 16.2915H10.3366C10.833 16.2916 11.3112 16.1052 11.6765 15.7692C12.0419 15.4333 12.2677 14.9723 12.3091 14.4778L13.135 4.62484H2.86498L3.69123 14.4778ZM6.95831 7.43734C6.95831 7.36894 6.94484 7.30121 6.91867 7.23802C6.89249 7.17483 6.85413 7.11742 6.80576 7.06905C6.7574 7.02069 6.69998 6.98232 6.63679 6.95615C6.5736 6.92998 6.50588 6.9165 6.43748 6.9165C6.36908 6.9165 6.30136 6.92998 6.23817 6.95615C6.17497 6.98232 6.11756 7.02069 6.06919 7.06905C6.02083 7.11742 5.98247 7.17483 5.95629 7.23802C5.93012 7.30121 5.91665 7.36894 5.91665 7.43734V13.479C5.91665 13.5474 5.93012 13.6151 5.95629 13.6783C5.98247 13.7415 6.02083 13.7989 6.06919 13.8473C6.11756 13.8957 6.17497 13.934 6.23817 13.9602C6.30136 13.9864 6.36908 13.9998 6.43748 13.9998C6.50588 13.9998 6.5736 13.9864 6.63679 13.9602C6.69998 13.934 6.7574 13.8957 6.80576 13.8473C6.85413 13.7989 6.89249 13.7415 6.91867 13.6783C6.94484 13.6151 6.95831 13.5474 6.95831 13.479V7.43734ZM9.56248 6.9165C9.84998 6.9165 10.0833 7.14984 10.0833 7.43734V13.479C10.0833 13.6171 10.0284 13.7496 9.93076 13.8473C9.83309 13.945 9.70061 13.9998 9.56248 13.9998C9.42435 13.9998 9.29187 13.945 9.19419 13.8473C9.09652 13.7496 9.04165 13.6171 9.04165 13.479V7.43734C9.04165 7.14984 9.27498 6.9165 9.56248 6.9165Z" fill="#97989A"/>
</svg>
