<svg width="26" height="24" viewBox="0 0 26 24" fill="none" xmlns="http://www.w3.org/2000/svg">
<path d="M8.3335 23.3332V21.3332H11.0002V18.6665H2.74383C2.07027 18.6665 1.50016 18.4332 1.0335 17.9665C0.566829 17.4998 0.333496 16.9297 0.333496 16.2562V3.07684C0.333496 2.40328 0.566829 1.83317 1.0335 1.3665C1.50016 0.899837 2.07027 0.666504 2.74383 0.666504H23.2565C23.9301 0.666504 24.5002 0.899837 24.9668 1.3665C25.4335 1.83317 25.6668 2.40328 25.6668 3.07684V16.2562C25.6668 16.9297 25.4335 17.4998 24.9668 17.9665C24.5002 18.4332 23.9301 18.6665 23.2565 18.6665H15.0002V21.3332H17.6668V23.3332H8.3335Z" fill="#AF52DE"/>
</svg>
