<svg width="25" height="25" viewBox="0 0 25 25" fill="none" xmlns="http://www.w3.org/2000/svg">
<path d="M16.1429 14.6428C15.9724 14.6428 15.8089 14.7105 15.6883 14.8311C15.5678 14.9516 15.5001 15.1151 15.5001 15.2856C15.5001 15.4561 15.5678 15.6197 15.6883 15.7402C15.8089 15.8608 15.9724 15.9285 16.1429 15.9285H19.1429C19.3134 15.9285 19.4769 15.8608 19.5975 15.7402C19.718 15.6197 19.7858 15.4561 19.7858 15.2856C19.7858 15.1151 19.718 14.9516 19.5975 14.8311C19.4769 14.7105 19.3134 14.6428 19.1429 14.6428H16.1429ZM2.21777 7.99993C2.21777 7.14745 2.55642 6.32988 3.15922 5.72709C3.76201 5.12429 4.57958 4.78564 5.43206 4.78564H19.5715C20.424 4.78564 21.2415 5.12429 21.8443 5.72709C22.4471 6.32988 22.7858 7.14745 22.7858 7.99993V16.9999C22.7858 17.8524 22.4471 18.67 21.8443 19.2728C21.2415 19.8756 20.424 20.2142 19.5715 20.2142H5.43292C4.58043 20.2142 3.76287 19.8756 3.16007 19.2728C2.55728 18.67 2.21863 17.8524 2.21863 16.9999L2.21777 7.99993ZM5.43206 6.07136C4.92057 6.07136 4.43003 6.27455 4.06835 6.63622C3.70668 6.9979 3.50349 7.48844 3.50349 7.99993V8.64279H21.5001V7.99993C21.5001 7.48844 21.2969 6.9979 20.9352 6.63622C20.5735 6.27455 20.083 6.07136 19.5715 6.07136H5.43206ZM3.50349 16.9999C3.50349 17.5114 3.70668 18.002 4.06835 18.3636C4.43003 18.7253 4.92057 18.9285 5.43206 18.9285H19.5715C20.083 18.9285 20.5735 18.7253 20.9352 18.3636C21.2969 18.002 21.5001 17.5114 21.5001 16.9999V9.9285H3.50434L3.50349 16.9999Z" fill="#B1B2B7"/>
</svg>
