<svg width="25" height="25" viewBox="0 0 25 25" fill="none" xmlns="http://www.w3.org/2000/svg">
<path d="M3.1665 13.625C3.1665 13.004 3.6705 12.5 4.2915 12.5H6.5415C7.1625 12.5 7.6665 13.004 7.6665 13.625V20.375C7.6665 20.996 7.1625 21.5 6.5415 21.5H4.2915C3.99314 21.5 3.70699 21.3815 3.49601 21.1705C3.28503 20.9595 3.1665 20.6734 3.1665 20.375V13.625ZM9.9165 9.125C9.9165 8.504 10.4205 8 11.0415 8H13.2915C13.9125 8 14.4165 8.504 14.4165 9.125V20.375C14.4165 20.996 13.9125 21.5 13.2915 21.5H11.0415C10.7431 21.5 10.457 21.3815 10.246 21.1705C10.035 20.9595 9.9165 20.6734 9.9165 20.375V9.125ZM16.6665 4.625C16.6665 4.004 17.1705 3.5 17.7915 3.5H20.0415C20.6625 3.5 21.1665 4.004 21.1665 4.625V20.375C21.1665 20.996 20.6625 21.5 20.0415 21.5H17.7915C17.4931 21.5 17.207 21.3815 16.996 21.1705C16.785 20.9595 16.6665 20.6734 16.6665 20.375V4.625Z" stroke="#B9BABB" stroke-width="1.5" stroke-linecap="round" stroke-linejoin="round"/>
</svg>
