<svg width="18" height="23" viewBox="0 0 18 23" fill="none" xmlns="http://www.w3.org/2000/svg">
<path fill-rule="evenodd" clip-rule="evenodd" d="M8.83355 0.75C7.57377 0.75 6.36559 1.25044 5.47479 2.14124C4.584 3.03204 4.08355 4.24022 4.08355 5.5C4.08355 6.75978 4.584 7.96796 5.47479 8.85876C6.36559 9.74955 7.57377 10.25 8.83355 10.25C10.0933 10.25 11.3015 9.74955 12.1923 8.85876C13.0831 7.96796 13.5836 6.75978 13.5836 5.5C13.5836 4.24022 13.0831 3.03204 12.1923 2.14124C11.3015 1.25044 10.0933 0.75 8.83355 0.75ZM5.58355 5.5C5.58355 4.63805 5.92596 3.8114 6.53546 3.2019C7.14495 2.59241 7.9716 2.25 8.83355 2.25C9.69551 2.25 10.5222 2.59241 11.1316 3.2019C11.7411 3.8114 12.0836 4.63805 12.0836 5.5C12.0836 6.36195 11.7411 7.1886 11.1316 7.7981C10.5222 8.40759 9.69551 8.75 8.83355 8.75C7.9716 8.75 7.14495 8.40759 6.53546 7.7981C5.92596 7.1886 5.58355 6.36195 5.58355 5.5ZM8.83355 11.75C6.52055 11.75 4.38855 12.276 2.80955 13.164C1.25355 14.04 0.083552 15.366 0.083552 17V17.102C0.082552 18.264 0.0815519 19.722 1.36055 20.764C1.98955 21.276 2.87055 21.641 4.06055 21.881C5.25255 22.123 6.80755 22.25 8.83355 22.25C10.8596 22.25 12.4136 22.123 13.6076 21.881C14.7976 21.641 15.6776 21.276 16.3076 20.764C17.5866 19.722 17.5846 18.264 17.5836 17.102V17C17.5836 15.366 16.4136 14.04 14.8586 13.164C13.2786 12.276 11.1476 11.75 8.83355 11.75ZM1.58355 17C1.58355 16.149 2.20555 15.225 3.54455 14.472C4.86055 13.732 6.72855 13.25 8.83455 13.25C10.9386 13.25 12.8066 13.732 14.1226 14.472C15.4626 15.225 16.0836 16.149 16.0836 17C16.0836 18.308 16.0436 19.044 15.3596 19.6C14.9896 19.902 14.3696 20.197 13.3096 20.411C12.2526 20.625 10.8076 20.75 8.83355 20.75C6.85955 20.75 5.41355 20.625 4.35755 20.411C3.29755 20.197 2.67755 19.902 2.30755 19.601C1.62355 19.044 1.58355 18.308 1.58355 17Z" fill="#B9BABB"/>
</svg>
