<svg width="18" height="25" viewBox="0 0 18 25" fill="none" xmlns="http://www.w3.org/2000/svg">
<path d="M9 24.9232C8.46489 24.9232 7.99178 24.7822 7.58067 24.5002C7.16956 24.2179 6.882 23.8478 6.718 23.3898H6.33333C5.788 23.3898 5.31833 23.1928 4.92433 22.7988C4.53033 22.4048 4.33333 21.9352 4.33333 21.3898V17.0155C2.988 16.2002 1.92944 15.1071 1.15767 13.7362C0.385889 12.3651 0 10.8975 0 9.3335C0 6.82416 0.872667 4.69683 2.618 2.9515C4.36333 1.20616 6.49067 0.333496 9 0.333496C11.5093 0.333496 13.6367 1.20616 15.382 2.9515C17.1273 4.69683 18 6.82416 18 9.3335C18 10.9248 17.6141 12.3992 16.8423 13.7565C16.0706 15.1138 15.012 16.2002 13.6667 17.0155V21.3898C13.6667 21.9352 13.4697 22.4048 13.0757 22.7988C12.6817 23.1928 12.212 23.3898 11.6667 23.3898H11.282C11.118 23.8478 10.8304 24.2179 10.4193 24.5002C10.0082 24.7822 9.53511 24.9232 9 24.9232ZM6.33333 21.3898H11.6667V20.1385H6.33333V21.3898ZM6.33333 18.9592H11.6667V17.6668H6.33333V18.9592ZM9.795 15.6668V11.7848L12.6513 8.9285L11.5333 7.8105L9 10.3438L6.46667 7.8105L5.34867 8.9285L8.205 11.7848V15.6668H9.795Z" fill="#FF2D55"/>
</svg>
