<svg width="25" height="25" viewBox="0 0 25 25" fill="none" xmlns="http://www.w3.org/2000/svg">
<path d="M5.9165 5C4.92194 5 3.96811 5.39509 3.26485 6.09835C2.56159 6.80161 2.1665 7.75544 2.1665 8.75V9.5H23.1665V8.75C23.1665 7.75544 22.7714 6.80161 22.0682 6.09835C21.3649 5.39509 20.4111 5 19.4165 5H5.9165ZM23.1665 11H2.1665V16.25C2.1665 17.2446 2.56159 18.1984 3.26485 18.9017C3.96811 19.6049 4.92194 20 5.9165 20H19.4165C20.4111 20 21.3649 19.6049 22.0682 18.9017C22.7714 18.1984 23.1665 17.2446 23.1665 16.25V11ZM16.4165 15.5H19.4165C19.6154 15.5 19.8062 15.579 19.9468 15.7197C20.0875 15.8603 20.1665 16.0511 20.1665 16.25C20.1665 16.4489 20.0875 16.6397 19.9468 16.7803C19.8062 16.921 19.6154 17 19.4165 17H16.4165C16.2176 17 16.0268 16.921 15.8862 16.7803C15.7455 16.6397 15.6665 16.4489 15.6665 16.25C15.6665 16.0511 15.7455 15.8603 15.8862 15.7197C16.0268 15.579 16.2176 15.5 16.4165 15.5Z" fill="white"/>
</svg>
