<svg width="13" height="13" viewBox="0 0 13 13" fill="none" xmlns="http://www.w3.org/2000/svg">
<path d="M3.25008 10.8337C3.84591 10.8337 4.33341 10.3462 4.33341 9.75033V5.95866C4.33341 5.36283 3.84591 4.87533 3.25008 4.87533C2.65425 4.87533 2.16675 5.36283 2.16675 5.95866V9.75033C2.16675 10.3462 2.65425 10.8337 3.25008 10.8337ZM8.66675 8.12533V9.75033C8.66675 10.3462 9.15425 10.8337 9.75008 10.8337C10.3459 10.8337 10.8334 10.3462 10.8334 9.75033V8.12533C10.8334 7.52949 10.3459 7.04199 9.75008 7.04199C9.15425 7.04199 8.66675 7.52949 8.66675 8.12533ZM6.50008 10.8337C7.09591 10.8337 7.58342 10.3462 7.58342 9.75033V3.25033C7.58342 2.65449 7.09591 2.16699 6.50008 2.16699C5.90425 2.16699 5.41675 2.65449 5.41675 3.25033V9.75033C5.41675 10.3462 5.90425 10.8337 6.50008 10.8337Z" fill="white"/>
</svg>
