<svg width="14" height="14" viewBox="0 0 14 14" fill="none" xmlns="http://www.w3.org/2000/svg">
<path d="M7.0001 1.4001C7.7355 1.4001 8.4637 1.54495 9.14313 1.82637C9.82255 2.1078 10.4399 2.52029 10.9599 3.0403C11.4799 3.56031 11.8924 4.17765 12.1738 4.85707C12.4552 5.53649 12.6001 6.2647 12.6001 7.0001C12.6001 7.7355 12.4552 8.4637 12.1738 9.14313C11.8924 9.82255 11.4799 10.4399 10.9599 10.9599C10.4399 11.4799 9.82255 11.8924 9.14313 12.1738C8.4637 12.4552 7.7355 12.6001 7.0001 12.6001V1.4001ZM7.0001 0.600098C5.30271 0.600098 3.67485 1.27438 2.47461 2.47461C1.27438 3.67485 0.600098 5.30271 0.600098 7.0001C0.600098 8.69748 1.27438 10.3253 2.47461 11.5256C3.67485 12.7258 5.30271 13.4001 7.0001 13.4001C8.69748 13.4001 10.3253 12.7258 11.5256 11.5256C12.7258 10.3253 13.4001 8.69748 13.4001 7.0001C13.4001 5.30271 12.7258 3.67485 11.5256 2.47461C10.3253 1.27438 8.69748 0.600098 7.0001 0.600098Z" fill="#48D38A"/>
</svg>
