<svg width="21" height="21" viewBox="0 0 21 21" fill="none" xmlns="http://www.w3.org/2000/svg">
<path d="M1.66675 11.625C1.66675 11.004 2.17075 10.5 2.79175 10.5H5.04175C5.66275 10.5 6.16675 11.004 6.16675 11.625V18.375C6.16675 18.996 5.66275 19.5 5.04175 19.5H2.79175C2.49338 19.5 2.20723 19.3815 1.99625 19.1705C1.78527 18.9595 1.66675 18.6734 1.66675 18.375V11.625ZM8.41675 7.125C8.41675 6.504 8.92075 6 9.54175 6H11.7917C12.4127 6 12.9167 6.504 12.9167 7.125V18.375C12.9167 18.996 12.4127 19.5 11.7917 19.5H9.54175C9.24338 19.5 8.95723 19.3815 8.74625 19.1705C8.53527 18.9595 8.41675 18.6734 8.41675 18.375V7.125ZM15.1667 2.625C15.1667 2.004 15.6707 1.5 16.2917 1.5H18.5417C19.1627 1.5 19.6667 2.004 19.6667 2.625V18.375C19.6667 18.996 19.1627 19.5 18.5417 19.5H16.2917C15.9934 19.5 15.7072 19.3815 15.4963 19.1705C15.2853 18.9595 15.1667 18.6734 15.1667 18.375V2.625Z" stroke="#B9BABB" stroke-width="1.5" stroke-linecap="round" stroke-linejoin="round"/>
</svg>
