<svg width="19" height="19" viewBox="0 0 19 19" fill="none" xmlns="http://www.w3.org/2000/svg">
<path d="M15.5 0.5C15.1022 0.5 14.7206 0.658035 14.4393 0.93934C14.158 1.22064 14 1.60218 14 2V17C14 17.3978 14.158 17.7794 14.4393 18.0607C14.7206 18.342 15.1022 18.5 15.5 18.5H17C17.3978 18.5 17.7794 18.342 18.0607 18.0607C18.342 17.7794 18.5 17.3978 18.5 17V2C18.5 1.60218 18.342 1.22064 18.0607 0.93934C17.7794 0.658035 17.3978 0.5 17 0.5H15.5ZM7.25 6.5C7.25 6.10218 7.40804 5.72064 7.68934 5.43934C7.97064 5.15804 8.35218 5 8.75 5H10.25C10.6478 5 11.0294 5.15804 11.3107 5.43934C11.592 5.72064 11.75 6.10218 11.75 6.5V17C11.75 17.3978 11.592 17.7794 11.3107 18.0607C11.0294 18.342 10.6478 18.5 10.25 18.5H8.75C8.35218 18.5 7.97064 18.342 7.68934 18.0607C7.40804 17.7794 7.25 17.3978 7.25 17V6.5ZM0.5 11C0.5 10.6022 0.658035 10.2206 0.93934 9.93934C1.22064 9.65804 1.60218 9.5 2 9.5H3.5C3.89782 9.5 4.27936 9.65804 4.56066 9.93934C4.84196 10.2206 5 10.6022 5 11V17C5 17.3978 4.84196 17.7794 4.56066 18.0607C4.27936 18.342 3.89782 18.5 3.5 18.5H2C1.60218 18.5 1.22064 18.342 0.93934 18.0607C0.658035 17.7794 0.5 17.3978 0.5 17V11Z" fill="white"/>
</svg>
