<svg width="21" height="21" viewBox="0 0 21 21" fill="none" xmlns="http://www.w3.org/2000/svg">
<path d="M18.54 5.31969L12.78 1.28969C11.21 0.189694 8.79999 0.249694 7.28999 1.41969L2.27999 5.32969C1.27999 6.10969 0.48999 7.70969 0.48999 8.96969V15.8697C0.48999 18.4197 2.55999 20.4997 5.10999 20.4997H15.89C18.44 20.4997 20.51 18.4297 20.51 15.8797V9.09969C20.51 7.74969 19.64 6.08969 18.54 5.31969ZM11.25 16.4997C11.25 16.9097 10.91 17.2497 10.5 17.2497C10.09 17.2497 9.74999 16.9097 9.74999 16.4997V13.4997C9.74999 13.0897 10.09 12.7497 10.5 12.7497C10.91 12.7497 11.25 13.0897 11.25 13.4997V16.4997Z" fill="white"/>
</svg>
