<svg width="14" height="13" viewBox="0 0 14 13" fill="none" xmlns="http://www.w3.org/2000/svg">
<path d="M4.16066 11.916C3.86275 11.916 3.6078 11.81 3.39583 11.5981C3.18386 11.3861 3.07769 11.131 3.07733 10.8327V5.41602C3.07733 5.1181 3.1835 4.86316 3.39583 4.65118C3.60816 4.43921 3.86311 4.33304 4.16066 4.33268H9.03566V3.24935C9.03566 2.79796 8.87768 2.41428 8.56171 2.09831C8.24573 1.78234 7.86205 1.62435 7.41066 1.62435C7.0315 1.62435 6.69964 1.73954 6.41508 1.96993C6.13053 2.20032 5.93878 2.48686 5.83983 2.82956C5.80372 2.95595 5.72915 3.0576 5.61612 3.13452C5.5031 3.21143 5.37905 3.24971 5.244 3.24935C5.09053 3.24935 4.96197 3.1997 4.85833 3.10039C4.75469 3.00109 4.71623 2.88372 4.74296 2.74831C4.84226 2.13442 5.14235 1.61297 5.64321 1.18397C6.14407 0.754974 6.73322 0.540655 7.41066 0.541016C8.15997 0.541016 8.79878 0.805169 9.32708 1.33347C9.85539 1.86178 10.1194 2.50041 10.119 3.24935V4.33268H10.6607C10.9586 4.33268 11.2137 4.43885 11.426 4.65118C11.6384 4.86352 11.7444 5.11846 11.744 5.41602V10.8327C11.744 11.1306 11.638 11.3857 11.426 11.5981C11.2141 11.8104 10.9589 11.9164 10.6607 11.916H4.16066ZM7.41066 9.20768C7.70858 9.20768 7.96371 9.1017 8.17604 8.88972C8.38837 8.67775 8.49436 8.42263 8.494 8.12435C8.49364 7.82607 8.38765 7.57113 8.17604 7.35952C7.96443 7.14791 7.7093 7.04174 7.41066 7.04102C7.11203 7.04029 6.85708 7.14646 6.64583 7.35952C6.43458 7.57257 6.32841 7.82752 6.32733 8.12435C6.32625 8.42118 6.43241 8.67631 6.64583 8.88972C6.85925 9.10314 7.11419 9.20913 7.41066 9.20768Z" fill="white"/>
</svg>
