<svg width="156" height="144" viewBox="0 0 156 144" fill="none" xmlns="http://www.w3.org/2000/svg">
<g clip-path="url(#clip0_1468_212630)">
<path d="M63.6058 125.943H62.4773L62.4684 122.681L61.2694 125.44H60.4319L59.224 122.681V125.943H58.0867V120.909H59.4885L60.8462 123.906L62.2128 120.909H63.6058V125.943Z" fill="#B69260"/>
<path d="M68.7554 125.943H67.477V120.917H68.7554V125.943Z" fill="#B69260"/>
<path d="M73.9212 124.876H76.0548V125.943H72.6429V120.917H73.9212V124.876Z" fill="#B69260"/>
<path d="M82.85 125.017H80.6547L80.2932 125.943H78.9796L81.1484 120.917H82.462L84.578 125.943H83.2114L82.85 125.017ZM82.4797 124.047L81.7656 122.187L81.0338 124.047H82.4797Z" fill="#B69260"/>
<path d="M90.9347 125.943L90.1941 124.532H89.1891V125.943H87.9107V120.917H90.1589C90.8223 120.917 91.3359 121.072 91.7017 121.376C92.0654 121.682 92.2483 122.114 92.2483 122.672C92.2483 123.448 91.942 123.986 91.3314 124.285L92.3894 125.943H90.9347ZM89.1891 123.527H90.1589C90.4344 123.527 90.6482 123.457 90.8025 123.315C90.9546 123.174 91.0317 122.976 91.0317 122.716C91.0317 122.458 90.9546 122.262 90.8025 122.125C90.6482 121.991 90.4344 121.922 90.1589 121.922H89.1891V123.527Z" fill="#B69260"/>
<path d="M100.607 125.943H99.4783L97.1684 122.848V125.943H95.9694V120.917H97.0979L99.4166 124.021V120.917H100.607V125.943Z" fill="#B69260"/>
<path d="M11.4991 134.633H9.36551L8.95996 135.585H8.21939L10.0796 131.362H10.8114L12.6628 135.585H11.9046L11.4991 134.633ZM11.2258 133.998L10.4235 132.121L9.63 133.998H11.2258Z" fill="#B69260"/>
<path d="M17.7704 131.362H19.4543C19.9877 131.362 20.3999 131.49 20.6886 131.742C20.9818 131.988 21.1294 132.341 21.1294 132.799C21.1294 133.282 20.9818 133.655 20.6886 133.919C20.3999 134.179 19.9877 134.307 19.4543 134.307H18.4845V135.585H17.7704V131.362ZM18.4845 131.997V133.672H19.4279C20.1023 133.672 20.4418 133.388 20.4418 132.817C20.4418 132.27 20.1023 131.997 19.4279 131.997H18.4845Z" fill="#B69260"/>
<path d="M26.0552 134.633H23.9216L23.5161 135.585H22.7755L24.6358 131.362H25.3675L27.2189 135.585H26.4607L26.0552 134.633ZM25.7819 133.998L24.9796 132.121L24.1861 133.998H25.7819Z" fill="#B69260"/>
<path d="M32.1763 131.997H30.8362V135.585H30.1309V131.997H28.7908V131.362H32.1763V131.997Z" fill="#B69260"/>
<path d="M37.9457 135.585H37.2315V133.831H34.9922V135.585H34.2781V131.362H34.9922V133.196H37.2315V131.362H37.9457V135.585Z" fill="#B69260"/>
<path d="M46.5028 131.997H45.1627V135.585H44.4574V131.997H43.1174V131.362H46.5028V131.997Z" fill="#B69260"/>
<path d="M48.9038 131.952C49.338 131.542 49.8692 131.335 50.4996 131.335C51.1343 131.335 51.6655 131.542 52.0953 131.952C52.5295 132.364 52.7477 132.874 52.7477 133.477C52.7477 134.077 52.5295 134.584 52.0953 134.994C51.6655 135.406 51.1343 135.611 50.4996 135.611C49.8692 135.611 49.338 135.406 48.9038 134.994C48.474 134.584 48.2602 134.077 48.2602 133.477C48.2602 132.874 48.474 132.364 48.9038 131.952ZM50.5084 131.979C50.0896 131.979 49.7325 132.124 49.4328 132.411C49.133 132.699 48.9831 133.052 48.9831 133.469C48.9831 133.887 49.133 134.242 49.4328 134.535C49.7369 134.831 50.0962 134.976 50.5084 134.976C50.9249 134.976 51.2798 134.831 51.5751 134.535C51.8683 134.242 52.016 133.887 52.016 133.469C52.016 133.052 51.8683 132.699 51.5751 132.411C51.2798 132.124 50.9249 131.979 50.5084 131.979Z" fill="#B69260"/>
<path d="M60.8938 131.997H58.7779V133.214H60.6999V133.849H58.7779V135.585H58.0638V131.362H60.9026L60.8938 131.997Z" fill="#B69260"/>
<path d="M63.7371 135.585H63.023V131.362H63.7371V135.585Z" fill="#B69260"/>
<path d="M70.0196 135.585H69.3143L67.0662 132.553V135.585H66.352V131.362H67.0485L69.3143 134.395V131.362H70.0196V135.585Z" fill="#B69260"/>
<path d="M75.3715 134.633H73.238L72.8324 135.585H72.0918L73.9521 131.362H74.6838L76.5353 135.585H75.7771L75.3715 134.633ZM75.0982 133.998L74.2959 132.121L73.5025 133.998H75.0982Z" fill="#B69260"/>
<path d="M82.2569 135.585H81.5516L79.3034 132.553V135.585H78.5893V131.362H79.2858L81.5516 134.395V131.362H82.2569V135.585Z" fill="#B69260"/>
<path d="M86.7345 131.335C87.0342 131.335 87.3252 131.395 87.6073 131.511C87.8938 131.624 88.1407 131.783 88.3479 131.988L87.9247 132.508C87.7704 132.345 87.5897 132.215 87.3781 132.12C87.1709 132.021 86.9637 131.97 86.7521 131.97C86.3289 131.97 85.9697 132.115 85.6765 132.402C85.3812 132.691 85.2357 133.043 85.2357 133.46C85.2357 133.879 85.3812 134.231 85.6765 134.518C85.9697 134.807 86.3289 134.95 86.7521 134.95C87.1863 134.95 87.5764 134.782 87.9247 134.447L88.3479 134.923C88.1297 135.135 87.8762 135.302 87.5897 135.426C87.3009 135.549 87.01 135.611 86.7168 135.611C86.0931 135.611 85.5707 135.406 85.1475 134.994C84.7244 134.584 84.5128 134.075 84.5128 133.469C84.5128 132.869 84.7266 132.364 85.1564 131.952C85.5839 131.542 86.1107 131.335 86.7345 131.335Z" fill="#B69260"/>
<path d="M91.2881 135.585H90.574V131.362H91.2881V135.585Z" fill="#B69260"/>
<path d="M96.6317 134.633H94.4982L94.0926 135.585H93.3521L95.2123 131.362H95.9441L97.7955 135.585H97.0373L96.6317 134.633ZM96.3584 133.998L95.5561 132.121L94.7627 133.998H96.3584Z" fill="#B69260"/>
<path d="M100.564 134.942H102.389V135.585H99.8495V131.362H100.564V134.942Z" fill="#B69260"/>
<path d="M111.989 135.585H111.257L110.261 132.288L109.247 135.585H108.506L107.105 131.362H107.872L108.894 134.792L109.917 131.362H110.622L111.645 134.792L112.668 131.362H113.408L111.989 135.585Z" fill="#B69260"/>
<path d="M118.417 131.997H116.107V133.143H118.17V133.778H116.107V134.942H118.487V135.585H115.393V131.362H118.417V131.997Z" fill="#B69260"/>
<path d="M121.571 134.942H123.396V135.585H120.857V131.362H121.571V134.942Z" fill="#B69260"/>
<path d="M126.278 134.942H128.103V135.585H125.564V131.362H126.278V134.942Z" fill="#B69260"/>
<path d="M133.961 135.585H133.256L131.007 132.553V135.585H130.293V131.362H130.99L133.256 134.395V131.362H133.961V135.585Z" fill="#B69260"/>
<path d="M139.608 131.997H137.298V133.143H139.361V133.778H137.298V134.942H139.679V135.585H136.584V131.362H139.608V131.997Z" fill="#B69260"/>
<path d="M143.425 131.327C143.972 131.327 144.461 131.472 144.897 131.759L144.606 132.393C144.177 132.129 143.762 131.997 143.363 131.997C143.152 131.997 142.984 132.036 142.861 132.111C142.737 132.188 142.676 132.296 142.676 132.437C142.676 132.578 142.731 132.7 142.843 132.799C142.96 132.9 143.101 132.973 143.266 133.019C143.436 133.061 143.619 133.116 143.813 133.187C144.011 133.257 144.196 133.334 144.368 133.416C144.538 133.493 144.679 133.617 144.791 133.786C144.902 133.952 144.959 134.152 144.959 134.386C144.959 134.756 144.809 135.054 144.509 135.276C144.214 135.501 143.833 135.611 143.363 135.611C143.039 135.611 142.724 135.554 142.42 135.435C142.12 135.312 141.858 135.148 141.635 134.941L141.944 134.324C142.155 134.518 142.387 134.672 142.64 134.783C142.898 134.888 143.143 134.941 143.372 134.941C143.623 134.941 143.817 134.897 143.954 134.809C144.095 134.716 144.166 134.586 144.166 134.421C144.166 134.28 144.106 134.161 143.989 134.06C143.877 133.96 143.736 133.89 143.566 133.848C143.401 133.802 143.218 133.747 143.019 133.68C142.825 133.61 142.642 133.539 142.473 133.469C142.301 133.394 142.16 133.273 142.05 133.107C141.937 132.938 141.882 132.737 141.882 132.508C141.882 132.151 142.023 131.864 142.305 131.653C142.587 131.437 142.96 131.327 143.425 131.327Z" fill="#B69260"/>
<path d="M148.683 131.327C149.229 131.327 149.719 131.472 150.155 131.759L149.864 132.393C149.434 132.129 149.02 131.997 148.621 131.997C148.409 131.997 148.242 132.036 148.118 132.111C147.995 132.188 147.933 132.296 147.933 132.437C147.933 132.578 147.988 132.7 148.101 132.799C148.218 132.9 148.359 132.973 148.524 133.019C148.694 133.061 148.877 133.116 149.071 133.187C149.269 133.257 149.454 133.334 149.626 133.416C149.796 133.493 149.937 133.617 150.049 133.786C150.159 133.952 150.217 134.152 150.217 134.386C150.217 134.756 150.067 135.054 149.767 135.276C149.472 135.501 149.09 135.611 148.621 135.611C148.297 135.611 147.982 135.554 147.678 135.435C147.378 135.312 147.115 135.148 146.893 134.941L147.201 134.324C147.413 134.518 147.644 134.672 147.898 134.783C148.156 134.888 148.4 134.941 148.63 134.941C148.881 134.941 149.075 134.897 149.212 134.809C149.353 134.716 149.423 134.586 149.423 134.421C149.423 134.28 149.364 134.161 149.247 134.06C149.134 133.96 148.993 133.89 148.824 133.848C148.658 133.802 148.475 133.747 148.277 133.68C148.083 133.61 147.9 133.539 147.73 133.469C147.559 133.394 147.417 133.273 147.307 133.107C147.195 132.938 147.14 132.737 147.14 132.508C147.14 132.151 147.281 131.864 147.563 131.653C147.845 131.437 148.218 131.327 148.683 131.327Z" fill="#B69260"/>
<path d="M109.66 103.057C107.525 103.279 105.296 103.359 105.03 102.618C104.289 100.555 101.686 99.9488 101.959 99.6887C102.067 99.5873 102.991 99.638 104.527 99.9179C105.283 100.055 107.536 100.786 108.283 100.943C108.669 101.024 108.988 101.157 109.261 101.298C110.361 101.858 112.255 102.032 113.707 102.38C114.494 102.569 115.146 103.012 115.481 103.12C115.093 102.651 114.501 102.486 114.183 102.364C113.619 102.148 113.125 101.937 112.609 101.847C111.752 101.697 111.214 101.648 110.586 101.337C109.074 100.592 108.226 100.242 106.76 100.017C106.822 99.8562 109.396 99.6424 110.496 99.6887C111.646 99.7328 113.524 100.022 114.917 99.9466C115.42 99.9179 115.847 99.8298 116.321 99.7791C116.795 99.7284 117.364 99.865 117.888 99.9841C117.432 99.7086 116.506 99.6116 115.792 99.6314C115.08 99.6512 114.428 99.7526 113.674 99.7108C112.57 99.649 111.488 99.292 110.377 99.2148C108.92 99.1157 107.8 99.5256 106.341 99.4352C105.528 99.3823 104.77 99.1399 103.95 99.0297C101.911 98.7498 98.5298 99.1796 95.5874 99.0121C94.0665 98.9239 92.3341 98.9548 91.0381 98.5779C89.9912 98.2737 87.8356 96.927 87.7232 96.7441C87.3992 96.2283 88.8671 95.847 89.9912 95.9594C91.1153 96.074 91.9661 96.2217 93.0945 96.3297C94.4589 96.4619 95.918 96.4157 97.2845 96.3517C98.4064 96.2988 100.749 96.2173 101.878 96.3099C103.846 96.4686 104.615 96.7903 106.579 96.9601C105.47 96.7154 104.344 96.495 103.253 96.2371C101.937 95.9219 100.084 95.9704 99.3233 95.9726C91.6795 96.0101 92.0234 94.7097 87.4631 94.4254C85.3494 94.2975 81.6488 94.2535 79.5262 94.3196C78.1354 94.3615 76.7425 94.6722 75.3473 94.6855C74.6287 94.6921 73.9102 94.6943 73.1895 94.7009C72.8434 94.7009 72.4136 94.2072 72.2748 94.3372C71.6158 94.2711 69.9208 94.5995 69.8349 94.6061C68.8761 94.681 67.7939 94.6436 66.8814 94.789C66.1408 94.9059 64.8074 95.2299 64.382 95.5605C63.3527 96.0013 62.3498 96.4972 61.0538 96.7198C60.5094 96.8146 59.9297 96.8587 59.4029 96.9755C58.2436 97.2334 57.5096 97.8064 56.4076 98.1216C55.3276 98.4324 54.025 98.4632 52.8105 98.4302C51.5983 98.3993 50.3838 98.3134 49.165 98.4192C47.9439 98.5228 46.6722 98.871 46.2115 99.4154C47.3158 98.7454 49.3722 98.6726 51.0671 98.7784C52.762 98.8842 54.5804 99.0848 56.1806 98.7145C57.3686 98.439 58.2348 97.8792 59.4713 97.6676C59.9099 97.5948 60.4587 97.5816 60.7342 97.7447C60.9833 97.8902 60.8466 98.1062 60.7585 98.2979C60.3221 99.2325 59.4647 99.3581 58.5301 99.7901C57.8579 100.099 57.1239 100.235 56.2886 100.44C54.8934 100.778 53.3219 101.005 51.8011 101.143C50.2825 101.278 48.6845 101.509 47.6023 102.051C46.9807 102.364 46.5818 102.755 45.9999 103.081C44.6665 103.832 42.7401 104.353 42.1538 105.258C41.8232 105.77 41.7857 106.215 41.7593 106.735C41.7328 107.242 41.3515 107.756 40.6837 108.181C41.4463 107.676 42.1384 107.319 42.4425 106.733C42.7798 106.083 42.5748 105.439 43.5071 104.904C44.3094 104.441 45.7288 103.775 46.6193 103.343C47.1813 103.07 47.5626 102.882 48.0806 102.589C49.2421 101.935 50.6638 101.835 52.3874 101.611C54.1087 101.384 56.2247 101 57.8821 100.672C59.5374 100.341 61.2169 99.5587 61.7261 98.752C61.9597 98.3839 61.8539 98.1877 62.114 97.8219C62.5812 97.1695 63.8265 96.6912 65.1225 96.365C66.4207 96.041 67.0291 95.7059 69.2618 95.6817C69.7401 95.6751 72.2131 95.4459 73.2424 96.052C73.8 96.3782 73.2027 96.7771 72.7354 97.1496C71.6731 97.996 69.7048 98.4809 67.9592 99.0341C66.2114 99.5851 64.4635 100.363 64.3533 101.335C64.2916 101.888 64.3776 102.404 64.9286 102.953C65.4223 103.444 66.0174 103.857 64.1505 104.183C63.1631 104.357 61.4594 104.28 60.5006 104.494C59.4823 104.718 59.015 105.203 58.1885 105.567C57.0556 106.065 55.5149 106.072 54.0052 106.169C51.6953 106.323 49.6323 107.176 48.8564 108.199C49.3193 107.787 50.3265 107.535 51.1553 107.247C53.0309 106.594 55.4731 106.792 56.9454 106.565C56.3988 107.319 57.1834 108.565 57.5647 109.325C57.9857 110.16 57.2452 110.171 57.0909 111.216C56.9807 111.95 57.6287 112.799 59.0878 113.043C58.1973 112.71 57.9879 112.107 58.1092 111.564C58.2282 111.024 58.6095 110.493 58.6425 109.949C58.7131 108.829 57.1041 107.524 58.4684 106.579C59.4713 105.882 59.7424 105.338 61.3425 105.056C63.6965 104.641 66.1871 104.906 66.9629 103.969C67.3024 103.557 66.6301 102.99 66.4494 102.567C65.4025 100.107 70.2096 99.5256 70.5843 99.6975C71.1154 99.9334 69.9318 100.709 70.7628 101.419C71.3226 101.899 72.698 102.109 73.0087 102.64C73.2953 103.136 72.3674 103.603 72.0941 104.106C71.5254 105.148 73.8265 106.2 73.0418 107.211C72.2924 108.183 69.5109 108.276 67.6242 108.811C64.8184 109.607 64.2872 111.716 66.6279 112.737C65.0498 111.353 65.6692 109.728 68.3118 109.305C69.4734 109.118 70.8598 108.95 71.9155 108.653C72.9492 108.362 73.6612 107.467 74.8514 107.438C75.7396 107.418 76.392 108.472 76.8196 108.836C77.2472 109.199 77.4632 109.614 77.9106 109.973C78.6424 110.559 80.0221 111.064 79.8348 111.743C79.7422 112.082 79.6188 112.327 79.6056 112.732C80.5577 112.107 80.6415 111.214 79.8083 110.564C79.3014 110.165 78.4837 109.85 78.2016 109.402C78.0142 109.109 77.3067 107.903 77.0246 107.628C75.9931 106.632 74.8051 106.841 74.0491 105.792C72.4952 103.632 75.8123 103.722 75.0938 102.741C74.459 101.873 71.7943 101.421 72.05 100.504C72.2241 99.8717 73.7383 99.5212 74.3687 98.9548C74.6442 98.7079 74.7412 98.4258 75.0255 98.1789C75.5126 97.7601 76.5617 97.5001 77.5646 97.5508C78.5652 97.6037 78.8143 98.1348 79.0766 98.5911C79.6496 99.5983 78.012 100.451 78.6137 101.456C78.8011 101.767 79.2595 102.051 79.2154 102.375C79.1736 102.682 78.6953 102.929 78.3845 103.2C77.6682 103.819 77.8798 104.643 78.8826 105.157C79.9053 105.682 81.4945 105.843 82.8345 106.173C84.1724 106.506 85.4001 107.224 84.7984 107.879C85.6205 107.324 85.4971 106.504 84.5163 106.012C83.7008 105.602 82.4797 105.448 81.4283 105.181C80.377 104.917 79.383 104.408 79.6607 103.859C79.9053 103.378 81.0382 103.068 81.1572 102.578C81.2057 102.369 81.2145 102.144 81.0382 101.95C79.5372 100.315 81.4526 98.8886 85.7043 100.601C87.1215 101.172 85.9445 102.206 87.0554 102.611C88.3315 103.074 91.6663 102.481 92.3981 103.16C93.0879 103.795 90.637 104.976 90.7031 105.688C90.767 106.402 92.1975 106.942 92.5215 107.639C92.9689 108.609 91.2034 109.481 90.853 110.46C90.5488 111.304 91.4283 112.215 92.9777 112.66C91.5958 112.173 91.6685 111.176 92.2372 110.409C92.8058 109.638 93.7381 108.893 93.6191 108.082C93.5111 107.343 92.5413 106.689 92.2416 105.959C91.9418 105.23 92.8763 104.474 94.439 104.375C98.2146 104.137 96.7952 106.18 98.413 106.978C99.9294 107.727 103.824 108.21 103.822 109.598C103.82 110.229 103.681 111.044 102.508 111.364C104.829 110.819 105.556 109.239 103.908 108.287C102.543 107.5 98.2675 106.585 98.9662 105.825C98.7392 106.072 102.819 106.283 106.138 105.902C108.093 105.677 110.139 106.259 110.685 107.154C110.227 106.402 109.228 105.814 107.8 105.613C106.372 105.413 105.305 105.574 103.831 105.6C102.358 105.624 100.337 105.726 99.2968 105.228C98.532 104.859 98.5717 104.117 97.6548 103.832C96.8128 103.57 95.6579 103.592 94.8865 103.286C94.2826 103.048 94.0555 102.662 93.542 102.382C92.0057 101.538 88.2522 102.733 88.1552 101.642C88.0296 100.249 86.2002 99.5278 84.3708 99.2766C83.1674 99.1135 81.9485 98.8401 81.3027 98.3376C80.6569 97.8351 80.7825 97.0857 81.8185 96.7573C82.861 96.4289 84.3311 96.6449 85.2745 97.0394C86.2178 97.4339 86.8217 97.9739 87.624 98.4324C89.5416 99.5278 93.1078 99.9246 96.0723 99.7901C96.9407 99.7416 102.233 99.5917 103.489 102.241C103.804 102.904 104.457 103.638 105.801 103.932C107.414 104.28 109.524 103.297 111.104 103.689C112.409 104.009 112.638 105.214 113.414 105.785C114.285 106.422 115.98 106.614 117.452 106.953C115.208 106.435 114.062 105.596 113.341 104.831C112.524 103.962 112.063 102.807 109.66 103.057Z" fill="#B69260"/>
<mask id="mask0_1468_212630" style="mask-type:luminance" maskUnits="userSpaceOnUse" x="49" y="94" width="62" height="26">
<path d="M49.3393 94.9348H110.835V119.175H49.3393V94.9348Z" fill="white"/>
</mask>
<g mask="url(#mask0_1468_212630)">
<path d="M56.0549 106.29C57.7521 106.636 59.5198 106.779 59.7314 105.792C60.3154 103.048 62.3829 102.292 62.1647 101.939C62.0787 101.8 61.3469 101.853 60.1259 102.19C59.5264 102.358 57.7367 103.286 57.1438 103.48C56.8396 103.581 56.5861 103.749 56.3679 103.929C55.4951 104.659 53.9897 104.846 52.837 105.274C52.2132 105.508 51.6931 106.089 51.4286 106.228C51.7349 105.6 52.2066 105.395 52.4579 105.239C52.9053 104.961 53.2976 104.69 53.7076 104.582C54.3909 104.403 54.8162 104.353 55.3144 103.951C56.5156 102.988 57.19 102.539 58.3538 102.272C58.3031 102.056 56.2577 101.703 55.3827 101.73C54.468 101.756 52.9736 102.087 51.8672 101.933C51.466 101.877 51.1244 101.743 50.7475 101.657C50.3684 101.571 49.9166 101.734 49.5 101.873C49.8615 101.516 50.5998 101.419 51.1685 101.476C51.7349 101.529 52.2551 101.69 52.8546 101.657C53.7318 101.611 54.5936 101.163 55.4753 101.095C56.6346 101.007 57.5251 101.589 58.6844 101.503C59.3302 101.452 59.9341 101.148 60.5821 101.018C62.2043 100.694 64.8889 101.331 67.2208 101.141C68.4287 101.044 69.8018 101.099 70.8311 100.614C71.6598 100.224 73.3702 98.4655 73.4606 98.2297C73.7185 97.553 72.5547 97.0417 71.662 97.1783C70.7694 97.315 70.0949 97.5023 69.2001 97.6302C68.1179 97.7867 66.9585 97.7029 65.8741 97.5949C64.9837 97.5045 63.1234 97.3436 62.2264 97.4384C60.6637 97.6015 60.0531 98.0093 58.4905 98.179C59.3721 97.8858 60.2669 97.6213 61.1354 97.304C62.1801 96.9227 63.6524 97.0307 64.2563 97.0483C70.3264 97.2445 70.0487 95.5054 73.67 95.1858C75.3473 95.0382 78.2809 94.9963 79.9626 95.0778C81.0669 95.1307 82.1711 95.5275 83.2754 95.5363C83.844 95.5385 84.4149 95.5385 84.9857 95.5385C85.2612 95.5385 85.6029 94.8927 85.7131 95.058C86.2332 94.9654 87.3066 95.4129 87.4433 95.3798C87.5094 95.3666 87.5777 95.3732 87.6438 95.3798C88.4043 95.4658 89.2616 95.4018 89.9868 95.5738C90.5731 95.7148 91.6288 96.1093 91.9638 96.5281C92.7794 97.0791 93.5728 97.7007 94.5999 97.9608C95.0297 98.071 95.4882 98.1107 95.9069 98.2495C96.8238 98.5559 97.4057 99.2744 98.2763 99.6535C99.1315 100.024 100.165 100.024 101.128 99.9422C102.089 99.8607 103.053 99.7064 104.022 99.799C104.99 99.8893 105.997 100.29 106.359 100.978C105.488 100.152 103.855 100.136 102.51 100.332C101.164 100.529 99.7222 100.848 98.4549 100.412C97.5137 100.09 96.8305 99.3912 95.8496 99.1488C95.5036 99.065 95.0672 99.0606 94.849 99.2788C94.6506 99.4728 94.7586 99.7505 94.8269 99.9951C95.1686 101.196 95.8496 101.34 96.588 101.871C97.1214 102.254 97.7011 102.411 98.3623 102.649C99.4665 103.048 100.712 103.292 101.917 103.42C103.121 103.546 104.388 103.786 105.243 104.447C105.735 104.829 106.05 105.318 106.509 105.719C107.564 106.64 109.09 107.238 109.55 108.388C109.81 109.038 109.837 109.616 109.857 110.29C109.874 110.945 110.174 111.595 110.701 112.12C110.099 111.496 109.552 111.064 109.312 110.312C109.048 109.484 109.215 108.642 108.477 107.983C107.844 107.416 106.72 106.607 106.017 106.083C105.574 105.752 105.27 105.521 104.862 105.162C103.943 104.357 102.815 104.28 101.45 104.044C100.086 103.808 98.4108 103.376 97.0994 102.995C95.7879 102.616 94.4589 101.639 94.0577 100.61C93.8748 100.136 93.9607 99.8783 93.7536 99.4111C93.3855 98.5779 92.4025 97.985 91.3731 97.5861C90.3483 97.1916 89.8656 96.7662 88.0979 96.7684C87.7188 96.7684 85.7571 96.4995 84.9394 97.2973C84.4986 97.7293 84.9703 98.2407 85.3384 98.719C86.1803 99.8078 87.7386 100.414 89.1206 101.099C90.5025 101.785 91.8867 102.757 91.9683 104.013C92.0145 104.73 91.9462 105.4 91.5098 106.122C91.1175 106.77 90.6414 107.319 92.1203 107.703C92.9028 107.903 94.2517 107.765 95.0099 108.014C95.8166 108.278 96.1847 108.895 96.8371 109.34C97.7319 109.958 98.953 109.918 100.15 109.999C101.979 110.123 103.61 111.159 104.221 112.455C103.857 111.935 103.059 111.648 102.402 111.302C100.919 110.52 98.9838 110.852 97.8179 110.599C98.2477 111.562 97.6217 113.198 97.3176 114.189C96.9803 115.285 97.5666 115.278 97.6856 116.627C97.7694 117.573 97.2536 118.69 96.0987 119.047C96.804 118.593 96.9715 117.806 96.8789 117.108C96.7864 116.411 96.4866 115.732 96.4624 115.031C96.4117 113.583 97.69 111.846 96.6123 110.661C95.8188 109.786 95.6072 109.089 94.342 108.765C92.4774 108.287 90.5047 108.684 89.8942 107.482C89.6253 106.956 90.1609 106.208 90.3042 105.655C91.1417 102.446 87.3353 101.778 87.0377 102.001C86.6145 102.316 87.5513 103.306 86.8923 104.242C86.447 104.873 85.356 105.166 85.1114 105.862C84.8821 106.508 85.6161 107.103 85.8299 107.754C86.2773 109.098 84.4545 110.5 85.0717 111.807C85.6624 113.057 87.8643 113.127 89.3542 113.779C91.5737 114.751 91.9881 117.469 90.1323 118.849C91.3842 117.017 90.8993 114.926 88.8098 114.434C87.8907 114.218 86.7953 114.024 85.9599 113.658C85.1422 113.301 84.5802 112.148 83.639 112.131C82.9381 112.118 82.418 113.5 82.0785 113.98C81.7391 114.461 81.5694 115.005 81.2145 115.477C80.6327 116.252 79.5394 116.931 79.6871 117.817C79.7598 118.256 79.8568 118.573 79.8656 119.105C79.114 118.302 79.0479 117.138 79.7091 116.277C80.1125 115.75 80.7583 115.325 80.9831 114.738C81.133 114.353 81.695 112.772 81.9198 112.411C82.7354 111.097 83.6765 111.353 84.2782 109.975C85.5147 107.145 82.8874 107.308 83.4583 106.019C83.963 104.884 86.0745 104.258 85.874 103.072C85.7373 102.254 84.5405 101.816 84.0424 101.084C83.8242 100.767 83.747 100.398 83.5222 100.083C83.1387 99.5411 82.3056 99.2083 81.5121 99.2832C80.7186 99.3582 80.5203 100.05 80.3131 100.648C79.8546 101.966 81.1506 103.068 80.6723 104.381C80.5247 104.789 80.1588 105.164 80.194 105.587C80.2271 105.984 80.604 106.303 80.8509 106.654C81.4173 107.454 81.2476 108.532 80.4519 109.213C79.6408 109.905 78.3845 110.132 77.3221 110.575C76.262 111.02 75.2878 111.97 75.766 112.823C75.1158 112.104 75.2128 111.029 75.9909 110.379C76.6367 109.836 77.6065 109.625 78.4374 109.27C79.2705 108.913 80.0596 108.238 79.837 107.524C79.6452 106.903 78.7504 106.502 78.6578 105.865C78.6181 105.594 78.6115 105.298 78.7504 105.045C79.945 102.898 78.4286 101.051 75.0585 103.295C73.9345 104.044 74.8646 105.397 73.9829 105.931C72.9735 106.541 70.3308 105.754 69.7489 106.645C69.2023 107.48 71.1441 109.043 71.0934 109.977C71.0405 110.919 69.9054 111.63 69.6519 112.552C69.2971 113.83 70.6922 114.974 70.97 116.259C71.2102 117.368 70.5137 118.573 69.2882 119.175C70.3815 118.518 70.3242 117.211 69.8745 116.2C69.4249 115.19 68.6865 114.207 68.7813 113.136C68.8651 112.162 69.6343 111.295 69.8723 110.334C70.1104 109.374 69.3698 108.377 68.1311 108.238C65.1402 107.906 66.2665 110.617 64.9837 111.672C63.7825 112.658 60.6945 113.284 60.6989 115.137C60.7011 115.979 60.8114 117.068 61.7415 117.496C59.9033 116.77 59.3236 114.646 60.6284 113.385C61.7106 112.342 65.0983 111.15 64.5451 110.138C64.7236 110.467 61.4924 110.727 58.8563 110.174C57.3047 109.845 55.6825 110.592 55.2505 111.796C55.6141 110.786 56.4032 110.01 57.5383 109.764C58.6712 109.515 59.5176 109.744 60.6857 109.794C61.8561 109.845 63.4585 109.997 64.2828 109.34C64.8889 108.858 64.8558 107.873 65.5832 107.502C66.2488 107.161 67.1657 107.198 67.7785 106.799C68.2567 106.488 68.4375 105.979 68.8452 105.611C70.0619 104.511 73.0352 106.094 73.1145 104.657C73.2137 102.825 74.6662 101.886 76.1165 101.56C77.0687 101.344 78.0363 100.985 78.5476 100.326C79.0611 99.6667 78.962 98.6903 78.142 98.2627C77.3177 97.8329 76.1518 98.1107 75.4024 98.6264C74.6552 99.14 74.1747 99.8475 73.5377 100.445C72.0169 101.875 69.1891 102.38 66.8373 102.166C66.1496 102.098 61.9487 101.802 60.9546 105.314C60.7056 106.195 60.1876 107.167 59.1208 107.538C57.8402 107.981 56.1651 106.621 54.911 107.11C53.8729 107.513 53.6944 109.138 53.0794 109.894C52.3918 110.742 51.0451 110.965 49.8769 111.399C51.6578 110.74 52.5659 109.623 53.1345 108.604C53.7825 107.445 54.144 105.9 56.0549 106.29Z" fill="#B69260"/>
</g>
<path d="M103.88 54.5405L104.186 54.4259L104.325 54.4699C105.733 54.9152 106.968 55.2348 108.101 55.4441C109.212 55.6447 110.344 55.7858 111.488 55.8717C111.156 55.821 110.825 55.7681 110.499 55.7108C109.227 55.4816 107.739 55.0849 106.077 54.5317L104.925 54.1459L106.368 53.6126C110.633 52.0477 113.395 50.0794 115.171 48.2941C113.67 49.297 111.923 50.1543 110.214 50.9192L109.45 51.263L109.621 50.4431C109.879 49.2088 110.225 48.1729 110.653 47.364C110.426 47.6902 110.214 48.0428 110.023 48.4197C109.646 49.1537 109.335 50.0904 109.101 51.2057L109.055 51.4261L108.848 51.5121C106.408 52.5348 103.77 53.5244 101.217 54.4832C98.6606 55.4441 96.2449 56.35 94.1819 57.2295L92.9983 57.732L93.6463 56.6211C94.1069 55.8299 94.4905 55.0937 94.8189 54.3686C95.2817 53.3414 95.7622 52.0388 96.2714 50.6591L96.4014 50.2998L96.6747 50.2778C98.0523 50.1654 99.1852 49.9957 100.133 49.7554C100.45 49.6761 100.759 49.5879 101.059 49.4953C99.9963 49.7246 98.6892 49.8832 97.1618 49.9692L96.5094 50.0067L96.7386 49.3917C97.6754 46.8901 99.0948 43.0881 101.418 39.9495C99.8993 41.3777 98.4203 43.2313 97.4153 45.5721C97.3007 45.8366 97.1905 46.0988 97.0825 46.3567L96.5954 47.5271L96.2758 46.2994C95.9055 44.8778 95.6917 43.6016 95.6454 42.5062C95.6167 41.8141 95.6167 40.884 95.7159 39.804C95.414 41.2344 95.2553 42.8566 95.3831 44.6133C95.4647 45.7462 95.7159 47.0554 96.1281 48.5013L96.1678 48.6401L96.0752 48.8826C94.777 52.2152 93.8513 55.1598 91.0323 58.5673L90.5672 58.9222C88.956 59.7796 87.3536 60.7934 85.8042 61.9286L85.2774 62.3187L85.1363 61.6773C84.6603 59.5217 84.4509 57.613 84.517 56.0084C84.5567 55.0364 84.6823 53.6588 85.0261 52.0543C84.3847 53.9277 83.9043 56.1208 83.88 58.5188C83.8646 59.7663 84.0145 61.2012 84.3208 62.7815L84.3693 63.0328L84.1709 63.1937C82.3548 64.6682 81.0279 65.9907 80.23 66.8392L79.69 67.4167L79.5049 66.6475C79.2206 65.4793 78.9605 64.0775 78.7533 62.9512C78.5726 61.9704 78.4161 61.1241 78.3125 60.7957C77.8254 59.2528 78.7269 49.8392 80.6753 43.8375L80.7061 43.7405L80.9838 43.4628C81.9999 42.4533 82.8 41.6554 83.8073 40.7099L84.3363 40.2007C86.4764 38.1487 89.5489 35.1997 92.2643 31.4549C91.0984 32.9361 89.7429 34.415 88.1736 35.8146C86.0025 37.7608 83.988 39.6078 82.1851 41.3094L80.9596 42.3321C81.1866 41.6797 81.9404 39.5571 82.1652 38.9268C83.0623 36.3899 84.6162 31.9927 85.1914 26.6853C84.9358 28.3516 84.5478 30.0708 83.9748 31.7921L83.7588 32.4446L82.9168 31.6136C81.8302 30.5424 80.8913 29.6189 80.2256 28.4816C79.9457 28.0033 79.6702 27.514 79.4079 27.0027C79.7496 27.7939 80.1838 28.6271 80.737 29.4911C81.2395 30.2823 82.1564 31.4175 83.3885 32.7708L83.5626 32.9625L82.9014 34.7699C79.4586 44.1813 76.9724 50.9809 76.1922 56.1913L76.0202 57.333L75.4075 56.3522C73.8691 53.8969 72.4254 51.1947 71.114 48.3183L71.0148 48.1023L71.147 47.9062C72.0265 46.5771 72.7053 45.3561 73.1638 44.2739C74.1865 41.878 74.5501 39.6365 74.5942 37.7388C74.3121 39.5681 73.8118 41.1066 73.4106 42.1293C72.9169 43.3944 72.1146 44.8623 71.0236 46.489L70.585 47.1436L70.2764 46.4184C69.0906 43.6325 68.0106 40.6658 67.0651 37.5955L67.0034 37.3971L67.1246 37.2252C68.0371 35.9248 68.6851 34.8051 69.106 33.8045C69.4851 32.9052 69.7364 32.039 69.8929 31.2235C69.7629 31.6621 69.6262 32.0478 69.5028 32.363C69.084 33.4474 68.3633 34.728 67.3604 36.165L66.8491 36.899L66.6 36.0416C65.434 32.0346 64.656 28.4199 64.1535 25.5722C64.2571 27.2495 64.4863 29.2729 64.9447 31.6731L65.1409 32.6958L64.2835 32.1073C62.4012 30.8135 60.9796 29.641 59.9415 28.5235C59.8842 28.4618 59.8269 28.3979 59.7696 28.3339C60.2478 28.9599 60.7834 29.5792 61.3785 30.1854C62.3373 31.164 63.5738 32.1779 65.1607 33.2865L65.2974 33.3813L65.3349 33.5444C66.0159 36.5904 66.9923 39.9142 68.2376 43.4187L68.5616 44.329L67.6712 43.9565C64.1667 42.4974 55.5884 38.6733 51.6475 34.6861C51.5527 34.5869 51.458 34.4877 51.3654 34.3841C51.8657 35.0233 52.43 35.6559 53.0669 36.2664C56.8139 39.8679 63.457 43.2005 68.306 45.6338L68.5682 45.766L68.6278 45.9203C68.8217 46.4272 69.0157 46.943 69.214 47.4676C70.3359 50.4387 71.6055 53.8043 73.3335 57.4344L73.7104 58.2235L72.8552 58.0361C70.3932 57.4895 68.8504 56.8327 67.0629 56.0745L66.7455 55.9379C64.429 54.957 62.2491 53.769 60.2963 52.4378C62.4541 54.2936 65.4142 56.3148 69.2647 57.8642C69.8731 58.1111 70.3447 58.3425 70.801 58.5673C71.6474 58.9817 72.3791 59.341 73.7082 59.6517L73.9021 59.698L73.9925 59.8788C74.1512 60.1961 75.3194 66.6894 75.3304 66.7533L75.4648 67.4828C75.5067 67.5997 74.6229 67.1434 74.6317 67.1478C74.5215 67.0685 73.7853 66.6806 72.9367 66.2331C67.5742 63.4097 53.3292 55.907 47.8675 49.4182C47.2305 48.6247 46.6398 47.71 46.1042 46.7028C46.858 48.336 47.8741 50.0155 49.2385 51.6289C52.4454 55.4441 57.3627 58.3315 62.1191 61.1241L63.8185 62.3275L62.1566 62.1049C54.1337 60.7207 47.0983 58.6665 41.1429 55.9709C43.4616 57.1832 46.6597 58.5431 51.1185 59.914L52.2007 60.2468L51.1296 60.7273C50.3713 60.9852 49.6594 61.1814 49.018 61.3114C48.4824 61.4194 47.9402 61.5076 47.3892 61.5781C48.7425 61.5362 50.076 61.3753 51.3588 61.0998C51.5505 61.0579 52.8157 60.5312 52.9391 60.4739C56.7654 61.6178 61.3962 62.8124 67.0937 64.1238L67.1642 64.1392L67.226 64.1789C68.0525 64.6991 68.782 65.1818 69.4521 65.6535L70.3976 66.3213L69.2449 66.4293C68.1186 66.5351 66.9967 66.8304 65.9145 67.3087C65.3613 67.5534 64.8411 67.8862 64.2923 68.2366C63.8713 68.5055 63.4371 68.7832 62.9699 69.0323C60.8011 70.1872 58.4096 70.617 56.664 70.9322C55.6788 71.1086 54.6605 71.2408 53.6312 71.3312C53.6422 71.3312 53.6532 71.3312 53.6642 71.3312C55.5421 71.3312 57.4156 71.157 59.2229 70.8154L59.256 70.8066L60.7151 70.584L59.5932 71.5692C58.2487 72.5787 56.7654 73.6256 55.1035 74.3772C55.9873 74.0774 57.0255 73.6477 58.2333 73.0349C58.9496 72.669 59.699 72.2657 60.4242 71.8756C63.5363 70.1983 66.7499 68.4659 69.5865 68.4659C71.5658 68.4659 73.1792 69.3387 74.3826 71.0579C75.5574 72.7352 75.8395 74.9172 75.9475 76.4116C76.4456 83.22 75.2466 91.1789 71.546 94.5335C72.3549 94.6041 73.3908 95.1485 74.1798 95.1485C74.398 95.1485 75.3039 95.5805 75.4648 95.5695C78.9495 95.3292 81.7597 94.873 85.1848 94.7143C84.5302 92.7085 82.476 85.4703 83.1042 80.8241C84.1621 72.9974 90.0889 72.0916 94.4574 72.0916C94.9313 72.0916 95.4294 72.1026 96.0223 72.1224L96.1964 72.129L96.3154 72.2547C96.9458 72.9159 97.5652 73.4868 98.1581 73.9496C99.1829 74.7453 100.259 75.3955 101.297 75.9245C100.646 75.4726 100.084 75.0517 99.637 74.7144C99.0992 74.3111 98.5173 73.7512 97.8032 72.9556L97.0979 72.1665L98.1536 72.2437C98.5416 72.2745 98.9361 72.3054 99.3372 72.3362C100.596 72.4376 101.896 72.5412 103.289 72.5897C103.964 72.6183 104.616 72.6316 105.229 72.6316C106.104 72.6316 106.875 72.6029 107.556 72.5544C104.925 72.5522 102.108 72.0783 99.3857 71.6199C97.5034 71.3025 95.5572 70.9741 93.73 70.8154L92.1806 70.681L93.5824 70.0065C94.1643 69.7244 94.7087 69.4246 95.2178 69.1139C93.8645 69.7178 92.6611 70.0881 91.8015 70.3063C90.9022 70.5289 89.0662 70.8859 88.3741 71.0204C88.2661 71.0424 88.1361 71.0667 88.1361 71.0667C85.2642 71.6794 83.4634 72.9379 82.4606 73.8857L81.9074 74.4081L81.7156 73.5C81.4599 72.2921 81.2373 71.2474 81.5128 70.4606C82.5884 67.3682 87.3713 62.9887 90.4261 60.864L90.5804 60.756L91.8125 61.0359C97.2279 62.2614 103.97 63.7888 109.11 63.7888C109.412 63.7866 109.712 63.78 110.007 63.7712C105.579 63.5596 99.1631 62.3253 92.4759 60.3791L91.5326 60.1036L92.3767 59.601C95.8416 57.538 99.5665 56.1495 103.88 54.5405Z" fill="#B69260"/>
<path d="M62.0725 12.451C62.0702 12.4621 59.0969 16.4691 63.5294 19.4821C63.5271 19.4931 66.5445 15.6382 62.0725 12.451Z" fill="#B69260"/>
<path d="M31.1844 44.5908C31.1888 44.6063 30.834 47.8242 35.0129 47.5752C35.0173 47.5928 35.4361 44.2977 31.1844 44.5908Z" fill="#B69260"/>
<path d="M35.6109 41.285C35.6131 41.2938 35.4302 43.866 38.7804 43.6302C38.7848 43.6412 39.0294 41.0316 35.6109 41.285Z" fill="#B69260"/>
<path d="M66.0747 13.655C66.0747 13.655 63.9831 15.5593 65.9667 17.7127C65.9667 17.7127 68.0562 15.9186 66.0747 13.655Z" fill="#B69260"/>
<path d="M67.4968 12.4367C67.4968 12.4389 66.9392 13.9311 68.6209 14.9802C68.7289 14.4997 69.1852 13.5189 67.4968 12.4367Z" fill="#B69260"/>
<path d="M79.4171 11.7394C79.4149 11.724 75.183 14.3622 78.099 18.9335C78.099 18.9181 82.3 16.52 79.4171 11.7394Z" fill="#B69260"/>
<path d="M83.8771 10.9659C83.8771 10.9681 80.9324 14.5651 85.4199 18.2239C85.4177 18.2261 88.4064 14.8318 83.8771 10.9659Z" fill="#B69260"/>
<path d="M59.0534 17.6886C59.0534 17.7107 56.889 22.0285 61.9341 24.1973C61.9341 24.2171 64.1713 19.9698 59.0534 17.6886Z" fill="#B69260"/>
<path d="M68.434 16.9153C68.4318 16.8955 63.6027 18.9431 65.1742 23.8405C65.172 23.8229 69.924 22.0001 68.434 16.9153Z" fill="#B69260"/>
<path d="M72.3596 17.8035C72.3574 17.7925 68.7757 19.192 69.9351 22.8641C69.9351 22.853 73.4594 21.6033 72.3596 17.8035Z" fill="#B69260"/>
<path d="M81.6448 18.8037C81.6448 18.7905 78.0565 19.9564 79.2071 23.7034C79.2049 23.6901 82.7336 22.6674 81.6448 18.8037Z" fill="#B69260"/>
<path d="M72.0178 11.4008C72.0178 11.3854 68.4296 12.8026 69.5912 16.468C69.5912 16.4548 73.1199 15.194 72.0178 11.4008Z" fill="#B69260"/>
<path d="M74.9571 24.4246C74.9571 24.4092 71.1286 24.8963 71.1506 28.76C71.1506 28.7468 74.8843 28.3633 74.9571 24.4246Z" fill="#B69260"/>
<path d="M82.5477 20.8383C82.5477 20.8405 80.8285 23.2275 83.9759 25.0966C83.9737 25.0988 85.7304 22.8154 82.5477 20.8383Z" fill="#B69260"/>
<path d="M42.326 25.8564C42.3282 25.8674 41.6119 28.7217 45.1472 28.7018C45.1472 28.7151 45.9209 25.8454 42.326 25.8564Z" fill="#B69260"/>
<path d="M73.8129 29.4254C73.8129 29.4143 70.5266 29.6877 70.7227 32.9409C70.7227 32.9321 73.9341 32.7469 73.8129 29.4254Z" fill="#B69260"/>
<path d="M89.2185 16.8205C89.2185 16.8073 85.9234 16.717 86.1041 19.9834C86.1041 19.9724 89.3265 20.1289 89.2185 16.8205Z" fill="#B69260"/>
<path d="M77.6552 29.6834C77.6552 29.6768 74.9993 30.0096 75.3916 32.6435C75.3916 32.6369 77.9924 32.3812 77.6552 29.6834Z" fill="#B69260"/>
<path d="M77.6884 24.1877C77.6884 24.1965 77.5517 21.8161 74.5255 21.9439C74.5255 21.9505 74.5916 24.2251 77.6884 24.1877Z" fill="#B69260"/>
<path d="M78.293 27.0287C78.293 27.0331 78.174 24.9591 75.5357 25.0561C75.5357 25.0605 75.593 27.0486 78.293 27.0287Z" fill="#B69260"/>
<path d="M79.2893 28.6621C79.2893 28.6665 78.6082 27.1126 76.6378 27.7584C76.6378 27.7606 77.2571 29.2616 79.2893 28.6621Z" fill="#B69260"/>
<path d="M81.578 32.2926C81.578 32.2992 80.6721 30.2075 78.0383 31.045C78.0383 31.0517 78.8648 33.0574 81.578 32.2926Z" fill="#B69260"/>
<path d="M75.8266 26.9857C75.8266 26.9813 73.358 27.9334 74.5107 30.3711C74.5107 30.3667 76.9485 29.5115 75.8266 26.9857Z" fill="#B69260"/>
<path d="M82.6989 17.228C82.6989 17.2324 81.6233 19.3263 84.3807 20.5562C84.3807 20.5584 85.5003 18.5328 82.6989 17.228Z" fill="#B69260"/>
<mask id="mask1_1468_212630" style="mask-type:luminance" maskUnits="userSpaceOnUse" x="73" y="10" width="4" height="4">
<path d="M73.4235 10.0246H76.2447V13.377H73.4235V10.0246Z" fill="white"/>
</mask>
<g mask="url(#mask1_1468_212630)">
<path d="M74.0869 10.0885C74.0869 10.0951 73.0135 12.2573 75.7841 13.3219C75.7819 13.3285 76.8993 11.2236 74.0869 10.0885Z" fill="#B69260"/>
</g>
<path d="M58.1709 13.9836C58.1709 13.9902 57.1151 16.256 59.868 16.9899C59.868 16.9966 60.9634 14.7748 58.1709 13.9836Z" fill="#B69260"/>
<path d="M72.7029 38.0543C72.7029 38.0565 74.7153 35.7201 71.8147 33.7629C71.8147 33.7651 69.7847 36.0067 72.7029 38.0543Z" fill="#B69260"/>
<path d="M77.2422 21.1911C77.2422 21.1999 77.8571 18.328 74.2072 17.713C74.2072 17.7218 73.5261 20.4637 77.2422 21.1911Z" fill="#B69260"/>
<path d="M75.7213 35.8215C75.7213 35.8149 78.5756 35.6827 78.4302 32.8592C78.4302 32.8526 75.6354 32.9165 75.7213 35.8215Z" fill="#B69260"/>
<path d="M64.5177 49.0064C64.5177 49.002 67.3543 48.6978 67.2001 45.8854C67.1978 45.881 64.4229 46.1191 64.5177 49.0064Z" fill="#B69260"/>
<path d="M70.7165 25.0857C70.7165 25.0769 73.5774 24.8543 73.4276 22.0353C73.4276 22.0286 70.624 22.1851 70.7165 25.0857Z" fill="#B69260"/>
<path d="M72.4153 16.8471C72.4153 16.8383 75.285 16.6488 75.1373 13.8275C75.1373 13.8187 72.3271 13.9444 72.4153 16.8471Z" fill="#B69260"/>
<path d="M70.2056 38.207C70.2056 38.2158 68.8589 41.0546 72.4295 42.333C72.4295 42.3418 73.8335 39.5713 70.2056 38.207Z" fill="#B69260"/>
<path d="M66.5099 26.977C66.5077 26.9859 65.161 29.8534 68.7449 31.0392C68.7449 31.048 70.1489 28.24 66.5099 26.977Z" fill="#B69260"/>
<path d="M67.1966 24.0038C67.1966 24.0104 66.4141 26.4856 69.5461 27.1424C69.5461 27.1491 70.3837 24.7135 67.1966 24.0038Z" fill="#B69260"/>
<path d="M81.2092 24.5304C81.207 24.5349 79.8471 27.2811 83.4288 28.8042C83.4288 28.8108 84.8482 26.1482 81.2092 24.5304Z" fill="#B69260"/>
<path d="M81.8096 49.0968C81.8074 49.099 80.1059 51.5213 83.2247 53.3286C83.2225 53.3308 84.9637 51.0099 81.8096 49.0968Z" fill="#B69260"/>
<path d="M82.9959 46.5512C82.9959 46.5534 81.9291 48.6671 84.6621 49.8507C84.6621 49.8551 85.7708 47.8141 82.9959 46.5512Z" fill="#B69260"/>
<path d="M80.4956 52.8104C80.4934 52.817 79.1445 55.5898 82.6953 57.0467C82.6953 57.0533 84.1015 54.3665 80.4956 52.8104Z" fill="#B69260"/>
<path d="M80.4474 57.0981C80.4474 57.1047 79.1007 59.8818 82.647 61.3299C82.6448 61.3343 84.051 58.6475 80.4474 57.0981Z" fill="#B69260"/>
<path d="M78.0493 41.3712C78.0493 41.3602 74.5977 41.0715 74.1811 44.5076C74.1811 44.4988 77.5379 44.847 78.0493 41.3712Z" fill="#B69260"/>
<path d="M75.5816 39.2658C75.5838 39.257 78.7886 40.0924 79.895 36.9604C79.895 36.9515 76.7851 36.0236 75.5816 39.2658Z" fill="#B69260"/>
<path d="M84.926 32.5755C84.926 32.5689 88.1241 33.6114 89.2703 30.5764C89.2703 30.5698 86.1713 29.4281 84.926 32.5755Z" fill="#B69260"/>
<path d="M86.074 29.2979C86.074 29.2891 89.4022 29.8225 89.8364 26.6045C89.8386 26.5957 86.592 25.9698 86.074 29.2979Z" fill="#B69260"/>
<path d="M86.2117 25.6631C86.2117 25.6543 89.5245 26.3287 90.1284 23.1505C90.1284 23.1394 86.9038 22.3724 86.2117 25.6631Z" fill="#B69260"/>
<path d="M86.4873 22.4864C86.4873 22.4754 89.8044 23.1653 90.4083 19.9892C90.4083 19.9804 87.1815 19.1957 86.4873 22.4864Z" fill="#B69260"/>
<path d="M98.9161 15.2062C98.9161 15.193 95.8083 16.7425 98.0366 20.3969C98.0366 20.3836 101.12 19.0017 98.9161 15.2062Z" fill="#B69260"/>
<path d="M95.6078 35.9358C95.61 35.938 92.9518 33.67 90.0689 35.8234C90.0689 35.83 92.6036 37.9746 95.6078 35.9358Z" fill="#B69260"/>
<path d="M93.4582 38.235C93.4604 38.235 90.4695 36.3924 88.0714 39.0131C88.0736 39.0153 90.9412 40.7697 93.4582 38.235Z" fill="#B69260"/>
<path d="M89.6997 40.8246C89.6997 40.8246 86.5875 39.2354 84.4209 42.0721C84.4209 42.0721 87.4096 43.5973 89.6997 40.8246Z" fill="#B69260"/>
<path d="M94.323 21.6807C94.323 21.6741 91.8015 23.2213 94.1379 25.9852C94.1379 25.9808 96.6549 24.5658 94.323 21.6807Z" fill="#B69260"/>
<path d="M101.645 21.4422C101.645 21.4356 98.7199 20.2431 97.7832 22.9696C97.7832 22.9652 100.618 24.1356 101.645 21.4422Z" fill="#B69260"/>
<path d="M95.7695 18.5223C95.7695 18.5223 93.9666 20.0013 96.1663 22.0775C96.1663 22.0753 97.978 20.7 95.7695 18.5223Z" fill="#B69260"/>
<path d="M102.333 35.0257C102.333 35.0191 100.129 35.9735 101.758 38.3847C101.758 38.3781 103.947 37.5251 102.333 35.0257Z" fill="#B69260"/>
<path d="M104.468 33.166C104.468 33.1594 102.268 34.0697 103.89 36.5008C103.89 36.4942 106.079 35.6853 104.468 33.166Z" fill="#B69260"/>
<mask id="mask2_1468_212630" style="mask-type:luminance" maskUnits="userSpaceOnUse" x="80" y="10" width="3" height="4">
<path d="M80.1964 10.0246H82.4534V13.9412H80.1964V10.0246Z" fill="white"/>
</mask>
<g mask="url(#mask2_1468_212630)">
<path d="M81.1944 10.0217C81.1944 10.0217 79.4312 11.6593 81.5978 13.4909C81.5978 13.4909 83.3721 11.9481 81.1944 10.0217Z" fill="#B69260"/>
</g>
<path d="M110.622 24.7133C110.622 24.7023 107.681 24.8081 108.658 27.8916C108.658 27.8806 111.55 27.8563 110.622 24.7133Z" fill="#B69260"/>
<path d="M112.389 40.6148C112.389 40.6104 110.663 41.8733 112.754 43.9871C112.754 43.9826 114.487 42.8255 112.389 40.6148Z" fill="#B69260"/>
<path d="M121.174 44.8403C121.176 44.8359 118.663 43.9807 118.355 46.3214C118.355 46.3192 120.803 47.17 121.174 44.8403Z" fill="#B69260"/>
<path d="M118.558 34.2612C118.56 34.2523 115.563 33.3487 115.393 36.2074C115.395 36.2008 118.32 37.1066 118.558 34.2612Z" fill="#B69260"/>
<path d="M115.615 29.7979C115.617 29.7891 112.732 29.4298 113.193 32.3436C113.195 32.3326 116.021 32.7381 115.615 29.7979Z" fill="#B69260"/>
<path d="M120.077 47.6091C120.077 47.6091 117.751 46.2007 116.61 48.1822C116.61 48.1844 118.862 49.5443 120.077 47.6091Z" fill="#B69260"/>
<path d="M115.855 44.1263C115.855 44.1175 113.495 44.415 114.531 46.9233C114.533 46.9145 116.856 46.6896 115.855 44.1263Z" fill="#B69260"/>
<path d="M106.794 21.685C106.794 21.6806 104.892 22.7848 106.821 25.0506C106.821 25.0462 108.723 24.0455 106.794 21.685Z" fill="#B69260"/>
<path d="M102.139 18.1516C102.141 18.145 99.5758 18.0326 99.9857 20.6136C99.9879 20.6069 102.498 20.7723 102.139 18.1516Z" fill="#B69260"/>
<path d="M113.197 46.148C113.197 46.1414 110.83 46.4985 111.868 48.9979C111.87 48.9913 114.202 48.707 113.197 46.148Z" fill="#B69260"/>
<path d="M116.88 52.3484C116.877 52.355 115.376 50.2787 113.051 51.2684C113.051 51.275 114.475 53.2675 116.88 52.3484Z" fill="#B69260"/>
<path d="M114.836 54.3067C114.836 54.3155 113.888 52.0938 111.214 52.5148C111.214 52.5236 112.089 54.6572 114.836 54.3067Z" fill="#B69260"/>
<path d="M110.555 57.9351C110.555 57.9417 109.603 55.7332 106.921 56.2512C106.921 56.2578 107.796 58.387 110.555 57.9351Z" fill="#B69260"/>
<path d="M114.719 58.6097C114.719 58.6163 113.771 56.41 111.099 56.864C111.097 56.8706 111.972 58.9954 114.719 58.6097Z" fill="#B69260"/>
<path d="M118.564 53.3302C118.566 53.3258 116.034 52.8541 116.082 55.3095C116.085 55.3029 118.558 55.7944 118.564 53.3302Z" fill="#B69260"/>
<path d="M119.202 57.468C119.202 57.4724 117.306 55.643 115.393 57.0933C115.393 57.0999 117.207 58.8588 119.202 57.468Z" fill="#B69260"/>
<path d="M118.705 49.9097C118.708 49.9119 116.581 48.25 115.003 49.9648C115.003 49.967 117.052 51.5672 118.705 49.9097Z" fill="#B69260"/>
<path d="M103.414 51.7795C103.414 51.7839 102.036 49.6988 99.574 50.748C99.574 50.7546 100.868 52.7625 103.414 51.7795Z" fill="#B69260"/>
<path d="M106.139 51.0003C106.139 51.0047 104.77 48.9042 102.306 49.9027C102.306 49.9071 103.593 51.9282 106.139 51.0003Z" fill="#B69260"/>
<path d="M108.324 49.6382C108.324 49.6426 107.087 47.7273 104.855 48.5869C104.855 48.5935 106.021 50.4383 108.324 49.6382Z" fill="#B69260"/>
<path d="M109.204 47.5487C109.204 47.5487 107.783 46.4423 106.645 47.6369C106.645 47.6391 108.01 48.7191 109.204 47.5487Z" fill="#B69260"/>
<path d="M103.236 44.4189C103.236 44.4079 100.347 45.3116 101.98 48.3753C101.98 48.3642 104.836 47.5774 103.236 44.4189Z" fill="#B69260"/>
<path d="M105.648 43.6483C105.648 43.6417 103.32 44.3669 104.689 46.8575C104.689 46.8531 106.99 46.2161 105.648 43.6483Z" fill="#B69260"/>
<path d="M100.187 45.4291C100.187 45.4247 97.8506 46.2402 99.2281 48.7087C99.2281 48.7043 101.54 47.977 100.187 45.4291Z" fill="#B69260"/>
<path d="M90.2349 28.2484C90.2327 28.2462 88.4342 29.8265 90.6361 31.8058C90.6339 31.8036 92.4456 30.3246 90.2349 28.2484Z" fill="#B69260"/>
<path d="M85.4323 33.4329C85.4323 33.4307 83.636 35.0793 85.8401 36.9903C85.8401 36.9903 87.6497 35.4364 85.4323 33.4329Z" fill="#B69260"/>
<path d="M91.7064 24.5262C91.7042 24.5217 89.3921 26.5605 92.2728 29.1393C92.2706 29.1371 94.5981 27.235 91.7064 24.5262Z" fill="#B69260"/>
<path d="M92.5714 33.1076C92.5714 33.1098 95.2803 35.0648 97.4998 32.7307C97.502 32.7329 94.9144 30.6699 92.5714 33.1076Z" fill="#B69260"/>
<path d="M85.961 48.5631C85.9632 48.5476 90.3846 47.8225 89.19 43.3703C89.19 43.3526 84.8369 43.9742 85.961 48.5631Z" fill="#B69260"/>
<path d="M105.314 36.5128C105.318 36.4996 109.764 37.983 110.696 33.9341C110.701 33.923 106.383 32.2612 105.314 36.5128Z" fill="#B69260"/>
<path d="M108.802 32.5082C108.807 32.4861 113.263 32.9622 112.642 28.5408C112.644 28.5188 108.271 27.9193 108.802 32.5082Z" fill="#B69260"/>
<path d="M107.096 46.4095C107.098 46.3897 111.403 46.0304 109.984 41.5958C109.986 41.576 105.741 41.8294 107.096 46.4095Z" fill="#B69260"/>
<path d="M114.164 43.7187C114.166 43.7077 117.329 43.6107 116.287 40.3288C116.289 40.3178 113.172 40.3376 114.164 43.7187Z" fill="#B69260"/>
<path d="M108.451 41.0938C108.451 41.0828 111.636 40.8734 110.587 37.5761C110.589 37.5651 107.446 37.6973 108.451 41.0938Z" fill="#B69260"/>
<path d="M118.387 43.8906C118.389 43.8686 122.151 43.2074 119.998 39.024C120.002 39.002 116.264 39.5949 118.387 43.8906Z" fill="#B69260"/>
<path d="M103.203 26.0905C103.203 26.0751 106.595 24.3956 103.589 20.4811C103.589 20.4679 100.201 22.0835 103.203 26.0905Z" fill="#B69260"/>
<path d="M87.2937 16.0307C87.2937 16.0197 90.4764 15.5392 89.5243 12.3279C89.5243 12.3168 86.3901 12.729 87.2937 16.0307Z" fill="#B69260"/>
<path d="M95.7674 17.6759C95.7652 17.6781 97.3058 15.366 94.0504 13.3823C94.0504 13.3845 92.4745 15.6085 95.7674 17.6759Z" fill="#B69260"/>
<path d="M97.9209 33.0536C97.9253 33.0382 102.404 34.3474 103.341 30.1861C103.345 30.1706 98.9877 28.6939 97.9209 33.0536Z" fill="#B69260"/>
<path d="M94.2245 30.219C94.2245 30.219 96.7305 32.0616 98.7891 29.9325C98.7914 29.9347 96.3933 27.9951 94.2245 30.219Z" fill="#B69260"/>
<path d="M95.9694 27.668C95.9694 27.6658 98.7135 29.2439 100.336 26.8481C100.336 26.8481 97.6974 25.1708 95.9694 27.668Z" fill="#B69260"/>
<path d="M103.695 26.4303C103.697 26.4193 100.675 26.4016 101.286 29.4653C101.288 29.4543 104.246 29.5424 103.695 26.4303Z" fill="#B69260"/>
<path d="M111.335 37.0444C111.337 37.0245 115.732 37.5822 115.075 33.2489C115.08 33.2247 110.766 32.5458 111.335 37.0444Z" fill="#B69260"/>
<path d="M112.5 39.7165C112.502 39.7055 116.716 41.2881 117.488 37.4926C117.49 37.4816 113.399 35.7316 112.5 39.7165Z" fill="#B69260"/>
<path d="M97.2781 25.1403C97.2781 25.1381 100.022 26.7471 101.644 24.3821C101.644 24.3799 99.0083 22.6717 97.2781 25.1403Z" fill="#B69260"/>
<path d="M89.5111 48.6957C89.5111 48.6913 86.9058 48.1491 86.3725 50.708C86.3747 50.7058 88.9027 51.2745 89.5111 48.6957Z" fill="#B69260"/>
<path d="M85.4541 55.9252C85.4563 55.9186 88.5156 56.657 89.3333 53.6859C89.3333 53.6793 86.36 52.8571 85.4541 55.9252Z" fill="#B69260"/>
<path d="M85.5689 58.3345C85.5689 58.3322 88.5731 59.5026 89.9572 56.6219C89.9572 56.6197 87.05 55.3589 85.5689 58.3345Z" fill="#B69260"/>
<path d="M85.8444 53.0995C85.8466 53.0951 88.4673 53.7254 89.1527 51.1819C89.1549 51.1775 86.607 50.4788 85.8444 53.0995Z" fill="#B69260"/>
<path d="M101.248 34.2229C101.248 34.2185 98.8608 32.9688 97.6684 35.1552C97.6684 35.153 99.9738 36.3785 101.248 34.2229Z" fill="#B69260"/>
<path d="M97.1174 37.732C97.1174 37.732 99.4537 39.0941 100.882 37.0355C100.884 37.0355 98.636 35.6028 97.1174 37.732Z" fill="#B69260"/>
<path d="M103.431 38.6377C103.433 38.6377 105.756 40.0748 107.178 38.1021C107.178 38.1021 104.948 36.5923 103.431 38.6377Z" fill="#B69260"/>
<path d="M102.352 40.4391C102.352 40.4413 104.494 42.0789 106.244 40.32C106.244 40.3223 104.199 38.6163 102.352 40.4391Z" fill="#B69260"/>
<path d="M101.043 42.6205C101.043 42.6227 103.188 44.2383 104.938 42.4508C104.94 42.453 102.893 40.7713 101.043 42.6205Z" fill="#B69260"/>
<path d="M91.6305 40.7769C91.6305 40.7814 91.5357 43.0802 94.5156 43.4814C94.5134 43.4858 94.6809 41.2244 91.6305 40.7769Z" fill="#B69260"/>
<path d="M91.332 43.5536C91.332 43.5624 91.2218 46.291 94.7594 46.7539C94.7572 46.7627 94.9555 44.0693 91.332 43.5536Z" fill="#B69260"/>
<path d="M96.3597 40.6192C96.3619 40.617 98.9032 41.5449 99.7606 39.1866C99.7628 39.1844 97.2986 38.1815 96.3597 40.6192Z" fill="#B69260"/>
<mask id="mask3_1468_212630" style="mask-type:luminance" maskUnits="userSpaceOnUse" x="29" y="48" width="7" height="5">
<path d="M29.4566 48.3606H35.617V52.3104H29.4566V48.3606Z" fill="white"/>
</mask>
<g mask="url(#mask3_1468_212630)">
<path d="M29.5255 48.566C29.5321 48.5903 29.4858 52.7538 35.1591 52.0617C35.1658 52.0904 35.298 47.7307 29.5255 48.566Z" fill="#B69260"/>
</g>
<path d="M43.7397 28.7836C43.7397 28.7925 40.1669 32.3939 43.376 35.592C43.376 35.6009 46.951 32.1757 43.7397 28.7836Z" fill="#B69260"/>
<path d="M106.424 25.8507C106.424 25.8331 102.769 27.9446 105.945 32.4784C105.945 32.4585 109.582 30.5807 106.424 25.8507Z" fill="#B69260"/>
<path d="M92.2486 15.1847C92.2464 15.1693 88.5524 17.6577 91.7858 22.0085C91.7836 21.9953 95.4666 19.7361 92.2486 15.1847Z" fill="#B69260"/>
<path d="M51.0789 21.0234C51.0789 21.0234 48.9255 22.9564 50.6535 24.982C50.6513 24.982 52.7959 23.1526 51.0789 21.0234Z" fill="#B69260"/>
<path d="M51.1294 19.0504C51.1294 19.0592 50.6863 21.5145 53.7566 21.779C53.7588 21.7901 54.2592 19.3347 51.1294 19.0504Z" fill="#B69260"/>
<path d="M54.92 16.0083C54.9178 16.0237 52.2046 19.9778 56.4783 22.5258C56.4783 22.5412 59.2378 18.7039 54.92 16.0083Z" fill="#B69260"/>
<path d="M33.3597 38.3099C33.3641 38.3231 33.9548 41.4176 38.4203 40.2164C38.4247 40.2318 37.9199 36.9963 33.3597 38.3099Z" fill="#B69260"/>
<path d="M50.3273 43.5866C50.3273 43.5998 50.1664 46.9015 54.4534 46.9831C54.4556 46.9985 54.7068 43.6571 50.3273 43.5866Z" fill="#B69260"/>
<path d="M47.1395 21.8586C47.1373 21.8718 43.9303 25.967 48.0189 28.7882C48.0167 28.8036 51.2545 24.8495 47.1395 21.8586Z" fill="#B69260"/>
<path d="M30.3061 54.2433C30.3083 54.2499 31.979 57.8051 37.5664 55.579C37.573 55.5922 36.0169 51.8012 30.3061 54.2433Z" fill="#B69260"/>
<path d="M36.7671 47.2916C36.7715 47.3203 34.757 51.6689 39.7316 53.1853C39.7338 53.2118 41.81 48.8565 36.7671 47.2916Z" fill="#B69260"/>
<path d="M53.1276 50.4173C53.1276 50.4239 53.8703 53.0865 57.4409 52.0395C57.4431 52.0461 56.7929 49.3373 53.1276 50.4173Z" fill="#B69260"/>
<path d="M53.7126 30.3736C53.7126 30.3736 51.0854 32.6173 53.4459 34.8941C53.4437 34.8941 56.071 32.7716 53.7126 30.3736Z" fill="#B69260"/>
<path d="M51.2892 56.0302C51.2914 56.0368 50.2378 52.9224 46.125 54.5182C46.1272 54.5248 47.0441 57.4871 51.2892 56.0302Z" fill="#B69260"/>
<path d="M51.7553 28.1996C51.7553 28.1996 49.4675 30.0466 51.3365 32.0171C51.3343 32.0171 53.6178 30.2737 51.7553 28.1996Z" fill="#B69260"/>
<path d="M56.4348 25.3562C56.437 25.3629 55.3768 22.7576 51.8878 24.3247C51.89 24.3313 52.8311 26.7999 56.4348 25.3562Z" fill="#B69260"/>
<path d="M58.2989 28.4517C58.2989 28.4583 57.2409 25.8311 53.7475 27.3365C53.7497 27.3453 54.6908 29.8381 58.2989 28.4517Z" fill="#B69260"/>
<path d="M60.2473 30.7594C60.2495 30.7616 59.5089 28.9102 57.0536 29.9086C57.0558 29.913 57.717 31.6917 60.2473 30.7594Z" fill="#B69260"/>
<path d="M62.55 29.6719C62.55 29.6719 64.2758 28.1864 62.583 26.6083C62.583 26.6083 60.8572 28.0299 62.55 29.6719Z" fill="#B69260"/>
<path d="M65.3934 42.0212C65.3934 42.0234 67.117 40.5797 65.4287 38.9531C65.4287 38.9531 63.7073 40.3329 65.3934 42.0212Z" fill="#B69260"/>
<path d="M94.6618 49.4864C94.6618 49.4908 95.021 47.5314 92.4797 46.9429C92.4797 46.9451 92.0742 48.8318 94.6618 49.4864Z" fill="#B69260"/>
<path d="M62.4765 32.8839C62.4765 32.8883 61.7382 31.0214 59.2806 31.978C59.2806 31.9824 59.9418 33.7787 62.4765 32.8839Z" fill="#B69260"/>
<path d="M59.3319 25.8782C59.3319 25.8804 60.7602 24.3375 59.0057 23.1099C59.0035 23.1121 57.5709 24.5888 59.3319 25.8782Z" fill="#B69260"/>
<path d="M61.1633 34.3494C61.1633 34.3494 62.1882 35.8834 64.2975 34.7351C64.2975 34.7395 63.3431 33.1746 61.1633 34.3494Z" fill="#B69260"/>
<path d="M60.6318 27.7086C60.6318 27.7086 62.4369 26.5449 61.1916 24.872C61.1894 24.8698 59.3997 25.9762 60.6318 27.7086Z" fill="#B69260"/>
<path d="M47.1182 39.1569C47.116 39.1547 44.2551 40.724 45.5797 43.3072C45.5797 43.305 48.4075 41.8613 47.1182 39.1569Z" fill="#B69260"/>
<path d="M48.5193 41.9019C48.5193 41.8975 45.654 43.4294 46.9808 46.0412C46.9786 46.0368 49.8109 44.6284 48.5193 41.9019Z" fill="#B69260"/>
<path d="M49.1023 45.1119C49.1023 45.1141 47.0459 46.7253 48.6923 48.5216C48.6923 48.5216 50.7421 46.9986 49.1023 45.1119Z" fill="#B69260"/>
<path d="M40.2159 57.2739C40.2181 57.2717 38.9022 55.6428 36.4821 57.3686C36.4821 57.3686 37.6988 58.9556 40.2159 57.2739Z" fill="#B69260"/>
<path d="M46.7398 59.9754C46.7398 59.9731 45.4195 58.2628 42.9796 59.907C42.9818 59.907 44.2051 61.5733 46.7398 59.9754Z" fill="#B69260"/>
<path d="M42.5212 55.5188C42.5212 55.5254 43.6078 53.3433 41.0643 52.7085C41.0643 52.7152 39.9424 54.8002 42.5212 55.5188Z" fill="#B69260"/>
<path d="M45.1872 56.6261C45.1872 56.6305 46.2782 54.4573 43.7281 53.7718C43.7281 53.7785 42.604 55.8569 45.1872 56.6261Z" fill="#B69260"/>
<path d="M45.936 50.3137C45.936 50.3181 44.7348 47.9928 41.5102 49.7296C41.5124 49.7318 42.5968 51.9579 45.936 50.3137Z" fill="#B69260"/>
<path d="M45.963 36.2597C45.963 36.2575 43.5694 37.6968 44.8015 39.8193C44.7993 39.8171 47.1686 38.4837 45.963 36.2597Z" fill="#B69260"/>
<path d="M54.29 57.7917C54.29 57.7917 52.961 56.143 50.6709 57.7079C50.6731 57.7079 51.9118 59.3147 54.29 57.7917Z" fill="#B69260"/>
<path d="M54.045 73.5049C54.0472 73.5049 52.7226 71.8298 50.4413 73.3352C50.4413 73.3352 51.6778 74.975 54.045 73.5049Z" fill="#B69260"/>
<path d="M36.8036 44.7342C36.8058 44.7408 37.154 46.8766 40.0832 45.9531C40.0855 45.9619 39.8033 43.7821 36.8036 44.7342Z" fill="#B69260"/>
<path d="M50.913 25.3455C50.913 25.3411 48.3386 26.7297 49.5046 29.0616C49.5046 29.0572 52.0481 27.7832 50.913 25.3455Z" fill="#B69260"/>
<path d="M67.6264 58.4842C67.6264 58.4842 65.5766 56.5512 63 58.7245C63 58.7245 64.9352 60.609 67.6264 58.4842Z" fill="#B69260"/>
<path d="M54.8979 62.2151C54.8957 62.2151 52.5682 63.7646 54.2322 65.9356C54.2322 65.9356 56.5465 64.4831 54.8979 62.2151Z" fill="#B69260"/>
<path d="M57.4789 62.9598C57.4789 62.9598 55.6804 64.1346 56.9654 65.8295C56.9632 65.8295 58.7507 64.7275 57.4789 62.9598Z" fill="#B69260"/>
<path d="M74.9324 47.1352C74.9302 47.1308 72.3338 48.1072 73.491 50.6882C73.4888 50.6838 76.0543 49.8044 74.9324 47.1352Z" fill="#B69260"/>
<path d="M51.4056 48.0058C51.4078 48.0102 52.3556 50.0313 55.1459 48.8103C55.1459 48.8125 54.2775 46.7495 51.4056 48.0058Z" fill="#B69260"/>
<path d="M56.1811 53.5204C56.1811 53.5248 57.4397 56.1918 61.0544 54.704C61.0544 54.7106 59.9038 51.982 56.1811 53.5204Z" fill="#B69260"/>
<path d="M59.5332 56.3386C59.5332 56.3408 61.2656 58.8116 64.6312 56.9315C64.6312 56.9359 63.0134 54.3968 59.5332 56.3386Z" fill="#B69260"/>
<path d="M67.8498 55.486C67.8476 55.4882 70.195 53.3282 67.6008 51.0713C67.6008 51.0735 65.2534 53.1387 67.8498 55.486Z" fill="#B69260"/>
<path d="M64.2299 53.7894C64.2277 53.7938 66.2995 51.3671 63.4011 49.4584C63.4011 49.4606 61.3161 51.7859 64.2299 53.7894Z" fill="#B69260"/>
<path d="M60.9536 51.5229C60.9536 51.5273 62.891 49.3695 60.3629 47.6217C60.3607 47.6261 58.4145 49.6891 60.9536 51.5229Z" fill="#B69260"/>
<path d="M57.8293 49.3061C57.8293 49.3105 59.6388 47.0425 57.0005 45.4864C57.0005 45.4909 55.1734 47.6597 57.8293 49.3061Z" fill="#B69260"/>
<path d="M62.9365 40.9576C62.9343 40.9598 65.2927 38.3457 62.2136 36.221C62.2136 36.2232 59.8464 38.7292 62.9365 40.9576Z" fill="#B69260"/>
<path d="M59.0918 38.6919C59.0896 38.6941 61.6243 36.3445 58.9706 34.0743C58.9706 34.0765 56.4381 36.3291 59.0918 38.6919Z" fill="#B69260"/>
<path d="M55.9985 36.5507C55.9985 36.5507 58.5376 34.5869 56.4349 32.3079C56.4349 32.3079 53.9091 34.188 55.9985 36.5507Z" fill="#B69260"/>
<path d="M115.083 59.6106C115.081 59.6239 116.183 62.6677 112.365 62.8044C112.363 62.8176 111.204 59.7649 115.083 59.6106Z" fill="#B69260"/>
<path d="M118.431 59.1802C118.431 59.189 119.484 61.7501 116.333 61.9176C116.333 61.9265 115.235 59.3719 118.431 59.1802Z" fill="#B69260"/>
<path d="M121.149 57.9002C121.149 57.909 122.804 60.3445 120.109 61.1071C120.107 61.116 118.427 58.7201 121.149 57.9002Z" fill="#B69260"/>
<path d="M99.2704 61.2295C99.2682 61.2405 98.7789 57.8815 103.077 58.2297C103.077 58.2407 103.659 61.4367 99.2704 61.2295Z" fill="#B69260"/>
<path d="M104.383 62.315C104.381 62.3283 103.517 59.1015 107.544 59.1301C107.544 59.1434 108.485 62.2114 104.383 62.315Z" fill="#B69260"/>
<path d="M108.8 62.6542C108.8 62.6652 107.647 59.7492 111.178 59.4715C111.178 59.4825 112.386 62.2596 108.8 62.6542Z" fill="#B69260"/>
<path d="M59.1888 46.4025C59.1888 46.3981 62.1599 48.2099 64.8577 45.1198C64.8577 45.1176 62.0056 43.1956 59.1888 46.4025Z" fill="#B69260"/>
<path d="M55.2168 44.4793C55.2168 44.4727 58.1835 46.2051 60.8747 43.062C60.8747 43.0576 58.0248 41.2128 55.2168 44.4793Z" fill="#B69260"/>
<path d="M43.1174 52.3081C43.1196 52.3081 44.6624 54.6025 48.0148 52.6321C48.017 52.6343 46.5711 50.2583 43.1174 52.3081Z" fill="#B69260"/>
<path d="M38.824 59.0045C38.824 59.0001 40.9509 60.8251 43.8493 58.3168C43.8493 58.3146 41.8215 56.4125 38.824 59.0045Z" fill="#B69260"/>
<mask id="mask4_1468_212630" style="mask-type:luminance" maskUnits="userSpaceOnUse" x="29" y="56" width="7" height="4">
<path d="M29.4566 56.824H35.0528V59.6452H29.4566V56.824Z" fill="white"/>
</mask>
<g mask="url(#mask4_1468_212630)">
<path d="M29.6173 58.603C29.6173 58.5964 31.7178 60.2539 34.5853 57.6442C34.5853 57.6398 32.5796 55.9008 29.6173 58.603Z" fill="#B69260"/>
</g>
<path d="M52.9209 42.1228C52.9209 42.1184 55.1911 43.399 57.2453 40.9524C57.2453 40.9502 55.0655 39.5947 52.9209 42.1228Z" fill="#B69260"/>
<path d="M49.7296 39.5393C49.7296 39.5371 51.5325 41.3466 54.259 39.2417C54.2612 39.2417 52.5508 37.3528 49.7296 39.5393Z" fill="#B69260"/>
<path d="M44.9553 67.3106C44.9553 67.3194 44.4417 70.2376 48.1534 70.3654C48.1534 70.3721 48.7375 67.4561 44.9553 67.3106Z" fill="#B69260"/>
<path d="M59.0589 69.486C59.0589 69.4904 59.5967 66.9932 56.5 66.6692C56.5022 66.6758 55.9071 69.0694 59.0589 69.486Z" fill="#B69260"/>
<path d="M46.6562 71.946C46.6562 71.9416 44.699 70.5067 42.5434 72.6821C42.5434 72.6777 44.397 74.106 46.6562 71.946Z" fill="#B69260"/>
<path d="M63.9454 67.3842C63.9454 67.3886 65.0518 65.5548 62.8257 64.5497C62.8257 64.5519 61.6928 66.3086 63.9454 67.3842Z" fill="#B69260"/>
<path d="M55.8819 70.1585C55.8819 70.1651 56.5034 67.291 52.9505 66.9648C52.9505 66.9736 52.2606 69.7199 55.8819 70.1585Z" fill="#B69260"/>
<path d="M52.1735 70.5266C52.1735 70.5354 52.7708 67.7407 49.3192 67.4828C49.3214 67.4894 48.6558 70.1563 52.1735 70.5266Z" fill="#B69260"/>
<path d="M59.6466 65.4767C59.6466 65.4811 58.9699 67.8285 61.9014 68.3597C61.9014 68.3641 62.6331 66.0542 59.6466 65.4767Z" fill="#B69260"/>
<path d="M40.5459 46.0754C40.5481 46.0842 40.8325 49.0091 44.7689 48.0833C44.7711 48.0922 44.5706 45.099 40.5459 46.0754Z" fill="#B69260"/>
<path d="M39.8342 43.1194C39.8364 43.1282 40.2111 45.8502 43.9117 44.8253C43.9139 44.8341 43.6186 42.046 39.8342 43.1194Z" fill="#B69260"/>
<path d="M39.398 40.0491C39.398 40.0579 39.7352 42.5023 43.0611 41.5391C43.0633 41.5479 42.7989 39.0485 39.398 40.0491Z" fill="#B69260"/>
<path d="M40.4573 36.1521C40.4573 36.1587 39.8247 38.1975 42.3065 38.3165C42.3065 38.3231 42.981 36.2954 40.4573 36.1521Z" fill="#B69260"/>
<path d="M31.8444 42.6856C31.8466 42.6878 32.4637 44.3783 34.9367 43.1771C34.9389 43.1793 34.3791 41.4469 31.8444 42.6856Z" fill="#B69260"/>
<path d="M47.4566 37.3616C47.4566 37.3594 49.2574 39.127 51.9794 36.9803C51.9794 36.9803 50.2712 35.1288 47.4566 37.3616Z" fill="#B69260"/>
<path d="M46.0102 33.9627C46.0102 33.9693 46.7574 36.3211 50.0327 35.0824C50.0349 35.089 49.3692 32.6689 46.0102 33.9627Z" fill="#B69260"/>
<path d="M36.0864 33.3841C36.0886 33.4039 34.5987 37.0473 38.9099 37.4947C38.9121 37.5167 40.4593 33.8536 36.0864 33.3841Z" fill="#B69260"/>
<path d="M39.5069 29.2816C39.5069 29.2926 37.3491 32.2196 40.4591 33.6148C40.4591 33.6236 42.6433 30.7693 39.5069 29.2816Z" fill="#B69260"/>
<path d="M45.6199 31.111C45.6199 31.1154 45.9792 33.088 48.6593 32.2835C48.6593 32.2879 48.364 30.2822 45.6199 31.111Z" fill="#B69260"/>
<path d="M97.6684 68.502C97.6662 68.5042 98.4332 66.5976 101.455 67.6931C101.455 67.6953 100.781 69.5357 97.6684 68.502Z" fill="#B69260"/>
<path d="M99.9873 70.8704C99.9873 70.8748 99.9674 68.7964 103.126 68.9859C103.124 68.9925 103.218 70.9762 99.9873 70.8704Z" fill="#B69260"/>
<path d="M103.136 71.3956C103.136 71.4 102.664 69.3326 105.732 69.0196C105.732 69.0262 106.266 70.9923 103.136 71.3956Z" fill="#B69260"/>
<path d="M106.403 71.6841C106.403 71.6907 105.596 69.6762 108.519 68.9995C108.519 69.0061 109.374 70.9149 106.403 71.6841Z" fill="#B69260"/>
<path d="M109.577 71.2696C109.577 71.2762 109.03 69.2264 112.059 68.9134C112.059 68.92 112.665 70.864 109.577 71.2696Z" fill="#B69260"/>
<path d="M112.643 71.5436C112.64 71.5524 112.371 69.0199 116.211 69.1852C116.209 69.194 116.57 71.5855 112.643 71.5436Z" fill="#B69260"/>
<path d="M105.038 77.8423C105.038 77.8313 108.027 76.2576 111.009 79.9538C111.009 79.945 108.175 81.5562 105.038 77.8423Z" fill="#B69260"/>
<path d="M95.0103 67.8112C95.0103 67.8156 93.7871 65.4815 96.4474 63.749C96.4496 63.7535 97.7037 65.9708 95.0103 67.8112Z" fill="#B69260"/>
<path d="M92.5977 69.2403C92.5977 69.2425 90.808 67.4307 92.8027 64.7836C92.8027 64.7836 94.5946 66.4918 92.5977 69.2403Z" fill="#B69260"/>
<path d="M104.01 67.4017C104.012 67.3951 100.642 67.426 100.821 63.9788C100.823 63.97 104.12 63.8928 104.01 67.4017Z" fill="#B69260"/>
<path d="M108.201 67.7469C108.203 67.7403 104.842 67.7072 105.022 64.2909C105.025 64.2821 108.313 64.2711 108.201 67.7469Z" fill="#B69260"/>
<mask id="mask5_1468_212630" style="mask-type:luminance" maskUnits="userSpaceOnUse" x="122" y="58" width="4" height="4">
<path d="M122.166 58.5172H125.485V61.2282H122.166V58.5172Z" fill="white"/>
</mask>
<g mask="url(#mask5_1468_212630)">
<path d="M125.365 58.5747C125.363 58.5857 126.379 61.429 122.531 61.0521C122.529 61.0653 121.46 58.1868 125.365 58.5747Z" fill="#B69260"/>
</g>
<path d="M124.555 53.3945C124.55 53.4144 125.062 57.19 119.823 55.7948C119.818 55.8146 119.225 51.9002 124.555 53.3945Z" fill="#B69260"/>
<path d="M111.509 67.5275C111.511 67.5231 108.946 67.4526 109.085 64.8628C109.085 64.8584 111.595 64.8915 111.509 67.5275Z" fill="#B69260"/>
<path d="M115.683 66.6969C115.683 66.6903 113.076 67.1597 112.454 64.5633C112.456 64.5567 114.991 64.0542 115.683 66.6969Z" fill="#B69260"/>
<path d="M118.909 66.2227C118.909 66.2139 116.311 66.6326 115.691 64.0472C115.694 64.0406 118.219 63.5932 118.909 66.2227Z" fill="#B69260"/>
<path d="M122.3 64.66C122.3 64.6511 120.11 65.8458 118.423 63.6461C118.423 63.6395 120.533 62.4118 122.3 64.66Z" fill="#B69260"/>
<path d="M107.953 75.8215C107.955 75.8171 105.253 76.2314 104.901 73.6064C104.901 73.602 107.532 73.1545 107.953 75.8215Z" fill="#B69260"/>
<path d="M105.196 80.2049C105.196 80.2005 102.41 80.3151 102.492 77.6967C102.492 77.6923 105.218 77.5424 105.196 80.2049Z" fill="#B69260"/>
<path d="M101.089 79.3922C101.089 79.39 98.3515 78.6229 99.5197 76.269C99.5197 76.2668 102.22 76.9787 101.089 79.3922Z" fill="#B69260"/>
<path d="M97.5772 77.9285C97.5794 77.9307 95.2386 76.3967 97.3017 74.5915C97.3017 74.5937 99.6314 76.0528 97.5772 77.9285Z" fill="#B69260"/>
<path d="M93.9778 76.3235C93.9778 76.3279 92.7038 74.0225 95.5779 73.3833C95.5779 73.3877 96.8894 75.6028 93.9778 76.3235Z" fill="#B69260"/>
<path d="M104.771 75.5013C104.771 75.4947 102.064 75.9443 101.709 73.3082C101.709 73.3038 104.347 72.8189 104.771 75.5013Z" fill="#B69260"/>
<path d="M111.278 75.4044C111.278 75.3978 108.582 75.7703 108.23 73.1606C108.232 73.154 110.859 72.7507 111.278 75.4044Z" fill="#B69260"/>
<path d="M114.936 73.8821C114.936 73.8755 112.56 75.0459 111.077 72.8087C111.077 72.8043 113.369 71.6053 114.936 73.8821Z" fill="#B69260"/>
<path d="M124.552 63.0744C124.552 63.07 122.928 64.139 121.385 62.4793C121.385 62.4749 122.941 61.3773 124.552 63.0744Z" fill="#B69260"/>
<path d="M30.7424 60.7922C30.7446 60.7834 33.3784 63.5803 37.888 60.2257C37.888 60.2213 35.3775 57.2635 30.7424 60.7922Z" fill="#B69260"/>
<path d="M38.4566 69.9721C38.4588 69.9677 40.6431 72.617 44.5619 70.014C44.5641 70.0118 42.4989 67.2699 38.4566 69.9721Z" fill="#B69260"/>
<path d="M43.1633 74.9948C43.1633 74.9881 45.6649 77.3289 49.0989 74.5517C49.1011 74.5473 46.7207 72.1361 43.1633 74.9948Z" fill="#B69260"/>
<path d="M41.3725 65.6976C41.3702 65.6888 44.5596 65.8453 45.3883 62.6053C45.3861 62.5965 42.2849 62.3827 41.3725 65.6976Z" fill="#B69260"/>
<path d="M50.4155 65.9097C50.4133 65.9053 53.5673 64.7702 52.5689 61.733C52.5689 61.7285 49.4655 62.7953 50.4155 65.9097Z" fill="#B69260"/>
<path d="M45.8521 66.5911C45.8499 66.5845 49.5175 66.0511 48.9467 62.5797C48.9445 62.5709 45.3474 63.0492 45.8521 66.5911Z" fill="#B69260"/>
<path d="M37.9286 64.0251C37.9286 64.0185 40.3509 65.0808 42.2905 62.4293C42.2905 62.4227 39.9563 61.3052 37.9286 64.0251Z" fill="#B69260"/>
<path d="M35.7015 62.6899C35.7015 62.6855 37.4934 63.6906 39.2589 61.6584C39.2589 61.654 37.5397 60.607 35.7015 62.6899Z" fill="#B69260"/>
<path d="M47.3418 76.8938C47.3418 76.8894 49.1514 78.0818 50.9301 76.1511C50.9301 76.1489 49.2021 74.9234 47.3418 76.8938Z" fill="#B69260"/>
<path d="M58.8453 77.778C58.8431 77.7758 61.8164 76.352 60.2625 73.4536C60.2603 73.4514 57.3245 74.7915 58.8453 77.778Z" fill="#B69260"/>
<path d="M63.4811 76.3106C63.4811 76.3106 66.331 74.0911 63.3908 71.6886C63.3908 71.6908 60.5409 73.8089 63.4811 76.3106Z" fill="#B69260"/>
<path d="M54.4835 78.1482C54.4835 78.146 57.4634 77.8044 57.329 74.8355C57.329 74.8333 54.4108 75.1132 54.4835 78.1482Z" fill="#B69260"/>
<path d="M51.4745 78.1824C51.4723 78.1802 53.8637 78.0965 54.029 75.705C54.029 75.705 51.6971 75.7403 51.4745 78.1824Z" fill="#B69260"/>
</g>
<defs>
<clipPath id="clip0_1468_212630">
<rect width="155.755" height="144" fill="white"/>
</clipPath>
</defs>
</svg>
