<svg width="44" height="40" viewBox="0 0 44 40" fill="none" xmlns="http://www.w3.org/2000/svg">
<g clip-path="url(#clip0_1468_223419)">
<path d="M18.2726 34.9841H17.9591L17.9566 34.0779L17.6236 34.8445H17.3909L17.0554 34.0779V34.9841H16.7395V33.5857H17.1289L17.506 34.4183L17.8856 33.5857H18.2726V34.9841Z" fill="white"/>
<path d="M19.703 34.9841H19.3479V33.5881H19.703V34.9841Z" fill="white"/>
<path d="M21.1379 34.6877H21.7306V34.9841H20.7828V33.5881H21.1379V34.6877Z" fill="white"/>
<path d="M23.6181 34.7269H23.0083L22.9079 34.9841H22.543L23.1454 33.5881H23.5103L24.0981 34.9841H23.7185L23.6181 34.7269ZM23.5152 34.4575L23.3168 33.9408L23.1136 34.4575H23.5152Z" fill="white"/>
<path d="M25.8639 34.9841L25.6582 34.5922H25.379V34.9841H25.0239V33.5881H25.6484C25.8327 33.5881 25.9754 33.631 26.077 33.7155C26.178 33.8006 26.2288 33.9206 26.2288 34.0755C26.2288 34.291 26.1437 34.4404 25.9741 34.5236L26.268 34.9841H25.8639ZM25.379 34.313H25.6484C25.7249 34.313 25.7843 34.2934 25.8272 34.2543C25.8694 34.2151 25.8909 34.16 25.8909 34.0877C25.8909 34.0161 25.8694 33.9616 25.8272 33.9236C25.7843 33.8863 25.7249 33.8673 25.6484 33.8673H25.379V34.313Z" fill="white"/>
<path d="M28.5506 34.9841H28.2371L27.5955 34.1245V34.9841H27.2625V33.5881H27.5759L28.22 34.4502V33.5881H28.5506V34.9841Z" fill="white"/>
<path d="M3.79847 37.3981H3.20582L3.09317 37.6626H2.88745L3.40419 36.4895H3.60745L4.12174 37.6626H3.91112L3.79847 37.3981ZM3.72255 37.2217L3.4997 36.7001L3.27929 37.2217H3.72255Z" fill="white"/>
<path d="M5.54053 36.4895H6.00828C6.15645 36.4895 6.27094 36.525 6.35114 36.5948C6.43257 36.6634 6.47359 36.7613 6.47359 36.8887C6.47359 37.0228 6.43257 37.1262 6.35114 37.1997C6.27094 37.272 6.15645 37.3075 6.00828 37.3075H5.73889V37.6626H5.54053V36.4895ZM5.73889 36.6658V37.1311H6.00094C6.18828 37.1311 6.28257 37.0522 6.28257 36.8936C6.28257 36.7417 6.18828 36.6658 6.00094 36.6658H5.73889Z" fill="white"/>
<path d="M7.84181 37.3981H7.24915L7.1365 37.6626H6.93079L7.44752 36.4895H7.65079L8.16507 37.6626H7.95446L7.84181 37.3981ZM7.76589 37.2217L7.54303 36.7001L7.32262 37.2217H7.76589Z" fill="white"/>
<path d="M9.54209 36.6658H9.16985V37.6626H8.97393V36.6658H8.60168V36.4895H9.54209V36.6658Z" fill="white"/>
<path d="M11.1448 37.6626H10.9464V37.1752H10.3243V37.6626H10.126V36.4895H10.3243V36.9989H10.9464V36.4895H11.1448V37.6626Z" fill="white"/>
<path d="M13.5217 36.6658H13.1495V37.6626H12.9535V36.6658H12.5813V36.4895H13.5217V36.6658Z" fill="white"/>
<path d="M14.1887 36.6534C14.3093 36.5395 14.4568 36.4819 14.6319 36.4819C14.8083 36.4819 14.9558 36.5395 15.0752 36.6534C15.1958 36.7679 15.2564 36.9093 15.2564 37.077C15.2564 37.2436 15.1958 37.3844 15.0752 37.4983C14.9558 37.6127 14.8083 37.6697 14.6319 37.6697C14.4568 37.6697 14.3093 37.6127 14.1887 37.4983C14.0693 37.3844 14.0099 37.2436 14.0099 37.077C14.0099 36.9093 14.0693 36.7679 14.1887 36.6534ZM14.6344 36.6607C14.5181 36.6607 14.4189 36.7011 14.3356 36.7807C14.2523 36.8609 14.2107 36.9589 14.2107 37.0746C14.2107 37.1909 14.2523 37.2895 14.3356 37.3709C14.4201 37.453 14.5199 37.4934 14.6344 37.4934C14.7501 37.4934 14.8487 37.453 14.9307 37.3709C15.0121 37.2895 15.0532 37.1909 15.0532 37.0746C15.0532 36.9589 15.0121 36.8609 14.9307 36.7807C14.8487 36.7011 14.7501 36.6607 14.6344 36.6607Z" fill="white"/>
<path d="M17.5192 36.6658H16.9314V37.0038H17.4653V37.1801H16.9314V37.6626H16.733V36.4895H17.5216L17.5192 36.6658Z" fill="white"/>
<path d="M18.309 37.6626H18.1106V36.4895H18.309V37.6626Z" fill="white"/>
<path d="M20.0542 37.6626H19.8583L19.2338 36.8201V37.6626H19.0354V36.4895H19.2289L19.8583 37.332V36.4895H20.0542V37.6626Z" fill="white"/>
<path d="M21.5408 37.3981H20.9481L20.8355 37.6626H20.6298L21.1465 36.4895H21.3498L21.864 37.6626H21.6534L21.5408 37.3981ZM21.4649 37.2217L21.242 36.7001L21.0216 37.2217H21.4649Z" fill="white"/>
<path d="M23.4533 37.6626H23.2574L22.6329 36.8201V37.6626H22.4346V36.4895H22.628L23.2574 37.332V36.4895H23.4533V37.6626Z" fill="white"/>
<path d="M24.6971 36.4819C24.7804 36.4819 24.8612 36.4985 24.9395 36.5309C25.0191 36.5621 25.0877 36.6062 25.1453 36.6632L25.0277 36.8076C24.9849 36.7623 24.9346 36.7262 24.8759 36.6999C24.8183 36.6723 24.7608 36.6583 24.702 36.6583C24.5844 36.6583 24.4846 36.6987 24.4032 36.7783C24.3212 36.8585 24.2808 36.9564 24.2808 37.0721C24.2808 37.1885 24.3212 37.2864 24.4032 37.366C24.4846 37.4462 24.5844 37.486 24.702 37.486C24.8226 37.486 24.931 37.4395 25.0277 37.3464L25.1453 37.4787C25.0846 37.5374 25.0142 37.584 24.9346 37.6183C24.8544 37.6525 24.7736 37.6697 24.6922 37.6697C24.5189 37.6697 24.3738 37.6127 24.2563 37.4983C24.1387 37.3844 24.08 37.243 24.08 37.0746C24.08 36.9081 24.1393 36.7679 24.2587 36.6534C24.3775 36.5395 24.5238 36.4819 24.6971 36.4819Z" fill="white"/>
<path d="M25.962 37.6626H25.7637V36.4895H25.962V37.6626Z" fill="white"/>
<path d="M27.4464 37.3981H26.8538L26.7411 37.6626H26.5354L27.0521 36.4895H27.2554L27.7697 37.6626H27.5591L27.4464 37.3981ZM27.3705 37.2217L27.1476 36.7001L26.9272 37.2217H27.3705Z" fill="white"/>
<path d="M28.5386 37.4838H29.0455V37.6626H28.3402V36.4895H28.5386V37.4838Z" fill="white"/>
<path d="M31.7122 37.6626H31.5089L31.2322 36.7466L30.9506 37.6626H30.7449L30.3555 36.4895H30.5685L30.8526 37.4422L31.1367 36.4895H31.3326L31.6167 37.4422L31.9008 36.4895H32.1065L31.7122 37.6626Z" fill="white"/>
<path d="M33.4978 36.6658H32.8562V36.9842H33.4293V37.1605H32.8562V37.4838H33.5174V37.6626H32.6578V36.4895H33.4978V36.6658Z" fill="white"/>
<path d="M34.374 37.4838H34.881V37.6626H34.1757V36.4895H34.374V37.4838Z" fill="white"/>
<path d="M35.6814 37.4838H36.1883V37.6626H35.483V36.4895H35.6814V37.4838Z" fill="white"/>
<path d="M37.8157 37.6626H37.6197L36.9952 36.8201V37.6626H36.7969V36.4895H36.9903L37.6197 37.332V36.4895H37.8157V37.6626Z" fill="white"/>
<path d="M39.3843 36.6658H38.7427V36.9842H39.3157V37.1605H38.7427V37.4838H39.4039V37.6626H38.5443V36.4895H39.3843V36.6658Z" fill="white"/>
<path d="M40.4445 36.4795C40.5964 36.4795 40.7323 36.5199 40.8535 36.5995L40.7727 36.7758C40.6533 36.7023 40.5382 36.6656 40.4274 36.6656C40.3686 36.6656 40.3221 36.6766 40.2878 36.6975C40.2535 36.7189 40.2364 36.7489 40.2364 36.7881C40.2364 36.8272 40.2517 36.8609 40.2829 36.8885C40.3153 36.9166 40.3545 36.9368 40.4004 36.9497C40.4476 36.9613 40.4984 36.9766 40.5523 36.9962C40.6074 37.0158 40.6588 37.0372 40.7066 37.0599C40.7537 37.0813 40.7929 37.1156 40.8241 37.1628C40.8547 37.2087 40.8707 37.2644 40.8707 37.3293C40.8707 37.4321 40.829 37.5148 40.7458 37.5766C40.6637 37.6391 40.5578 37.6697 40.4274 37.6697C40.3374 37.6697 40.2498 37.6538 40.1653 37.6207C40.0821 37.5864 40.0092 37.5411 39.9474 37.4836L40.0331 37.3121C40.0919 37.366 40.1562 37.4089 40.2266 37.4395C40.2982 37.4689 40.3662 37.4836 40.4298 37.4836C40.4996 37.4836 40.5535 37.4713 40.5915 37.4468C40.6307 37.4211 40.6502 37.385 40.6502 37.3391C40.6502 37.2999 40.6337 37.2668 40.6013 37.2387C40.57 37.2111 40.5309 37.1915 40.4837 37.1799C40.4378 37.167 40.387 37.1517 40.3319 37.1334C40.278 37.1138 40.2272 37.0942 40.18 37.0746C40.1323 37.0538 40.0931 37.0201 40.0625 36.9742C40.0313 36.927 40.016 36.8713 40.016 36.8077C40.016 36.7085 40.0551 36.6289 40.1335 36.5701C40.2119 36.5101 40.3153 36.4795 40.4445 36.4795Z" fill="white"/>
<path d="M41.905 36.4795C42.0568 36.4795 42.1927 36.5199 42.314 36.5995L42.2331 36.7758C42.1138 36.7023 41.9987 36.6656 41.8878 36.6656C41.8291 36.6656 41.7825 36.6766 41.7482 36.6975C41.714 36.7189 41.6968 36.7489 41.6968 36.7881C41.6968 36.8272 41.7121 36.8609 41.7433 36.8885C41.7758 36.9166 41.815 36.9368 41.8609 36.9497C41.908 36.9613 41.9589 36.9766 42.0127 36.9962C42.0678 37.0158 42.1193 37.0372 42.167 37.0599C42.2142 37.0813 42.2533 37.1156 42.2846 37.1628C42.3152 37.2087 42.3311 37.2644 42.3311 37.3293C42.3311 37.4321 42.2895 37.5148 42.2062 37.5766C42.1242 37.6391 42.0182 37.6697 41.8878 37.6697C41.7978 37.6697 41.7103 37.6538 41.6258 37.6207C41.5425 37.5864 41.4697 37.5411 41.4078 37.4836L41.4936 37.3121C41.5523 37.366 41.6166 37.4089 41.687 37.4395C41.7587 37.4689 41.8266 37.4836 41.8903 37.4836C41.9601 37.4836 42.014 37.4713 42.0519 37.4468C42.0911 37.4211 42.1107 37.385 42.1107 37.3391C42.1107 37.2999 42.0942 37.2668 42.0617 37.2387C42.0305 37.2111 41.9913 37.1915 41.9442 37.1799C41.8982 37.167 41.8474 37.1517 41.7923 37.1334C41.7384 37.1138 41.6876 37.0942 41.6405 37.0746C41.5927 37.0538 41.5536 37.0201 41.5229 36.9742C41.4917 36.927 41.4764 36.8713 41.4764 36.8077C41.4764 36.7085 41.5156 36.6289 41.594 36.5701C41.6723 36.5101 41.7758 36.4795 41.905 36.4795Z" fill="white"/>
<path d="M31.0655 28.6268C30.4722 28.6887 29.8532 28.7107 29.7792 28.505C29.5734 27.9319 28.8504 27.7636 28.9263 27.6913C28.9563 27.6631 29.2128 27.6772 29.6396 27.755C29.8496 27.7929 30.4753 27.9962 30.6828 28.0397C30.79 28.0623 30.8787 28.0991 30.9547 28.1382C31.2602 28.2938 31.7861 28.3421 32.1896 28.4389C32.4081 28.4915 32.5894 28.6146 32.6824 28.6446C32.5747 28.5142 32.41 28.4682 32.3218 28.4346C32.1651 28.3746 32.0279 28.3158 31.8847 28.2907C31.6465 28.2491 31.4971 28.2356 31.3226 28.1493C30.9026 27.9423 30.6669 27.845 30.2598 27.7825C30.2769 27.7378 30.992 27.6785 31.2975 27.6913C31.6171 27.7036 32.1387 27.7838 32.5257 27.7629C32.6653 27.755 32.7841 27.7305 32.9157 27.7164C33.0473 27.7023 33.2053 27.7403 33.351 27.7734C33.2243 27.6968 32.9671 27.6699 32.7687 27.6754C32.571 27.6809 32.3898 27.7091 32.1804 27.6974C31.8736 27.6803 31.573 27.5811 31.2645 27.5597C30.8598 27.5321 30.5487 27.646 30.1434 27.6209C29.9175 27.6062 29.7069 27.5389 29.4792 27.5082C28.9128 27.4305 27.9736 27.5499 27.1563 27.5034C26.7338 27.4789 26.2526 27.4874 25.8926 27.3827C25.6018 27.2982 25.003 26.9242 24.9718 26.8734C24.8818 26.7301 25.2896 26.6242 25.6018 26.6554C25.9141 26.6872 26.1504 26.7282 26.4638 26.7582C26.8428 26.795 27.2481 26.7821 27.6277 26.7644C27.9394 26.7497 28.5902 26.727 28.9036 26.7527C29.4504 26.7968 29.6641 26.8862 30.2096 26.9334C29.9016 26.8654 29.5887 26.8042 29.2857 26.7325C28.9202 26.645 28.4053 26.6585 28.1941 26.6591C26.0708 26.6695 26.1663 26.3082 24.8996 26.2293C24.3124 26.1938 23.2845 26.1815 22.6949 26.1999C22.3085 26.2115 21.9216 26.2978 21.5341 26.3015C21.3345 26.3034 21.1349 26.304 20.9347 26.3058C20.8385 26.3058 20.7192 26.1687 20.6806 26.2048C20.4975 26.1864 20.0267 26.2776 20.0028 26.2795C19.7365 26.3003 19.4359 26.2899 19.1824 26.3303C18.9767 26.3627 18.6063 26.4527 18.4881 26.5446C18.2022 26.667 17.9236 26.8048 17.5636 26.8666C17.4124 26.8929 17.2514 26.9052 17.1051 26.9376C16.783 27.0093 16.5792 27.1685 16.273 27.256C15.973 27.3423 15.6112 27.3509 15.2738 27.3417C14.9371 27.3331 14.5998 27.3093 14.2612 27.3387C13.922 27.3674 13.5687 27.4642 13.4408 27.6154C13.7475 27.4293 14.3187 27.4091 14.7896 27.4385C15.2604 27.4678 15.7655 27.5236 16.21 27.4207C16.54 27.3442 16.7806 27.1887 17.124 27.1299C17.2459 27.1097 17.3983 27.106 17.4749 27.1513C17.5441 27.1917 17.5061 27.2517 17.4816 27.305C17.3604 27.5646 17.1222 27.5995 16.8626 27.7195C16.6759 27.8052 16.472 27.8431 16.24 27.9001C15.8524 27.9938 15.4159 28.0568 14.9934 28.0954C14.5716 28.1327 14.1277 28.197 13.8271 28.3476C13.6545 28.4346 13.5436 28.5429 13.382 28.6336C13.0116 28.8423 12.4765 28.9868 12.3136 29.2385C12.2218 29.3805 12.2114 29.5042 12.204 29.6487C12.1967 29.7895 12.0908 29.9321 11.9053 30.0503C12.1171 29.9101 12.3094 29.8109 12.3938 29.648C12.4875 29.4674 12.4306 29.2887 12.6896 29.1399C12.9124 29.0113 13.3067 28.8264 13.554 28.7064C13.7102 28.6305 13.8161 28.5785 13.96 28.497C14.2826 28.3152 14.6775 28.2876 15.1563 28.2252C15.6345 28.1621 16.2222 28.0556 16.6826 27.9644C17.1424 27.8725 17.6089 27.6552 17.7504 27.4311C17.8153 27.3289 17.7859 27.2744 17.8581 27.1727C17.9879 26.9915 18.3338 26.8587 18.6938 26.768C19.0545 26.678 19.2234 26.585 19.8436 26.5782C19.9765 26.5764 20.6634 26.5127 20.9494 26.6811C21.1043 26.7717 20.9383 26.8825 20.8085 26.986C20.5134 27.2211 19.9667 27.3558 19.4818 27.5095C18.9963 27.6625 18.5108 27.8787 18.4802 28.1487C18.463 28.3023 18.4869 28.4456 18.64 28.598C18.7771 28.7346 18.9424 28.8491 18.4238 28.9397C18.1496 28.988 17.6763 28.9666 17.41 29.026C17.1271 29.0885 16.9973 29.2231 16.7677 29.3242C16.453 29.4625 16.0251 29.4644 15.6057 29.4913C14.964 29.5342 14.391 29.7711 14.1755 30.0552C14.304 29.9407 14.5838 29.8709 14.814 29.7907C15.3351 29.6095 16.0134 29.6646 16.4224 29.6015C16.2706 29.8109 16.4885 30.1568 16.5945 30.368C16.7114 30.6001 16.5057 30.6031 16.4628 30.8934C16.4322 31.0972 16.6122 31.3329 17.0175 31.4009C16.7702 31.3085 16.712 31.1407 16.7457 30.9901C16.7787 30.8401 16.8847 30.6925 16.8938 30.5413C16.9134 30.2303 16.4665 29.8678 16.8455 29.6052C17.124 29.4117 17.1994 29.2605 17.6438 29.1821C18.2977 29.067 18.9896 29.1405 19.2051 28.8803C19.2994 28.7658 19.1126 28.6085 19.0624 28.4909C18.7716 27.8076 20.1069 27.646 20.211 27.6938C20.3585 27.7593 20.0298 27.9748 20.2606 28.1719C20.4161 28.3054 20.7981 28.3636 20.8845 28.5111C20.9641 28.6489 20.7063 28.7787 20.6304 28.9182C20.4724 29.2078 21.1116 29.4999 20.8936 29.7809C20.6855 30.0509 19.9128 30.0766 19.3887 30.2254C18.6094 30.4464 18.4618 31.0323 19.112 31.3158C18.6736 30.9313 18.8457 30.4801 19.5798 30.3625C19.9024 30.3105 20.2875 30.264 20.5808 30.1813C20.8679 30.1005 21.0657 29.8519 21.3963 29.844C21.643 29.8385 21.8243 30.1311 21.943 30.2321C22.0618 30.3331 22.1218 30.4482 22.2461 30.548C22.4494 30.7109 22.8326 30.8511 22.7806 31.0397C22.7549 31.134 22.7206 31.2019 22.7169 31.3146C22.9814 31.1407 23.0047 30.8927 22.7732 30.7121C22.6324 30.6013 22.4053 30.5138 22.3269 30.3895C22.2749 30.308 22.0783 29.9731 22 29.8966C21.7134 29.6199 21.3834 29.678 21.1734 29.3866C20.7418 28.7866 21.6632 28.8117 21.4636 28.5393C21.2873 28.298 20.5471 28.1725 20.6181 27.9178C20.6665 27.7421 21.0871 27.6448 21.2622 27.4874C21.3387 27.4189 21.3657 27.3405 21.4447 27.2719C21.58 27.1556 21.8714 27.0834 22.15 27.0974C22.4279 27.1121 22.4971 27.2597 22.57 27.3864C22.7292 27.6662 22.2743 27.9031 22.4414 28.1823C22.4934 28.2687 22.6208 28.3476 22.6085 28.4376C22.5969 28.5227 22.4641 28.5913 22.3777 28.6666C22.1787 28.8387 22.2375 29.0676 22.5161 29.2103C22.8002 29.356 23.2416 29.4007 23.6138 29.4925C23.9855 29.585 24.3265 29.7846 24.1594 29.9664C24.3877 29.8121 24.3534 29.5844 24.081 29.4478C23.8545 29.334 23.5153 29.2911 23.2232 29.217C22.9312 29.1436 22.6551 29.0021 22.7322 28.8497C22.8002 28.7162 23.1149 28.6299 23.1479 28.494C23.1614 28.4358 23.1638 28.3734 23.1149 28.3195C22.6979 27.8652 23.23 27.4691 24.411 27.9448C24.8047 28.1034 24.4777 28.3905 24.7863 28.5031C25.1408 28.6317 26.0671 28.467 26.2704 28.6556C26.462 28.8319 25.7812 29.1601 25.7996 29.3578C25.8173 29.5562 26.2147 29.7062 26.3047 29.8997C26.4289 30.1691 25.9385 30.4115 25.8412 30.6834C25.7567 30.9178 26.001 31.1707 26.4314 31.2944C26.0475 31.1591 26.0677 30.8823 26.2257 30.6693C26.3836 30.455 26.6426 30.248 26.6096 30.0227C26.5796 29.8176 26.3102 29.6358 26.2269 29.4331C26.1436 29.2305 26.4032 29.0205 26.8373 28.9929C27.8861 28.9268 27.4918 29.4944 27.9412 29.716C28.3624 29.9242 29.4443 30.0582 29.4436 30.444C29.443 30.6191 29.4045 30.8456 29.0787 30.9344C29.7234 30.7831 29.9255 30.3442 29.4675 30.0797C29.0885 29.8611 27.9008 29.607 28.0949 29.3958C28.0318 29.4644 29.1651 29.5231 30.0871 29.4172C30.6302 29.3548 31.1983 29.5164 31.3502 29.765C31.2228 29.5562 30.9455 29.3927 30.5487 29.337C30.152 29.2813 29.8557 29.326 29.4461 29.3334C29.0371 29.3401 28.4757 29.3682 28.1867 29.2299C27.9743 29.1276 27.9853 28.9213 27.7306 28.8423C27.4967 28.7695 27.1759 28.7756 26.9616 28.6905C26.7938 28.6244 26.7308 28.5172 26.5881 28.4395C26.1614 28.205 25.1187 28.5368 25.0918 28.2338C25.0569 27.8468 24.5487 27.6466 24.0406 27.5768C23.7063 27.5315 23.3677 27.4556 23.1883 27.316C23.0089 27.1764 23.0438 26.9682 23.3316 26.877C23.6212 26.7858 24.0296 26.8458 24.2916 26.9554C24.5536 27.065 24.7214 27.215 24.9443 27.3423C25.4769 27.6466 26.4675 27.7568 27.291 27.7195C27.5322 27.706 29.0022 27.6644 29.3512 28.4003C29.4387 28.5846 29.62 28.7885 29.9934 28.8699C30.4416 28.9666 31.0275 28.6936 31.4665 28.8025C31.829 28.8913 31.8926 29.2262 32.1081 29.3848C32.35 29.5617 32.8208 29.615 33.2298 29.7093C32.6065 29.5654 32.2881 29.3321 32.0879 29.1197C31.8608 28.8785 31.7328 28.5576 31.0655 28.6268Z" fill="white"/>
<mask id="mask0_1468_223419" style="mask-type:luminance" maskUnits="userSpaceOnUse" x="14" y="26" width="18" height="8">
<path d="M14.3096 26.3708H31.3918V33.1043H14.3096V26.3708Z" fill="white"/>
</mask>
<g mask="url(#mask0_1468_223419)">
<path d="M16.1751 29.525C16.6465 29.6211 17.1375 29.6609 17.1963 29.3866C17.3585 28.6244 17.9328 28.4144 17.8722 28.3164C17.8483 28.2778 17.6451 28.2925 17.3059 28.3862C17.1393 28.4327 16.6422 28.6905 16.4775 28.7444C16.393 28.7725 16.3226 28.8191 16.262 28.8693C16.0196 29.0719 15.6014 29.124 15.2812 29.2427C15.1079 29.3076 14.9634 29.4693 14.89 29.5078C14.9751 29.3333 15.1061 29.2764 15.1759 29.2329C15.3002 29.1558 15.4091 29.0805 15.523 29.0505C15.7128 29.0009 15.831 28.9868 15.9694 28.8754C16.303 28.6078 16.4904 28.4829 16.8136 28.4089C16.7996 28.3489 16.2314 28.2509 15.9883 28.2582C15.7342 28.2656 15.3191 28.3574 15.0118 28.3146C14.9004 28.2993 14.8055 28.2619 14.7008 28.238C14.5955 28.2142 14.47 28.2595 14.3542 28.298C14.4547 28.1989 14.6598 28.1719 14.8177 28.1878C14.9751 28.2025 15.1196 28.2472 15.2861 28.238C15.5298 28.2252 15.7691 28.1009 16.014 28.0819C16.3361 28.0574 16.5834 28.2191 16.9055 28.1952C17.0849 28.1811 17.2526 28.0966 17.4326 28.0605C17.8832 27.9705 18.6289 28.1474 19.2767 28.0948C19.6122 28.0678 19.9936 28.0831 20.2796 27.9485C20.5098 27.8401 20.9849 27.3515 21.01 27.286C21.0816 27.098 20.7583 26.956 20.5104 26.994C20.2624 27.0319 20.0751 27.084 19.8265 27.1195C19.5259 27.1629 19.2038 27.1397 18.9026 27.1097C18.6553 27.0846 18.1385 27.0399 17.8893 27.0662C17.4553 27.1115 17.2857 27.2248 16.8516 27.2719C17.0965 27.1905 17.3451 27.117 17.5863 27.0289C17.8765 26.9229 18.2855 26.9529 18.4532 26.9578C20.1393 27.0123 20.0622 26.5293 21.0681 26.4405C21.534 26.3995 22.3489 26.3878 22.8161 26.4105C23.1228 26.4252 23.4296 26.5354 23.7363 26.5378C23.8942 26.5384 24.0528 26.5384 24.2114 26.5384C24.2879 26.5384 24.3828 26.3591 24.4134 26.405C24.5579 26.3793 24.8561 26.5036 24.894 26.4944C24.9124 26.4907 24.9314 26.4925 24.9498 26.4944C25.161 26.5182 25.3991 26.5005 25.6006 26.5482C25.7634 26.5874 26.0567 26.697 26.1498 26.8133C26.3763 26.9664 26.5967 27.1391 26.882 27.2113C27.0014 27.2419 27.1287 27.2529 27.2451 27.2915C27.4998 27.3766 27.6614 27.5762 27.9032 27.6815C28.1408 27.7844 28.4279 27.7844 28.6955 27.7617C28.9624 27.7391 29.23 27.6962 29.4993 27.7219C29.7681 27.747 30.0479 27.8585 30.1483 28.0495C29.9065 27.8199 29.4528 27.8156 29.0793 27.8701C28.7053 27.9246 28.3049 28.0133 27.9528 27.8921C27.6914 27.8027 27.5016 27.6087 27.2291 27.5413C27.133 27.518 27.0118 27.5168 26.9512 27.5774C26.8961 27.6313 26.9261 27.7085 26.9451 27.7764C27.04 28.1101 27.2291 28.1499 27.4342 28.2974C27.5824 28.404 27.7434 28.4474 27.9271 28.5136C28.2338 28.6244 28.5798 28.6923 28.9147 28.7278C29.2489 28.7627 29.601 28.8295 29.8385 29.0131C29.9751 29.1191 30.0626 29.255 30.19 29.3664C30.4832 29.6223 30.9069 29.7882 31.0349 30.1078C31.1071 30.2885 31.1145 30.4489 31.12 30.6362C31.1249 30.818 31.2081 30.9987 31.3545 31.1444C31.1873 30.9711 31.0355 30.8511 30.9687 30.6423C30.8953 30.4121 30.9418 30.1782 30.7367 29.9952C30.561 29.8378 30.2487 29.6131 30.0534 29.4674C29.9304 29.3756 29.8459 29.3113 29.7326 29.2115C29.4773 28.988 29.1638 28.9666 28.7849 28.9011C28.4059 28.8356 27.9406 28.7156 27.5763 28.6097C27.212 28.5044 26.8428 28.2331 26.7314 27.9472C26.6806 27.8156 26.7045 27.744 26.6469 27.6142C26.5447 27.3827 26.2716 27.218 25.9857 27.1072C25.701 26.9976 25.5669 26.8795 25.0759 26.8801C24.9706 26.8801 24.4257 26.8054 24.1985 27.027C24.0761 27.147 24.2071 27.2891 24.3094 27.4219C24.5432 27.7244 24.9761 27.8927 25.36 28.0831C25.7438 28.2736 26.1283 28.5436 26.151 28.8925C26.1638 29.0915 26.1449 29.2776 26.0236 29.4785C25.9147 29.6585 25.7824 29.8109 26.1932 29.9174C26.4106 29.9731 26.7853 29.9346 26.9959 30.0038C27.22 30.0772 27.3222 30.2487 27.5034 30.3723C27.752 30.5438 28.0912 30.5327 28.4236 30.5554C28.9318 30.5897 29.3849 30.8774 29.5545 31.2374C29.4534 31.0929 29.2318 31.0133 29.0493 30.9172C28.6373 30.6999 28.0998 30.7923 27.7759 30.7219C27.8953 30.9895 27.7214 31.4438 27.6369 31.7193C27.5432 32.0236 27.7061 32.0217 27.7391 32.3964C27.7624 32.6591 27.6191 32.9695 27.2983 33.0687C27.4942 32.9425 27.5408 32.724 27.5151 32.5299C27.4894 32.3364 27.4061 32.1478 27.3994 31.9531C27.3853 31.5509 27.7404 31.0685 27.441 30.7391C27.2206 30.496 27.1618 30.3025 26.8104 30.2125C26.2924 30.0797 25.7445 30.1899 25.5749 29.8562C25.5002 29.7099 25.6489 29.5023 25.6887 29.3487C25.9214 28.4572 24.864 28.2717 24.7814 28.3336C24.6638 28.4211 24.924 28.696 24.741 28.9562C24.6173 29.1313 24.3142 29.2127 24.2463 29.4062C24.1826 29.5856 24.3865 29.7509 24.4459 29.9315C24.5702 30.305 24.0638 30.6944 24.2353 31.0574C24.3994 31.4046 25.011 31.4242 25.4249 31.6054C26.0414 31.8754 26.1565 32.6303 25.641 33.0136C25.9887 32.5048 25.854 31.9238 25.2736 31.7872C25.0183 31.7272 24.714 31.6733 24.482 31.5717C24.2549 31.4725 24.0987 31.1523 23.8373 31.1474C23.6426 31.1438 23.4981 31.5276 23.4038 31.6611C23.3096 31.7946 23.2624 31.9458 23.1638 32.0768C23.0022 32.2923 22.6985 32.4809 22.7396 32.727C22.7598 32.8489 22.7867 32.937 22.7891 33.0846C22.5804 32.8617 22.562 32.5385 22.7457 32.2991C22.8577 32.1527 23.0371 32.0346 23.0996 31.8717C23.1412 31.7646 23.2973 31.3256 23.3598 31.2252C23.5863 30.8603 23.8477 30.9313 24.0149 30.5487C24.3583 29.7625 23.6285 29.8078 23.7871 29.4497C23.9273 29.1344 24.5138 28.9605 24.4581 28.6311C24.4202 28.404 24.0877 28.2821 23.9493 28.0789C23.8887 27.9907 23.8673 27.8885 23.8049 27.8009C23.6983 27.6503 23.4669 27.5578 23.2465 27.5787C23.0261 27.5995 22.971 27.7917 22.9134 27.9576C22.7861 28.3238 23.1461 28.6299 23.0132 28.9948C22.9722 29.108 22.8706 29.2121 22.8804 29.3297C22.8896 29.4399 22.9942 29.5287 23.0628 29.626C23.2202 29.8482 23.173 30.1476 22.952 30.3368C22.7267 30.5291 22.3777 30.5921 22.0826 30.7152C21.7881 30.8389 21.5175 31.1027 21.6504 31.3397C21.4698 31.1401 21.4967 30.8413 21.7128 30.6607C21.8922 30.5101 22.1616 30.4513 22.3924 30.3527C22.6238 30.2536 22.843 30.0662 22.7812 29.8678C22.7279 29.6952 22.4794 29.5838 22.4536 29.4068C22.4426 29.3315 22.4408 29.2495 22.4794 29.1791C22.8112 28.5827 22.39 28.0697 21.4538 28.6929C21.1416 28.9011 21.4 29.277 21.1551 29.4252C20.8747 29.5948 20.1406 29.3762 19.9789 29.6236C19.8271 29.8556 20.3665 30.2897 20.3524 30.5493C20.3377 30.8107 20.0224 31.0085 19.952 31.2644C19.8534 31.6195 20.241 31.9372 20.3181 32.2942C20.3849 32.6021 20.1914 32.937 19.851 33.1042C20.1547 32.9217 20.1387 32.5587 20.0138 32.2776C19.8889 31.9972 19.6838 31.7242 19.7102 31.4266C19.7334 31.156 19.9471 30.9154 20.0132 30.6485C20.0793 30.3815 19.8736 30.1048 19.5296 30.0662C18.6987 29.9738 19.0116 30.7268 18.6553 31.0201C18.3216 31.2938 17.4638 31.4676 17.4651 31.9825C17.4657 32.2164 17.4963 32.5189 17.7547 32.6376C17.244 32.4362 17.083 31.846 17.4455 31.4958C17.7461 31.2062 18.6871 30.875 18.5334 30.594C18.583 30.6852 17.6855 30.7574 16.9532 30.6038C16.5222 30.5125 16.0716 30.7201 15.9516 31.0544C16.0526 30.774 16.2718 30.5585 16.5871 30.4899C16.9018 30.4207 17.1369 30.4844 17.4614 30.4985C17.7865 30.5125 18.2316 30.5548 18.4606 30.3723C18.6289 30.2382 18.6198 29.9646 18.8218 29.8617C19.0067 29.7668 19.2614 29.7772 19.4316 29.6664C19.5645 29.5801 19.6147 29.4387 19.7279 29.3364C20.0659 29.0309 20.8918 29.4705 20.9138 29.0713C20.9414 28.5625 21.3449 28.3017 21.7477 28.2111C22.0122 28.1511 22.281 28.0513 22.423 27.8682C22.5657 27.6852 22.5381 27.414 22.3104 27.2952C22.0814 27.1758 21.7575 27.2529 21.5493 27.3962C21.3418 27.5389 21.2083 27.7354 21.0314 27.9013C20.6089 28.2987 19.8234 28.4389 19.1702 28.3795C18.9791 28.3605 17.8122 28.2785 17.5361 29.2538C17.4669 29.4987 17.323 29.7687 17.0267 29.8715C16.671 29.9946 16.2057 29.6168 15.8573 29.7527C15.5689 29.8648 15.5194 30.316 15.3485 30.526C15.1575 30.7617 14.7834 30.8236 14.4589 30.9442C14.9536 30.7611 15.2059 30.4507 15.3638 30.1678C15.5438 29.8458 15.6442 29.4166 16.1751 29.525Z" fill="white"/>
</g>
<path d="M29.4598 15.1502L29.5449 15.1184L29.5835 15.1307C29.9747 15.2543 30.3175 15.3431 30.6322 15.4013C30.9408 15.457 31.2555 15.4962 31.5732 15.52C31.4808 15.506 31.389 15.4913 31.2983 15.4754C30.9451 15.4117 30.5318 15.3015 30.0702 15.1478L29.75 15.0407L30.151 14.8925C31.3357 14.4578 32.1028 13.9111 32.5963 13.4151C32.1794 13.6937 31.6939 13.9319 31.2194 14.1443L31.0069 14.2398L31.0547 14.0121C31.1263 13.6692 31.2224 13.3815 31.3412 13.1568C31.2781 13.2474 31.2194 13.3454 31.1661 13.45C31.0614 13.6539 30.9751 13.9141 30.9102 14.2239L30.8973 14.2851L30.8398 14.309C30.162 14.5931 29.4292 14.868 28.7202 15.1343C28.01 15.4013 27.339 15.6529 26.7659 15.8972L26.4371 16.0368L26.6171 15.7282C26.7451 15.5084 26.8516 15.3039 26.9428 15.1025C27.0714 14.8172 27.2049 14.4554 27.3463 14.0721L27.3824 13.9723L27.4583 13.9662C27.841 13.9349 28.1557 13.8878 28.419 13.8211C28.5071 13.799 28.5928 13.7745 28.6761 13.7488C28.381 13.8125 28.0179 13.8566 27.5937 13.8805L27.4124 13.8909L27.4761 13.72C27.7363 13.0251 28.1306 11.969 28.7759 11.0972C28.3541 11.4939 27.9432 12.0088 27.6641 12.659C27.6322 12.7325 27.6016 12.8054 27.5716 12.877L27.4363 13.2021L27.3475 12.8611C27.2447 12.4662 27.1853 12.1117 27.1724 11.8074C27.1645 11.6151 27.1645 11.3568 27.192 11.0568C27.1081 11.4541 27.0641 11.9047 27.0996 12.3927C27.1222 12.7074 27.192 13.0711 27.3065 13.4727L27.3175 13.5113L27.2918 13.5786C26.9312 14.5043 26.6741 15.3223 25.891 16.2688L25.7618 16.3674C25.3143 16.6056 24.8692 16.8872 24.4388 17.2025L24.2924 17.3109L24.2532 17.1327C24.121 16.5339 24.0628 16.0037 24.0812 15.558C24.0922 15.288 24.1271 14.9054 24.2226 14.4596C24.0445 14.98 23.911 15.5892 23.9043 16.2554C23.9 16.6019 23.9416 17.0005 24.0267 17.4394L24.0402 17.5092L23.9851 17.5539C23.4806 17.9635 23.112 18.3309 22.8904 18.5666L22.7404 18.727L22.689 18.5133C22.61 18.1888 22.5377 17.7994 22.4802 17.4866C22.43 17.2141 22.3865 16.979 22.3577 16.8878C22.2224 16.4592 22.4728 13.8443 23.0141 12.1772L23.0226 12.1502L23.0998 12.0731C23.382 11.7927 23.6043 11.5711 23.8841 11.3084L24.031 11.167C24.6255 10.597 25.479 9.7778 26.2332 8.7376C25.9094 9.14903 25.5328 9.55984 25.0969 9.94862C24.4939 10.4892 23.9343 11.0023 23.4335 11.4749L23.093 11.759C23.1561 11.5778 23.3655 10.9882 23.4279 10.8131C23.6771 10.1084 24.1088 8.88698 24.2686 7.4127C24.1975 7.87556 24.0898 8.35311 23.9306 8.83127L23.8706 9.0125L23.6367 8.78168C23.3349 8.48413 23.0741 8.2276 22.8892 7.91168C22.8114 7.77882 22.7349 7.6429 22.662 7.50086C22.7569 7.72066 22.8775 7.95209 23.0312 8.19209C23.1708 8.41188 23.4255 8.72719 23.7677 9.10311L23.8161 9.15637L23.6324 9.65841C22.6761 12.2727 21.9855 14.1615 21.7688 15.6088L21.721 15.926L21.5508 15.6535C21.1235 14.9715 20.7224 14.2209 20.3581 13.4219L20.3306 13.3619L20.3673 13.3074C20.6116 12.9382 20.8002 12.599 20.9275 12.2984C21.2116 11.6329 21.3126 11.0102 21.3249 10.4831C21.2465 10.9913 21.1075 11.4186 20.9961 11.7027C20.859 12.0541 20.6361 12.4619 20.333 12.9137L20.2112 13.0956L20.1255 12.8941C19.7961 12.1202 19.4961 11.2962 19.2335 10.4433L19.2163 10.3882L19.25 10.3405C19.5035 9.97923 19.6835 9.66821 19.8004 9.39025C19.9057 9.14045 19.9755 8.89984 20.019 8.67331C19.9828 8.79515 19.9449 8.90229 19.9106 8.98984C19.7943 9.29107 19.5941 9.64678 19.3155 10.046L19.1735 10.2498L19.1043 10.0117C18.7804 8.89862 18.5643 7.89454 18.4247 7.10352C18.4535 7.56943 18.5171 8.13147 18.6445 8.79821L18.699 9.08229L18.4608 8.91882C17.9379 8.55943 17.543 8.23372 17.2547 7.92331C17.2388 7.90617 17.2228 7.88841 17.2069 7.87066C17.3398 8.04454 17.4886 8.21658 17.6539 8.38494C17.9202 8.65678 18.2637 8.93841 18.7045 9.24637L18.7424 9.2727L18.7528 9.31801C18.942 10.1641 19.2132 11.0874 19.5592 12.0609L19.6492 12.3137L19.4018 12.2102C18.4283 11.8049 16.0455 10.7427 14.9508 9.63515C14.9245 9.6076 14.8981 9.58005 14.8724 9.55127C15.0114 9.72882 15.1681 9.90454 15.3451 10.0741C16.3859 11.0745 18.2312 12.0002 19.5781 12.6762L19.651 12.7129L19.6675 12.7558C19.7214 12.8966 19.7753 13.0398 19.8304 13.1856C20.142 14.0109 20.4947 14.9458 20.9747 15.9541L21.0794 16.1733L20.8418 16.1213C20.1579 15.9694 19.7294 15.787 19.2328 15.5764L19.1447 15.5384C18.5012 15.266 17.8957 14.936 17.3532 14.5662C17.9526 15.0817 18.7749 15.6431 19.8445 16.0735C20.0135 16.1421 20.1445 16.2064 20.2712 16.2688C20.5063 16.3839 20.7096 16.4837 21.0788 16.57L21.1326 16.5829L21.1577 16.6331C21.2018 16.7213 21.5263 18.5249 21.5294 18.5427L21.5667 18.7454C21.5783 18.7778 21.3328 18.6511 21.3353 18.6523C21.3047 18.6302 21.1002 18.5225 20.8645 18.3982C19.3749 17.6139 15.4179 15.5298 13.9008 13.7274C13.7239 13.507 13.5598 13.2529 13.411 12.9731C13.6204 13.4268 13.9026 13.8933 14.2816 14.3415C15.1724 15.4013 16.5383 16.2033 17.8596 16.979L18.3316 17.3133L17.87 17.2515C15.6414 16.867 13.6871 16.2964 12.0328 15.5476C12.6769 15.8843 13.5653 16.2621 14.8039 16.6429L15.1045 16.7354L14.8069 16.8688C14.5963 16.9405 14.3986 16.9949 14.2204 17.0311C14.0716 17.0611 13.921 17.0856 13.7679 17.1051C14.1439 17.0935 14.5143 17.0488 14.8706 16.9723C14.9239 16.9607 15.2753 16.8143 15.3096 16.7984C16.3724 17.1162 17.6588 17.448 19.2414 17.8123L19.261 17.8166L19.2781 17.8276C19.5077 17.9721 19.7104 18.1062 19.8965 18.2372L20.1592 18.4227L19.839 18.4527C19.5261 18.4821 19.2145 18.5641 18.9139 18.697C18.7602 18.7649 18.6157 18.8574 18.4632 18.9547C18.3463 19.0294 18.2257 19.1066 18.0959 19.1758C17.4935 19.4966 16.8292 19.616 16.3443 19.7035C16.0706 19.7525 15.7877 19.7892 15.5018 19.8143C15.5049 19.8143 15.5079 19.8143 15.511 19.8143C16.0326 19.8143 16.553 19.766 17.0551 19.6711L17.0643 19.6686L17.4696 19.6068L17.1579 19.8805C16.7845 20.1609 16.3724 20.4517 15.9108 20.6605C16.1563 20.5772 16.4447 20.4578 16.7802 20.2876C16.9792 20.186 17.1873 20.0739 17.3888 19.9656C18.2532 19.4996 19.1459 19.0184 19.9339 19.0184C20.4837 19.0184 20.9318 19.2609 21.2661 19.7384C21.5924 20.2043 21.6708 20.8105 21.7008 21.2256C21.8392 23.1168 21.5061 25.3276 20.4781 26.2594C20.7028 26.279 20.9906 26.4302 21.2098 26.4302C21.2704 26.4302 21.522 26.5502 21.5667 26.5472C22.5347 26.4805 23.3153 26.3537 24.2667 26.3096C24.0849 25.7525 23.5143 23.7419 23.6888 22.4513C23.9826 20.2772 25.629 20.0256 26.8424 20.0256C26.9741 20.0256 27.1124 20.0286 27.2771 20.0341L27.3255 20.036L27.3586 20.0709C27.5337 20.2545 27.7057 20.4131 27.8704 20.5417C28.1551 20.7627 28.4539 20.9433 28.7422 21.0902C28.5616 20.9647 28.4055 20.8478 28.2812 20.7541C28.1318 20.6421 27.9702 20.4866 27.7718 20.2656L27.5759 20.0464L27.8692 20.0678C27.9769 20.0764 28.0865 20.0849 28.1979 20.0935C28.5475 20.1217 28.9088 20.1505 29.2957 20.1639C29.483 20.1719 29.6643 20.1756 29.8345 20.1756C30.0775 20.1756 30.2918 20.1676 30.481 20.1541C29.75 20.1535 28.9675 20.0219 28.2114 19.8945C27.6886 19.8064 27.1479 19.7151 26.6404 19.6711L26.21 19.6337L26.5994 19.4464C26.761 19.368 26.9122 19.2847 27.0537 19.1984C26.6777 19.3662 26.3435 19.469 26.1047 19.5296C25.8549 19.5915 25.3449 19.6907 25.1526 19.728C25.1226 19.7341 25.0865 19.7409 25.0865 19.7409C24.2888 19.9111 23.7886 20.2607 23.51 20.5239L23.3563 20.669L23.303 20.4168C23.232 20.0813 23.1702 19.7911 23.2467 19.5725C23.5455 18.7135 24.8741 17.497 25.7226 16.9068L25.7655 16.8768L26.1077 16.9545C27.612 17.2949 29.4849 17.7192 30.9126 17.7192C30.9965 17.7186 31.0798 17.7168 31.1618 17.7143C29.9318 17.6556 28.1496 17.3127 26.292 16.7721L26.03 16.6956L26.2645 16.556C27.2269 15.9829 28.2616 15.5972 29.4598 15.1502Z" fill="white"/>
<path d="M17.8466 3.45874C17.846 3.4618 17.0201 4.57486 18.2513 5.4118C18.2507 5.41486 19.0889 4.34405 17.8466 3.45874Z" fill="white"/>
<path d="M9.26664 12.3862C9.26786 12.3905 9.16929 13.2844 10.3301 13.2152C10.3313 13.2201 10.4477 12.3048 9.26664 12.3862Z" fill="white"/>
<path d="M10.4962 11.468C10.4968 11.4704 10.446 12.1849 11.3766 12.1194C11.3778 12.1224 11.4458 11.3975 10.4962 11.468Z" fill="white"/>
<path d="M18.9584 3.79297C18.9584 3.79297 18.3774 4.32195 18.9284 4.92011C18.9284 4.92011 19.5088 4.42174 18.9584 3.79297Z" fill="white"/>
<path d="M19.3534 3.45459C19.3534 3.4552 19.1985 3.86969 19.6656 4.16112C19.6956 4.02765 19.8223 3.7552 19.3534 3.45459Z" fill="white"/>
<path d="M22.6645 3.26101C22.6639 3.25672 21.4884 3.98958 22.2984 5.25937C22.2984 5.25509 23.4653 4.58896 22.6645 3.26101Z" fill="white"/>
<path d="M23.9035 3.04614C23.9035 3.04675 23.0855 4.04594 24.3321 5.06227C24.3314 5.06288 25.1616 4.12002 23.9035 3.04614Z" fill="white"/>
<path d="M17.008 4.91357C17.008 4.9197 16.4067 6.11908 17.8082 6.72153C17.8082 6.72704 18.4296 5.54725 17.008 4.91357Z" fill="white"/>
<path d="M19.6137 4.69877C19.6131 4.69326 18.2717 5.26204 18.7082 6.62244C18.7076 6.61755 20.0276 6.11122 19.6137 4.69877Z" fill="white"/>
<path d="M20.7042 4.94533C20.7036 4.94227 19.7087 5.33104 20.0307 6.35105C20.0307 6.34798 21.0097 6.00084 20.7042 4.94533Z" fill="white"/>
<path d="M23.2833 5.22318C23.2833 5.2195 22.2866 5.54338 22.6062 6.5842C22.6055 6.58052 23.5857 6.29644 23.2833 5.22318Z" fill="white"/>
<path d="M20.6092 3.16678C20.6092 3.1625 19.6125 3.55617 19.9351 4.57433C19.9351 4.57066 20.9153 4.22046 20.6092 3.16678Z" fill="white"/>
<path d="M21.4257 6.78452C21.4257 6.78023 20.3622 6.91554 20.3683 7.98881C20.3683 7.98513 21.4055 7.8786 21.4257 6.78452Z" fill="white"/>
<path d="M23.5342 5.78833C23.5342 5.78894 23.0567 6.452 23.931 6.97119C23.9303 6.9718 24.4183 6.33751 23.5342 5.78833Z" fill="white"/>
<path d="M12.3615 7.18238C12.3621 7.18544 12.1631 7.9783 13.1452 7.97279C13.1452 7.97646 13.3601 7.17932 12.3615 7.18238Z" fill="white"/>
<path d="M21.1078 8.17367C21.1078 8.17061 20.1949 8.24653 20.2494 9.1502C20.2494 9.14775 21.1415 9.09632 21.1078 8.17367Z" fill="white"/>
<path d="M25.3871 4.67245C25.3871 4.66878 24.4718 4.64367 24.522 5.55102C24.522 5.54796 25.4171 5.59143 25.3871 4.67245Z" fill="white"/>
<path d="M22.1752 8.24539C22.1752 8.24355 21.4374 8.336 21.5464 9.06763C21.5464 9.0658 22.2688 8.99478 22.1752 8.24539Z" fill="white"/>
<path d="M22.1844 6.71888C22.1844 6.72133 22.1464 6.06011 21.3058 6.09562C21.3058 6.09746 21.3242 6.72929 22.1844 6.71888Z" fill="white"/>
<path d="M22.3523 7.50786C22.3523 7.50908 22.3193 6.93296 21.5864 6.9599C21.5864 6.96112 21.6023 7.51337 22.3523 7.50786Z" fill="white"/>
<path d="M22.629 7.96166C22.629 7.96288 22.4398 7.53125 21.8925 7.71064C21.8925 7.71125 22.0645 8.12819 22.629 7.96166Z" fill="white"/>
<path d="M23.2648 8.97012C23.2648 8.97196 23.0131 8.39094 22.2815 8.62359C22.2815 8.62543 22.5111 9.18257 23.2648 8.97012Z" fill="white"/>
<path d="M21.6672 7.4961C21.6672 7.49487 20.9815 7.75936 21.3017 8.43651C21.3017 8.43528 21.9789 8.19773 21.6672 7.4961Z" fill="white"/>
<path d="M23.5762 4.78564C23.5762 4.78687 23.2774 5.3685 24.0433 5.71013C24.0433 5.71075 24.3543 5.14809 23.5762 4.78564Z" fill="white"/>
<mask id="mask1_1468_223419" style="mask-type:luminance" maskUnits="userSpaceOnUse" x="20" y="2" width="2" height="2">
<path d="M20.9996 2.78467H21.7833V3.71589H20.9996V2.78467Z" fill="white"/>
</mask>
<g mask="url(#mask1_1468_223419)">
<path d="M21.1839 2.80249C21.1839 2.80433 20.8857 3.40494 21.6553 3.70065C21.6547 3.70249 21.9651 3.1178 21.1839 2.80249Z" fill="white"/>
</g>
<path d="M16.7628 3.88428C16.7628 3.88611 16.4695 4.5155 17.2342 4.71938C17.2342 4.72122 17.5385 4.10407 16.7628 3.88428Z" fill="white"/>
<path d="M20.7995 10.5707C20.7995 10.5713 21.3585 9.92234 20.5528 9.37866C20.5528 9.37927 19.9889 10.0019 20.7995 10.5707Z" fill="white"/>
<path d="M22.0604 5.88629C22.0604 5.88874 22.2312 5.09098 21.2173 4.92017C21.2173 4.92261 21.0282 5.68425 22.0604 5.88629Z" fill="white"/>
<path d="M21.638 9.95039C21.638 9.94855 22.4308 9.91182 22.3904 9.12753C22.3904 9.1257 21.6141 9.14345 21.638 9.95039Z" fill="white"/>
<path d="M18.5258 13.6128C18.5258 13.6116 19.3138 13.5271 19.2709 12.7459C19.2703 12.7446 18.4995 12.8108 18.5258 13.6128Z" fill="white"/>
<path d="M20.2477 6.96825C20.2477 6.9658 21.0424 6.90396 21.0008 6.1209C21.0008 6.11906 20.222 6.16253 20.2477 6.96825Z" fill="white"/>
<path d="M20.7196 4.6797C20.7196 4.67725 21.5167 4.6246 21.4757 3.84092C21.4757 3.83847 20.6951 3.87337 20.7196 4.6797Z" fill="white"/>
<path d="M20.1058 10.613C20.1058 10.6155 19.7317 11.4041 20.7235 11.7592C20.7235 11.7616 21.1135 10.992 20.1058 10.613Z" fill="white"/>
<path d="M19.0793 7.49365C19.0786 7.4961 18.7046 8.29263 19.7001 8.62202C19.7001 8.62447 20.0901 7.84447 19.0793 7.49365Z" fill="white"/>
<path d="M19.27 6.66772C19.27 6.66956 19.0526 7.35711 19.9226 7.53956C19.9226 7.5414 20.1553 6.86487 19.27 6.66772Z" fill="white"/>
<path d="M23.1624 6.81396C23.1618 6.81519 22.7841 7.57805 23.779 8.00111C23.779 8.00294 24.1732 7.26335 23.1624 6.81396Z" fill="white"/>
<path d="M23.3292 13.6379C23.3286 13.6386 22.8559 14.3114 23.7222 14.8134C23.7216 14.8141 24.2053 14.1694 23.3292 13.6379Z" fill="white"/>
<path d="M23.6586 12.9309C23.6586 12.9315 23.3623 13.5187 24.1215 13.8474C24.1215 13.8487 24.4295 13.2817 23.6586 12.9309Z" fill="white"/>
<path d="M22.9641 14.6697C22.9635 14.6715 22.5888 15.4417 23.5752 15.8464C23.5752 15.8482 23.9658 15.1019 22.9641 14.6697Z" fill="white"/>
<path d="M22.9507 15.8606C22.9507 15.8624 22.5766 16.6339 23.5617 17.0361C23.5611 17.0373 23.9517 16.291 22.9507 15.8606Z" fill="white"/>
<path d="M22.2846 11.4921C22.2846 11.489 21.3258 11.4088 21.2101 12.3633C21.2101 12.3609 22.1425 12.4576 22.2846 11.4921Z" fill="white"/>
<path d="M21.5991 10.9071C21.5997 10.9047 22.4899 11.1367 22.7973 10.2667C22.7973 10.2642 21.9334 10.0065 21.5991 10.9071Z" fill="white"/>
<path d="M24.1948 9.04864C24.1948 9.04681 25.0832 9.3364 25.4016 8.49334C25.4016 8.4915 24.5407 8.17436 24.1948 9.04864Z" fill="white"/>
<path d="M24.5137 8.1384C24.5137 8.13595 25.4382 8.28412 25.5588 7.39024C25.5594 7.38779 24.6575 7.21391 24.5137 8.1384Z" fill="white"/>
<path d="M24.552 7.12858C24.552 7.12613 25.4722 7.31348 25.64 6.43062C25.64 6.42756 24.7442 6.2145 24.552 7.12858Z" fill="white"/>
<path d="M24.6285 6.24617C24.6285 6.24311 25.55 6.43474 25.7177 5.55249C25.7177 5.55005 24.8214 5.33209 24.6285 6.24617Z" fill="white"/>
<path d="M28.0809 4.2239C28.0809 4.22023 27.2176 4.65064 27.8366 5.66574C27.8366 5.66206 28.6932 5.27819 28.0809 4.2239Z" fill="white"/>
<path d="M27.162 9.9822C27.1626 9.98281 26.4242 9.35281 25.6234 9.95098C25.6234 9.95281 26.3275 10.5485 27.162 9.9822Z" fill="white"/>
<path d="M26.5648 10.6209C26.5654 10.6209 25.7346 10.109 25.0685 10.837C25.0691 10.8376 25.8656 11.3249 26.5648 10.6209Z" fill="white"/>
<path d="M25.5208 11.34C25.5208 11.34 24.6563 10.8986 24.0544 11.6866C24.0544 11.6866 24.8846 12.1103 25.5208 11.34Z" fill="white"/>
<path d="M26.8051 6.02247C26.8051 6.02063 26.1047 6.45043 26.7537 7.21818C26.7537 7.21696 27.4529 6.8239 26.8051 6.02247Z" fill="white"/>
<path d="M28.8389 5.95623C28.8389 5.9544 28.0264 5.62317 27.7662 6.38052C27.7662 6.37929 28.5536 6.7044 28.8389 5.95623Z" fill="white"/>
<path d="M27.2069 5.14502C27.2069 5.14502 26.7061 5.55584 27.3171 6.13257C27.3171 6.13196 27.8203 5.74992 27.2069 5.14502Z" fill="white"/>
<path d="M29.0302 9.72926C29.0302 9.72742 28.4179 9.99252 28.8704 10.6623C28.8704 10.6605 29.4783 10.4235 29.0302 9.72926Z" fill="white"/>
<path d="M29.623 9.2129C29.623 9.21106 29.012 9.46392 29.4626 10.1392C29.4626 10.1374 30.0706 9.9127 29.623 9.2129Z" fill="white"/>
<mask id="mask2_1468_223419" style="mask-type:luminance" maskUnits="userSpaceOnUse" x="22" y="2" width="2" height="2">
<path d="M22.881 2.78467H23.5079V3.87263H22.881V2.78467Z" fill="white"/>
</mask>
<g mask="url(#mask2_1468_223419)">
<path d="M23.1581 2.78394C23.1581 2.78394 22.6684 3.23883 23.2702 3.74761C23.2702 3.74761 23.763 3.31904 23.1581 2.78394Z" fill="white"/>
</g>
<path d="M31.3325 6.86491C31.3325 6.86185 30.5158 6.89124 30.787 7.74777C30.787 7.74471 31.5903 7.73798 31.3325 6.86491Z" fill="white"/>
<path d="M31.8233 11.282C31.8233 11.2808 31.3439 11.6316 31.9249 12.2187C31.9249 12.2175 32.4062 11.8961 31.8233 11.282Z" fill="white"/>
<path d="M34.2635 12.4557C34.2641 12.4545 33.5662 12.2169 33.4805 12.8671C33.4805 12.8665 34.1607 13.1028 34.2635 12.4557Z" fill="white"/>
<path d="M33.537 9.51709C33.5376 9.51464 32.705 9.26362 32.6578 10.0577C32.6584 10.0559 33.4709 10.3075 33.537 9.51709Z" fill="white"/>
<path d="M32.7195 8.27708C32.7201 8.27463 31.9187 8.17484 32.0467 8.98422C32.0473 8.98116 32.8322 9.09382 32.7195 8.27708Z" fill="white"/>
<path d="M33.9589 13.2247C33.9589 13.2247 33.313 12.8334 32.9958 13.3839C32.9958 13.3845 33.6216 13.7622 33.9589 13.2247Z" fill="white"/>
<path d="M32.7863 12.2574C32.7863 12.2549 32.1306 12.3376 32.4183 13.0343C32.419 13.0319 33.0643 12.9694 32.7863 12.2574Z" fill="white"/>
<path d="M30.2693 6.02369C30.2693 6.02246 29.7409 6.3292 30.2766 6.95858C30.2766 6.95736 30.805 6.6794 30.2693 6.02369Z" fill="white"/>
<path d="M28.9762 5.04216C28.9768 5.04032 28.2642 5.0091 28.378 5.72604C28.3787 5.7242 29.076 5.77012 28.9762 5.04216Z" fill="white"/>
<path d="M32.0478 12.8189C32.0478 12.817 31.3902 12.9162 31.6786 13.6105C31.6792 13.6087 32.327 13.5297 32.0478 12.8189Z" fill="white"/>
<path d="M33.0708 14.5413C33.0702 14.5431 32.6532 13.9664 32.0073 14.2413C32.0073 14.2431 32.4028 14.7966 33.0708 14.5413Z" fill="white"/>
<path d="M32.503 15.0853C32.503 15.0877 32.2397 14.4706 31.4971 14.5875C31.4971 14.5899 31.7401 15.1826 32.503 15.0853Z" fill="white"/>
<path d="M31.314 16.0931C31.314 16.095 31.0495 15.4815 30.3044 15.6254C30.3044 15.6272 30.5475 16.2186 31.314 16.0931Z" fill="white"/>
<path d="M32.4705 16.2806C32.4705 16.2824 32.2073 15.6695 31.4652 15.7957C31.4646 15.7975 31.7077 16.3877 32.4705 16.2806Z" fill="white"/>
<path d="M33.5387 14.8138C33.5393 14.8126 32.8358 14.6816 32.8493 15.3636C32.8499 15.3618 33.5369 15.4983 33.5387 14.8138Z" fill="white"/>
<path d="M33.7158 15.9633C33.7158 15.9645 33.1893 15.4563 32.6578 15.8592C32.6578 15.861 33.1617 16.3496 33.7158 15.9633Z" fill="white"/>
<path d="M33.578 13.8639C33.5786 13.8645 32.9878 13.4029 32.5494 13.8792C32.5494 13.8798 33.1188 14.3243 33.578 13.8639Z" fill="white"/>
<path d="M29.3302 14.3832C29.3302 14.3844 28.9475 13.8052 28.2637 14.0966C28.2637 14.0985 28.6231 14.6562 29.3302 14.3832Z" fill="white"/>
<path d="M30.0873 14.1668C30.0873 14.168 29.7071 13.5845 29.0226 13.8619C29.0226 13.8631 29.3801 14.4245 30.0873 14.1668Z" fill="white"/>
<path d="M30.6941 13.7885C30.6941 13.7897 30.3507 13.2577 29.7305 13.4965C29.7305 13.4983 30.0543 14.0107 30.6941 13.7885Z" fill="white"/>
<path d="M30.9388 13.208C30.9388 13.208 30.5439 12.9006 30.228 13.2325C30.228 13.2331 30.607 13.5331 30.9388 13.208Z" fill="white"/>
<path d="M29.2809 12.3387C29.2809 12.3356 28.4782 12.5866 28.9319 13.4376C28.9319 13.4346 29.7254 13.216 29.2809 12.3387Z" fill="white"/>
<path d="M29.9508 12.1245C29.9508 12.1227 29.3043 12.3241 29.6845 13.016C29.6845 13.0147 30.3237 12.8378 29.9508 12.1245Z" fill="white"/>
<path d="M28.434 12.6191C28.434 12.6179 27.785 12.8445 28.1676 13.5302C28.1676 13.5289 28.8099 13.3269 28.434 12.6191Z" fill="white"/>
<path d="M25.6695 7.84668C25.6689 7.84607 25.1693 8.28505 25.7809 8.83484C25.7803 8.83423 26.2836 8.42342 25.6695 7.84668Z" fill="white"/>
<path d="M24.3355 9.28687C24.3355 9.28625 23.8365 9.74421 24.4487 10.275C24.4487 10.275 24.9514 9.8434 24.3355 9.28687Z" fill="white"/>
<path d="M26.0783 6.81275C26.0777 6.81152 25.4354 7.37785 26.2356 8.09417C26.235 8.09356 26.8815 7.5652 26.0783 6.81275Z" fill="white"/>
<path d="M26.3185 9.19653C26.3185 9.19714 27.0709 9.7402 27.6875 9.09183C27.6881 9.09244 26.9693 8.51938 26.3185 9.19653Z" fill="white"/>
<path d="M24.4823 13.4897C24.4829 13.4854 25.7111 13.284 25.3792 12.0472C25.3792 12.0423 24.1701 12.215 24.4823 13.4897Z" fill="white"/>
<path d="M29.858 10.1424C29.8593 10.1388 31.0942 10.5508 31.3531 9.42611C31.3544 9.42304 30.155 8.96141 29.858 10.1424Z" fill="white"/>
<path d="M30.8271 9.03005C30.8284 9.02392 32.0663 9.15617 31.8937 7.92801C31.8943 7.92188 30.6796 7.75535 30.8271 9.03005Z" fill="white"/>
<path d="M30.3532 12.8916C30.3539 12.8861 31.5496 12.7863 31.1553 11.5545C31.1559 11.5489 29.9767 11.6194 30.3532 12.8916Z" fill="white"/>
<path d="M32.3166 12.1441C32.3172 12.141 33.1958 12.1141 32.9062 11.2024C32.9068 11.1994 32.0411 11.2049 32.3166 12.1441Z" fill="white"/>
<path d="M30.7295 11.415C30.7295 11.412 31.6142 11.3538 31.3228 10.4379C31.3234 10.4348 30.4503 10.4716 30.7295 11.415Z" fill="white"/>
<path d="M33.4895 12.1918C33.4901 12.1857 34.5352 12.002 33.9371 10.84C33.9383 10.8339 32.8999 10.9986 33.4895 12.1918Z" fill="white"/>
<path d="M29.2717 7.2474C29.2717 7.24311 30.214 6.77658 29.3789 5.68923C29.3789 5.68556 28.4379 6.13433 29.2717 7.2474Z" fill="white"/>
<path d="M24.8525 4.45295C24.8525 4.44989 25.7365 4.31642 25.472 3.42437C25.472 3.42131 24.6014 3.5358 24.8525 4.45295Z" fill="white"/>
<path d="M27.2063 4.90994C27.2057 4.91055 27.6336 4.26831 26.7293 3.71729C26.7293 3.7179 26.2916 4.33565 27.2063 4.90994Z" fill="white"/>
<path d="M27.8044 9.18151C27.8057 9.17723 29.0497 9.5409 29.31 8.38498C29.3112 8.3807 28.1008 7.97049 27.8044 9.18151Z" fill="white"/>
<path d="M26.7777 8.39409C26.7777 8.39409 27.4738 8.90592 28.0457 8.31449C28.0463 8.31511 27.3802 7.77633 26.7777 8.39409Z" fill="white"/>
<path d="M27.2625 7.68555C27.2625 7.68494 28.0247 8.12331 28.4753 7.4578C28.4753 7.4578 27.7425 6.99188 27.2625 7.68555Z" fill="white"/>
<path d="M29.4084 7.34169C29.409 7.33863 28.5696 7.33374 28.7392 8.18476C28.7398 8.18169 29.5614 8.20618 29.4084 7.34169Z" fill="white"/>
<path d="M31.5306 10.2901C31.5312 10.2846 32.752 10.4395 32.5696 9.2358C32.5708 9.22907 31.3726 9.0405 31.5306 10.2901Z" fill="white"/>
<path d="M31.8542 11.0323C31.8549 11.0293 33.0255 11.4688 33.2398 10.4146C33.2404 10.4115 32.104 9.92538 31.8542 11.0323Z" fill="white"/>
<path d="M27.626 6.98339C27.626 6.98278 28.3882 7.42972 28.8388 6.77278C28.8388 6.77217 28.1066 6.29768 27.626 6.98339Z" fill="white"/>
<path d="M25.4684 13.5266C25.4684 13.5254 24.7447 13.3748 24.5966 14.0856C24.5972 14.085 25.2994 14.2429 25.4684 13.5266Z" fill="white"/>
<path d="M24.3416 15.5347C24.3422 15.5329 25.192 15.738 25.4191 14.9127C25.4191 14.9108 24.5932 14.6825 24.3416 15.5347Z" fill="white"/>
<path d="M24.3734 16.204C24.3734 16.2034 25.2079 16.5285 25.5924 15.7283C25.5924 15.7276 24.7848 15.3774 24.3734 16.204Z" fill="white"/>
<path d="M24.45 14.7499C24.4506 14.7487 25.1785 14.9238 25.3689 14.2172C25.3695 14.216 24.6618 14.0219 24.45 14.7499Z" fill="white"/>
<path d="M28.7287 9.50636C28.7287 9.50514 28.0656 9.15799 27.7344 9.76534C27.7344 9.76473 28.3748 10.1051 28.7287 9.50636Z" fill="white"/>
<path d="M27.5813 10.4812C27.5813 10.4812 28.2303 10.8596 28.627 10.2877C28.6276 10.2877 28.0031 9.88976 27.5813 10.4812Z" fill="white"/>
<path d="M29.3351 10.7326C29.3357 10.7326 29.981 11.1318 30.3759 10.5839C30.3759 10.5839 29.7563 10.1645 29.3351 10.7326Z" fill="white"/>
<path d="M29.0354 11.2331C29.0354 11.2337 29.6305 11.6886 30.1166 11.2C30.1166 11.2006 29.5485 10.7267 29.0354 11.2331Z" fill="white"/>
<path d="M28.6719 11.8389C28.6719 11.8396 29.2676 12.2883 29.7537 11.7918C29.7543 11.7924 29.1855 11.3253 28.6719 11.8389Z" fill="white"/>
<path d="M26.0571 11.3269C26.0571 11.3281 26.0308 11.9667 26.8585 12.0781C26.8579 12.0794 26.9044 11.4512 26.0571 11.3269Z" fill="white"/>
<path d="M25.9742 12.0981C25.9742 12.1006 25.9436 12.8586 26.9263 12.9871C26.9257 12.9896 26.9808 12.2414 25.9742 12.0981Z" fill="white"/>
<path d="M27.3708 11.2831C27.3715 11.2825 28.0774 11.5403 28.3155 10.8852C28.3162 10.8845 27.6317 10.606 27.3708 11.2831Z" fill="white"/>
<mask id="mask3_1468_223419" style="mask-type:luminance" maskUnits="userSpaceOnUse" x="8" y="13" width="3" height="2">
<path d="M8.78662 13.4336H10.4978V14.5307H8.78662V13.4336Z" fill="white"/>
</mask>
<g mask="url(#mask3_1468_223419)">
<path d="M8.80579 13.4907C8.80762 13.4975 8.79477 14.654 10.3707 14.4618C10.3725 14.4697 10.4093 13.2587 8.80579 13.4907Z" fill="white"/>
</g>
<path d="M12.7541 7.99536C12.7541 7.99781 11.7617 8.99822 12.6531 9.88659C12.6531 9.88903 13.6462 8.93761 12.7541 7.99536Z" fill="white"/>
<path d="M30.1664 7.18069C30.1664 7.1758 29.1512 7.76233 30.0335 9.02171C30.0335 9.0162 31.0437 8.49457 30.1664 7.18069Z" fill="white"/>
<path d="M26.2289 4.21804C26.2283 4.21375 25.2021 4.90498 26.1003 6.11355C26.0997 6.10987 27.1228 5.48232 26.2289 4.21804Z" fill="white"/>
<path d="M14.7928 5.83984C14.7928 5.83984 14.1946 6.37678 14.6746 6.93944C14.674 6.93944 15.2697 6.43127 14.7928 5.83984Z" fill="white"/>
<path d="M14.8068 5.29175C14.8068 5.2942 14.6838 5.97624 15.5366 6.04971C15.5372 6.05277 15.6762 5.37073 14.8068 5.29175Z" fill="white"/>
<path d="M15.8598 4.44678C15.8592 4.45106 15.1055 5.54943 16.2927 6.25719C16.2927 6.26147 17.0592 5.19555 15.8598 4.44678Z" fill="white"/>
<path d="M9.87085 10.6416C9.87207 10.6453 10.0362 11.5049 11.2766 11.1712C11.2778 11.1755 11.1376 10.2767 9.87085 10.6416Z" fill="white"/>
<path d="M14.5841 12.1074C14.5841 12.1111 14.5394 13.0282 15.7302 13.0509C15.7308 13.0552 15.8006 12.127 14.5841 12.1074Z" fill="white"/>
<path d="M13.6985 6.07178C13.6979 6.07545 12.8071 7.213 13.9428 7.99668C13.9422 8.00096 14.8416 6.90259 13.6985 6.07178Z" fill="white"/>
<path d="M9.02258 15.0677C9.0232 15.0695 9.48728 16.0571 11.0393 15.4387C11.0412 15.4424 10.6089 14.3893 9.02258 15.0677Z" fill="white"/>
<path d="M10.8173 13.1365C10.8186 13.1444 10.259 14.3524 11.6408 14.7736C11.6414 14.781 12.2182 13.5712 10.8173 13.1365Z" fill="white"/>
<path d="M15.3619 14.0047C15.3619 14.0066 15.5683 14.7462 16.5601 14.4554C16.5607 14.4572 16.3801 13.7047 15.3619 14.0047Z" fill="white"/>
<path d="M15.5245 8.43701C15.5245 8.43701 14.7947 9.06028 15.4504 9.69273C15.4498 9.69273 16.1796 9.10313 15.5245 8.43701Z" fill="white"/>
<path d="M14.8512 15.564C14.8519 15.5658 14.5592 14.7007 13.4167 15.144C13.4174 15.1458 13.6721 15.9687 14.8512 15.564Z" fill="white"/>
<path d="M14.9807 7.83325C14.9807 7.83325 14.3452 8.34631 14.8644 8.89366C14.8638 8.89366 15.4981 8.40937 14.9807 7.83325Z" fill="white"/>
<path d="M16.2805 7.04333C16.2811 7.04516 15.9866 6.32149 15.0175 6.75679C15.0181 6.75863 15.2795 7.44435 16.2805 7.04333Z" fill="white"/>
<path d="M16.7983 7.90324C16.7983 7.90508 16.5045 7.17528 15.5341 7.59345C15.5347 7.59589 15.7961 8.28834 16.7983 7.90324Z" fill="white"/>
<path d="M17.3397 8.54426C17.3403 8.54487 17.1346 8.03059 16.4525 8.30793C16.4531 8.30916 16.6368 8.80324 17.3397 8.54426Z" fill="white"/>
<path d="M17.9792 8.24213C17.9792 8.24213 18.4586 7.82948 17.9884 7.39111C17.9884 7.39111 17.509 7.78601 17.9792 8.24213Z" fill="white"/>
<path d="M18.7691 11.6726C18.7691 11.6732 19.2479 11.2721 18.7789 10.8203C18.7789 10.8203 18.3008 11.2036 18.7691 11.6726Z" fill="white"/>
<path d="M26.8992 13.7463C26.8992 13.7476 26.999 13.2033 26.293 13.0398C26.293 13.0404 26.1804 13.5645 26.8992 13.7463Z" fill="white"/>
<path d="M17.9588 9.13429C17.9588 9.13551 17.7537 8.61694 17.071 8.88266C17.071 8.88388 17.2547 9.38286 17.9588 9.13429Z" fill="white"/>
<path d="M17.0854 7.18841C17.0854 7.18903 17.4821 6.76045 16.9948 6.41943C16.9942 6.42005 16.5962 6.83025 17.0854 7.18841Z" fill="white"/>
<path d="M17.594 9.54138C17.594 9.54138 17.8787 9.9675 18.4646 9.64853C18.4646 9.64975 18.1995 9.21506 17.594 9.54138Z" fill="white"/>
<path d="M17.4464 7.6969C17.4464 7.6969 17.9478 7.37363 17.6019 6.90894C17.6013 6.90832 17.1042 7.21567 17.4464 7.6969Z" fill="white"/>
<path d="M13.6926 10.877C13.692 10.8763 12.8973 11.3123 13.2652 12.0298C13.2652 12.0292 14.0507 11.6282 13.6926 10.877Z" fill="white"/>
<path d="M14.0818 11.6394C14.0818 11.6382 13.2859 12.0637 13.6544 12.7892C13.6538 12.788 14.4406 12.3968 14.0818 11.6394Z" fill="white"/>
<path d="M14.2438 12.531C14.2438 12.5316 13.6726 12.9792 14.1299 13.4781C14.1299 13.4781 14.6993 13.0551 14.2438 12.531Z" fill="white"/>
<path d="M11.7753 15.9095C11.7759 15.9089 11.4104 15.4564 10.7382 15.9358C10.7382 15.9358 11.0761 16.3766 11.7753 15.9095Z" fill="white"/>
<path d="M13.5875 16.6599C13.5875 16.6593 13.2207 16.1842 12.543 16.6409C12.5436 16.6409 12.8834 17.1038 13.5875 16.6599Z" fill="white"/>
<path d="M12.4156 15.422C12.4156 15.4238 12.7175 14.8177 12.0109 14.6414C12.0109 14.6432 11.6993 15.2224 12.4156 15.422Z" fill="white"/>
<path d="M13.1563 15.7294C13.1563 15.7306 13.4593 15.1269 12.751 14.9365C12.751 14.9384 12.4387 15.5157 13.1563 15.7294Z" fill="white"/>
<path d="M13.3643 13.976C13.3643 13.9772 13.0306 13.3313 12.1349 13.8137C12.1355 13.8143 12.4367 14.4327 13.3643 13.976Z" fill="white"/>
<path d="M13.3717 10.0723C13.3717 10.0717 12.7068 10.4715 13.0491 11.061C13.0485 11.0604 13.7066 10.69 13.3717 10.0723Z" fill="white"/>
<path d="M15.6849 16.0531C15.6849 16.0531 15.3157 15.5952 14.6796 16.0299C14.6802 16.0299 15.0243 16.4762 15.6849 16.0531Z" fill="white"/>
<path d="M15.6167 20.418C15.6174 20.418 15.2494 19.9527 14.6157 20.3709C14.6157 20.3709 14.9592 20.8264 15.6167 20.418Z" fill="white"/>
<path d="M10.8275 12.4263C10.8281 12.4281 10.9249 13.0214 11.7385 12.7648C11.7391 12.7673 11.6608 12.1618 10.8275 12.4263Z" fill="white"/>
<path d="M14.7468 7.04053C14.7468 7.03931 14.0317 7.42502 14.3555 8.07278C14.3555 8.07155 15.0621 7.71767 14.7468 7.04053Z" fill="white"/>
<path d="M19.3894 16.2457C19.3894 16.2457 18.82 15.7087 18.1042 16.3124C18.1042 16.3124 18.6418 16.8359 19.3894 16.2457Z" fill="white"/>
<path d="M15.8536 17.282C15.853 17.282 15.2065 17.7124 15.6688 18.3155C15.6688 18.3155 16.3116 17.912 15.8536 17.282Z" fill="white"/>
<path d="M16.5707 17.4888C16.5707 17.4888 16.0711 17.8151 16.428 18.2859C16.4274 18.2859 16.9239 17.9798 16.5707 17.4888Z" fill="white"/>
<path d="M21.4188 13.093C21.4182 13.0918 20.697 13.363 21.0184 14.08C21.0178 14.0787 21.7305 13.8345 21.4188 13.093Z" fill="white"/>
<path d="M14.8835 13.3349C14.8842 13.3361 15.1474 13.8975 15.9225 13.5583C15.9225 13.5589 15.6813 12.9859 14.8835 13.3349Z" fill="white"/>
<path d="M16.2101 14.8667C16.2101 14.868 16.5597 15.6088 17.5638 15.1955C17.5638 15.1974 17.2442 14.4394 16.2101 14.8667Z" fill="white"/>
<path d="M17.1412 15.6497C17.1412 15.6503 17.6225 16.3367 18.5574 15.8144C18.5574 15.8156 18.108 15.1103 17.1412 15.6497Z" fill="white"/>
<path d="M19.4515 15.4129C19.4508 15.4135 20.1029 14.8135 19.3823 14.1865C19.3823 14.1871 18.7302 14.7608 19.4515 15.4129Z" fill="white"/>
<path d="M18.4459 14.9416C18.4453 14.9428 19.0208 14.2687 18.2157 13.7385C18.2157 13.7391 17.6365 14.3851 18.4459 14.9416Z" fill="white"/>
<path d="M17.5358 14.3119C17.5358 14.3132 18.0739 13.7138 17.3717 13.2283C17.3711 13.2295 16.8305 13.8026 17.5358 14.3119Z" fill="white"/>
<path d="M16.6679 13.696C16.6679 13.6973 17.1705 13.0673 16.4377 12.635C16.4377 12.6362 15.9301 13.2387 16.6679 13.696Z" fill="white"/>
<path d="M18.0866 11.377C18.086 11.3776 18.7411 10.6515 17.8858 10.0613C17.8858 10.0619 17.2282 10.758 18.0866 11.377Z" fill="white"/>
<path d="M17.0186 10.7477C17.018 10.7484 17.7221 10.0957 16.9849 9.46509C16.9849 9.4657 16.2814 10.0914 17.0186 10.7477Z" fill="white"/>
<path d="M16.1595 10.1529C16.1595 10.1529 16.8648 9.60743 16.2807 8.97437C16.2807 8.97437 15.579 9.49661 16.1595 10.1529Z" fill="white"/>
<path d="M32.5718 16.5586C32.5712 16.5623 32.8773 17.4078 31.8169 17.4457C31.8163 17.4494 31.4942 16.6015 32.5718 16.5586Z" fill="white"/>
<path d="M33.5017 16.439C33.5017 16.4414 33.7944 17.1528 32.9188 17.1994C32.9188 17.2018 32.6139 16.4922 33.5017 16.439Z" fill="white"/>
<path d="M34.2568 16.0835C34.2568 16.0859 34.7166 16.7625 33.9679 16.9743C33.9672 16.9768 33.5007 16.3113 34.2568 16.0835Z" fill="white"/>
<path d="M28.1794 17.0083C28.1788 17.0113 28.0429 16.0783 29.2367 16.175C29.2367 16.1781 29.3984 17.0658 28.1794 17.0083Z" fill="white"/>
<path d="M29.5996 17.3098C29.5989 17.3135 29.3589 16.4171 30.4775 16.4251C30.4775 16.4288 30.7389 17.281 29.5996 17.3098Z" fill="white"/>
<path d="M30.8265 17.4039C30.8265 17.4069 30.5062 16.5969 31.4871 16.5198C31.4871 16.5228 31.8226 17.2943 30.8265 17.4039Z" fill="white"/>
<path d="M17.0455 12.8896C17.0455 12.8884 17.8708 13.3916 18.6202 12.5333C18.6202 12.5326 17.828 11.9988 17.0455 12.8896Z" fill="white"/>
<path d="M15.9423 12.3554C15.9423 12.3535 16.7663 12.8347 17.5139 11.9617C17.5139 11.9605 16.7223 11.448 15.9423 12.3554Z" fill="white"/>
<path d="M12.5813 14.5301C12.5819 14.5301 13.0105 15.1675 13.9417 14.6201C13.9423 14.6207 13.5407 13.9607 12.5813 14.5301Z" fill="white"/>
<path d="M11.3887 16.3902C11.3887 16.389 11.9795 16.8959 12.7846 16.1992C12.7846 16.1986 12.2213 15.6702 11.3887 16.3902Z" fill="white"/>
<mask id="mask4_1468_223419" style="mask-type:luminance" maskUnits="userSpaceOnUse" x="8" y="15" width="3" height="2">
<path d="M8.78662 15.7844H10.3411V16.5681H8.78662V15.7844Z" fill="white"/>
</mask>
<g mask="url(#mask4_1468_223419)">
<path d="M8.8313 16.2786C8.8313 16.2768 9.41477 16.7372 10.2113 16.0123C10.2113 16.011 9.65416 15.528 8.8313 16.2786Z" fill="white"/>
</g>
<path d="M15.3046 11.7009C15.3046 11.6997 15.9352 12.0554 16.5058 11.3758C16.5058 11.3752 15.9003 10.9986 15.3046 11.7009Z" fill="white"/>
<path d="M14.418 10.9831C14.418 10.9825 14.9188 11.4851 15.6761 10.9005C15.6767 10.9005 15.2016 10.3758 14.418 10.9831Z" fill="white"/>
<path d="M13.0918 18.6973C13.0918 18.6997 12.9491 19.5103 13.9802 19.5458C13.9802 19.5477 14.1424 18.7377 13.0918 18.6973Z" fill="white"/>
<path d="M17.0095 19.3017C17.0095 19.303 17.1589 18.6093 16.2987 18.5193C16.2993 18.5211 16.134 19.186 17.0095 19.3017Z" fill="white"/>
<path d="M13.5643 19.9851C13.5643 19.9838 13.0207 19.5853 12.4219 20.1896C12.4219 20.1883 12.9368 20.5851 13.5643 19.9851Z" fill="white"/>
<path d="M18.3668 18.7178C18.3668 18.719 18.6742 18.2096 18.0558 17.9304C18.0558 17.931 17.7411 18.419 18.3668 18.7178Z" fill="white"/>
<path d="M16.127 19.4885C16.127 19.4903 16.2996 18.6919 15.3127 18.6013C15.3127 18.6038 15.121 19.3666 16.127 19.4885Z" fill="white"/>
<path d="M15.0969 19.5906C15.0969 19.5931 15.2629 18.8167 14.3041 18.7451C14.3047 18.747 14.1198 19.4878 15.0969 19.5906Z" fill="white"/>
<path d="M17.1728 18.188C17.1728 18.1892 16.9848 18.8413 17.7991 18.9888C17.7991 18.99 18.0024 18.3484 17.1728 18.188Z" fill="white"/>
<path d="M11.8671 12.7988C11.8677 12.8012 11.9467 13.6137 13.0401 13.3565C13.0407 13.359 12.985 12.5276 11.8671 12.7988Z" fill="white"/>
<path d="M11.6693 11.9775C11.6699 11.9799 11.774 12.7361 12.802 12.4514C12.8026 12.4538 12.7205 11.6793 11.6693 11.9775Z" fill="white"/>
<path d="M11.5481 11.1248C11.5481 11.1272 11.6418 11.8062 12.5656 11.5386C12.5663 11.5411 12.4928 10.8468 11.5481 11.1248Z" fill="white"/>
<path d="M11.8424 10.0422C11.8424 10.0441 11.6667 10.6104 12.3561 10.6435C12.3561 10.6453 12.5434 10.082 11.8424 10.0422Z" fill="white"/>
<path d="M9.44995 11.8572C9.45056 11.8578 9.62199 12.3274 10.3089 11.9937C10.3095 11.9943 10.154 11.5131 9.44995 11.8572Z" fill="white"/>
<path d="M13.7866 10.3783C13.7866 10.3777 14.2868 10.8687 15.0429 10.2724C15.0429 10.2724 14.5685 9.75813 13.7866 10.3783Z" fill="white"/>
<path d="M13.3849 9.4341C13.3849 9.43593 13.5924 10.0892 14.5022 9.74512C14.5028 9.74695 14.3179 9.07471 13.3849 9.4341Z" fill="white"/>
<path d="M10.6282 9.27344C10.6288 9.27895 10.215 10.291 11.4125 10.4153C11.4131 10.4214 11.8429 9.40385 10.6282 9.27344Z" fill="white"/>
<path d="M11.5784 8.13379C11.5784 8.13685 10.979 8.94991 11.8429 9.33746C11.8429 9.33991 12.4497 8.54705 11.5784 8.13379Z" fill="white"/>
<path d="M13.2765 8.64194C13.2765 8.64316 13.3763 9.19112 14.1208 8.96765C14.1208 8.96888 14.0387 8.41173 13.2765 8.64194Z" fill="white"/>
<path d="M27.7344 19.0282C27.7338 19.0288 27.9468 18.4992 28.7862 18.8035C28.7862 18.8041 28.5989 19.3154 27.7344 19.0282Z" fill="white"/>
<path d="M28.3785 19.6863C28.3785 19.6875 28.373 19.1102 29.2504 19.1628C29.2498 19.1647 29.2761 19.7157 28.3785 19.6863Z" fill="white"/>
<path d="M29.2531 19.8321C29.2531 19.8333 29.1221 19.2591 29.9743 19.1721C29.9743 19.174 30.1225 19.7201 29.2531 19.8321Z" fill="white"/>
<path d="M30.1607 19.9122C30.1607 19.9141 29.9366 19.3545 30.7484 19.1665C30.7484 19.1683 30.986 19.6985 30.1607 19.9122Z" fill="white"/>
<path d="M31.0422 19.7971C31.0422 19.7989 30.8903 19.2295 31.7316 19.1426C31.7316 19.1444 31.8999 19.6844 31.0422 19.7971Z" fill="white"/>
<path d="M31.8938 19.8733C31.8932 19.8758 31.8185 19.1723 32.885 19.2182C32.8844 19.2207 32.9848 19.885 31.8938 19.8733Z" fill="white"/>
<path d="M29.7815 21.6229C29.7815 21.6198 30.6117 21.1827 31.4401 22.2094C31.4401 22.207 30.6527 22.6545 29.7815 21.6229Z" fill="white"/>
<path d="M26.996 18.8364C26.996 18.8376 26.6562 18.1892 27.3951 17.708C27.3957 17.7092 27.7441 18.3252 26.996 18.8364Z" fill="white"/>
<path d="M26.3259 19.2333C26.3259 19.2339 25.8287 18.7307 26.3828 17.9954C26.3828 17.9954 26.8805 18.4699 26.3259 19.2333Z" fill="white"/>
<path d="M29.4959 18.7227C29.4965 18.7209 28.5603 18.7295 28.6099 17.7719C28.6105 17.7695 29.5265 17.7481 29.4959 18.7227Z" fill="white"/>
<path d="M30.66 18.8186C30.6606 18.8168 29.7269 18.8076 29.7771 17.8586C29.7777 17.8562 30.6912 17.8531 30.66 18.8186Z" fill="white"/>
<mask id="mask5_1468_223419" style="mask-type:luminance" maskUnits="userSpaceOnUse" x="34" y="16" width="2" height="2">
<path d="M34.5392 16.2549H35.4612V17.0079H34.5392V16.2549Z" fill="white"/>
</mask>
<g mask="url(#mask5_1468_223419)">
<path d="M35.4279 16.2707C35.4272 16.2738 35.7095 17.0636 34.6405 16.9589C34.6399 16.9626 34.343 16.163 35.4279 16.2707Z" fill="white"/>
</g>
<path d="M35.2028 14.8318C35.2016 14.8373 35.3436 15.8861 33.8883 15.4985C33.8871 15.504 33.7224 14.4167 35.2028 14.8318Z" fill="white"/>
<path d="M31.579 18.7576C31.5796 18.7564 30.867 18.7368 30.9056 18.0174C30.9056 18.0162 31.6029 18.0254 31.579 18.7576Z" fill="white"/>
<path d="M32.7385 18.527C32.7385 18.5252 32.0142 18.6556 31.8416 17.9343C31.8422 17.9325 32.5462 17.7929 32.7385 18.527Z" fill="white"/>
<path d="M33.6346 18.3951C33.6346 18.3927 32.9128 18.509 32.7407 17.7908C32.7413 17.789 33.443 17.6647 33.6346 18.3951Z" fill="white"/>
<path d="M34.5766 17.9612C34.5766 17.9587 33.968 18.2905 33.4996 17.6795C33.4996 17.6777 34.0856 17.3367 34.5766 17.9612Z" fill="white"/>
<path d="M30.5912 21.0616C30.5919 21.0604 29.8412 21.1755 29.7433 20.4463C29.7433 20.4451 30.4743 20.3208 30.5912 21.0616Z" fill="white"/>
<path d="M29.8253 22.2791C29.8253 22.2778 29.0514 22.3097 29.0741 21.5823C29.0741 21.5811 29.8314 21.5395 29.8253 22.2791Z" fill="white"/>
<path d="M28.6845 22.0533C28.6845 22.0527 27.9241 21.8397 28.2485 21.1858C28.2485 21.1852 28.9985 21.3829 28.6845 22.0533Z" fill="white"/>
<path d="M27.709 21.6469C27.7096 21.6475 27.0594 21.2214 27.6325 20.72C27.6325 20.7206 28.2796 21.1259 27.709 21.6469Z" fill="white"/>
<path d="M26.7091 21.201C26.7091 21.2022 26.3552 20.5618 27.1536 20.3843C27.1536 20.3855 27.5179 21.0008 26.7091 21.201Z" fill="white"/>
<path d="M29.7072 20.9727C29.7072 20.9709 28.9554 21.0958 28.8568 20.3635C28.8568 20.3623 29.5897 20.2276 29.7072 20.9727Z" fill="white"/>
<path d="M31.5147 20.9456C31.5147 20.9437 30.7659 21.0472 30.668 20.3223C30.6686 20.3205 31.3984 20.2084 31.5147 20.9456Z" fill="white"/>
<path d="M32.5309 20.5229C32.5309 20.521 31.8709 20.8461 31.4589 20.2247C31.4589 20.2235 32.0956 19.8904 32.5309 20.5229Z" fill="white"/>
<path d="M35.2022 17.5207C35.2022 17.5195 34.751 17.8164 34.3224 17.3554C34.3224 17.3542 34.7546 17.0493 35.2022 17.5207Z" fill="white"/>
<path d="M9.1438 16.8866C9.14441 16.8842 9.87604 17.6611 11.1287 16.7293C11.1287 16.7281 10.4313 15.9064 9.1438 16.8866Z" fill="white"/>
<path d="M11.2866 19.4367C11.2872 19.4355 11.894 20.1714 12.9825 19.4483C12.9832 19.4477 12.4095 18.6861 11.2866 19.4367Z" fill="white"/>
<path d="M12.594 20.8318C12.594 20.83 13.2889 21.4802 14.2428 20.7088C14.2434 20.7076 13.5822 20.0378 12.594 20.8318Z" fill="white"/>
<path d="M12.0966 18.2492C12.0959 18.2468 12.9819 18.2902 13.2121 17.3902C13.2115 17.3878 12.35 17.3284 12.0966 18.2492Z" fill="white"/>
<path d="M14.6086 18.3082C14.608 18.3069 15.4841 17.9916 15.2067 17.148C15.2067 17.1467 14.3447 17.4431 14.6086 18.3082Z" fill="white"/>
<path d="M13.341 18.4976C13.3404 18.4958 14.3592 18.3476 14.2006 17.3833C14.2 17.3809 13.2008 17.5137 13.341 18.4976Z" fill="white"/>
<path d="M11.14 17.7848C11.14 17.783 11.8129 18.0781 12.3516 17.3415C12.3516 17.3397 11.7033 17.0293 11.14 17.7848Z" fill="white"/>
<path d="M10.5214 17.4139C10.5214 17.4127 11.0191 17.6919 11.5095 17.1274C11.5095 17.1262 11.032 16.8353 10.5214 17.4139Z" fill="white"/>
<path d="M13.7548 21.3593C13.7548 21.3581 14.2574 21.6893 14.7515 21.153C14.7515 21.1524 14.2715 20.812 13.7548 21.3593Z" fill="white"/>
<path d="M16.9502 21.605C16.9495 21.6044 17.7755 21.2089 17.3438 20.4038C17.3432 20.4032 16.5277 20.7754 16.9502 21.605Z" fill="white"/>
<path d="M18.2379 21.1975C18.2379 21.1975 19.0295 20.5809 18.2128 19.9136C18.2128 19.9142 17.4212 20.5026 18.2379 21.1975Z" fill="white"/>
<path d="M15.7385 21.7078C15.7385 21.7072 16.5663 21.6123 16.5289 20.7876C16.5289 20.787 15.7183 20.8647 15.7385 21.7078Z" fill="white"/>
<path d="M14.9027 21.7175C14.9021 21.7168 15.5664 21.6936 15.6123 21.0293C15.6123 21.0293 14.9645 21.0391 14.9027 21.7175Z" fill="white"/>
</g>
<defs>
<clipPath id="clip0_1468_223419">
<rect width="43.2653" height="40" fill="white" transform="translate(0.604248)"/>
</clipPath>
</defs>
</svg>
