<svg width="94" height="24" viewBox="0 0 94 24" fill="none" xmlns="http://www.w3.org/2000/svg">
<path d="M17.2178 20.093C16.7684 20.1398 16.2997 20.1567 16.2438 20.001C16.088 19.5671 15.54 19.4388 15.5978 19.3847C15.6202 19.3632 15.8149 19.3737 16.1375 19.4324C16.2969 19.4612 16.7707 19.6152 16.9283 19.6486C17.0089 19.6656 17.0763 19.6935 17.1335 19.7228C17.3654 19.8411 17.7635 19.8777 18.0691 19.9506C18.2345 19.9904 18.3724 20.0834 18.4425 20.1063C18.361 20.0074 18.2363 19.9726 18.1695 19.9474C18.0508 19.902 17.9468 19.8571 17.8387 19.8383C17.6577 19.8067 17.5445 19.7966 17.4126 19.7316C17.0946 19.5749 16.9159 19.5011 16.6076 19.4534C16.6204 19.4195 17.1624 19.3746 17.3938 19.3843C17.6357 19.3939 18.0306 19.4544 18.3234 19.4383C18.4292 19.4324 18.5195 19.414 18.6194 19.4035C18.7193 19.393 18.8388 19.4214 18.9488 19.4461C18.853 19.3884 18.6579 19.3682 18.508 19.3724C18.3582 19.3769 18.2208 19.398 18.0622 19.3888C17.83 19.376 17.6022 19.3009 17.3686 19.2848C17.0621 19.2638 16.8261 19.3499 16.5196 19.3307C16.3482 19.3197 16.1888 19.2693 16.0165 19.2454C15.5877 19.1868 14.8757 19.2775 14.2572 19.2422C13.9374 19.2234 13.5727 19.2299 13.3 19.1506C13.0797 19.0869 12.6261 18.8033 12.6023 18.7648C12.534 18.6562 12.8428 18.5761 13.0797 18.5999C13.3161 18.6237 13.4952 18.6549 13.7321 18.6778C14.0194 18.7057 14.3263 18.6956 14.6141 18.6823C14.85 18.6714 15.343 18.6539 15.5803 18.6736C15.9945 18.7071 16.1563 18.7749 16.5695 18.8102C16.3363 18.7589 16.099 18.7121 15.8695 18.6581C15.5927 18.5921 15.2028 18.6017 15.0429 18.6022C13.4347 18.6104 13.5071 18.3369 12.5477 18.2769C12.1028 18.2503 11.3244 18.2411 10.8782 18.2549C10.5849 18.2636 10.2922 18.3291 9.99894 18.3318C9.84728 18.3328 9.69609 18.3337 9.54489 18.3351C9.47159 18.3351 9.38133 18.2311 9.352 18.2585C9.21364 18.2443 8.85672 18.3135 8.83885 18.3154C8.63726 18.3309 8.40955 18.3231 8.21758 18.3538C8.0618 18.3781 7.78094 18.4459 7.6916 18.516C7.47535 18.6086 7.26367 18.7126 6.99152 18.7598C6.87698 18.7799 6.7551 18.7886 6.64423 18.8134C6.40002 18.8679 6.24562 18.9884 6.01379 19.0548C5.78699 19.1199 5.51255 19.1268 5.25735 19.1199C5.00215 19.113 4.74649 19.0947 4.48992 19.1172C4.23334 19.1391 3.96577 19.2124 3.86864 19.327C4.10093 19.1859 4.5339 19.1708 4.89036 19.1932C5.24681 19.2152 5.62938 19.2574 5.96614 19.1795C6.2163 19.1213 6.39819 19.0035 6.65889 18.9591C6.75052 18.9435 6.86598 18.9412 6.92417 18.9751C6.97686 19.0058 6.94799 19.0516 6.92921 19.0915C6.83757 19.2885 6.65706 19.3151 6.4605 19.4053C6.31893 19.4709 6.16452 19.4997 5.98905 19.5423C5.69536 19.6138 5.36456 19.6615 5.04476 19.6903C4.72496 19.7187 4.38912 19.7678 4.16141 19.8814C4.03038 19.9474 3.94653 20.0294 3.8242 20.0981C3.5438 20.2562 3.13832 20.3657 3.01507 20.5563C2.94543 20.6639 2.93764 20.7574 2.93169 20.8674C2.92619 20.9736 2.84601 21.0818 2.70581 21.1711C2.86617 21.0648 3.01141 20.9901 3.07555 20.8664C3.14657 20.7299 3.10396 20.5943 3.2996 20.4816C3.4682 20.384 3.76739 20.2438 3.95432 20.1531C4.07253 20.0958 4.15316 20.0564 4.26175 19.995C4.50641 19.8571 4.8056 19.8365 5.16801 19.7888C5.53042 19.7412 5.9753 19.6605 6.32397 19.5914C6.67263 19.5217 7.02588 19.3568 7.13309 19.1877C7.18212 19.1098 7.15967 19.0686 7.21465 18.9916C7.31315 18.8546 7.57477 18.7534 7.84738 18.6851C8.12045 18.6168 8.24873 18.5463 8.7179 18.5412C8.8187 18.5399 9.33917 18.4918 9.55589 18.6191C9.67318 18.6878 9.54718 18.7721 9.44913 18.85C9.22555 19.0283 8.81136 19.1304 8.44391 19.2468C8.07646 19.3627 7.70855 19.5263 7.68564 19.7306C7.67282 19.847 7.69068 19.9556 7.8066 20.0711C7.91015 20.1746 8.03614 20.2617 7.64303 20.3299C7.43503 20.3666 7.07674 20.3505 6.87514 20.395C6.66072 20.4426 6.56222 20.5443 6.38857 20.6209C6.15032 20.7258 5.82594 20.7272 5.50843 20.7478C5.02231 20.7798 4.58843 20.9599 4.42532 21.1748C4.52245 21.0877 4.73458 21.035 4.90914 20.9746C5.30363 20.8371 5.81723 20.8788 6.12696 20.8312C6.01195 20.9901 6.17735 21.2522 6.25753 21.4117C6.3455 21.5876 6.19018 21.5899 6.15765 21.8098C6.13474 21.9642 6.27082 22.1429 6.57779 22.1938C6.3904 22.1237 6.34642 21.9972 6.37162 21.8831C6.39682 21.769 6.477 21.6572 6.48387 21.5432C6.49899 21.3077 6.1604 21.0328 6.44721 20.8339C6.65889 20.6878 6.7157 20.5732 7.052 20.5136C7.54728 20.4261 8.07142 20.482 8.23453 20.2846C8.306 20.1984 8.16443 20.0793 8.1264 19.99C7.90648 19.4722 8.91766 19.3499 8.99646 19.3861C9.10826 19.436 8.85947 19.5991 9.03403 19.7485C9.15224 19.8493 9.44135 19.8937 9.50641 20.0055C9.56688 20.1095 9.3717 20.2076 9.31398 20.3139C9.19439 20.5329 9.67868 20.7542 9.51374 20.9672C9.35567 21.1716 8.77059 21.1913 8.37381 21.3035C7.78323 21.4712 7.67144 21.9152 8.16443 22.1296C7.83226 21.8387 7.96238 21.4964 8.51859 21.4075C8.7628 21.3681 9.05465 21.3329 9.27641 21.2701C9.49404 21.2091 9.64386 21.0208 9.89447 21.0149C10.0809 21.0108 10.2184 21.2321 10.3082 21.3086C10.3985 21.3851 10.4438 21.4726 10.5377 21.5482C10.6917 21.6714 10.9822 21.7773 10.9428 21.9207C10.9231 21.9917 10.8974 22.0435 10.8947 22.1287C11.0949 21.9967 11.1127 21.8093 10.9373 21.6724C10.8305 21.5885 10.6587 21.5221 10.5991 21.4282C10.5597 21.3663 10.4113 21.1125 10.3513 21.0547C10.1346 20.8449 9.88485 20.8893 9.72587 20.6685C9.39828 20.214 10.0965 20.2328 9.94533 20.0266C9.812 19.8438 9.25121 19.7485 9.30481 19.5561C9.34192 19.4232 9.65989 19.349 9.79276 19.2299C9.85049 19.1781 9.87111 19.1185 9.93067 19.0668C10.0333 18.9783 10.2541 18.9238 10.4649 18.9348C10.6757 18.9458 10.7283 19.0576 10.7833 19.1538C10.9038 19.3655 10.5593 19.5451 10.6857 19.7563C10.7251 19.8218 10.8218 19.8814 10.8126 19.9496C10.8039 20.0142 10.7031 20.066 10.6376 20.1228C10.4869 20.2534 10.5313 20.4271 10.7425 20.5347C10.9579 20.6451 11.2919 20.679 11.5737 20.7487C11.8554 20.8183 12.1138 20.9695 11.9869 21.1074C12.1601 20.9911 12.134 20.8183 11.9278 20.7148C11.756 20.6286 11.499 20.5961 11.2781 20.5402C11.0568 20.4843 10.8475 20.3771 10.9061 20.2617C10.9579 20.1609 11.1957 20.0949 11.2209 19.9923C11.2314 19.9483 11.2332 19.9011 11.1961 19.8603C10.88 19.5158 11.2827 19.2161 12.1775 19.5767C12.4758 19.6967 12.2284 19.9139 12.4621 19.9991C12.7301 20.0967 13.432 19.9721 13.5859 20.1146C13.7312 20.2484 13.2153 20.4972 13.229 20.647C13.2428 20.7968 13.5438 20.9104 13.6116 21.057C13.706 21.2609 13.3349 21.4446 13.2606 21.6508C13.197 21.8281 13.3821 22.0196 13.7078 22.1136C13.4169 22.0109 13.4325 21.8016 13.552 21.6398C13.6716 21.4776 13.8677 21.3209 13.843 21.15C13.8201 20.9947 13.6162 20.8568 13.5534 20.7038C13.4902 20.5503 13.6863 20.3913 14.0152 20.3702C14.8097 20.3203 14.511 20.7501 14.8514 20.9182C15.1703 21.0754 15.9899 21.1771 15.989 21.4694C15.989 21.6018 15.9597 21.7732 15.7128 21.8405C16.2012 21.726 16.3542 21.3938 16.0074 21.1936C15.7205 21.0277 14.8207 20.8353 14.9678 20.6754C14.9201 20.7272 15.7783 20.7716 16.477 20.6914C16.888 20.6442 17.3182 20.7666 17.4336 20.9553C17.337 20.7968 17.1271 20.6731 16.8266 20.6309C16.5255 20.5888 16.3015 20.6227 15.9913 20.6282C15.6811 20.6332 15.2564 20.6548 15.0374 20.5494C14.8766 20.472 14.8848 20.3157 14.692 20.2562C14.5151 20.2007 14.2718 20.2058 14.1092 20.1416C13.9823 20.0912 13.9346 20.0101 13.8265 19.951C13.5035 19.7732 12.714 20.0248 12.693 19.7952C12.6669 19.502 12.282 19.3504 11.8971 19.2977C11.6438 19.2633 11.3876 19.206 11.2516 19.1002C11.1155 18.9944 11.1425 18.8368 11.3602 18.7676C11.5796 18.6984 11.8884 18.7437 12.0873 18.8271C12.2857 18.9101 12.4126 19.0237 12.5812 19.1204C12.9848 19.3504 13.7353 19.4342 14.3589 19.4058C14.5417 19.3957 15.655 19.3636 15.9194 19.9212C15.9858 20.061 16.1228 20.2154 16.406 20.2768C16.745 20.3501 17.189 20.1439 17.5216 20.2259C17.796 20.2933 17.8446 20.5471 18.0073 20.6667C18.1905 20.8014 18.5474 20.8412 18.8572 20.9132C18.3853 20.8041 18.1438 20.6273 17.9926 20.466C17.8203 20.2836 17.7237 20.0408 17.2178 20.093Z" fill="white"/>
<mask id="mask0_665_11532" style="mask-type:luminance" maskUnits="userSpaceOnUse" x="4" y="18" width="14" height="6">
<path d="M4.52783 18.3843H17.4661V23.4796H4.52783V18.3843Z" fill="white"/>
</mask>
<g mask="url(#mask0_665_11532)">
<path d="M5.94354 20.7728C6.30045 20.8461 6.67249 20.8759 6.71647 20.6683C6.83972 20.091 7.27452 19.9316 7.2287 19.8578C7.21083 19.8285 7.05643 19.8395 6.79986 19.9105C6.67386 19.9458 6.29725 20.141 6.17217 20.1818C6.10848 20.2028 6.05488 20.2386 6.00952 20.2766C5.82533 20.4301 5.5092 20.469 5.26637 20.5593C5.13487 20.6088 5.02537 20.7311 4.96993 20.76C5.03408 20.628 5.1335 20.5845 5.18665 20.552C5.28103 20.4933 5.36304 20.436 5.44918 20.4136C5.59304 20.376 5.68284 20.3655 5.7873 20.2812C6.04021 20.0782 6.18179 19.9838 6.42691 19.9279C6.41637 19.8826 5.98569 19.8079 5.80197 19.8138C5.60954 19.8193 5.29523 19.8885 5.06202 19.8565C4.97772 19.8445 4.90625 19.8166 4.82653 19.7983C4.74726 19.7799 4.65196 19.8143 4.56445 19.8441C4.64051 19.7689 4.79583 19.7483 4.91495 19.7602C5.03408 19.7717 5.14358 19.8051 5.27003 19.7983C5.45467 19.7886 5.63565 19.6943 5.82167 19.6801C6.06495 19.6613 6.2528 19.7841 6.49655 19.7657C6.63263 19.7552 6.75954 19.6911 6.89607 19.6636C7.23695 19.5958 7.80187 19.7295 8.29257 19.6901C8.5464 19.6695 8.8355 19.681 9.05221 19.5793C9.22632 19.4968 9.58644 19.127 9.60522 19.0771C9.65975 18.9346 9.41462 18.8274 9.22678 18.8563C9.03893 18.8847 8.89735 18.9241 8.70905 18.9511C8.48134 18.9841 8.23759 18.9667 8.00942 18.9433C7.82157 18.9245 7.43076 18.8911 7.24153 18.9108C6.91302 18.9452 6.78428 19.0308 6.45577 19.0666C6.64087 19.0052 6.82964 18.9493 7.01199 18.8824C7.23191 18.8022 7.54163 18.8247 7.66854 18.8288C8.94546 18.87 8.88773 18.5039 9.64921 18.4366C10.002 18.4059 10.6196 18.3967 10.9733 18.4141C11.2051 18.4251 11.4379 18.509 11.6702 18.5108C11.7902 18.5113 11.9103 18.5113 12.0299 18.5108C12.088 18.5108 12.16 18.3752 12.1829 18.41C12.2924 18.3903 12.5187 18.4842 12.5471 18.4778C12.5609 18.4746 12.5755 18.4764 12.5893 18.4778C12.7492 18.4957 12.9297 18.4824 13.0823 18.5186C13.2055 18.5479 13.4277 18.6309 13.4983 18.7193C13.6696 18.8352 13.8369 18.9658 14.0527 19.0208C14.1434 19.0437 14.2401 19.0524 14.3276 19.0817C14.5209 19.1458 14.6428 19.2975 14.8265 19.3767C15.0061 19.4546 15.2237 19.4546 15.4263 19.4377C15.6283 19.4203 15.8313 19.3882 16.0352 19.4074C16.2386 19.4267 16.4503 19.511 16.5268 19.6553C16.3435 19.4817 15.9999 19.4785 15.7167 19.5197C15.4336 19.5609 15.1307 19.6278 14.8636 19.5367C14.6662 19.4684 14.5218 19.3218 14.3157 19.2709C14.2428 19.253 14.1512 19.2521 14.1054 19.2979C14.0637 19.3387 14.0861 19.3974 14.1008 19.4487C14.1727 19.7016 14.3157 19.7314 14.471 19.8432C14.5832 19.9243 14.7051 19.9572 14.8444 20.0072C15.0767 20.091 15.3387 20.1423 15.5921 20.1689C15.8455 20.1955 16.1121 20.2464 16.2917 20.3856C16.3953 20.4658 16.4617 20.5684 16.5584 20.6527C16.7801 20.847 17.1013 20.9726 17.198 21.2145C17.253 21.351 17.2585 21.4724 17.2626 21.6144C17.2667 21.7524 17.3295 21.8893 17.4404 21.9998C17.3139 21.8683 17.1989 21.7771 17.1485 21.6195C17.0926 21.4449 17.1274 21.2681 16.9726 21.1292C16.8392 21.0101 16.6028 20.8397 16.4548 20.7297C16.3614 20.6596 16.2977 20.6111 16.2116 20.5359C16.0187 20.3664 15.7813 20.3504 15.4941 20.3009C15.2072 20.2509 14.8545 20.1598 14.5786 20.08C14.3028 19.9999 14.0229 19.7951 13.939 19.5779C13.9001 19.4785 13.9184 19.4239 13.8749 19.3254C13.7975 19.1504 13.5904 19.0253 13.3741 18.9419C13.1583 18.8586 13.0566 18.7692 12.6846 18.7697C12.6049 18.7697 12.1925 18.7133 12.0202 18.881C11.9277 18.9717 12.0271 19.0799 12.1041 19.1802C12.2814 19.4093 12.609 19.5367 12.8999 19.681C13.1908 19.8253 13.4818 20.0296 13.4992 20.294C13.5088 20.4447 13.4946 20.5859 13.4025 20.738C13.3201 20.8745 13.2202 20.99 13.5308 21.0701C13.6958 21.1128 13.9794 21.0834 14.1388 21.1357C14.3088 21.1916 14.3862 21.3208 14.5232 21.4151C14.712 21.5443 14.9685 21.5366 15.2205 21.5535C15.6054 21.5796 15.9486 21.7977 16.0769 22.0699C16.0003 21.9608 15.8326 21.9003 15.6943 21.8275C15.3823 21.663 14.975 21.7331 14.7298 21.68C14.8201 21.882 14.6886 22.2261 14.6245 22.435C14.5534 22.6655 14.6771 22.6641 14.7019 22.9482C14.7193 23.1466 14.6112 23.3821 14.3679 23.4572C14.5168 23.3614 14.5516 23.1956 14.5319 23.049C14.5127 22.9024 14.4494 22.7599 14.4444 22.6123C14.4339 22.3077 14.7028 21.942 14.476 21.6923C14.3092 21.5086 14.2648 21.362 13.9981 21.2937C13.6064 21.1929 13.1913 21.2768 13.0626 21.0239C13.0062 20.9134 13.1189 20.7558 13.1492 20.6395C13.3251 19.9646 12.5242 19.8239 12.4614 19.8707C12.373 19.9371 12.5696 20.1451 12.4312 20.3421C12.3373 20.475 12.1082 20.5368 12.0564 20.683C12.0079 20.8191 12.1623 20.9441 12.2076 21.0807C12.302 21.3638 11.9181 21.6589 12.0482 21.9338C12.1728 22.1968 12.6355 22.2114 12.9494 22.3489C13.4163 22.5532 13.5033 23.125 13.113 23.4155C13.3764 23.0297 13.2742 22.5899 12.8344 22.4863C12.641 22.441 12.4106 22.4002 12.2351 22.3232C12.0628 22.2481 11.9446 22.0057 11.7467 22.0021C11.5992 21.9993 11.4897 22.2898 11.4187 22.3906C11.3472 22.4918 11.311 22.6064 11.2363 22.7063C11.1144 22.8689 10.8844 23.0119 10.9151 23.1983C10.9302 23.2909 10.9509 23.3578 10.9527 23.4691C10.7946 23.3 10.7809 23.0554 10.9197 22.874C11.0045 22.7631 11.1405 22.6737 11.1882 22.5505C11.2194 22.4694 11.3376 22.1368 11.3847 22.0607C11.557 21.7844 11.7545 21.838 11.8809 21.5485C12.1412 20.9528 11.5886 20.9872 11.7087 20.716C11.815 20.4768 12.2589 20.3458 12.2168 20.0961C12.1879 19.9238 11.9364 19.8317 11.8315 19.6778C11.7856 19.6109 11.7692 19.5339 11.722 19.4675C11.6413 19.3529 11.4663 19.2833 11.2991 19.2989C11.1323 19.3144 11.0906 19.4601 11.0466 19.5861C10.9504 19.8633 11.2235 20.0952 11.1227 20.3714C11.0915 20.4571 11.0145 20.5364 11.0219 20.6253C11.0288 20.7086 11.1085 20.776 11.1602 20.8493C11.2794 21.0179 11.2436 21.2447 11.0759 21.3877C10.9055 21.5338 10.6411 21.5815 10.418 21.6749C10.1949 21.7684 9.99008 21.9682 10.09 22.1478C9.95343 21.9966 9.97405 21.7698 10.1376 21.6332C10.2737 21.5191 10.4771 21.4747 10.6526 21.4C10.8276 21.3249 10.9935 21.1833 10.9467 21.0326C10.9064 20.902 10.7181 20.8177 10.6989 20.6834C10.6902 20.6262 10.6888 20.5643 10.7186 20.5112C10.9692 20.0594 10.6508 19.6709 9.94106 20.1428C9.70465 20.3004 9.90028 20.5849 9.71518 20.6972C9.50259 20.8259 8.94684 20.6605 8.8245 20.8475C8.7095 21.0234 9.11819 21.3524 9.10719 21.5489C9.0962 21.7469 8.85749 21.8967 8.80389 22.0905C8.7292 22.3594 9.02289 22.6 9.08108 22.8707C9.13194 23.104 8.98532 23.3573 8.72737 23.4842C8.95737 23.3459 8.94546 23.0705 8.85062 22.8579C8.75624 22.6453 8.60092 22.4387 8.62062 22.2133C8.63849 22.0085 8.80022 21.8261 8.85016 21.6241C8.9001 21.422 8.74478 21.2122 8.48408 21.1828C7.85456 21.1128 8.09143 21.6836 7.82203 21.9054C7.56912 22.1129 6.91944 22.2444 6.92036 22.6348C6.92081 22.8116 6.94418 23.0407 7.13982 23.1305C6.75312 22.978 6.63079 22.5312 6.90569 22.266C7.13295 22.0465 7.84586 21.7954 7.72948 21.5828C7.76705 21.6516 7.08713 21.7065 6.53275 21.5902C6.20653 21.5214 5.86519 21.6781 5.77402 21.931C5.85053 21.7189 6.01685 21.5558 6.25509 21.5036C6.4938 21.4518 6.67203 21.4999 6.91761 21.5104C7.16364 21.521 7.50086 21.5531 7.67404 21.4147C7.80187 21.3134 7.795 21.1059 7.94757 21.028C8.08823 20.9565 8.28112 20.9643 8.40986 20.8805C8.51066 20.8149 8.54823 20.7077 8.63436 20.6303C8.89002 20.3989 9.51588 20.7316 9.53237 20.4296C9.55345 20.0443 9.85859 19.8468 10.1637 19.7776C10.3644 19.7323 10.5678 19.6571 10.6755 19.5179C10.7836 19.3795 10.7626 19.1742 10.5898 19.084C10.4166 18.9937 10.1715 19.0524 10.0139 19.1605C9.8563 19.2691 9.7555 19.4175 9.62172 19.5435C9.30146 19.8441 8.7063 19.9504 8.21193 19.905C8.06715 19.8913 7.18334 19.829 6.97442 20.5675C6.92173 20.7531 6.81269 20.9574 6.58818 21.0353C6.31924 21.1283 5.96645 20.8424 5.70254 20.9455C5.48446 21.0303 5.44643 21.3725 5.31722 21.5315C5.17244 21.7097 4.88929 21.7569 4.64326 21.8481C5.01804 21.7093 5.2091 21.4742 5.32868 21.2598C5.46521 21.0161 5.54127 20.6912 5.94354 20.7728Z" fill="white"/>
</g>
<path d="M16.0014 9.88606L16.0656 9.86224L16.0953 9.8714C16.3913 9.96487 16.6511 10.0322 16.8898 10.0762C17.123 10.1184 17.3613 10.1481 17.6023 10.166C17.5322 10.1555 17.4625 10.144 17.3942 10.1321C17.1262 10.084 16.8133 10.0006 16.4642 9.88423L16.2213 9.80313L16.5246 9.69088C17.4226 9.36192 18.0036 8.94773 18.377 8.57158C18.0618 8.78279 17.6934 8.96331 17.3342 9.12413L17.1734 9.19652L17.2096 9.02425C17.2637 8.76401 17.3365 8.54638 17.4268 8.37594C17.3791 8.44466 17.3342 8.51889 17.2939 8.59815C17.2146 8.75255 17.1491 8.95002 17.0996 9.18461L17.09 9.23088L17.0465 9.24875C16.5333 9.46409 15.978 9.67255 15.4415 9.87415C14.9032 10.0762 14.3951 10.2673 13.9612 10.4519L13.7119 10.5577L13.8485 10.3236C13.9451 10.1573 14.0258 10.0024 14.095 9.84987C14.1926 9.63361 14.2938 9.35963 14.4006 9.06915L14.4281 8.99401L14.4853 8.98897C14.7758 8.9656 15.0136 8.92986 15.2134 8.87947C15.2798 8.86251 15.3449 8.84419 15.4081 8.82448C15.184 8.87305 14.9091 8.9065 14.5884 8.92437L14.451 8.93215L14.4991 8.80295C14.6961 8.27652 14.9948 7.47701 15.4837 6.81633C15.1639 7.11689 14.8532 7.50679 14.6416 7.99932C14.6173 8.05476 14.5944 8.10974 14.5715 8.16426L14.4688 8.4103L14.4015 8.15235C14.3236 7.85317 14.2787 7.58468 14.2691 7.35422C14.2627 7.20852 14.2627 7.01289 14.2842 6.78563C14.2205 7.08665 14.1871 7.42799 14.2136 7.79727C14.231 8.03598 14.2837 8.31134 14.3708 8.61556L14.379 8.64488L14.3593 8.69574C14.0863 9.39674 13.8915 10.0162 13.2982 10.7332L13.2006 10.8084C12.8616 10.9884 12.5244 11.2015 12.1986 11.4406L12.0877 11.5226L12.058 11.3875C11.9576 10.9339 11.9141 10.5325 11.9278 10.1949C11.9361 9.99052 11.9622 9.70096 12.0346 9.36329C11.8999 9.75686 11.7991 10.2182 11.7936 10.7231C11.7908 10.9857 11.822 11.2871 11.8861 11.6198L11.8967 11.6729L11.855 11.7068C11.4729 12.017 11.1934 12.2951 11.0262 12.4738L10.9121 12.5952L10.8731 12.4335C10.8136 12.1874 10.759 11.8924 10.7151 11.6555C10.677 11.4493 10.644 11.2711 10.6225 11.2019C10.5199 10.8775 10.7096 8.89688 11.1192 7.63416L11.1256 7.614L11.1847 7.55536C11.3977 7.34277 11.5663 7.17508 11.7785 6.97623L11.8898 6.86948C12.3397 6.43743 12.9867 5.81661 13.5575 5.02902C13.3124 5.34057 13.0274 5.65213 12.6971 5.94627C12.2403 6.35541 11.8165 6.7444 11.4371 7.10223L11.1792 7.31757C11.2273 7.18012 11.3858 6.73386 11.433 6.60145C11.6218 6.06723 11.9489 5.14218 12.0694 4.02563C12.0163 4.37613 11.9338 4.73808 11.8137 5.10003L11.7679 5.23748L11.5911 5.06246C11.362 4.8375 11.1645 4.64278 11.0248 4.40316C10.9661 4.30282 10.908 4.19973 10.853 4.09252C10.9249 4.25884 11.0161 4.43386 11.1325 4.61621C11.2383 4.78252 11.4307 5.02123 11.6905 5.30575L11.7272 5.34607L11.5879 5.72681C10.8635 7.70655 10.3403 9.13696 10.1763 10.2334L10.1401 10.4734L10.0109 10.2673C9.68785 9.7509 9.38362 9.18231 9.10781 8.57707L9.08719 8.53172L9.11468 8.49002C9.29978 8.21054 9.44273 7.95351 9.5394 7.7258C9.75382 7.22227 9.8308 6.75081 9.83996 6.35083C9.78086 6.73615 9.67548 7.05962 9.59117 7.27496C9.48717 7.54115 9.31811 7.84996 9.08902 8.19221L8.99647 8.33012L8.93187 8.17709C8.68217 7.5911 8.45492 6.96707 8.25607 6.32105L8.24324 6.27936L8.26844 6.24316C8.46041 5.96964 8.59649 5.73414 8.68537 5.52338C8.7651 5.33416 8.81779 5.15181 8.85123 4.98045C8.82328 5.073 8.79488 5.15364 8.76922 5.22007C8.68079 5.44824 8.52914 5.71764 8.31838 6.02004L8.21071 6.17444L8.15802 5.99392C7.9129 5.15089 7.74888 4.39033 7.64304 3.7915C7.66503 4.14475 7.71314 4.56993 7.81027 5.07529L7.85151 5.29017L7.67099 5.16647C7.27467 4.89386 6.97549 4.64736 6.7574 4.41232C6.74549 4.39949 6.73312 4.38621 6.72121 4.37246C6.82155 4.50396 6.93425 4.63453 7.05979 4.7619C7.26093 4.96762 7.52163 5.18113 7.85563 5.41434L7.8845 5.4345L7.89183 5.4684C8.03523 6.10938 8.24049 6.809 8.50302 7.54619L8.57083 7.73771L8.38344 7.65936C7.64625 7.35239 5.84152 6.54785 5.01224 5.70894C4.99254 5.68832 4.97238 5.66725 4.95268 5.64571C5.05805 5.77996 5.17672 5.91282 5.31096 6.04157C6.09947 6.79938 7.49689 7.50038 8.51677 8.01215L8.57221 8.0401L8.58504 8.07263C8.62535 8.17938 8.66659 8.28797 8.70828 8.39793C8.94424 9.02287 9.21135 9.7312 9.57514 10.495L9.65394 10.6613L9.47434 10.6214C8.95661 10.5064 8.63177 10.3685 8.25561 10.2086L8.18872 10.1802C7.70123 9.97357 7.2426 9.72341 6.83162 9.44393C7.28567 9.83383 7.90878 10.259 8.71882 10.5852C8.84665 10.6375 8.94607 10.686 9.04183 10.7332C9.22006 10.8203 9.374 10.8959 9.65348 10.9618L9.69472 10.9715L9.7135 11.009C9.74649 11.0759 9.99253 12.4422 9.99528 12.4555L10.0232 12.6094C10.0319 12.6337 9.84637 12.5375 9.84821 12.5389C9.82484 12.5219 9.66998 12.4404 9.49129 12.346C8.36282 11.7517 5.3664 10.1738 4.21731 8.80845C4.08307 8.64122 3.95845 8.44879 3.8462 8.23711C4.00472 8.58074 4.21869 8.93399 4.5055 9.27349C5.17993 10.0762 6.21493 10.6837 7.21557 11.2711L7.57294 11.5245L7.22336 11.4773C5.53547 11.1863 4.05512 10.7538 2.80249 10.1871C3.28998 10.4418 3.96303 10.7282 4.9009 11.0168L5.12861 11.0865L4.90365 11.1877C4.74375 11.2422 4.59393 11.2835 4.45923 11.3105C4.34652 11.3334 4.23243 11.3522 4.11652 11.3669C4.4015 11.3577 4.68144 11.3238 4.9513 11.2661C4.99162 11.2574 5.25782 11.1469 5.28393 11.1346C6.08939 11.3751 7.06346 11.6266 8.26203 11.9025L8.27715 11.9057L8.28998 11.9139C8.46408 12.0234 8.61711 12.1251 8.75822 12.2246L8.95707 12.3648L8.7147 12.3872C8.47737 12.4097 8.24141 12.472 8.0137 12.5728C7.89732 12.6241 7.78828 12.6942 7.67236 12.7679C7.5844 12.8243 7.49276 12.8825 7.39471 12.9352C6.93792 13.178 6.43531 13.2687 6.0674 13.3347C5.86077 13.3718 5.64588 13.3998 5.42963 13.4185C5.43238 13.4185 5.43421 13.4185 5.4365 13.4185C5.8319 13.4185 6.22593 13.3819 6.60621 13.3104L6.61308 13.3086L6.91959 13.2614L6.68409 13.4689C6.40095 13.6815 6.08939 13.9015 5.73935 14.0595C5.92537 13.9967 6.14391 13.906 6.39774 13.7773C6.54848 13.7003 6.70654 13.6151 6.85911 13.5331C7.51338 13.1808 8.18964 12.816 8.78617 12.816C9.2031 12.816 9.54261 12.9998 9.79552 13.3613C10.0429 13.7141 10.102 14.1731 10.1249 14.4874C10.2294 15.9201 9.97741 17.5943 9.19852 18.2999C9.36896 18.3154 9.58705 18.4295 9.75291 18.4295C9.79872 18.4295 9.98932 18.5202 10.0232 18.5184C10.7563 18.4676 11.3478 18.3718 12.068 18.3384C11.9306 17.9164 11.4985 16.3934 11.6305 15.4162C11.8532 13.769 13.1003 13.5784 14.0189 13.5784C14.1188 13.5784 14.2237 13.5807 14.3483 13.5853L14.385 13.5867L14.4102 13.6133C14.5426 13.7521 14.6727 13.8721 14.7978 13.9697C15.0131 14.1369 15.2395 14.2739 15.458 14.3853C15.321 14.29 15.2028 14.2011 15.1089 14.1305C14.9957 14.0458 14.8729 13.928 14.7231 13.7603L14.5747 13.5945L14.7969 13.611C14.8784 13.6169 14.9614 13.6238 15.0457 13.6302C15.3105 13.6513 15.584 13.6733 15.8772 13.6834C16.0193 13.6893 16.1563 13.6925 16.2855 13.6925C16.4692 13.6925 16.6319 13.6866 16.7753 13.676C16.2213 13.6756 15.6285 13.5762 15.0557 13.4795C14.6599 13.4126 14.2507 13.3439 13.8663 13.3104L13.5401 13.282L13.8347 13.14C13.9571 13.0809 14.0721 13.0176 14.1788 12.9526C13.8943 13.0795 13.6409 13.1569 13.4604 13.2032C13.2712 13.2499 12.8849 13.3251 12.7393 13.3535C12.7168 13.3576 12.6893 13.3631 12.6893 13.3631C12.085 13.4918 11.7061 13.7567 11.4953 13.956L11.3785 14.0664L11.3382 13.8753C11.2846 13.6211 11.2378 13.4011 11.2956 13.2353C11.5219 12.5851 12.5285 11.6633 13.1708 11.2166L13.2034 11.1937L13.4622 11.2523C14.6022 11.5107 16.0202 11.8319 17.1019 11.8319C17.1656 11.8314 17.2288 11.8301 17.2907 11.8282C16.3588 11.7838 15.0095 11.524 13.6024 11.1144L13.4041 11.0567L13.5814 10.9508C14.3103 10.5165 15.0942 10.2246 16.0014 9.88606Z" fill="white"/>
<path d="M7.20595 1.03027C7.20549 1.03256 6.58009 1.87605 7.51247 2.5097C7.51247 2.51245 8.14703 1.70103 7.20595 1.03027Z" fill="white"/>
<path d="M0.705236 7.79297C0.705694 7.79572 0.631471 8.47289 1.5107 8.42066C1.51161 8.42432 1.59958 7.73112 0.705236 7.79297Z" fill="white"/>
<path d="M1.63819 7.09689C1.63865 7.09918 1.60016 7.63982 2.30529 7.59033C2.30574 7.59263 2.35706 7.04374 1.63819 7.09689Z" fill="white"/>
<path d="M8.04934 1.28418C8.04934 1.28418 7.60904 1.68462 8.02643 2.13775C8.02597 2.13775 8.46627 1.76022 8.04934 1.28418Z" fill="white"/>
<path d="M8.34946 1.02686C8.34946 1.02731 8.23217 1.34162 8.58588 1.56245C8.60878 1.4612 8.70454 1.25502 8.34946 1.02686Z" fill="white"/>
<path d="M10.8545 0.880873C10.8541 0.877666 9.96432 1.43297 10.5778 2.3942C10.5774 2.391 11.4612 1.88655 10.8545 0.880873Z" fill="white"/>
<path d="M11.7929 0.717773C11.7925 0.718232 11.173 1.47513 12.1173 2.24485C12.1168 2.24531 12.7454 1.53102 11.7929 0.717773Z" fill="white"/>
<path d="M6.56811 2.13184C6.56811 2.13642 6.11314 3.04497 7.17472 3.5013C7.17472 3.50588 7.64526 2.612 6.56811 2.13184Z" fill="white"/>
<path d="M8.54321 1.97025C8.54275 1.96567 7.52699 2.39635 7.85733 3.42723C7.85733 3.4231 8.8566 3.03962 8.54321 1.97025Z" fill="white"/>
<path d="M9.3687 2.15725C9.36824 2.1545 8.61455 2.4491 8.85875 3.22157C8.8583 3.21928 9.60007 2.95629 9.3687 2.15725Z" fill="white"/>
<path d="M11.3247 2.36721C11.3247 2.36446 10.5701 2.60958 10.812 3.39763C10.8115 3.39534 11.5538 3.17954 11.3247 2.36721Z" fill="white"/>
<path d="M9.29772 0.809108C9.29772 0.8059 8.54265 1.10371 8.78732 1.87527C8.78686 1.87252 9.52955 1.60724 9.29772 0.809108Z" fill="white"/>
<path d="M9.91519 3.54939C9.91519 3.54618 9.10973 3.64835 9.11477 4.4616C9.11477 4.45885 9.90007 4.37776 9.91519 3.54939Z" fill="white"/>
<path d="M11.5131 2.79492C11.5131 2.79538 11.1516 3.29753 11.8132 3.69064C11.8132 3.6911 12.1825 3.21048 11.5131 2.79492Z" fill="white"/>
<path d="M3.05302 3.85059C3.05348 3.85334 2.90274 4.45354 3.64635 4.44942C3.64681 4.45217 3.80946 3.8483 3.05302 3.85059Z" fill="white"/>
<path d="M9.67368 4.60163C9.67368 4.59933 8.98185 4.65661 9.02354 5.34157C9.02354 5.33973 9.69934 5.30079 9.67368 4.60163Z" fill="white"/>
<path d="M12.9175 1.94984C12.9175 1.94709 12.2238 1.92784 12.2623 2.6151C12.2623 2.6128 12.9399 2.64579 12.9175 1.94984Z" fill="white"/>
<path d="M10.4868 4.65577C10.4868 4.65485 9.92779 4.7245 10.0103 5.27888C10.0103 5.27751 10.5578 5.22344 10.4868 4.65577Z" fill="white"/>
<path d="M10.4912 3.50028C10.4912 3.50166 10.4623 3.00088 9.82593 3.02791C9.82593 3.02929 9.83967 3.50761 10.4912 3.50028Z" fill="white"/>
<path d="M10.6169 4.09791C10.6169 4.09882 10.5922 3.66265 10.0369 3.68281C10.0369 3.68372 10.0492 4.10203 10.6169 4.09791Z" fill="white"/>
<path d="M10.8261 4.44108C10.8261 4.44154 10.6827 4.11486 10.2681 4.25094C10.2681 4.2514 10.3986 4.56707 10.8261 4.44108Z" fill="white"/>
<path d="M11.3119 5.20515C11.3119 5.20606 11.1209 4.76622 10.5674 4.94262C10.5674 4.94399 10.741 5.36596 11.3119 5.20515Z" fill="white"/>
<path d="M10.0972 4.08839C10.0972 4.08701 9.57767 4.28723 9.8205 4.80084C9.82004 4.79946 10.3332 4.61986 10.0972 4.08839Z" fill="white"/>
<path d="M11.5435 2.03516C11.5435 2.03607 11.3172 2.47683 11.8972 2.73524C11.8972 2.73615 12.1327 2.3096 11.5435 2.03516Z" fill="white"/>
<mask id="mask1_665_11532" style="mask-type:luminance" maskUnits="userSpaceOnUse" x="9" y="0" width="2" height="2">
<path d="M9.60889 0.52002H10.1953V1.25996H9.60889V0.52002Z" fill="white"/>
</mask>
<g mask="url(#mask1_665_11532)">
<path d="M9.73354 0.533691C9.73354 0.535066 9.50766 0.989569 10.09 1.21407C10.09 1.21499 10.325 0.772397 9.73354 0.533691Z" fill="white"/>
</g>
<path d="M6.38345 1.35303C6.38345 1.3544 6.16123 1.8309 6.74036 1.98576C6.74036 1.98713 6.97128 1.51934 6.38345 1.35303Z" fill="white"/>
<path d="M9.44425 6.41721C9.44425 6.41767 9.8676 5.92605 9.25732 5.51416C9.25732 5.51462 8.83031 5.98607 9.44425 6.41721Z" fill="white"/>
<path d="M10.3954 2.86893C10.3954 2.87122 10.5251 2.2669 9.75716 2.1377C9.75716 2.13953 9.61375 2.7159 10.3954 2.86893Z" fill="white"/>
<path d="M10.078 5.9474C10.078 5.94602 10.6787 5.91807 10.648 5.32429C10.648 5.32291 10.0602 5.3362 10.078 5.9474Z" fill="white"/>
<path d="M7.7217 8.72152C7.7217 8.72015 8.31824 8.65646 8.28571 8.06497C8.28571 8.06359 7.70154 8.11399 7.7217 8.72152Z" fill="white"/>
<path d="M9.02561 3.68886C9.02515 3.68703 9.62764 3.6403 9.59603 3.04743C9.59603 3.0456 9.00636 3.07858 9.02561 3.68886Z" fill="white"/>
<path d="M9.38421 1.95538C9.38421 1.95355 9.98807 1.91323 9.95692 1.3199C9.95692 1.31807 9.36588 1.34464 9.38421 1.95538Z" fill="white"/>
<path d="M8.91646 6.44873C8.91646 6.45056 8.63285 7.04801 9.3847 7.31696C9.3847 7.31879 9.67976 6.736 8.91646 6.44873Z" fill="white"/>
<path d="M8.1394 4.08691C8.13894 4.08829 7.8558 4.6917 8.60948 4.9414C8.60948 4.94323 8.90454 4.35219 8.1394 4.08691Z" fill="white"/>
<path d="M8.2824 3.46094C8.2824 3.46277 8.11792 3.98279 8.77677 4.12116C8.77677 4.12253 8.95316 3.6103 8.2824 3.46094Z" fill="white"/>
<path d="M11.2331 3.57178C11.2331 3.57269 10.9467 4.15044 11.7004 4.47116C11.7004 4.47208 11.9991 3.9122 11.2331 3.57178Z" fill="white"/>
<path d="M11.3582 8.74072C11.3578 8.74118 10.9995 9.25021 11.656 9.63049C11.6556 9.63094 12.0217 9.14299 11.3582 8.74072Z" fill="white"/>
<path d="M11.6083 8.20508C11.6083 8.20508 11.3838 8.64996 11.9588 8.8992C11.9584 8.89966 12.1921 8.47036 11.6083 8.20508Z" fill="white"/>
<path d="M11.0806 9.52197C11.0806 9.52289 10.7965 10.1066 11.5438 10.4131C11.5433 10.4145 11.8398 9.84911 11.0806 9.52197Z" fill="white"/>
<path d="M11.0706 10.4238C11.0706 10.4252 10.7874 11.0094 11.5333 11.3145C11.5333 11.315 11.8288 10.7496 11.0706 10.4238Z" fill="white"/>
<path d="M10.5683 7.11477C10.5683 7.11293 9.84215 7.052 9.75464 7.77499C9.75464 7.77315 10.4607 7.84646 10.5683 7.11477Z" fill="white"/>
<path d="M10.0466 6.67237C10.0466 6.671 10.7211 6.84647 10.9538 6.18717C10.9543 6.1858 10.2995 5.99016 10.0466 6.67237Z" fill="white"/>
<path d="M12.0129 5.26436C12.0129 5.26299 12.6855 5.48199 12.9265 4.8433C12.927 4.84193 12.275 4.60185 12.0129 5.26436Z" fill="white"/>
<path d="M12.2559 4.57521C12.2559 4.57338 12.9564 4.68563 13.0476 4.008C13.048 4.00617 12.3654 3.87467 12.2559 4.57521Z" fill="white"/>
<path d="M12.2839 3.8105C12.2839 3.80867 12.9813 3.95024 13.1077 3.28131C13.1082 3.27948 12.4292 3.11775 12.2839 3.8105Z" fill="white"/>
<path d="M12.3408 3.14128C12.3413 3.13944 13.0391 3.28423 13.166 2.61622C13.166 2.61438 12.487 2.44898 12.3408 3.14128Z" fill="white"/>
<path d="M14.9561 1.60988C14.9561 1.60758 14.3023 1.93334 14.771 2.70215C14.771 2.69986 15.4198 2.40892 14.9561 1.60988Z" fill="white"/>
<path d="M14.263 5.97142C14.263 5.97188 13.704 5.49447 13.0974 5.94805C13.0974 5.94897 13.6307 6.40027 14.263 5.97142Z" fill="white"/>
<path d="M13.8093 6.45535C13.8098 6.45535 13.1803 6.06728 12.6763 6.61892C12.6763 6.61938 13.2797 6.9882 13.8093 6.45535Z" fill="white"/>
<path d="M13.0183 6.9998C13.0183 6.99934 12.3636 6.66534 11.9077 7.26233C11.9082 7.26187 12.5363 7.58305 13.0183 6.9998Z" fill="white"/>
<path d="M13.99 2.97266C13.99 2.97083 13.4594 3.29659 13.951 3.878C13.9506 3.87709 14.4802 3.57928 13.99 2.97266Z" fill="white"/>
<path d="M15.5325 2.92188C15.533 2.9205 14.9177 2.66988 14.7202 3.24351C14.7207 3.24259 15.3168 3.48863 15.5325 2.92188Z" fill="white"/>
<path d="M14.297 2.30811C14.297 2.30765 13.9176 2.61874 14.3804 3.05584C14.3804 3.05538 14.7616 2.76582 14.297 2.30811Z" fill="white"/>
<path d="M15.6775 5.78028C15.6775 5.77891 15.2134 5.97958 15.5561 6.48723C15.5561 6.48586 16.0165 6.30626 15.6775 5.78028Z" fill="white"/>
<path d="M16.1278 5.38868C16.1278 5.3873 15.6646 5.57836 16.0064 6.09014C16.0064 6.08876 16.4664 5.91832 16.1278 5.38868Z" fill="white"/>
<mask id="mask2_665_11532" style="mask-type:luminance" maskUnits="userSpaceOnUse" x="11" y="0" width="1" height="2">
<path d="M11.0161 0.52002H11.4853V1.25996H11.0161V0.52002Z" fill="white"/>
</mask>
<g mask="url(#mask2_665_11532)">
<path d="M11.2273 0.52002C11.2273 0.52002 10.8562 0.864562 11.3125 1.24988C11.3125 1.24942 11.6854 0.92504 11.2273 0.52002Z" fill="white"/>
</g>
<path d="M17.4207 3.61048C17.4211 3.60819 16.8026 3.63064 17.0074 4.2794C17.0078 4.27711 17.6158 4.27161 17.4207 3.61048Z" fill="white"/>
<path d="M17.7925 6.95606C17.7925 6.95514 17.4297 7.22088 17.8695 7.66576C17.8695 7.66439 18.2337 7.4211 17.7925 6.95606Z" fill="white"/>
<path d="M19.6405 7.84487C19.6409 7.84396 19.1127 7.66389 19.0476 8.15643C19.0476 8.15551 19.5626 8.33465 19.6405 7.84487Z" fill="white"/>
<path d="M19.091 5.61929C19.0915 5.61746 18.4606 5.42732 18.4253 6.02889C18.4258 6.02752 19.0411 6.21766 19.091 5.61929Z" fill="white"/>
<path d="M18.4728 4.68036C18.4732 4.67807 17.8662 4.60247 17.9628 5.2155C17.9633 5.21321 18.558 5.29843 18.4728 4.68036Z" fill="white"/>
<path d="M19.4091 8.42728C19.4091 8.42728 18.9198 8.13085 18.6797 8.54824C18.6797 8.54824 19.1539 8.8346 19.4091 8.42728Z" fill="white"/>
<path d="M18.5222 7.69436C18.5222 7.69298 18.026 7.75575 18.2437 8.2831C18.2437 8.28127 18.733 8.23408 18.5222 7.69436Z" fill="white"/>
<path d="M16.6175 2.97315C16.6175 2.97178 16.2171 3.20407 16.623 3.68102C16.623 3.6801 17.023 3.46935 16.6175 2.97315Z" fill="white"/>
<path d="M15.6353 2.2295C15.6353 2.22813 15.096 2.2043 15.1822 2.74769C15.1826 2.74631 15.7109 2.78068 15.6353 2.2295Z" fill="white"/>
<path d="M17.9622 8.12014C17.9626 8.11876 17.4646 8.1939 17.6827 8.71988C17.6831 8.7185 18.1738 8.65848 17.9622 8.12014Z" fill="white"/>
<path d="M18.7383 9.42455C18.7383 9.42592 18.4222 8.98929 17.9329 9.1973C17.9329 9.19867 18.2325 9.6179 18.7383 9.42455Z" fill="white"/>
<path d="M18.3093 9.83695C18.3093 9.83832 18.11 9.37145 17.5474 9.45987C17.5474 9.46171 17.7311 9.91071 18.3093 9.83695Z" fill="white"/>
<path d="M17.406 10.5999C17.406 10.6012 17.2053 10.1362 16.6409 10.2457C16.6409 10.2471 16.8255 10.6952 17.406 10.5999Z" fill="white"/>
<path d="M18.283 10.7421C18.283 10.7431 18.0837 10.2789 17.5215 10.3742C17.521 10.3761 17.7048 10.8232 18.283 10.7421Z" fill="white"/>
<path d="M19.0911 9.6315C19.0916 9.63013 18.5587 9.53117 18.5692 10.0475C18.5692 10.0466 19.0897 10.1497 19.0911 9.6315Z" fill="white"/>
<path d="M19.2247 10.5015C19.2247 10.5024 18.8261 10.1175 18.4233 10.4231C18.4233 10.424 18.8055 10.7942 19.2247 10.5015Z" fill="white"/>
<path d="M19.1185 8.9118C19.1185 8.9118 18.6713 8.56221 18.3391 8.92325C18.3391 8.92371 18.7702 9.26046 19.1185 8.9118Z" fill="white"/>
<path d="M15.9034 9.305C15.9034 9.30592 15.6134 8.86745 15.0952 9.08783C15.0952 9.08921 15.3678 9.51164 15.9034 9.305Z" fill="white"/>
<path d="M16.475 9.14141C16.475 9.14232 16.1869 8.70019 15.6682 8.91003C15.6682 8.91141 15.939 9.33659 16.475 9.14141Z" fill="white"/>
<path d="M16.9395 8.85448C16.9395 8.85585 16.6789 8.45266 16.2092 8.63364C16.2092 8.63456 16.4548 9.02308 16.9395 8.85448Z" fill="white"/>
<path d="M17.1216 8.41488C17.1216 8.41534 16.8224 8.18213 16.5833 8.43366C16.5837 8.43412 16.8705 8.66183 17.1216 8.41488Z" fill="white"/>
<path d="M15.8664 7.75636C15.8664 7.75453 15.2584 7.94421 15.6016 8.58885C15.6016 8.58702 16.2027 8.42116 15.8664 7.75636Z" fill="white"/>
<path d="M16.3729 7.59376C16.3729 7.59238 15.8832 7.74495 16.1709 8.2691C16.1709 8.26818 16.6556 8.1344 16.3729 7.59376Z" fill="white"/>
<path d="M15.2267 7.96875C15.2267 7.96784 14.7351 8.13965 15.0247 8.65876C15.0247 8.65784 15.5112 8.50481 15.2267 7.96875Z" fill="white"/>
<path d="M13.1292 4.354C13.1288 4.35355 12.7503 4.68618 13.2135 5.10265C13.2135 5.10219 13.5943 4.79064 13.1292 4.354Z" fill="white"/>
<path d="M12.1196 5.44482C12.1196 5.44437 11.7416 5.7912 12.2053 6.19347C12.2053 6.19301 12.5855 5.86634 12.1196 5.44482Z" fill="white"/>
<path d="M13.4386 3.5708C13.4382 3.56989 12.9521 3.99873 13.5578 4.54166C13.5578 4.54074 14.0471 4.14076 13.4386 3.5708Z" fill="white"/>
<path d="M13.6238 5.37625C13.6238 5.37671 14.1933 5.78815 14.6606 5.29699C14.6611 5.29745 14.1163 4.86356 13.6238 5.37625Z" fill="white"/>
<path d="M12.2313 8.62845C12.2313 8.62478 13.1618 8.47221 12.9103 7.53572C12.9107 7.53205 11.9944 7.66263 12.2313 8.62845Z" fill="white"/>
<path d="M16.3044 6.09295C16.3049 6.0902 17.24 6.40222 17.4366 5.55048C17.4375 5.54773 16.5289 5.19815 16.3044 6.09295Z" fill="white"/>
<path d="M17.039 5.25029C17.0395 5.24571 17.9769 5.34559 17.8463 4.41551C17.8472 4.41093 16.9268 4.28447 17.039 5.25029Z" fill="white"/>
<path d="M16.6788 8.17485C16.6793 8.17073 17.5846 8.09513 17.2864 7.1623C17.2868 7.15818 16.3934 7.21178 16.6788 8.17485Z" fill="white"/>
<path d="M18.1639 7.60908C18.1643 7.60634 18.8296 7.58618 18.6106 6.89572C18.611 6.89343 17.955 6.89755 18.1639 7.60908Z" fill="white"/>
<path d="M16.9628 7.0565C16.9628 7.05421 17.6331 7.01022 17.4122 6.31655C17.4127 6.31381 16.7516 6.34175 16.9628 7.0565Z" fill="white"/>
<path d="M19.0531 7.64524C19.0535 7.64066 19.8453 7.50138 19.3921 6.62124C19.3926 6.6162 18.6064 6.74128 19.0531 7.64524Z" fill="white"/>
<path d="M15.8579 3.89953C15.8579 3.89678 16.5713 3.54353 15.939 2.71974C15.939 2.71699 15.2261 3.0565 15.8579 3.89953Z" fill="white"/>
<path d="M12.5146 1.78378C12.5146 1.78103 13.1845 1.68024 12.9838 1.00444C12.9843 1.00215 12.3245 1.08874 12.5146 1.78378Z" fill="white"/>
<path d="M14.2976 2.12961C14.2971 2.13053 14.6211 1.6435 13.9361 1.22656C13.9361 1.22702 13.6048 1.69481 14.2976 2.12961Z" fill="white"/>
<path d="M14.7476 5.36509C14.748 5.36188 15.6905 5.63724 15.8875 4.76168C15.8884 4.75847 14.9716 4.44784 14.7476 5.36509Z" fill="white"/>
<path d="M13.9685 4.76846C13.9685 4.76846 14.4959 5.15653 14.9288 4.70798C14.9293 4.70844 14.4248 4.30113 13.9685 4.76846Z" fill="white"/>
<path d="M14.335 4.23246C14.3354 4.232 14.9127 4.56372 15.254 4.05973C15.254 4.05973 14.6987 3.70694 14.335 4.23246Z" fill="white"/>
<path d="M15.965 3.97148C15.9655 3.96919 15.33 3.96507 15.4583 4.60971C15.4583 4.60742 16.0814 4.62575 15.965 3.97148Z" fill="white"/>
<path d="M17.5682 6.20508C17.5692 6.20095 18.4933 6.31824 18.3554 5.40649C18.3558 5.40145 17.4487 5.2585 17.5682 6.20508Z" fill="white"/>
<path d="M17.8145 6.76677C17.8154 6.76494 18.7019 7.09757 18.8641 6.29898C18.8646 6.29715 18.0041 5.92878 17.8145 6.76677Z" fill="white"/>
<path d="M14.6123 3.69987C14.6123 3.69941 15.1896 4.038 15.5309 3.54043C15.5309 3.53997 14.9761 3.18076 14.6123 3.69987Z" fill="white"/>
<path d="M12.9805 8.65622C12.9805 8.6553 12.4326 8.54122 12.3203 9.07956C12.3208 9.07911 12.8527 9.19869 12.9805 8.65622Z" fill="white"/>
<path d="M12.1243 10.1768C12.1243 10.1758 12.768 10.3307 12.9403 9.70622C12.9403 9.70484 12.3149 9.53165 12.1243 10.1768Z" fill="white"/>
<path d="M12.1501 10.6842C12.1506 10.6837 12.7824 10.9298 13.0734 10.3236C13.0734 10.3231 12.4622 10.0583 12.1501 10.6842Z" fill="white"/>
<path d="M12.2056 9.58254C12.206 9.58162 12.7572 9.71449 12.9015 9.17889C12.902 9.17843 12.3659 9.0309 12.2056 9.58254Z" fill="white"/>
<path d="M15.4495 5.61108C15.4495 5.61062 14.9469 5.34717 14.6963 5.80763C14.6963 5.80718 15.1815 6.06467 15.4495 5.61108Z" fill="white"/>
<path d="M14.5774 6.34983C14.5774 6.34983 15.069 6.63619 15.3696 6.20322C15.3696 6.20322 14.8972 5.90174 14.5774 6.34983Z" fill="white"/>
<path d="M15.9072 6.54022C15.9072 6.54022 16.3961 6.84216 16.6953 6.42706C16.6953 6.42751 16.2261 6.10955 15.9072 6.54022Z" fill="white"/>
<path d="M15.6787 6.91882C15.6792 6.91928 16.1295 7.26382 16.4979 6.89362C16.4979 6.89408 16.0677 6.53533 15.6787 6.91882Z" fill="white"/>
<path d="M15.4033 7.37786C15.4038 7.37832 15.8546 7.71828 16.223 7.34212C16.2234 7.34258 15.7923 6.98888 15.4033 7.37786Z" fill="white"/>
<path d="M13.4241 6.98975C13.4241 6.99066 13.4044 7.47449 14.0312 7.55879C14.0312 7.56017 14.0665 7.08367 13.4241 6.98975Z" fill="white"/>
<path d="M13.3602 7.57422C13.3602 7.57559 13.3373 8.15014 14.0813 8.24773C14.0809 8.2491 14.1226 7.6828 13.3602 7.57422Z" fill="white"/>
<path d="M14.4204 6.95692C14.4209 6.956 14.9556 7.15164 15.1361 6.65545C15.1361 6.65453 14.6179 6.44377 14.4204 6.95692Z" fill="white"/>
<mask id="mask3_665_11532" style="mask-type:luminance" maskUnits="userSpaceOnUse" x="0" y="8" width="2" height="2">
<path d="M0.344482 8.53174H1.63331V9.47007H0.344482V8.53174Z" fill="white"/>
</mask>
<g mask="url(#mask3_665_11532)">
<path d="M0.359863 8.62838C0.361238 8.63388 0.351616 9.50944 1.5456 9.36374C1.54698 9.3697 1.57493 8.45245 0.359863 8.62838Z" fill="white"/>
</g>
<path d="M3.34909 4.46729C3.34864 4.46866 2.59724 5.22693 3.27258 5.89952C3.27212 5.90135 4.02443 5.18065 3.34909 4.46729Z" fill="white"/>
<path d="M16.5394 3.85013C16.5394 3.846 15.7706 4.29043 16.4386 5.24433C16.4386 5.23975 17.2042 4.84481 16.5394 3.85013Z" fill="white"/>
<path d="M13.5554 1.60499C13.5549 1.60224 12.7774 2.12593 13.4578 3.04135C13.4578 3.03814 14.2326 2.56302 13.5554 1.60499Z" fill="white"/>
<path d="M4.893 2.83398C4.893 2.83398 4.43987 3.24084 4.8032 3.66648C4.8032 3.66648 5.25449 3.28207 4.893 2.83398Z" fill="white"/>
<path d="M4.90553 2.41895C4.90553 2.42078 4.81252 2.93759 5.45854 2.99303C5.459 2.99532 5.56392 2.47851 4.90553 2.41895Z" fill="white"/>
<path d="M5.70004 1.7793C5.69958 1.78205 5.1287 2.61408 6.02809 3.15014C6.02809 3.15334 6.60859 2.34651 5.70004 1.7793Z" fill="white"/>
<path d="M1.16284 6.47126C1.16376 6.47401 1.28746 7.12507 2.22717 6.87216C2.22808 6.87582 2.12179 6.19498 1.16284 6.47126Z" fill="white"/>
<path d="M4.73226 7.58105C4.73272 7.5838 4.69836 8.27839 5.60049 8.2958C5.60095 8.29855 5.6541 7.59617 4.73226 7.58105Z" fill="white"/>
<path d="M4.06601 3.00928C4.06601 3.01248 3.39113 3.87384 4.25111 4.46763C4.25065 4.47084 4.93195 3.6388 4.06601 3.00928Z" fill="white"/>
<path d="M0.520264 9.82357C0.52118 9.82495 0.872595 10.5727 2.04826 10.1044C2.04963 10.1072 1.72204 9.30951 0.520264 9.82357Z" fill="white"/>
<path d="M1.88426 8.36084C1.88471 8.36634 1.46091 9.2813 2.50782 9.60064C2.50828 9.60614 2.94492 8.68935 1.88426 8.36084Z" fill="white"/>
<path d="M5.32275 9.01853C5.32275 9.01945 5.47945 9.57979 6.23039 9.35987C6.23084 9.36124 6.09385 8.79082 5.32275 9.01853Z" fill="white"/>
<path d="M5.44754 4.80078C5.44709 4.80124 4.89453 5.27315 5.39119 5.75194C5.39073 5.75194 5.94328 5.30522 5.44754 4.80078Z" fill="white"/>
<path d="M4.93617 10.1989C4.93663 10.2003 4.71488 9.54511 3.84985 9.88095C3.85031 9.88232 4.0432 10.5054 4.93617 10.1989Z" fill="white"/>
<path d="M5.0358 4.34424C5.0358 4.34424 4.55427 4.73277 4.94738 5.14741C4.94738 5.14741 5.42754 4.78041 5.0358 4.34424Z" fill="white"/>
<path d="M6.01821 3.74612C6.01867 3.7475 5.796 3.19907 5.06201 3.52895C5.06247 3.53032 5.2604 4.04943 6.01821 3.74612Z" fill="white"/>
<path d="M6.41024 4.39674C6.4107 4.39811 6.18803 3.84556 5.45312 4.16261C5.45358 4.16399 5.65151 4.68859 6.41024 4.39674Z" fill="white"/>
<path d="M6.82033 4.88188C6.82033 4.8828 6.66455 4.49336 6.14819 4.7032C6.14819 4.70366 6.28748 5.07844 6.82033 4.88188Z" fill="white"/>
<path d="M7.30734 4.65346C7.30734 4.65346 7.67067 4.34145 7.31421 4.00928C7.31421 4.00928 6.95134 4.30846 7.30734 4.65346Z" fill="white"/>
<path d="M7.90301 7.25155C7.90301 7.252 8.26542 6.94824 7.91034 6.60645C7.91034 6.60645 7.54792 6.89647 7.90301 7.25155Z" fill="white"/>
<path d="M14.0645 8.82271C14.0645 8.82317 14.1401 8.41127 13.6054 8.28711C13.6054 8.28757 13.5202 8.6848 14.0645 8.82271Z" fill="white"/>
<path d="M7.29027 5.329C7.29027 5.32991 7.13495 4.93726 6.61768 5.1384C6.61768 5.13932 6.75696 5.5173 7.29027 5.329Z" fill="white"/>
<path d="M6.62719 3.85574C6.62719 3.85574 6.92775 3.53136 6.55801 3.27295C6.55801 3.27341 6.25653 3.5845 6.62719 3.85574Z" fill="white"/>
<path d="M7.01562 5.63752C7.01562 5.63752 7.23096 5.96007 7.67447 5.71907C7.67493 5.71953 7.47379 5.3901 7.01562 5.63752Z" fill="white"/>
<path d="M6.90115 4.24055C6.90115 4.24009 7.28097 3.99543 7.0189 3.64356C7.0189 3.6431 6.64229 3.87585 6.90115 4.24055Z" fill="white"/>
<path d="M4.05865 6.64942C4.05819 6.6485 3.45615 6.97884 3.73518 7.52269C3.73472 7.52177 4.32988 7.218 4.05865 6.64942Z" fill="white"/>
<path d="M4.35524 7.22656C4.35524 7.2261 3.75275 7.5482 4.03131 8.09754C4.03085 8.09708 4.62693 7.80065 4.35524 7.22656Z" fill="white"/>
<path d="M4.47579 7.90234C4.47579 7.90234 4.04282 8.24139 4.38919 8.61938C4.38919 8.61938 4.82033 8.29866 4.47579 7.90234Z" fill="white"/>
<path d="M2.60583 10.4608C2.60583 10.4603 2.32909 10.1176 1.82007 10.4809C1.82007 10.4809 2.07573 10.815 2.60583 10.4608Z" fill="white"/>
<path d="M3.98074 11.0294C3.98074 11.0289 3.70309 10.6688 3.18994 11.0152C3.18994 11.0152 3.44743 11.3657 3.98074 11.0294Z" fill="white"/>
<path d="M3.09416 10.092C3.09416 10.0929 3.32278 9.63427 2.78764 9.50049C2.78764 9.50186 2.55168 9.94033 3.09416 10.092Z" fill="white"/>
<path d="M3.65208 10.3243C3.65208 10.3252 3.88163 9.86796 3.34465 9.72363C3.34511 9.72501 3.10824 10.1621 3.65208 10.3243Z" fill="white"/>
<path d="M3.80917 8.99649C3.80963 8.99695 3.55672 8.50808 2.87817 8.87324C2.87863 8.87416 3.1068 9.34241 3.80917 8.99649Z" fill="white"/>
<path d="M3.81717 6.03955C3.81671 6.03909 3.31318 6.34148 3.5725 6.7882C3.5725 6.78774 4.07099 6.50734 3.81717 6.03955Z" fill="white"/>
<path d="M5.56668 10.5697C5.56714 10.5697 5.2872 10.2229 4.80566 10.5519C4.80566 10.5519 5.06636 10.8905 5.56668 10.5697Z" fill="white"/>
<path d="M5.51678 13.8756C5.51678 13.8756 5.23822 13.5233 4.75806 13.8403C4.75851 13.8399 5.0183 14.1853 5.51678 13.8756Z" fill="white"/>
<path d="M1.8916 7.82327C1.8916 7.82419 1.96491 8.27365 2.5816 8.07939C2.58206 8.08122 2.5225 7.6226 1.8916 7.82327Z" fill="white"/>
<path d="M4.85938 3.74268C4.85938 3.74222 4.31782 4.03407 4.5634 4.52477C4.56294 4.52385 5.09808 4.25583 4.85938 3.74268Z" fill="white"/>
<path d="M8.37595 10.7151C8.37595 10.7151 7.94482 10.3083 7.40234 10.7655C7.40234 10.7655 7.80966 11.1623 8.37595 10.7151Z" fill="white"/>
<path d="M5.69769 11.5C5.69723 11.5 5.20745 11.8258 5.55749 12.2826C5.55749 12.283 6.04452 11.9774 5.69769 11.5Z" fill="white"/>
<path d="M6.23848 11.6572C6.23848 11.6572 5.86049 11.9046 6.13035 12.2611C6.13035 12.2611 6.50605 12.0293 6.23848 11.6572Z" fill="white"/>
<path d="M9.91376 8.32813C9.91331 8.32721 9.36671 8.53247 9.61046 9.0754C9.61046 9.07403 10.1497 8.88938 9.91376 8.32813Z" fill="white"/>
<path d="M4.95972 8.51063C4.95972 8.51155 5.15948 8.93673 5.74639 8.67969C5.74639 8.68061 5.56404 8.24627 4.95972 8.51063Z" fill="white"/>
<path d="M5.96606 9.67063C5.96606 9.67154 6.23089 10.2328 6.99099 9.91987C6.99145 9.92124 6.74907 9.34716 5.96606 9.67063Z" fill="white"/>
<path d="M6.6709 10.2641C6.67136 10.2646 7.03514 10.7842 7.74347 10.3888C7.74393 10.3897 7.40305 9.85591 6.6709 10.2641Z" fill="white"/>
<path d="M8.42278 10.0854C8.42278 10.0854 8.91623 9.63137 8.37055 9.15625C8.37055 9.15671 7.87619 9.59105 8.42278 10.0854Z" fill="white"/>
<path d="M7.66075 9.7277C7.66075 9.72862 8.09601 9.21776 7.48665 8.81641C7.48665 8.81732 7.04772 9.30619 7.66075 9.7277Z" fill="white"/>
<path d="M6.96875 9.25121C6.96875 9.25167 7.37606 8.79809 6.84459 8.43018C6.84413 8.43109 6.43453 8.86498 6.96875 9.25121Z" fill="white"/>
<path d="M6.31203 8.7841C6.31203 8.78501 6.69277 8.30806 6.13747 7.98047C6.13747 7.98139 5.75353 8.43818 6.31203 8.7841Z" fill="white"/>
<path d="M7.38702 7.02777C7.38702 7.02868 7.88276 6.47842 7.23537 6.03125C7.23537 6.03217 6.73688 6.55906 7.38702 7.02777Z" fill="white"/>
<path d="M6.58123 6.5514C6.58077 6.55185 7.11408 6.05749 6.55557 5.58008C6.55557 5.58054 6.02272 6.05428 6.58123 6.5514Z" fill="white"/>
<path d="M5.92576 6.10101C5.92576 6.10101 6.45998 5.68774 6.01785 5.2085C6.01739 5.2085 5.48637 5.60435 5.92576 6.10101Z" fill="white"/>
<path d="M18.3587 10.9521C18.3587 10.9549 18.5905 11.5954 17.7869 11.6243C17.7869 11.6266 17.5427 10.9847 18.3587 10.9521Z" fill="white"/>
<path d="M19.0644 10.8623C19.064 10.8641 19.2857 11.4029 18.6227 11.4382C18.6227 11.4401 18.3918 10.9022 19.0644 10.8623Z" fill="white"/>
<path d="M19.6332 10.5928C19.6332 10.5941 19.9814 11.1068 19.4142 11.2677C19.4142 11.2695 19.0605 10.765 19.6332 10.5928Z" fill="white"/>
<path d="M15.0299 11.2926C15.0299 11.2949 14.9268 10.5884 15.8313 10.6621C15.8313 10.6644 15.9536 11.3366 15.0299 11.2926Z" fill="white"/>
<path d="M16.1087 11.5215C16.1083 11.5242 15.9264 10.8452 16.774 10.8516C16.7735 10.8539 16.9715 11.4995 16.1087 11.5215Z" fill="white"/>
<path d="M17.0351 11.5927C17.0351 11.595 16.7927 10.9815 17.5359 10.9233C17.5354 10.9252 17.7897 11.5098 17.0351 11.5927Z" fill="white"/>
<path d="M6.6001 8.17439C6.60056 8.17301 7.2255 8.55467 7.79317 7.90453C7.79317 7.90361 7.19297 7.49951 6.6001 8.17439Z" fill="white"/>
<path d="M5.76343 7.76909C5.76343 7.76772 6.38791 8.13242 6.95421 7.47082C6.95421 7.46991 6.35447 7.08184 5.76343 7.76909Z" fill="white"/>
<path d="M3.21875 9.41584C3.21875 9.41584 3.54359 9.89875 4.24871 9.48365C4.24917 9.48411 3.94541 8.98424 3.21875 9.41584Z" fill="white"/>
<path d="M2.31348 10.8251C2.31393 10.8242 2.76111 11.2081 3.37093 10.6803C3.37093 10.6794 2.94437 10.2794 2.31348 10.8251Z" fill="white"/>
<mask id="mask4_665_11532" style="mask-type:luminance" maskUnits="userSpaceOnUse" x="0" y="10" width="2" height="1">
<path d="M0.344482 10.4082H1.51602V10.8774H0.344482V10.4082Z" fill="white"/>
</mask>
<g mask="url(#mask4_665_11532)">
<path d="M0.379395 10.7409C0.379395 10.7396 0.821527 11.0882 1.42448 10.5393C1.42448 10.538 1.0025 10.1723 0.379395 10.7409Z" fill="white"/>
</g>
<path d="M5.28149 7.27286C5.28149 7.27194 5.75936 7.54134 6.19142 7.02636C6.19142 7.0259 5.73279 6.74092 5.28149 7.27286Z" fill="white"/>
<path d="M4.60742 6.72907C4.60788 6.72907 4.98679 7.10981 5.56087 6.66676C5.56087 6.66676 5.20121 6.26953 4.60742 6.72907Z" fill="white"/>
<path d="M3.60544 12.5728C3.6059 12.5741 3.49777 13.1885 4.27803 13.2151C4.27849 13.2165 4.40128 12.603 3.60544 12.5728Z" fill="white"/>
<path d="M6.5717 13.0299C6.5717 13.0308 6.68441 12.5053 6.03335 12.4375C6.03381 12.4389 5.90827 12.9424 6.5717 13.0299Z" fill="white"/>
<path d="M3.95975 13.5475C3.96021 13.5466 3.54831 13.2451 3.09473 13.7028C3.09473 13.7019 3.48463 14.0024 3.95975 13.5475Z" fill="white"/>
<path d="M7.60203 12.5877C7.60157 12.5882 7.83478 12.2029 7.36607 11.9912C7.36607 11.9917 7.12828 12.3614 7.60203 12.5877Z" fill="white"/>
<path d="M5.90474 13.1717C5.90474 13.173 6.03532 12.5683 5.28759 12.5C5.28759 12.5014 5.14281 13.0796 5.90474 13.1717Z" fill="white"/>
<path d="M5.12567 13.2489C5.12567 13.2508 5.25121 12.663 4.52547 12.6089C4.52547 12.6103 4.38527 13.1711 5.12567 13.2489Z" fill="white"/>
<path d="M6.69562 12.1865C6.69562 12.1879 6.55313 12.6813 7.17028 12.7931C7.17028 12.7941 7.32422 12.3084 6.69562 12.1865Z" fill="white"/>
<path d="M2.67505 8.1046C2.67551 8.10643 2.73507 8.72221 3.56344 8.52703C3.5639 8.52932 3.52174 7.89934 2.67505 8.1046Z" fill="white"/>
<path d="M2.5249 7.4829C2.52536 7.48519 2.60417 8.05744 3.38305 7.8421C3.38351 7.84393 3.3212 7.25702 2.5249 7.4829Z" fill="white"/>
<path d="M2.43677 6.83695C2.43723 6.83832 2.50824 7.35285 3.20787 7.14988C3.20832 7.15217 3.15243 6.62619 2.43677 6.83695Z" fill="white"/>
<path d="M2.65895 6.01709C2.65941 6.01846 2.52608 6.44777 3.04839 6.47251C3.04839 6.47388 3.18997 6.04733 2.65895 6.01709Z" fill="white"/>
<path d="M0.846924 7.3913C0.846924 7.39176 0.977044 7.7473 1.49707 7.49484C1.49752 7.4953 1.37977 7.1306 0.846924 7.3913Z" fill="white"/>
<path d="M4.12891 6.27095C4.12891 6.27049 4.50781 6.64298 5.08052 6.19123C5.08052 6.19123 4.72086 5.80179 4.12891 6.27095Z" fill="white"/>
<path d="M3.82886 5.55663C3.82932 5.55801 3.98601 6.05283 4.67509 5.79213C4.67555 5.7935 4.53581 5.28448 3.82886 5.55663Z" fill="white"/>
<path d="M1.73731 5.43457C1.73823 5.43869 1.42438 6.20521 2.33155 6.29959C2.33201 6.30372 2.65777 5.53308 1.73731 5.43457Z" fill="white"/>
<path d="M2.45823 4.57178C2.45823 4.57407 2.00419 5.1903 2.65891 5.48353C2.65891 5.48537 3.11799 4.88471 2.45823 4.57178Z" fill="white"/>
<path d="M3.74341 4.95618C3.74341 4.9571 3.81901 5.37266 4.38255 5.20314C4.38301 5.20405 4.3207 4.78208 3.74341 4.95618Z" fill="white"/>
<path d="M14.6963 12.8229C14.6963 12.8233 14.8576 12.422 15.493 12.6524C15.493 12.6529 15.351 13.0405 14.6963 12.8229Z" fill="white"/>
<path d="M15.1841 13.3208C15.1841 13.3222 15.1804 12.8847 15.8448 12.925C15.8443 12.9259 15.8645 13.3438 15.1841 13.3208Z" fill="white"/>
<path d="M15.8453 13.432C15.8453 13.4329 15.7463 12.9981 16.3919 12.9321C16.3919 12.9335 16.5041 13.3472 15.8453 13.432Z" fill="white"/>
<path d="M16.5319 13.4922C16.5319 13.4935 16.3624 13.0702 16.9768 12.9272C16.9768 12.9286 17.1573 13.3304 16.5319 13.4922Z" fill="white"/>
<path d="M17.201 13.4054C17.201 13.4068 17.086 12.9756 17.7233 12.9097C17.7228 12.9115 17.8506 13.3202 17.201 13.4054Z" fill="white"/>
<path d="M17.8462 13.4631C17.8458 13.465 17.7894 12.9317 18.5971 12.9665C18.5967 12.9688 18.6727 13.4718 17.8462 13.4631Z" fill="white"/>
<path d="M16.2441 14.7883C16.2441 14.786 16.8727 14.4548 17.5004 15.2327C17.5 15.2304 16.9039 15.5695 16.2441 14.7883Z" fill="white"/>
<path d="M14.1333 12.6777C14.1333 12.6786 13.8758 12.1875 14.4357 11.8228C14.4362 11.8241 14.7001 12.2905 14.1333 12.6777Z" fill="white"/>
<path d="M13.627 12.9784C13.627 12.9789 13.2504 12.5977 13.6701 12.0405C13.6701 12.041 14.0476 12.4002 13.627 12.9784Z" fill="white"/>
<path d="M16.0283 12.5917C16.0288 12.5903 15.32 12.5967 15.3571 11.8714C15.3576 11.8696 16.0512 11.8531 16.0283 12.5917Z" fill="white"/>
<path d="M16.9134 12.6643C16.9138 12.663 16.2069 12.6561 16.2449 11.9377C16.2449 11.9359 16.9372 11.9336 16.9134 12.6643Z" fill="white"/>
<mask id="mask5_665_11532" style="mask-type:luminance" maskUnits="userSpaceOnUse" x="19" y="10" width="2" height="2">
<path d="M19.8484 10.6973H20.5466V11.2929H19.8484V10.6973Z" fill="white"/>
</mask>
<g mask="url(#mask5_665_11532)">
<path d="M20.5215 10.7341C20.521 10.7369 20.7346 11.3348 19.925 11.2555C19.9245 11.2583 19.6996 10.6526 20.5215 10.7341Z" fill="white"/>
</g>
<path d="M20.3533 9.64494C20.3524 9.64861 20.4601 10.4431 19.3577 10.1498C19.3564 10.154 19.2322 9.33018 20.3533 9.64494Z" fill="white"/>
<path d="M17.6053 12.618C17.6058 12.6175 17.0661 12.6024 17.0954 12.0577C17.0954 12.0567 17.6237 12.0636 17.6053 12.618Z" fill="white"/>
<path d="M18.4837 12.4433C18.4837 12.4414 17.9353 12.5408 17.8047 11.9942C17.8047 11.9929 18.3385 11.887 18.4837 12.4433Z" fill="white"/>
<path d="M19.1628 12.3433C19.1628 12.342 18.6162 12.4299 18.4856 11.8861C18.4861 11.8843 19.0175 11.7899 19.1628 12.3433Z" fill="white"/>
<path d="M19.879 12.0146C19.879 12.0128 19.4176 12.2639 19.063 11.8011C19.063 11.7997 19.507 11.5413 19.879 12.0146Z" fill="white"/>
<path d="M16.8577 14.3628C16.8581 14.3619 16.2895 14.4489 16.2148 13.8968C16.2148 13.8955 16.7692 13.8015 16.8577 14.3628Z" fill="white"/>
<path d="M16.2792 15.2853C16.2796 15.2844 15.6932 15.3086 15.7106 14.7579C15.7106 14.757 16.2838 14.7249 16.2792 15.2853Z" fill="white"/>
<path d="M15.4164 15.114C15.4164 15.1136 14.8405 14.9528 15.0861 14.457C15.0861 14.4566 15.6542 14.6064 15.4164 15.114Z" fill="white"/>
<path d="M14.6743 14.8069C14.6743 14.8073 14.1822 14.4843 14.6161 14.1045C14.6161 14.105 15.1063 14.4124 14.6743 14.8069Z" fill="white"/>
<path d="M13.9198 14.4691C13.9198 14.47 13.6517 13.9848 14.2565 13.8501C14.2565 13.8515 14.5319 14.3174 13.9198 14.4691Z" fill="white"/>
<path d="M16.1913 14.2953C16.1913 14.2939 15.6223 14.3888 15.5471 13.8339C15.5471 13.833 16.102 13.7309 16.1913 14.2953Z" fill="white"/>
<path d="M17.5604 14.2747C17.5604 14.2738 16.9932 14.3522 16.9189 13.8033C16.9194 13.8019 17.472 13.7167 17.5604 14.2747Z" fill="white"/>
<path d="M18.3292 13.9551C18.3292 13.9533 17.8293 14.1998 17.5173 13.7292C17.5173 13.7278 17.9993 13.4754 18.3292 13.9551Z" fill="white"/>
<path d="M20.3497 11.6813C20.3497 11.6804 20.0079 11.9054 19.6831 11.5562C19.6831 11.5553 20.0107 11.3244 20.3497 11.6813Z" fill="white"/>
<path d="M0.613525 11.2005C0.613984 11.1987 1.16837 11.787 2.11678 11.0819C2.11723 11.0805 1.58851 10.4583 0.613525 11.2005Z" fill="white"/>
<path d="M2.23853 13.1324C2.23853 13.1315 2.69807 13.6891 3.52277 13.1411C3.52323 13.1407 3.08889 12.5638 2.23853 13.1324Z" fill="white"/>
<path d="M3.22998 14.1892C3.22998 14.1878 3.75596 14.6799 4.47895 14.0957C4.47895 14.0948 3.97863 13.5876 3.22998 14.1892Z" fill="white"/>
<path d="M2.85352 12.2328C2.85306 12.231 3.52382 12.2644 3.69792 11.5822C3.69792 11.5804 3.04549 11.5359 2.85352 12.2328Z" fill="white"/>
<path d="M4.75333 12.2772C4.75333 12.2763 5.41676 12.0376 5.20692 11.3989C5.20646 11.398 4.55357 11.6221 4.75333 12.2772Z" fill="white"/>
<path d="M3.79442 12.4216C3.79396 12.4197 4.56552 12.3075 4.44502 11.5772C4.44456 11.5758 3.68812 11.6761 3.79442 12.4216Z" fill="white"/>
<path d="M2.12427 11.8812C2.12427 11.8798 2.63421 12.1034 3.04198 11.5453C3.04198 11.5444 2.55082 11.3089 2.12427 11.8812Z" fill="white"/>
<path d="M1.65894 11.6002C1.65894 11.5992 2.03647 11.8109 2.40758 11.383C2.40758 11.3825 2.04609 11.1622 1.65894 11.6002Z" fill="white"/>
<path d="M4.10571 14.5883C4.10571 14.5878 4.48599 14.8384 4.86077 14.4321C4.86077 14.4316 4.49653 14.1741 4.10571 14.5883Z" fill="white"/>
<path d="M6.52762 14.7747C6.52716 14.7742 7.15256 14.4746 6.82543 13.8647C6.82543 13.8643 6.20736 14.1465 6.52762 14.7747Z" fill="white"/>
<path d="M7.50164 14.4654C7.50164 14.4659 8.10138 13.9985 7.48286 13.4932C7.4824 13.4936 6.88311 13.9394 7.50164 14.4654Z" fill="white"/>
<path d="M5.61185 14.8526C5.61185 14.8522 6.23862 14.7803 6.21022 14.1558C6.21022 14.1549 5.59673 14.214 5.61185 14.8526Z" fill="white"/>
<path d="M4.97803 14.8593C4.97803 14.8589 5.48064 14.841 5.51546 14.3384C5.51546 14.3379 5.02476 14.3453 4.97803 14.8593Z" fill="white"/>
<path d="M26.2866 7.8252H29.1077L31.0482 12.5541H31.146L33.0865 7.8252H35.9075V16.1742H33.6898V11.3474H33.6246L31.7656 16.109H30.4285L28.5695 11.3148H28.5043V16.1742H26.2866V7.8252Z" fill="white"/>
<path d="M43.8403 7.8252V16.1742H41.5737V7.8252H43.8403Z" fill="white"/>
<path d="M49.5064 16.1742V7.8252H51.7731V14.3478H55.1485V16.1742H49.5064Z" fill="white"/>
<path d="M62.8255 16.1742H60.3795L63.1353 7.8252H66.2336L68.9894 16.1742H66.5434L64.717 10.1244H64.6518L62.8255 16.1742ZM62.3689 12.8802H66.9674V14.5761H62.3689V12.8802Z" fill="white"/>
<path d="M74.3854 16.1742V7.8252H77.9892C78.6089 7.8252 79.1511 7.93798 79.6158 8.16356C80.0805 8.38913 80.442 8.71391 80.7002 9.13788C80.9584 9.56185 81.0875 10.0701 81.0875 10.6625C81.0875 11.2605 80.9543 11.7646 80.688 12.175C80.4243 12.5854 80.0533 12.8952 79.575 13.1045C79.0994 13.3137 78.5436 13.4184 77.9077 13.4184H75.7552V11.6573H77.4511C77.7174 11.6573 77.9444 11.6246 78.1319 11.5594C78.3221 11.4915 78.4675 11.3841 78.5681 11.2374C78.6714 11.0906 78.723 10.899 78.723 10.6625C78.723 10.4234 78.6714 10.2291 78.5681 10.0796C78.4675 9.92739 78.3221 9.81596 78.1319 9.7453C77.9444 9.67192 77.7174 9.63523 77.4511 9.63523H76.6521V16.1742H74.3854ZM79.2774 12.3421L81.3647 16.1742H78.9024L76.864 12.3421H79.2774Z" fill="white"/>
<path d="M93.8694 7.8252V16.1742H91.9778L88.9611 11.7877H88.9122V16.1742H86.6456V7.8252H88.5697L91.5376 12.1954H91.6028V7.8252H93.8694Z" fill="white"/>
</svg>
