<svg width="17" height="17" viewBox="0 0 17 17" fill="none" xmlns="http://www.w3.org/2000/svg">
<path d="M11.8334 6.49992V5.16658C11.8334 3.29992 10.3667 1.83325 8.50008 1.83325C6.63341 1.83325 5.16675 3.29992 5.16675 5.16658V6.49992C4.03341 6.49992 3.16675 7.36658 3.16675 8.49992V13.1666C3.16675 14.2999 4.03341 15.1666 5.16675 15.1666H11.8334C12.9667 15.1666 13.8334 14.2999 13.8334 13.1666V8.49992C13.8334 7.36658 12.9667 6.49992 11.8334 6.49992ZM6.50008 5.16658C6.50008 4.03325 7.36675 3.16659 8.50008 3.16659C9.63341 3.16659 10.5001 4.03325 10.5001 5.16658V6.49992H6.50008V5.16658ZM9.23342 10.8333L9.16675 10.8999V11.8333C9.16675 12.2333 8.90008 12.4999 8.50008 12.4999C8.10008 12.4999 7.83342 12.2333 7.83342 11.8333V10.8999C7.43341 10.4999 7.36675 9.89992 7.76675 9.49992C8.16675 9.09992 8.76675 9.03325 9.16675 9.43325C9.56675 9.76658 9.63342 10.4333 9.23342 10.8333Z" fill="#20B858"/>
</svg>
