<svg width="18" height="28" viewBox="0 0 18 28" fill="none" xmlns="http://www.w3.org/2000/svg">
<path d="M7.07716 24.436H10.9232C11.0838 24.436 11.2223 24.3779 11.3385 24.2617C11.4547 24.1452 11.5128 24.0067 11.5128 23.846C11.5128 23.6853 11.4547 23.5469 11.3385 23.4307C11.2223 23.3144 11.0838 23.2563 10.9232 23.2563H7.07716C6.9165 23.2563 6.77805 23.3144 6.66183 23.4307C6.54561 23.5469 6.4875 23.6853 6.4875 23.846C6.4875 24.0067 6.54561 24.1452 6.66183 24.2617C6.77805 24.3779 6.9165 24.436 7.07716 24.436ZM2.74383 28C2.07027 28 1.50016 27.7667 1.0335 27.3C0.566829 26.8333 0.333496 26.2632 0.333496 25.5897V2.41033C0.333496 1.73678 0.566829 1.16667 1.0335 0.7C1.50016 0.233333 2.07027 0 2.74383 0H15.2565C15.9301 0 16.5002 0.233333 16.9668 0.7C17.4335 1.16667 17.6668 1.73678 17.6668 2.41033V25.5897C17.6668 26.2632 17.4335 26.8333 16.9668 27.3C16.5002 27.7667 15.9301 28 15.2565 28H2.74383ZM2.3335 19.6923H15.6668V5.66667H2.3335V19.6923Z" fill="#34C759"/>
</svg>
