<svg width="124" height="32" viewBox="0 0 124 32" fill="none" xmlns="http://www.w3.org/2000/svg">
<path d="M24.3403 27.2807C23.7139 27.3459 23.0606 27.3695 22.9827 27.1524C22.7656 26.5477 22.0019 26.3689 22.0823 26.2935C22.1136 26.2635 22.385 26.2782 22.8346 26.3599C23.0568 26.4002 23.7171 26.6147 23.9367 26.6613C24.0491 26.685 24.143 26.7239 24.2228 26.7648C24.5459 26.9295 25.1008 26.9806 25.5268 27.0821C25.7573 27.1377 25.9495 27.2673 26.0472 27.2993C25.9335 27.1613 25.7599 27.1128 25.6666 27.0777C25.5012 27.0145 25.3563 26.9519 25.2056 26.9257C24.9533 26.8816 24.7956 26.8676 24.6117 26.7769C24.1685 26.5585 23.9195 26.4557 23.4897 26.3893C23.5076 26.342 24.263 26.2795 24.5855 26.2929C24.9227 26.3063 25.4731 26.3906 25.8812 26.3682C26.0287 26.3599 26.1545 26.3344 26.2937 26.3197C26.4329 26.305 26.5996 26.3446 26.7528 26.3791C26.6194 26.2986 26.3473 26.2705 26.1385 26.2763C25.9297 26.2827 25.7381 26.312 25.5172 26.2993C25.1934 26.2814 24.8761 26.1767 24.5504 26.1543C24.1232 26.1249 23.7943 26.245 23.3671 26.2182C23.1283 26.2028 22.9061 26.1326 22.666 26.0994C22.0683 26.0177 21.0759 26.1441 20.2139 26.0949C19.7682 26.0687 19.2599 26.0777 18.8799 25.9672C18.5728 25.8784 17.9406 25.4832 17.9074 25.4295C17.8122 25.2782 18.2426 25.1664 18.5728 25.1996C18.9023 25.2328 19.1519 25.2763 19.4821 25.3082C19.8825 25.3472 20.3103 25.3331 20.7113 25.3146C21.0402 25.2993 21.7273 25.275 22.0581 25.3025C22.6353 25.3491 22.8607 25.4436 23.4367 25.4927C23.1117 25.4212 22.7809 25.3561 22.461 25.2807C22.0753 25.1888 21.5319 25.2022 21.309 25.2028C19.0676 25.2143 19.1685 24.8331 17.8314 24.7495C17.2113 24.7124 16.1264 24.6996 15.5044 24.7188C15.0957 24.7309 14.6877 24.8222 14.279 24.8261C14.0676 24.8274 13.8569 24.8286 13.6462 24.8306C13.544 24.8306 13.4182 24.6856 13.3773 24.7239C13.1845 24.7041 12.6871 24.8005 12.6622 24.8031C12.3812 24.8248 12.0638 24.8139 11.7962 24.8567C11.5791 24.8906 11.1877 24.9851 11.0632 25.0828C10.7618 25.2118 10.4667 25.3567 10.0874 25.4225C9.9278 25.4506 9.75794 25.4627 9.6034 25.4972C9.26304 25.5732 9.04785 25.7412 8.72473 25.8337C8.40864 25.9244 8.02613 25.934 7.67045 25.9244C7.31477 25.9148 6.95845 25.8893 6.60085 25.9206C6.24325 25.9512 5.87032 26.0534 5.73495 26.2131C6.0587 26.0164 6.66215 25.9953 7.15896 26.0266C7.65576 26.0572 8.18897 26.116 8.65832 26.0074C9.00698 25.9263 9.26049 25.7622 9.62384 25.7003C9.75155 25.6786 9.91247 25.6754 9.99357 25.7226C10.067 25.7654 10.0268 25.8293 10.0006 25.8848C9.87288 26.1594 9.62128 26.1965 9.34734 26.3222C9.15002 26.4136 8.93482 26.4538 8.69025 26.5132C8.28092 26.6128 7.81988 26.6792 7.37416 26.7194C6.92843 26.759 6.46036 26.8274 6.14299 26.9857C5.96036 27.0777 5.8435 27.192 5.67301 27.2878C5.2822 27.5081 4.71707 27.6607 4.54529 27.9263C4.44823 28.0764 4.43737 28.2067 4.42907 28.3599C4.42141 28.5081 4.30966 28.6588 4.11426 28.7833C4.33776 28.6351 4.54018 28.5311 4.62958 28.3586C4.72856 28.1684 4.66917 27.9793 4.94184 27.8222C5.17684 27.6862 5.59382 27.4908 5.85436 27.3644C6.01911 27.2846 6.1315 27.2297 6.28284 27.1441C6.62384 26.9519 7.04082 26.9231 7.54593 26.8567C8.05104 26.7903 8.67109 26.6779 9.15704 26.5815C9.64299 26.4844 10.1353 26.2546 10.2848 26.0189C10.3531 25.9104 10.3218 25.8529 10.3984 25.7456C10.5357 25.5547 10.9003 25.4136 11.2803 25.3184C11.6609 25.2233 11.8397 25.1249 12.4936 25.1179C12.6341 25.116 13.3595 25.0489 13.6615 25.2265C13.825 25.3222 13.6494 25.4397 13.5127 25.5483C13.2011 25.7967 12.6238 25.9391 12.1117 26.1013C11.5996 26.2629 11.0868 26.4908 11.0549 26.7756C11.037 26.9378 11.0619 27.0892 11.2235 27.2501C11.3678 27.3944 11.5434 27.5157 10.9955 27.6109C10.7056 27.662 10.2062 27.6396 9.92524 27.7016C9.62639 27.768 9.4891 27.9097 9.24708 28.0164C8.91502 28.1626 8.46292 28.1645 8.02039 28.1933C7.34287 28.238 6.73814 28.4889 6.51081 28.7884C6.64619 28.6671 6.94184 28.5936 7.18514 28.5093C7.73495 28.3178 8.45078 28.3759 8.88246 28.3095C8.72218 28.5311 8.9527 28.8963 9.06445 29.1185C9.18705 29.3638 8.97058 29.3669 8.92524 29.6735C8.89331 29.8887 9.08297 30.1377 9.51081 30.2086C9.24963 30.1109 9.18833 29.9346 9.22345 29.7756C9.25857 29.6166 9.37032 29.4608 9.3799 29.3018C9.40098 28.9736 8.92907 28.5904 9.32882 28.3133C9.62384 28.1096 9.70302 27.95 10.1717 27.8669C10.862 27.745 11.5925 27.8229 11.8199 27.5477C11.9195 27.4276 11.7222 27.2616 11.6692 27.1371C11.3627 26.4155 12.772 26.245 12.8818 26.2954C13.0376 26.365 12.6909 26.5924 12.9342 26.8005C13.0989 26.941 13.5019 27.003 13.5925 27.1588C13.6768 27.3037 13.4048 27.4404 13.3243 27.5885C13.1577 27.8938 13.8326 28.2022 13.6028 28.4991C13.3825 28.7839 12.567 28.8114 12.014 28.9678C11.1909 29.2016 11.0351 29.8203 11.7222 30.1192C11.2592 29.7137 11.4406 29.2367 12.2158 29.1128C12.5561 29.0579 12.9629 29.0087 13.272 28.9212C13.5753 28.8363 13.7841 28.5738 14.1334 28.5655C14.3933 28.5598 14.5849 28.8682 14.71 28.9749C14.8358 29.0815 14.8991 29.2035 15.03 29.3088C15.2445 29.4806 15.6494 29.6281 15.5945 29.828C15.567 29.927 15.5312 29.9991 15.5274 30.1179C15.8065 29.934 15.8314 29.6728 15.5868 29.4819C15.438 29.365 15.1985 29.2724 15.1155 29.1415C15.0606 29.0553 14.8537 28.7016 14.7701 28.6211C14.468 28.3286 14.12 28.3906 13.8984 28.0828C13.4418 27.4493 14.415 27.4755 14.2043 27.1881C14.0185 26.9334 13.2369 26.8005 13.3116 26.5323C13.3633 26.3472 13.8065 26.2437 13.9917 26.0777C14.0721 26.0055 14.1008 25.9225 14.1839 25.8503C14.3269 25.7271 14.6347 25.6511 14.9284 25.6664C15.2222 25.6818 15.2956 25.8376 15.3722 25.9717C15.5402 26.2667 15.06 26.517 15.2362 26.8114C15.2911 26.9027 15.4259 26.9857 15.4131 27.0809C15.401 27.1709 15.2605 27.2431 15.1692 27.3222C14.9591 27.5042 15.021 27.7463 15.3154 27.8963C15.6155 28.0502 16.0811 28.0975 16.4738 28.1945C16.8665 28.2916 17.2266 28.5023 17.0498 28.6945C17.2911 28.5323 17.2547 28.2916 16.9674 28.1473C16.7279 28.0272 16.3697 27.9819 16.0619 27.904C15.7535 27.8261 15.4616 27.6767 15.5434 27.5157C15.6155 27.3752 15.947 27.2833 15.9821 27.1403C15.9968 27.079 15.9993 27.0132 15.9476 26.9563C15.507 26.4761 16.0683 26.0585 17.3154 26.5611C17.7311 26.7284 17.3863 27.0311 17.712 27.1498C18.0855 27.2859 19.0638 27.1122 19.2784 27.3108C19.4808 27.4972 18.7618 27.844 18.7809 28.0528C18.8001 28.2616 19.2196 28.4199 19.3141 28.6243C19.4457 28.9085 18.9284 29.1645 18.825 29.4519C18.7362 29.699 18.9942 29.9659 19.4482 30.0968C19.0427 29.9538 19.0644 29.662 19.2311 29.4366C19.3978 29.2105 19.6711 28.9921 19.6366 28.7539C19.6047 28.5374 19.3205 28.3452 19.233 28.132C19.1449 27.918 19.4182 27.6965 19.8767 27.6671C20.984 27.5975 20.5676 28.1965 21.0421 28.4308C21.4865 28.6498 22.6289 28.7916 22.6277 29.199C22.6277 29.3836 22.5868 29.6224 22.2426 29.7162C22.9233 29.5566 23.1366 29.0936 22.6532 28.8146C22.2535 28.5834 20.9993 28.3152 21.2043 28.0924C21.1379 28.1645 22.3339 28.2265 23.3077 28.1147C23.8805 28.0489 24.4802 28.2194 24.6411 28.4825C24.5063 28.2616 24.2139 28.0892 23.795 28.0304C23.3754 27.9717 23.0632 28.0189 22.6309 28.0266C22.1985 28.0336 21.6066 28.0636 21.3014 27.9168C21.0772 27.8088 21.0887 27.5911 20.8199 27.5081C20.5734 27.4308 20.2343 27.4378 20.0076 27.3484C19.8307 27.2782 19.7643 27.1652 19.6136 27.0828C19.1634 26.835 18.0632 27.1856 18.0338 26.8657C17.9974 26.457 17.461 26.2456 16.9246 26.1722C16.5715 26.1243 16.2145 26.0445 16.0249 25.897C15.8352 25.7495 15.8729 25.5298 16.1762 25.4334C16.4821 25.3369 16.9125 25.4002 17.1896 25.5164C17.4661 25.632 17.643 25.7903 17.878 25.9251C18.4406 26.2456 19.4865 26.3625 20.3556 26.3229C20.6104 26.3088 22.1621 26.2641 22.5306 27.0413C22.6232 27.236 22.8141 27.4512 23.2088 27.5368C23.6813 27.639 24.3001 27.3516 24.7637 27.4659C25.1462 27.5598 25.2139 27.9136 25.4406 28.0802C25.696 28.268 26.1934 28.3235 26.6251 28.4238C25.9674 28.2718 25.6309 28.0253 25.4201 27.8005C25.18 27.5464 25.0453 27.2079 24.3403 27.2807Z" fill="#B69260"/>
<mask id="mask0_1_1521" style="mask-type:luminance" maskUnits="userSpaceOnUse" x="6" y="24" width="19" height="8">
<path d="M6.65527 24.8984H24.6878V32H6.65527V24.8984Z" fill="white"/>
</mask>
<g mask="url(#mask0_1_1521)">
<path d="M8.62766 28.2278C9.12511 28.33 9.64363 28.3715 9.70493 28.0822C9.8767 27.2776 10.4827 27.0554 10.4188 26.9526C10.3939 26.9117 10.1787 26.9271 9.82115 27.026C9.64554 27.0752 9.12064 27.3472 8.94631 27.4041C8.85755 27.4334 8.78283 27.4833 8.71961 27.5363C8.46291 27.7502 8.0223 27.8045 7.68385 27.9303C7.50059 27.9992 7.34797 28.1697 7.2707 28.2099C7.3601 28.026 7.49867 27.9654 7.57274 27.92C7.70429 27.8383 7.81859 27.7585 7.93864 27.7272C8.13916 27.6748 8.26431 27.6601 8.40991 27.5426C8.7624 27.2598 8.95972 27.1282 9.30135 27.0503C9.28666 26.9871 8.68641 26.883 8.43034 26.8913C8.16214 26.899 7.72408 26.9954 7.39905 26.9507C7.28156 26.9341 7.18194 26.8951 7.07083 26.8696C6.96036 26.844 6.82753 26.8919 6.70557 26.9334C6.81157 26.8287 7.02804 26.8 7.19407 26.8166C7.3601 26.8326 7.51272 26.8792 7.68896 26.8696C7.94631 26.8562 8.19854 26.7246 8.4578 26.7048C8.79688 26.6787 9.0587 26.8498 9.39841 26.8243C9.58807 26.8096 9.76495 26.7202 9.95525 26.6819C10.4303 26.5873 11.2177 26.7738 11.9016 26.7189C12.2554 26.6902 12.6583 26.7061 12.9604 26.5644C13.203 26.4494 13.7049 25.9341 13.7311 25.8645C13.8071 25.6659 13.4655 25.5165 13.2037 25.5567C12.9418 25.5963 12.7445 25.6512 12.4821 25.6889C12.1647 25.7349 11.825 25.7106 11.507 25.678C11.2452 25.6518 10.7005 25.6052 10.4367 25.6327C9.97887 25.6806 9.79944 25.8 9.34158 25.8498C9.59956 25.7642 9.86265 25.6863 10.1168 25.5931C10.4233 25.4813 10.855 25.5126 11.0319 25.5184C12.8116 25.5758 12.7311 25.0656 13.7924 24.9718C14.2841 24.929 15.1449 24.9162 15.6379 24.9405C15.961 24.9558 16.2854 25.0727 16.6091 25.0752C16.7764 25.0758 16.9438 25.0758 17.1104 25.0752C17.1915 25.0752 17.2918 24.8862 17.3237 24.9347C17.4763 24.9073 17.7918 25.0382 17.8314 25.0292C17.8505 25.0248 17.871 25.0273 17.8901 25.0292C18.113 25.0541 18.3646 25.0356 18.5772 25.0861C18.749 25.1269 19.0587 25.2425 19.157 25.3658C19.3959 25.5273 19.6289 25.7093 19.9297 25.7859C20.0561 25.8179 20.1909 25.83 20.3128 25.8709C20.5823 25.9603 20.7522 26.1716 21.0082 26.2821C21.2586 26.3907 21.5619 26.3907 21.8441 26.367C22.1257 26.3428 22.4086 26.2981 22.6928 26.3249C22.9763 26.3517 23.2713 26.4692 23.378 26.6704C23.1226 26.4283 22.6436 26.4239 22.249 26.4813C21.8544 26.5388 21.4323 26.632 21.06 26.505C20.7847 26.4098 20.5836 26.2055 20.2962 26.1346C20.1947 26.1097 20.067 26.1084 20.0031 26.1723C19.945 26.2291 19.9763 26.3108 19.9968 26.3824C20.097 26.7349 20.2962 26.7764 20.5127 26.9322C20.6692 27.0452 20.839 27.0912 21.0332 27.1608C21.3569 27.2776 21.7222 27.3492 22.0753 27.3862C22.4284 27.4232 22.8001 27.4941 23.0504 27.6882C23.1947 27.8 23.2873 27.943 23.422 28.0605C23.7311 28.3313 24.1787 28.5062 24.3135 28.8434C24.3901 29.0337 24.3978 29.2029 24.4035 29.4009C24.4093 29.5931 24.4968 29.784 24.6513 29.9379C24.475 29.7546 24.3148 29.6276 24.2445 29.4079C24.1666 29.1646 24.2151 28.9181 23.9993 28.7246C23.8135 28.5586 23.484 28.3211 23.2777 28.1678C23.1475 28.0701 23.0587 28.0024 22.9386 27.8977C22.6698 27.6614 22.339 27.6391 21.9386 27.5701C21.5389 27.5005 21.0472 27.3734 20.6628 27.2623C20.2784 27.1506 19.8882 26.8651 19.7713 26.5624C19.7171 26.4239 19.7426 26.3479 19.6819 26.2106C19.574 25.9667 19.2854 25.7923 18.984 25.6761C18.6832 25.5599 18.5415 25.4354 18.0229 25.436C17.9118 25.436 17.3371 25.3575 17.097 25.5912C16.968 25.7176 17.1066 25.8683 17.2139 26.0082C17.461 26.3274 17.9176 26.505 18.3231 26.7061C18.7286 26.9073 19.134 27.1921 19.1583 27.5605C19.1717 27.7706 19.1519 27.9673 19.0236 28.1793C18.9086 28.3696 18.7694 28.5305 19.2024 28.6423C19.4323 28.7016 19.8275 28.6608 20.0498 28.7336C20.2867 28.8115 20.3946 28.9916 20.5855 29.1231C20.8486 29.3032 21.2062 29.2923 21.5574 29.316C22.0938 29.3523 22.5721 29.6563 22.7509 30.0356C22.6443 29.8836 22.4105 29.7993 22.2177 29.6978C21.7828 29.4686 21.2151 29.5663 20.8735 29.4922C20.9993 29.7738 20.816 30.2534 20.7266 30.5446C20.6277 30.8658 20.8001 30.8638 20.8346 31.2598C20.8588 31.5363 20.7081 31.8645 20.369 31.9692C20.5766 31.8357 20.6251 31.6046 20.5976 31.4002C20.5708 31.1959 20.4827 30.9973 20.4757 30.7917C20.461 30.367 20.8358 29.8575 20.5197 29.5094C20.2873 29.2534 20.2254 29.049 19.8537 28.9539C19.3077 28.8134 18.7292 28.9303 18.5498 28.5778C18.4712 28.4239 18.6283 28.2042 18.6704 28.042C18.9157 27.1014 17.7994 26.9054 17.712 26.9705C17.5887 27.0631 17.8627 27.353 17.6698 27.6276C17.5389 27.8128 17.2196 27.899 17.1475 28.1027C17.0798 28.2923 17.295 28.4667 17.3582 28.6569C17.4897 29.0516 16.9546 29.4628 17.136 29.846C17.3097 30.2125 17.9546 30.2329 18.392 30.4245C19.0427 30.7093 19.1641 31.5062 18.62 31.9111C18.9872 31.3734 18.8448 30.7604 18.2317 30.6161C17.9623 30.5529 17.6411 30.496 17.3965 30.3887C17.1564 30.284 16.9916 29.9462 16.7158 29.9411C16.5102 29.9373 16.3575 30.3421 16.2586 30.4826C16.159 30.6237 16.1085 30.7834 16.0044 30.9226C15.8346 31.1493 15.514 31.3485 15.5568 31.6084C15.5779 31.7374 15.6066 31.8306 15.6091 31.9858C15.3888 31.7502 15.3697 31.4092 15.5632 31.1563C15.6813 31.0018 15.871 30.8773 15.9374 30.7055C15.9808 30.5925 16.1455 30.1289 16.2113 30.0228C16.4514 29.6378 16.7266 29.7125 16.9029 29.3089C17.2656 28.4788 16.4955 28.5267 16.6628 28.1486C16.8109 27.8153 17.4297 27.6327 17.371 27.2847C17.3307 27.0446 16.9802 26.9162 16.8339 26.7016C16.7701 26.6084 16.7471 26.5011 16.6813 26.4085C16.5689 26.2489 16.325 26.1518 16.0919 26.1736C15.8595 26.1953 15.8014 26.3983 15.74 26.5739C15.6059 26.9603 15.9865 27.2834 15.8461 27.6684C15.8026 27.7879 15.6953 27.8983 15.7056 28.0222C15.7151 28.1384 15.8263 28.2323 15.8984 28.3345C16.0644 28.5695 16.0146 28.8856 15.7809 29.0848C15.5434 29.2885 15.1749 29.3549 14.8639 29.4852C14.5529 29.6154 14.2675 29.8939 14.4067 30.1442C14.2164 29.9334 14.2452 29.6174 14.4731 29.4271C14.6628 29.2681 14.9463 29.2061 15.1909 29.102C15.4348 28.9973 15.666 28.8 15.6008 28.5899C15.5446 28.4079 15.2822 28.2904 15.2554 28.1033C15.2432 28.0235 15.2413 27.9373 15.2828 27.8632C15.6321 27.2336 15.1883 26.6921 14.1992 27.3498C13.8697 27.5695 14.1423 27.966 13.8844 28.1225C13.5881 28.3019 12.8135 28.0714 12.643 28.3319C12.4827 28.5771 13.0523 29.0356 13.037 29.3096C13.0217 29.5854 12.689 29.7942 12.6143 30.0644C12.5102 30.4392 12.9195 30.7744 13.0006 31.1518C13.0715 31.4769 12.8671 31.83 12.5076 32.0069C12.8282 31.814 12.8116 31.4303 12.6794 31.134C12.5478 30.8377 12.3314 30.5497 12.3588 30.2355C12.3837 29.9501 12.6091 29.6959 12.6787 29.4143C12.7484 29.1327 12.5319 28.8402 12.1685 28.7993C11.2911 28.7016 11.6213 29.4973 11.2458 29.8064C10.8933 30.0956 9.98781 30.2789 9.98909 30.823C9.98973 31.0695 10.0223 31.3887 10.295 31.5139C9.75601 31.3013 9.58552 30.6787 9.96866 30.3089C10.2854 30.0031 11.279 29.6531 11.1168 29.3568C11.1692 29.4526 10.2215 29.5292 9.44886 29.367C8.9942 29.2713 8.51847 29.4896 8.39139 29.8421C8.49803 29.5465 8.72983 29.3191 9.06189 29.2463C9.39458 29.1742 9.64299 29.2412 9.98526 29.2559C10.3282 29.2706 10.7982 29.3153 11.0395 29.1225C11.2177 28.9813 11.2081 28.6921 11.4208 28.5835C11.6168 28.4839 11.8856 28.4948 12.0651 28.3779C12.2056 28.2866 12.2579 28.1372 12.378 28.0292C12.7343 27.7068 13.6066 28.1704 13.6296 27.7495C13.659 27.2125 14.0842 26.9373 14.5095 26.8409C14.7892 26.7776 15.0727 26.6729 15.2228 26.4788C15.3735 26.2859 15.3441 25.9999 15.1034 25.8741C14.862 25.7483 14.5204 25.83 14.3007 25.9807C14.081 26.132 13.9406 26.3389 13.7541 26.5145C13.3077 26.9334 12.4782 27.0816 11.7892 27.0184C11.5874 26.9992 10.3556 26.9124 10.0644 27.9417C9.99101 28.2004 9.83903 28.4852 9.52613 28.5937C9.15129 28.7234 8.65959 28.3249 8.29177 28.4686C7.98781 28.5867 7.93481 29.0637 7.75474 29.2853C7.55295 29.5337 7.15831 29.5995 6.8154 29.7266C7.33775 29.5331 7.60403 29.2055 7.7707 28.9066C7.96099 28.5669 8.067 28.1142 8.62766 28.2278Z" fill="#B69260"/>
</g>
<path d="M22.6454 13.0538L22.7348 13.0206L22.7763 13.0334C23.1888 13.1637 23.5509 13.2575 23.8836 13.3188C24.2086 13.3776 24.5407 13.4191 24.8766 13.444C24.7789 13.4293 24.6818 13.4133 24.5867 13.3967C24.2131 13.3297 23.777 13.2135 23.2904 13.0513L22.9519 12.9382L23.3747 12.7818C24.6263 12.3233 25.436 11.746 25.9564 11.2218C25.5171 11.5161 25.0037 11.7677 24.503 11.9919L24.2789 12.0928L24.3293 11.8527C24.4047 11.49 24.5062 11.1866 24.632 10.9491C24.5656 11.0449 24.503 11.1483 24.4468 11.2588C24.3364 11.474 24.245 11.7492 24.1761 12.0762L24.1627 12.1407L24.102 12.1656C23.3868 12.4657 22.6129 12.7562 21.8651 13.0372C21.1148 13.3188 20.4066 13.5851 19.8019 13.8425L19.4545 13.99L19.6448 13.6637C19.7795 13.4319 19.8919 13.216 19.9883 13.0034C20.1244 12.702 20.2655 12.3201 20.4143 11.9153L20.4526 11.8105L20.5324 11.8035C20.9373 11.7709 21.2687 11.7211 21.5471 11.6509C21.6397 11.6273 21.7304 11.6017 21.8185 11.5743C21.5062 11.6419 21.1231 11.6886 20.6761 11.7135L20.4845 11.7243L20.5516 11.5442C20.8261 10.8105 21.2425 9.69622 21.9238 8.77541C21.4781 9.19431 21.0452 9.73773 20.7502 10.4242C20.7163 10.5015 20.6844 10.5781 20.6524 10.6541L20.5094 10.997L20.4155 10.6375C20.307 10.2205 20.2444 9.84629 20.231 9.52509C20.2221 9.32202 20.2221 9.04935 20.2521 8.73262C20.1633 9.15216 20.1167 9.6279 20.1537 10.1426C20.178 10.4753 20.2514 10.8591 20.3728 11.2831L20.3842 11.3239L20.3568 11.3948C19.9762 12.3718 19.7048 13.2352 18.8779 14.2345L18.7418 14.3393C18.2693 14.5902 17.7993 14.8872 17.3453 15.2205L17.1908 15.3348L17.1493 15.1464C17.0094 14.5142 16.9487 13.9548 16.9679 13.4842C16.9794 13.1994 17.0158 12.7958 17.1167 12.3252C16.9289 12.8737 16.7885 13.5168 16.7808 14.2205C16.777 14.5864 16.8204 15.0066 16.9098 15.4702L16.9245 15.5442L16.8664 15.5915C16.3338 16.0238 15.9443 16.4114 15.7112 16.6605L15.5522 16.8297L15.4979 16.6043C15.4149 16.2614 15.3389 15.8501 15.2776 15.52C15.2246 15.2326 15.1786 14.9842 15.1486 14.8878C15.0056 14.4357 15.2699 11.6752 15.8408 9.91525L15.8498 9.88716L15.9321 9.80542C16.2291 9.50912 16.4641 9.27541 16.7597 8.99827L16.9149 8.84948C17.542 8.24731 18.4436 7.38205 19.2393 6.28435C18.8977 6.71857 18.5005 7.1528 18.0401 7.56276C17.4034 8.13301 16.8127 8.67515 16.284 9.17387L15.9245 9.474C15.9915 9.28243 16.2125 8.66046 16.2782 8.47592C16.5413 7.73135 16.9973 6.44207 17.1652 4.88588C17.0911 5.37438 16.9762 5.87885 16.8089 6.38332L16.745 6.5749L16.4986 6.33096C16.1793 6.01742 15.904 5.74603 15.7093 5.41206C15.6275 5.27221 15.5464 5.12854 15.4698 4.97911C15.5701 5.21091 15.6971 5.45484 15.8593 5.709C16.0069 5.9408 16.2751 6.27349 16.6371 6.67004L16.6882 6.72624L16.4941 7.25689C15.4845 10.0161 14.7553 12.0098 14.5267 13.5379L14.4762 13.8725L14.2961 13.5851C13.8459 12.8654 13.4219 12.073 13.0375 11.2294L13.0088 11.1662L13.0471 11.1081C13.3051 10.7186 13.5043 10.3603 13.639 10.043C13.9379 9.34118 14.0452 8.68409 14.0579 8.12662C13.9756 8.66366 13.8287 9.11449 13.7112 9.41461C13.5662 9.78562 13.3306 10.216 13.0113 10.693L12.8823 10.8852L12.7923 10.672C12.4443 9.85523 12.1275 8.9855 11.8504 8.08511L11.8325 8.027L11.8676 7.97656C12.1352 7.59533 12.3249 7.26711 12.4487 6.97336C12.5599 6.70963 12.6333 6.45548 12.6799 6.21666C12.641 6.34565 12.6014 6.45804 12.5656 6.55063C12.4424 6.86864 12.231 7.24412 11.9373 7.66557L11.7872 7.88077L11.7138 7.62917C11.3721 6.45421 11.1435 5.39418 10.996 4.55957C11.0267 5.05191 11.0937 5.6445 11.2291 6.34884L11.2865 6.64833L11.035 6.47592C10.4826 6.09597 10.0656 5.75242 9.76164 5.42483C9.74504 5.40695 9.7278 5.38843 9.7112 5.36928C9.85104 5.55255 10.0081 5.73454 10.1831 5.91206C10.4634 6.19878 10.8268 6.49635 11.2923 6.82138L11.3325 6.84948L11.3427 6.89673C11.5426 7.79009 11.8287 8.76519 12.1946 9.79265L12.2891 10.0596L12.0279 9.95037C11.0005 9.52253 8.48514 8.4012 7.32933 7.23198C7.30187 7.20325 7.27378 7.17387 7.24632 7.14386C7.39319 7.33096 7.55858 7.51615 7.74568 7.69559C8.84466 8.75178 10.7923 9.72879 12.2138 10.4421L12.291 10.481L12.3089 10.5264C12.3651 10.6752 12.4226 10.8265 12.4807 10.9797C12.8095 11.8508 13.1818 12.838 13.6888 13.9025L13.7987 14.1343L13.5484 14.0787C12.8268 13.9184 12.374 13.7262 11.8498 13.5034L11.7565 13.4638C11.0771 13.1758 10.4379 12.8271 9.86509 12.4376C10.4979 12.981 11.3664 13.5736 12.4954 14.0283C12.6735 14.1011 12.8121 14.1688 12.9456 14.2345C13.194 14.3559 13.4085 14.4612 13.798 14.5532L13.8555 14.5666L13.8817 14.619C13.9277 14.7122 14.2706 16.6164 14.2744 16.6349L14.3134 16.8495C14.3255 16.8833 14.0669 16.7492 14.0694 16.7511C14.0369 16.7275 13.821 16.6138 13.572 16.4823C11.9992 15.6541 7.82295 13.4548 6.22141 11.5519C6.03431 11.3188 5.86062 11.0506 5.70417 10.7556C5.92512 11.2345 6.22333 11.7269 6.62307 12.2001C7.56305 13.3188 9.00558 14.1656 10.4002 14.9842L10.8983 15.3373L10.4111 15.2716C8.05858 14.8661 5.99536 14.2633 4.24951 13.4734C4.92895 13.8284 5.86701 14.2275 7.17416 14.6298L7.49153 14.7269L7.17799 14.868C6.95513 14.944 6.74632 15.0015 6.55858 15.0391C6.40149 15.0711 6.24249 15.0972 6.08093 15.1177C6.47812 15.1049 6.86829 15.0577 7.2444 14.9772C7.3006 14.9651 7.67161 14.8112 7.708 14.7939C8.83061 15.1292 10.1882 15.4797 11.8587 15.8642L11.8798 15.8686L11.8977 15.8801C12.1403 16.0327 12.3536 16.1745 12.5503 16.3131L12.8274 16.5085L12.4896 16.5398C12.1588 16.5711 11.83 16.6579 11.5126 16.7984C11.3504 16.8699 11.1984 16.9676 11.0369 17.0704C10.9143 17.149 10.7865 17.2301 10.6499 17.3035C10.0132 17.6419 9.31273 17.7684 8.79996 17.8603C8.51196 17.9121 8.21247 17.951 7.91107 17.9772C7.9149 17.9772 7.91746 17.9772 7.92065 17.9772C8.47173 17.9772 9.0209 17.9261 9.55092 17.8265L9.56049 17.8239L9.9877 17.7582L9.65947 18.0474C9.26484 18.3437 8.83061 18.6502 8.34274 18.8706C8.602 18.7831 8.9066 18.6566 9.26037 18.4772C9.47046 18.3699 9.69076 18.2511 9.90341 18.1368C10.8153 17.6458 11.7578 17.1375 12.5892 17.1375C13.1703 17.1375 13.6435 17.3935 13.996 17.8974C14.3408 18.3891 14.4232 19.0289 14.4551 19.467C14.6007 21.4638 14.2495 23.7971 13.1639 24.7805C13.4015 24.8022 13.7055 24.9612 13.9366 24.9612C14.0005 24.9612 14.2661 25.0877 14.3134 25.0851C15.3351 25.0142 16.1595 24.8808 17.1633 24.8342C16.9717 24.246 16.3696 22.1234 16.5535 20.7614C16.8638 18.4657 18.602 18.2001 19.8823 18.2001C20.0215 18.2001 20.1678 18.2032 20.3415 18.2096L20.3926 18.2115L20.4277 18.2486C20.6122 18.4421 20.7936 18.6094 20.9679 18.7454C21.268 18.9785 21.5835 19.1694 21.8881 19.3246C21.6971 19.1918 21.5324 19.0679 21.4015 18.9695C21.2438 18.8514 21.0726 18.6873 20.8638 18.4536L20.6569 18.2224L20.9666 18.2454C21.0803 18.2537 21.1959 18.2633 21.3134 18.2722C21.6825 18.3016 22.0637 18.3322 22.4724 18.3463C22.6703 18.3546 22.8613 18.3591 23.0413 18.3591C23.2974 18.3591 23.5241 18.3508 23.724 18.3361C22.9519 18.3354 22.1256 18.1969 21.3274 18.0621C20.7757 17.9689 20.2055 17.8731 19.6697 17.8265L19.215 17.7869L19.6256 17.5889C19.7961 17.5066 19.9564 17.4184 20.1052 17.3278C19.7086 17.5047 19.3555 17.6126 19.1039 17.6771C18.8402 17.7422 18.3019 17.8469 18.0988 17.8865C18.0675 17.8923 18.0292 17.8999 18.0292 17.8999C17.1869 18.0794 16.6588 18.4485 16.3651 18.7262L16.2023 18.8801L16.1461 18.6138C16.0714 18.2594 16.0062 17.9529 16.0867 17.7218C16.4021 16.8156 17.8051 15.5308 18.7003 14.9082L18.7457 14.8763L19.1065 14.958C20.6952 15.3182 22.6716 15.7658 24.1793 15.7658C24.268 15.7652 24.3562 15.7633 24.4424 15.7607C23.1435 15.6988 21.2629 15.3367 19.3019 14.7658L19.0254 14.6854L19.2725 14.5379C20.2885 13.9325 21.3811 13.5257 22.6454 13.0538Z" fill="#B69260"/>
<path d="M10.3868 0.710938C10.3862 0.71413 9.51452 1.88974 10.814 2.77288C10.814 2.77671 11.6984 1.6458 10.3868 0.710938Z" fill="#B69260"/>
<path d="M1.32712 10.1363C1.32776 10.1401 1.22431 11.0839 2.44972 11.0111C2.451 11.0163 2.5736 10.0501 1.32712 10.1363Z" fill="#B69260"/>
<path d="M2.62682 9.16619C2.62746 9.16938 2.57382 9.92289 3.55658 9.85392C3.55721 9.85712 3.62873 9.09211 2.62682 9.16619Z" fill="#B69260"/>
<path d="M11.5617 1.06543C11.5617 1.06543 10.9481 1.62354 11.5298 2.25508C11.5292 2.25508 12.1428 1.7289 11.5617 1.06543Z" fill="#B69260"/>
<path d="M11.9801 0.707031C11.9801 0.70767 11.8166 1.14573 12.3096 1.45352C12.3415 1.3124 12.475 1.02504 11.9801 0.707031Z" fill="#B69260"/>
<path d="M15.4725 0.502949C15.4719 0.498479 14.2318 1.27243 15.0868 2.61214C15.0862 2.60767 16.318 1.90461 15.4725 0.502949Z" fill="#B69260"/>
<path d="M16.7796 0.275391C16.7789 0.276029 15.9156 1.33095 17.2317 2.40374C17.231 2.40438 18.1072 1.40885 16.7796 0.275391Z" fill="#B69260"/>
<path d="M9.49787 2.24707C9.49787 2.25346 8.86377 3.51974 10.3433 4.15575C10.3433 4.16214 10.9991 2.91629 9.49787 2.24707Z" fill="#B69260"/>
<path d="M12.2502 2.02153C12.2495 2.01515 10.8338 2.6154 11.2942 4.05219C11.2942 4.04644 12.687 3.51196 12.2502 2.02153Z" fill="#B69260"/>
<path d="M13.4012 2.28128C13.4005 2.27745 12.3501 2.68805 12.6904 3.76467C12.6898 3.76148 13.7236 3.39494 13.4012 2.28128Z" fill="#B69260"/>
<path d="M16.1279 2.57425C16.1279 2.57042 15.0762 2.91205 15.4133 4.01039C15.4127 4.0072 16.4472 3.70643 16.1279 2.57425Z" fill="#B69260"/>
<path d="M13.3018 0.403356C13.3018 0.398886 12.2495 0.813956 12.5905 1.88931C12.5898 1.88548 13.6249 1.51574 13.3018 0.403356Z" fill="#B69260"/>
<path d="M14.1635 4.22276C14.1635 4.21829 13.0409 4.36069 13.0479 5.49415C13.0479 5.49032 14.1424 5.37729 14.1635 4.22276Z" fill="#B69260"/>
<path d="M16.3903 3.1709C16.3903 3.17154 15.8865 3.87141 16.8086 4.4193C16.8086 4.41994 17.3233 3.75008 16.3903 3.1709Z" fill="#B69260"/>
<path d="M4.59813 4.64259C4.59877 4.64642 4.38868 5.48294 5.42508 5.4772C5.42572 5.48103 5.65241 4.63939 4.59813 4.64259Z" fill="#B69260"/>
<path d="M13.8261 5.68856C13.8261 5.68537 12.8619 5.76519 12.92 6.71985C12.92 6.7173 13.8619 6.66302 13.8261 5.68856Z" fill="#B69260"/>
<path d="M18.3474 1.99305C18.3474 1.98922 17.3806 1.96239 17.4343 2.92025C17.4343 2.91706 18.3787 2.96303 18.3474 1.99305Z" fill="#B69260"/>
<path d="M14.9589 5.76466C14.9589 5.76338 14.1798 5.86045 14.2948 6.63312C14.2948 6.6312 15.0579 6.55585 14.9589 5.76466Z" fill="#B69260"/>
<path d="M14.9663 4.15398C14.9663 4.15589 14.926 3.45794 14.0391 3.49561C14.0391 3.49753 14.0582 4.1642 14.9663 4.15398Z" fill="#B69260"/>
<path d="M15.1409 4.98672C15.1409 4.98799 15.1065 4.38007 14.3325 4.40817C14.3325 4.40945 14.3498 4.99246 15.1409 4.98672Z" fill="#B69260"/>
<path d="M15.4331 5.46553C15.4331 5.46616 15.2332 5.01086 14.6553 5.20052C14.6553 5.20116 14.8373 5.64113 15.4331 5.46553Z" fill="#B69260"/>
<path d="M16.109 6.52954C16.109 6.53082 15.8427 5.91779 15.0713 6.16364C15.0713 6.16556 15.3133 6.75368 16.109 6.52954Z" fill="#B69260"/>
<path d="M14.4172 4.97364C14.4172 4.97173 13.6931 5.25078 14.0315 5.96662C14.0309 5.9647 14.7461 5.71438 14.4172 4.97364Z" fill="#B69260"/>
<path d="M16.4322 2.1123C16.4322 2.11358 16.1167 2.72789 16.9252 3.08804C16.9252 3.08932 17.2534 2.49481 16.4322 2.1123Z" fill="#B69260"/>
<mask id="mask1_1_1521" style="mask-type:luminance" maskUnits="userSpaceOnUse" x="13" y="0" width="2" height="2">
<path d="M13.7363 0H14.5537V1.03129H13.7363V0Z" fill="white"/>
</mask>
<g mask="url(#mask1_1_1521)">
<path d="M13.9102 0.0195312C13.9102 0.0214468 13.5954 0.654908 14.407 0.967807C14.407 0.969084 14.7346 0.352226 13.9102 0.0195312Z" fill="#B69260"/>
</g>
<path d="M9.24003 1.16113C9.24003 1.16305 8.93032 1.82716 9.73747 2.043C9.73747 2.04491 10.0593 1.39293 9.24003 1.16113Z" fill="#B69260"/>
<path d="M13.5064 8.21956C13.5064 8.2202 14.0964 7.53501 13.2459 6.96094C13.2459 6.96158 12.6507 7.61866 13.5064 8.21956Z" fill="#B69260"/>
<path d="M14.8322 3.27404C14.8322 3.27723 15.0129 2.43496 13.9426 2.25488C13.9426 2.25744 13.7428 3.06076 14.8322 3.27404Z" fill="#B69260"/>
<path d="M14.3897 7.56484C14.3897 7.56292 15.2269 7.52397 15.1841 6.69638C15.1841 6.69447 14.3648 6.71299 14.3897 7.56484Z" fill="#B69260"/>
<path d="M11.1062 11.4307C11.1062 11.4288 11.9376 11.3401 11.8923 10.5157C11.8923 10.5137 11.0781 10.584 11.1062 11.4307Z" fill="#B69260"/>
<path d="M12.9235 4.41655C12.9229 4.41399 13.7626 4.34886 13.7185 3.52255C13.7185 3.52 12.8967 3.56597 12.9235 4.41655Z" fill="#B69260"/>
<path d="M13.4225 2.00104C13.4225 1.99848 14.2641 1.94229 14.2207 1.11534C14.2207 1.11279 13.3969 1.14982 13.4225 2.00104Z" fill="#B69260"/>
<path d="M12.7708 8.26367C12.7708 8.26623 12.3756 9.09892 13.4235 9.47376C13.4235 9.47632 13.8347 8.66405 12.7708 8.26367Z" fill="#B69260"/>
<path d="M11.6884 4.97168C11.6878 4.9736 11.2931 5.81459 12.3436 6.16261C12.3436 6.16517 12.7548 5.34141 11.6884 4.97168Z" fill="#B69260"/>
<path d="M11.8868 4.09863C11.8868 4.10119 11.6575 4.82596 12.5758 5.01881C12.5758 5.02073 12.8216 4.30681 11.8868 4.09863Z" fill="#B69260"/>
<path d="M15.9992 4.25391C15.9992 4.25518 15.6001 5.06042 16.6506 5.50742C16.6506 5.5087 17.0669 4.72836 15.9992 4.25391Z" fill="#B69260"/>
<path d="M16.1742 11.458C16.1735 11.4586 15.6742 12.1681 16.5892 12.6981C16.5886 12.6987 17.0988 12.0187 16.1742 11.458Z" fill="#B69260"/>
<path d="M16.5221 10.7109C16.5221 10.7109 16.2092 11.331 17.0106 11.6784C17.0099 11.679 17.3356 11.0807 16.5221 10.7109Z" fill="#B69260"/>
<path d="M15.7872 12.5469C15.7872 12.5482 15.3913 13.3617 16.4328 13.7889C16.4322 13.7908 16.8453 13.0028 15.7872 12.5469Z" fill="#B69260"/>
<path d="M15.7732 13.8037C15.7732 13.8056 15.3786 14.6198 16.4182 15.0451C16.4182 15.0457 16.83 14.2577 15.7732 13.8037Z" fill="#B69260"/>
<path d="M15.0726 9.19123C15.0726 9.18867 14.0604 9.10374 13.9385 10.1114C13.9385 10.1089 14.9225 10.211 15.0726 9.19123Z" fill="#B69260"/>
<path d="M14.3462 8.57425C14.3462 8.57233 15.2862 8.8169 15.6106 7.898C15.6112 7.89609 14.6987 7.62342 14.3462 8.57425Z" fill="#B69260"/>
<path d="M17.0864 6.61329C17.0864 6.61138 18.0238 6.91661 18.3597 6.02645C18.3604 6.02453 17.4517 5.68992 17.0864 6.61329Z" fill="#B69260"/>
<path d="M17.4253 5.65149C17.4253 5.64893 18.4017 5.80538 18.5287 4.86094C18.5294 4.85838 17.5779 4.67511 17.4253 5.65149Z" fill="#B69260"/>
<path d="M17.4644 4.58635C17.4644 4.5838 18.4363 4.78112 18.6125 3.84881C18.6131 3.84625 17.6668 3.62084 17.4644 4.58635Z" fill="#B69260"/>
<path d="M17.5435 3.65415C17.5441 3.6516 18.5166 3.85339 18.6935 2.92235C18.6935 2.9198 17.7472 2.68927 17.5435 3.65415Z" fill="#B69260"/>
<path d="M21.1881 1.51955C21.1881 1.51636 20.2769 1.97038 20.9302 3.0419C20.9302 3.0387 21.8344 2.63321 21.1881 1.51955Z" fill="#B69260"/>
<path d="M20.2222 7.59817C20.2222 7.59881 19.4431 6.93342 18.5977 7.5656C18.5977 7.56688 19.341 8.19587 20.2222 7.59817Z" fill="#B69260"/>
<path d="M19.5899 8.2727C19.5906 8.2727 18.7132 7.73183 18.0107 8.50067C18.0107 8.50131 18.8517 9.01536 19.5899 8.2727Z" fill="#B69260"/>
<path d="M18.4878 9.03175C18.4878 9.03111 17.5753 8.5656 16.9399 9.39765C16.9406 9.39701 17.8161 9.84465 18.4878 9.03175Z" fill="#B69260"/>
<path d="M19.8424 3.41798C19.8424 3.41543 19.1029 3.86945 19.7881 4.67979C19.7875 4.67852 20.5257 4.26345 19.8424 3.41798Z" fill="#B69260"/>
<path d="M21.9916 3.34809C21.9922 3.34618 21.1346 2.99688 20.8594 3.79637C20.86 3.79509 21.6908 4.138 21.9916 3.34809Z" fill="#B69260"/>
<path d="M20.2699 2.49219C20.2699 2.49155 19.7412 2.92514 20.3861 3.53433C20.3861 3.5337 20.9174 3.13012 20.2699 2.49219Z" fill="#B69260"/>
<path d="M22.1942 7.33106C22.1942 7.32915 21.5473 7.60884 22.025 8.31638C22.025 8.31446 22.6667 8.06414 22.1942 7.33106Z" fill="#B69260"/>
<path d="M22.822 6.78614C22.822 6.78423 22.1764 7.05051 22.6528 7.76379C22.6528 7.76188 23.2939 7.52433 22.822 6.78614Z" fill="#B69260"/>
<mask id="mask2_1_1521" style="mask-type:luminance" maskUnits="userSpaceOnUse" x="15" y="0" width="2" height="2">
<path d="M15.6978 0H16.3516V1.03129H15.6978V0Z" fill="white"/>
</mask>
<g mask="url(#mask2_1_1521)">
<path d="M15.9913 0C15.9913 0 15.4741 0.480204 16.1101 1.01724C16.1101 1.0166 16.6299 0.564495 15.9913 0Z" fill="#B69260"/>
</g>
<path d="M24.6237 4.30681C24.6243 4.30362 23.7622 4.33491 24.0477 5.23913C24.0483 5.23593 24.8957 5.22827 24.6237 4.30681Z" fill="#B69260"/>
<path d="M25.1419 8.97071C25.1419 8.96943 24.6361 9.3398 25.2491 9.95985C25.2491 9.95793 25.7568 9.61885 25.1419 8.97071Z" fill="#B69260"/>
<path d="M27.7179 10.2099C27.7185 10.2086 26.9823 9.95763 26.8916 10.6441C26.8916 10.6428 27.6094 10.8925 27.7179 10.2099Z" fill="#B69260"/>
<path d="M26.9523 7.10715C26.9529 7.1046 26.0736 6.83959 26.0244 7.67803C26.0251 7.67612 26.8827 7.94112 26.9523 7.10715Z" fill="#B69260"/>
<path d="M26.09 5.79867C26.0907 5.79547 25.2445 5.69011 25.3793 6.54452C25.3799 6.54132 26.2088 6.6601 26.09 5.79867Z" fill="#B69260"/>
<path d="M27.3945 11.0212C27.3945 11.0212 26.7125 10.608 26.3779 11.1898C26.3779 11.1898 27.0388 11.5889 27.3945 11.0212Z" fill="#B69260"/>
<path d="M26.159 9.99905C26.159 9.99714 25.4675 10.0846 25.7708 10.8196C25.7708 10.8171 26.4528 10.7513 26.159 9.99905Z" fill="#B69260"/>
<path d="M23.5036 3.41993C23.5036 3.41801 22.9455 3.74177 23.5113 4.40652C23.5113 4.40524 24.0687 4.1115 23.5036 3.41993Z" fill="#B69260"/>
<path d="M22.1353 2.3835C22.1353 2.38159 21.3837 2.34838 21.5037 3.10573C21.5044 3.10381 22.2406 3.1517 22.1353 2.3835Z" fill="#B69260"/>
<path d="M25.3781 10.5928C25.3788 10.5909 24.6847 10.6956 24.9886 11.4287C24.9893 11.4268 25.6732 11.3431 25.3781 10.5928Z" fill="#B69260"/>
<path d="M26.4595 12.4107C26.4595 12.4126 26.0189 11.804 25.3369 12.0939C25.3369 12.0958 25.7545 12.6801 26.4595 12.4107Z" fill="#B69260"/>
<path d="M25.8622 12.9854C25.8622 12.9873 25.5845 12.3366 24.8003 12.4599C24.8003 12.4624 25.0564 13.0882 25.8622 12.9854Z" fill="#B69260"/>
<path d="M24.6025 14.0491C24.6025 14.051 24.3229 13.4029 23.5361 13.5555C23.5361 13.5574 23.7935 14.1819 24.6025 14.0491Z" fill="#B69260"/>
<path d="M25.8255 14.2475C25.8255 14.2488 25.5477 13.6019 24.7642 13.7348C24.7635 13.7373 25.0196 14.3606 25.8255 14.2475Z" fill="#B69260"/>
<path d="M26.9522 12.6993C26.9528 12.6974 26.2101 12.5594 26.2248 13.2791C26.2248 13.2778 26.9502 13.4215 26.9522 12.6993Z" fill="#B69260"/>
<path d="M27.1379 13.9123C27.1379 13.9135 26.5823 13.3771 26.021 13.8031C26.021 13.8043 26.5536 14.3203 27.1379 13.9123Z" fill="#B69260"/>
<path d="M26.9905 11.6963C26.9905 11.6963 26.3673 11.209 25.9043 11.7122C25.9043 11.7129 26.5052 12.1822 26.9905 11.6963Z" fill="#B69260"/>
<path d="M22.5088 12.2435C22.5088 12.2448 22.1045 11.6337 21.3823 11.9408C21.3823 11.9428 21.7623 12.5315 22.5088 12.2435Z" fill="#B69260"/>
<path d="M23.3057 12.0155C23.3057 12.0168 22.904 11.4006 22.1812 11.693C22.1812 11.6949 22.5585 12.2875 23.3057 12.0155Z" fill="#B69260"/>
<path d="M23.9529 11.6161C23.9529 11.618 23.5896 11.0561 22.9351 11.3083C22.9351 11.3096 23.2773 11.8511 23.9529 11.6161Z" fill="#B69260"/>
<path d="M24.2069 11.0028C24.2069 11.0034 23.7899 10.6784 23.4565 11.029C23.4572 11.0296 23.8569 11.347 24.2069 11.0028Z" fill="#B69260"/>
<path d="M22.4573 10.086C22.4573 10.0834 21.6099 10.3478 22.0882 11.2462C22.0882 11.2437 22.926 11.0125 22.4573 10.086Z" fill="#B69260"/>
<path d="M23.1632 9.85939C23.1632 9.85747 22.4806 10.0701 22.8816 10.8006C22.8816 10.7994 23.5572 10.6129 23.1632 9.85939Z" fill="#B69260"/>
<path d="M21.5656 10.3818C21.5656 10.3806 20.8804 10.62 21.284 11.3435C21.284 11.3422 21.9622 11.129 21.5656 10.3818Z" fill="#B69260"/>
<path d="M18.6426 5.34375C18.6419 5.34311 18.1145 5.80671 18.7601 6.38717C18.7601 6.38653 19.2907 5.95231 18.6426 5.34375Z" fill="#B69260"/>
<path d="M17.2351 6.86426C17.2351 6.86362 16.7083 7.34702 17.3545 7.90768C17.3545 7.90704 17.8845 7.45174 17.2351 6.86426Z" fill="#B69260"/>
<path d="M19.0732 4.25196C19.0726 4.25068 18.3951 4.84838 19.2393 5.60508C19.2393 5.60381 19.9213 5.04634 19.0732 4.25196Z" fill="#B69260"/>
<path d="M19.332 6.76875C19.332 6.76938 20.1258 7.34282 20.7771 6.65827C20.7778 6.65891 20.0185 6.05419 19.332 6.76875Z" fill="#B69260"/>
<path d="M17.3909 11.3014C17.3909 11.2963 18.6879 11.0837 18.3373 9.77842C18.3379 9.77331 17.0608 9.95531 17.3909 11.3014Z" fill="#B69260"/>
<path d="M23.0684 7.768C23.069 7.76417 24.3723 8.19904 24.6463 7.01194C24.6475 7.00811 23.3813 6.52088 23.0684 7.768Z" fill="#B69260"/>
<path d="M24.0918 6.59328C24.0925 6.58689 25.399 6.7261 25.217 5.42981C25.2183 5.42342 23.9354 5.24718 24.0918 6.59328Z" fill="#B69260"/>
<path d="M23.5892 10.6693C23.5898 10.6636 24.8516 10.5582 24.4359 9.25808C24.4365 9.25233 23.1913 9.32705 23.5892 10.6693Z" fill="#B69260"/>
<path d="M25.6588 9.88029C25.6594 9.87645 26.5867 9.84836 26.2814 8.88603C26.2821 8.88284 25.3676 8.88859 25.6588 9.88029Z" fill="#B69260"/>
<path d="M23.9853 9.1106C23.9853 9.10741 24.9195 9.0461 24.6117 8.07931C24.6124 8.07548 23.6909 8.11443 23.9853 9.1106Z" fill="#B69260"/>
<path d="M26.8984 9.93131C26.8991 9.92492 28.0025 9.7308 27.371 8.5041C27.3716 8.49708 26.2758 8.67141 26.8984 9.93131Z" fill="#B69260"/>
<path d="M22.4456 4.71075C22.4456 4.70691 23.4399 4.21458 22.5586 3.06643C22.5586 3.0626 21.565 3.53578 22.4456 4.71075Z" fill="#B69260"/>
<path d="M17.7853 1.76205C17.7853 1.75822 18.7189 1.61773 18.4392 0.675841C18.4398 0.672649 17.5203 0.793338 17.7853 1.76205Z" fill="#B69260"/>
<path d="M20.2709 2.243C20.2703 2.24427 20.7217 1.56547 19.7671 0.984375C19.7671 0.985014 19.3054 1.63699 20.2709 2.243Z" fill="#B69260"/>
<path d="M20.8979 6.75301C20.8986 6.74854 22.2121 7.13232 22.4867 5.91202C22.488 5.90755 21.2102 5.4746 20.8979 6.75301Z" fill="#B69260"/>
<path d="M19.8115 5.92132C19.8115 5.92132 20.5465 6.46218 21.15 5.83702C21.1506 5.83766 20.4475 5.26997 19.8115 5.92132Z" fill="#B69260"/>
<path d="M20.3232 5.17471C20.3239 5.17408 21.1285 5.6364 21.6042 4.93397C21.6042 4.93397 20.8303 4.44227 20.3232 5.17471Z" fill="#B69260"/>
<path d="M22.5944 4.81095C22.595 4.80776 21.7093 4.80201 21.8881 5.70048C21.8881 5.69729 22.7566 5.72283 22.5944 4.81095Z" fill="#B69260"/>
<path d="M24.8296 7.92355C24.8309 7.9178 26.1189 8.08128 25.9267 6.81052C25.9273 6.8035 24.6629 6.60426 24.8296 7.92355Z" fill="#B69260"/>
<path d="M25.1724 8.70598C25.1736 8.70343 26.4093 9.16703 26.6353 8.054C26.636 8.05145 25.4367 7.53804 25.1724 8.70598Z" fill="#B69260"/>
<path d="M20.7095 4.43255C20.7095 4.43191 21.5141 4.90381 21.9898 4.21033C21.9898 4.20969 21.2165 3.70905 20.7095 4.43255Z" fill="#B69260"/>
<path d="M18.4348 11.3401C18.4348 11.3388 17.6711 11.1798 17.5146 11.9302C17.5153 11.9295 18.2567 12.0962 18.4348 11.3401Z" fill="#B69260"/>
<path d="M17.2412 13.4591C17.2412 13.4578 18.1384 13.6737 18.3785 12.8033C18.3785 12.8014 17.5069 12.56 17.2412 13.4591Z" fill="#B69260"/>
<path d="M17.2778 14.1656C17.2785 14.165 18.1591 14.5079 18.5645 13.663C18.5645 13.6624 17.7127 13.2933 17.2778 14.1656Z" fill="#B69260"/>
<path d="M17.355 12.631C17.3556 12.6297 18.1238 12.8149 18.325 12.0684C18.3256 12.0678 17.5785 11.8621 17.355 12.631Z" fill="#B69260"/>
<path d="M21.877 7.09537C21.877 7.09473 21.1764 6.72755 20.8271 7.36932C20.8271 7.36868 21.5034 7.72756 21.877 7.09537Z" fill="#B69260"/>
<path d="M20.6602 8.12485C20.6602 8.12485 21.3453 8.52395 21.7642 7.92051C21.7642 7.92051 21.1059 7.50033 20.6602 8.12485Z" fill="#B69260"/>
<path d="M22.5142 8.39084C22.5142 8.39084 23.1955 8.81166 23.6125 8.23311C23.6125 8.23375 22.9586 7.79058 22.5142 8.39084Z" fill="#B69260"/>
<path d="M22.1953 8.91873C22.196 8.91937 22.8237 9.39957 23.3371 8.88361C23.3371 8.88425 22.7375 8.38425 22.1953 8.91873Z" fill="#B69260"/>
<path d="M21.8115 9.55814C21.8122 9.55877 22.4405 10.0326 22.9539 9.50833C22.9546 9.50897 22.3537 9.01599 21.8115 9.55814Z" fill="#B69260"/>
<path d="M19.0538 9.01758C19.0538 9.01886 19.0263 9.69318 19.8999 9.81068C19.8999 9.8126 19.9491 9.14848 19.0538 9.01758Z" fill="#B69260"/>
<path d="M18.965 9.83203C18.965 9.83395 18.933 10.6347 19.9701 10.7707C19.9694 10.7726 20.0275 9.98337 18.965 9.83203Z" fill="#B69260"/>
<path d="M20.4419 8.9722C20.4425 8.97092 21.1877 9.24359 21.4393 8.55202C21.4393 8.55074 20.7171 8.257 20.4419 8.9722Z" fill="#B69260"/>
<mask id="mask3_1_1521" style="mask-type:luminance" maskUnits="userSpaceOnUse" x="0" y="11" width="3" height="2">
<path d="M0.82373 11.167H2.62003V12.4748H0.82373V11.167Z" fill="white"/>
</mask>
<g mask="url(#mask3_1_1521)">
<path d="M0.845215 11.3018C0.847131 11.3094 0.833721 12.5297 2.49783 12.3267C2.49975 12.335 2.5387 11.0566 0.845215 11.3018Z" fill="#B69260"/>
</g>
<path d="M5.01135 5.50098C5.01071 5.50289 3.96345 6.55972 4.9047 7.49714C4.90407 7.4997 5.9526 6.49523 5.01135 5.50098Z" fill="#B69260"/>
<path d="M23.3953 4.64066C23.3953 4.63492 22.3237 5.25433 23.2548 6.58383C23.2548 6.57745 24.3218 6.027 23.3953 4.64066Z" fill="#B69260"/>
<path d="M19.2369 1.51271C19.2363 1.50888 18.1526 2.23876 19.1009 3.51463C19.1009 3.51016 20.1807 2.84796 19.2369 1.51271Z" fill="#B69260"/>
<path d="M7.1636 3.22559C7.1636 3.22559 6.53205 3.79264 7.03844 4.38587C7.03844 4.38587 7.66743 3.85011 7.1636 3.22559Z" fill="#B69260"/>
<path d="M7.1808 2.64648C7.1808 2.64904 7.05117 3.36935 7.95155 3.44661C7.95219 3.4498 8.09842 2.7295 7.1808 2.64648Z" fill="#B69260"/>
<path d="M8.2886 1.75586C8.28797 1.75969 7.49231 2.91933 8.74582 3.66646C8.74582 3.67093 9.55489 2.54641 8.2886 1.75586Z" fill="#B69260"/>
<path d="M1.96484 8.29412C1.96612 8.29795 2.13853 9.20536 3.44824 8.85287C3.44952 8.85797 3.30137 7.90906 1.96484 8.29412Z" fill="#B69260"/>
<path d="M6.93908 9.8418C6.93972 9.84563 6.89183 10.8137 8.14917 10.838C8.14981 10.8418 8.22389 9.86287 6.93908 9.8418Z" fill="#B69260"/>
<path d="M6.01062 3.46973C6.01062 3.4742 5.07 4.67471 6.2686 5.50229C6.26796 5.50676 7.21751 4.34712 6.01062 3.46973Z" fill="#B69260"/>
<path d="M1.06885 12.9673C1.07012 12.9692 1.55991 14.0113 3.19848 13.3587C3.20039 13.3625 2.74382 12.2508 1.06885 12.9673Z" fill="#B69260"/>
<path d="M2.96975 10.9287C2.97039 10.9364 2.37972 12.2116 3.83885 12.6567C3.83949 12.6643 4.44804 11.3866 2.96975 10.9287Z" fill="#B69260"/>
<path d="M7.76172 11.8444C7.76172 11.8456 7.98011 12.6266 9.02672 12.3201C9.02736 12.322 8.83643 11.527 7.76172 11.8444Z" fill="#B69260"/>
<path d="M7.93605 5.9668C7.93541 5.96744 7.16529 6.62516 7.8575 7.29247C7.85686 7.29247 8.62698 6.66986 7.93605 5.9668Z" fill="#B69260"/>
<path d="M7.22352 13.4907C7.22416 13.4927 6.91509 12.5795 5.70947 13.0476C5.71011 13.0495 5.97895 13.9179 7.22352 13.4907Z" fill="#B69260"/>
<path d="M7.36286 5.33008C7.36286 5.33008 6.69173 5.87159 7.23962 6.44949C7.23962 6.44949 7.90884 5.938 7.36286 5.33008Z" fill="#B69260"/>
<path d="M8.73162 4.49577C8.73226 4.49769 8.42191 3.73332 7.39893 4.19309C7.39956 4.19501 7.67543 4.91851 8.73162 4.49577Z" fill="#B69260"/>
<path d="M9.27782 5.40257C9.27846 5.40449 8.96811 4.63437 7.94385 5.07626C7.94449 5.07818 8.22035 5.80934 9.27782 5.40257Z" fill="#B69260"/>
<path d="M9.84938 6.07971C9.84938 6.08099 9.63227 5.53821 8.9126 5.83067C8.9126 5.83131 9.10672 6.35366 9.84938 6.07971Z" fill="#B69260"/>
<path d="M10.5281 5.76111C10.5281 5.76111 11.0345 5.32624 10.5377 4.86328C10.5377 4.86328 10.032 5.28027 10.5281 5.76111Z" fill="#B69260"/>
<path d="M11.3589 9.3825C11.3589 9.38314 11.864 8.95977 11.3692 8.4834C11.3692 8.4834 10.864 8.88761 11.3589 9.3825Z" fill="#B69260"/>
<path d="M19.9459 11.5717C19.9459 11.5723 20.0513 10.9982 19.3061 10.8252C19.3061 10.8258 19.1873 11.3795 19.9459 11.5717Z" fill="#B69260"/>
<path d="M10.5043 6.70299C10.5043 6.70427 10.2878 6.15701 9.56689 6.43735C9.56689 6.43862 9.76102 6.96544 10.5043 6.70299Z" fill="#B69260"/>
<path d="M9.58033 4.64917C9.58033 4.64917 9.99923 4.19707 9.4839 3.83691C9.4839 3.83755 9.06372 4.27114 9.58033 4.64917Z" fill="#B69260"/>
<path d="M10.1211 7.13325C10.1211 7.13325 10.4212 7.58281 11.0394 7.24692C11.04 7.24756 10.7597 6.78843 10.1211 7.13325Z" fill="#B69260"/>
<path d="M9.96158 5.18557C9.96158 5.18493 10.491 4.84394 10.1257 4.35352C10.1257 4.35288 9.60079 4.67727 9.96158 5.18557Z" fill="#B69260"/>
<path d="M6.00047 8.54297C5.99983 8.54169 5.16075 9.0021 5.54964 9.76008C5.549 9.75881 6.3785 9.33544 6.00047 8.54297Z" fill="#B69260"/>
<path d="M6.41384 9.34766C6.41384 9.34702 5.57412 9.79593 5.96237 10.5616C5.96173 10.5609 6.79251 10.1478 6.41384 9.34766Z" fill="#B69260"/>
<path d="M6.58181 10.2891C6.58181 10.2891 5.97836 10.7616 6.46112 11.2884C6.46112 11.2884 7.06201 10.8414 6.58181 10.2891Z" fill="#B69260"/>
<path d="M3.97503 13.855C3.97503 13.8544 3.58933 13.3767 2.87988 13.8831C2.87988 13.8831 3.2362 14.3486 3.97503 13.855Z" fill="#B69260"/>
<path d="M5.89221 14.6474C5.89221 14.6468 5.50524 14.1449 4.79004 14.6276C4.79004 14.6276 5.14892 15.1162 5.89221 14.6474Z" fill="#B69260"/>
<path d="M4.65561 13.341C4.65561 13.3423 4.97425 12.7031 4.2284 12.5166C4.2284 12.5185 3.89954 13.1296 4.65561 13.341Z" fill="#B69260"/>
<path d="M5.43358 13.6653C5.43358 13.6666 5.7535 13.0293 5.0051 12.8281C5.00574 12.83 4.67559 13.4392 5.43358 13.6653Z" fill="#B69260"/>
<path d="M5.65255 11.8137C5.65319 11.8143 5.3007 11.133 4.35498 11.6419C4.35562 11.6432 4.67363 12.2958 5.65255 11.8137Z" fill="#B69260"/>
<path d="M5.66367 7.69336C5.66303 7.69272 4.96124 8.11418 5.32267 8.73678C5.32267 8.73614 6.01744 8.34534 5.66367 7.69336Z" fill="#B69260"/>
<path d="M8.10217 14.0066C8.10281 14.0066 7.71264 13.5232 7.0415 13.9817C7.0415 13.9817 7.40485 14.4536 8.10217 14.0066Z" fill="#B69260"/>
<path d="M8.03257 18.6144C8.03257 18.6144 7.64432 18.1234 6.9751 18.5653C6.97574 18.5646 7.33781 19.0461 8.03257 18.6144Z" fill="#B69260"/>
<path d="M2.97998 10.1792C2.97998 10.1805 3.08215 10.8069 3.94167 10.5362C3.9423 10.5387 3.85929 9.89952 2.97998 10.1792Z" fill="#B69260"/>
<path d="M7.11631 4.49219C7.11631 4.49155 6.36152 4.89832 6.70379 5.58223C6.70315 5.58095 7.449 5.20739 7.11631 4.49219Z" fill="#B69260"/>
<path d="M12.0176 14.21C12.0176 14.21 11.4167 13.6429 10.6606 14.2802C10.6606 14.2802 11.2283 14.8332 12.0176 14.21Z" fill="#B69260"/>
<path d="M8.28472 15.3037C8.28408 15.3037 7.60145 15.7577 8.08931 16.3944C8.08931 16.395 8.76811 15.9691 8.28472 15.3037Z" fill="#B69260"/>
<path d="M9.03806 15.5225C9.03806 15.5225 8.51124 15.8673 8.88735 16.3641C8.88735 16.3641 9.41098 16.041 9.03806 15.5225Z" fill="#B69260"/>
<path d="M14.1609 10.8828C14.1602 10.8815 13.3984 11.1676 13.7381 11.9243C13.7381 11.9224 14.4897 11.6651 14.1609 10.8828Z" fill="#B69260"/>
<path d="M7.25684 11.1375C7.25684 11.1388 7.53525 11.7314 8.35326 11.3731C8.35326 11.3744 8.09911 10.769 7.25684 11.1375Z" fill="#B69260"/>
<path d="M8.65918 12.754C8.65918 12.7553 9.02827 13.5375 10.0877 13.1014C10.0883 13.1033 9.7505 12.3031 8.65918 12.754Z" fill="#B69260"/>
<path d="M9.64111 13.5815C9.64175 13.5822 10.1488 14.3063 11.136 13.7552C11.1366 13.7565 10.6615 13.0126 9.64111 13.5815Z" fill="#B69260"/>
<path d="M12.0832 13.3312C12.0832 13.3312 12.7709 12.6983 12.0104 12.0361C12.0104 12.0368 11.3213 12.6421 12.0832 13.3312Z" fill="#B69260"/>
<path d="M11.0212 12.8336C11.0212 12.8349 11.6278 12.1229 10.7785 11.5635C10.7785 11.5648 10.1668 12.2461 11.0212 12.8336Z" fill="#B69260"/>
<path d="M10.0561 12.1687C10.0561 12.1694 10.6238 11.5372 9.88309 11.0244C9.88245 11.0257 9.31157 11.6304 10.0561 12.1687Z" fill="#B69260"/>
<path d="M9.14091 11.5185C9.14091 11.5198 9.67156 10.855 8.89761 10.3984C8.89761 10.3997 8.36249 11.0364 9.14091 11.5185Z" fill="#B69260"/>
<path d="M10.6392 9.07053C10.6392 9.07181 11.3302 8.30488 10.4279 7.68164C10.4279 7.68292 9.73312 8.41727 10.6392 9.07053Z" fill="#B69260"/>
<path d="M9.51613 8.4065C9.51549 8.40714 10.2588 7.71812 9.48037 7.05273C9.48037 7.05337 8.73771 7.71365 9.51613 8.4065Z" fill="#B69260"/>
<path d="M8.60293 7.77811C8.60293 7.77811 9.3475 7.20212 8.73128 6.53418C8.73065 6.53418 7.99054 7.0859 8.60293 7.77811Z" fill="#B69260"/>
<path d="M25.9311 14.54C25.9311 14.5439 26.2542 15.4366 25.1341 15.4768C25.1341 15.48 24.7938 14.5854 25.9311 14.54Z" fill="#B69260"/>
<path d="M26.9145 14.4141C26.9139 14.4166 27.223 15.1676 26.2989 15.2167C26.2989 15.2193 25.9771 14.4696 26.9145 14.4141Z" fill="#B69260"/>
<path d="M27.7077 14.0391C27.7077 14.041 28.193 14.7555 27.4025 14.9797C27.4025 14.9822 26.9095 14.2792 27.7077 14.0391Z" fill="#B69260"/>
<path d="M21.2911 15.0151C21.2911 15.0183 21.1474 14.0336 22.4079 14.1364C22.4079 14.1396 22.5784 15.0764 21.2911 15.0151Z" fill="#B69260"/>
<path d="M22.7948 15.3331C22.7941 15.3369 22.5406 14.3905 23.722 14.3995C23.7213 14.4027 23.9972 15.3024 22.7948 15.3331Z" fill="#B69260"/>
<path d="M24.0868 15.433C24.0868 15.4361 23.749 14.5811 24.7848 14.5C24.7841 14.5026 25.1385 15.3174 24.0868 15.433Z" fill="#B69260"/>
<path d="M9.54199 10.6676C9.54263 10.6657 10.4136 11.1976 11.2048 10.2915C11.2048 10.2902 10.3683 9.72697 9.54199 10.6676Z" fill="#B69260"/>
<path d="M8.37598 10.1032C8.37598 10.1013 9.24635 10.6096 10.0356 9.68747C10.0356 9.68619 9.19973 9.14532 8.37598 10.1032Z" fill="#B69260"/>
<path d="M4.82959 12.399C4.82959 12.399 5.28234 13.0721 6.26509 12.4936C6.26573 12.4942 5.84236 11.7975 4.82959 12.399Z" fill="#B69260"/>
<path d="M3.56787 14.3629C3.56851 14.3616 4.19175 14.8967 5.04169 14.1611C5.04169 14.1598 4.44718 13.6024 3.56787 14.3629Z" fill="#B69260"/>
<mask id="mask4_1_1521" style="mask-type:luminance" maskUnits="userSpaceOnUse" x="0" y="13" width="3" height="2">
<path d="M0.82373 13.7822H2.45655V14.4361H0.82373V13.7822Z" fill="white"/>
</mask>
<g mask="url(#mask4_1_1521)">
<path d="M0.87207 14.2448C0.87207 14.2429 1.48829 14.7288 2.32865 13.9638C2.32865 13.9619 1.74053 13.4523 0.87207 14.2448Z" fill="#B69260"/>
</g>
<path d="M7.70508 9.4123C7.70508 9.41102 8.37111 9.7865 8.97328 9.06875C8.97328 9.06811 8.33407 8.67092 7.70508 9.4123Z" fill="#B69260"/>
<path d="M6.76562 8.65476C6.76626 8.65476 7.29436 9.18542 8.09449 8.56792C8.09449 8.56792 7.59321 8.01428 6.76562 8.65476Z" fill="#B69260"/>
<path d="M5.36858 16.7988C5.36922 16.8007 5.21852 17.6571 6.306 17.6941C6.30664 17.696 6.47778 16.841 5.36858 16.7988Z" fill="#B69260"/>
<path d="M9.50237 17.436C9.50237 17.4373 9.65946 16.7049 8.75205 16.6104C8.75269 16.6123 8.57772 17.3141 9.50237 17.436Z" fill="#B69260"/>
<path d="M5.86285 18.1575C5.86348 18.1562 5.28941 17.736 4.65723 18.3739C4.65723 18.3727 5.20065 18.7916 5.86285 18.1575Z" fill="#B69260"/>
<path d="M10.9394 16.8197C10.9387 16.8203 11.2638 16.2833 10.6105 15.9883C10.6105 15.9889 10.2791 16.5042 10.9394 16.8197Z" fill="#B69260"/>
<path d="M8.57272 17.6334C8.57272 17.6353 8.75471 16.7924 7.71257 16.6973C7.71257 16.6992 7.51078 17.5051 8.57272 17.6334Z" fill="#B69260"/>
<path d="M7.48701 17.7417C7.48701 17.7442 7.66198 16.925 6.65049 16.8496C6.65049 16.8515 6.45508 17.6331 7.48701 17.7417Z" fill="#B69260"/>
<path d="M9.67558 16.2607C9.67558 16.2627 9.47698 16.9504 10.3371 17.1062C10.3371 17.1075 10.5517 16.4306 9.67558 16.2607Z" fill="#B69260"/>
<path d="M4.07227 10.571C4.0729 10.5735 4.15592 11.4318 5.31045 11.1597C5.31109 11.1629 5.25234 10.2849 4.07227 10.571Z" fill="#B69260"/>
<path d="M3.86279 9.70395C3.86343 9.70715 3.97327 10.5047 5.05883 10.2046C5.05947 10.2071 4.97263 9.38914 3.86279 9.70395Z" fill="#B69260"/>
<path d="M3.73926 8.80482C3.7399 8.80673 3.83887 9.52385 4.81397 9.24096C4.81461 9.24415 4.7367 8.51107 3.73926 8.80482Z" fill="#B69260"/>
<path d="M4.04909 7.66113C4.04973 7.66305 3.86391 8.26139 4.59188 8.29587C4.59188 8.29779 4.7892 7.70328 4.04909 7.66113Z" fill="#B69260"/>
<path d="M1.52344 9.57721C1.52344 9.57785 1.70479 10.0734 2.42957 9.72153C2.43021 9.72217 2.26609 9.21387 1.52344 9.57721Z" fill="#B69260"/>
<path d="M6.09814 8.01587C6.09814 8.01523 6.62624 8.53439 7.42445 7.90476C7.42445 7.90476 6.92318 7.36198 6.09814 8.01587Z" fill="#B69260"/>
<path d="M5.68018 7.0198C5.68081 7.02171 5.89921 7.71137 6.85961 7.34802C6.86025 7.34994 6.66549 6.64049 5.68018 7.0198Z" fill="#B69260"/>
<path d="M2.76501 6.84961C2.76629 6.85536 2.32887 7.92368 3.59324 8.05523C3.59388 8.06098 4.0479 6.9869 2.76501 6.84961Z" fill="#B69260"/>
<path d="M3.76933 5.64648C3.76933 5.64968 3.1365 6.50855 4.04902 6.91724C4.04902 6.91979 4.68887 6.08263 3.76933 5.64648Z" fill="#B69260"/>
<path d="M5.56055 6.18371C5.56055 6.18498 5.66591 6.76417 6.45135 6.52789C6.45199 6.52917 6.36514 5.94105 5.56055 6.18371Z" fill="#B69260"/>
<path d="M20.8271 17.1476C20.8271 17.1482 21.0519 16.5888 21.9376 16.91C21.9376 16.9107 21.7397 17.4509 20.8271 17.1476Z" fill="#B69260"/>
<path d="M21.5063 17.8415C21.5063 17.8434 21.5012 17.2336 22.4272 17.2898C22.4265 17.2911 22.4546 17.8734 21.5063 17.8415Z" fill="#B69260"/>
<path d="M22.4285 17.9965C22.4285 17.9978 22.2906 17.3918 23.1903 17.2998C23.1903 17.3017 23.3468 17.8783 22.4285 17.9965Z" fill="#B69260"/>
<path d="M23.3849 18.0803C23.3849 18.0822 23.1486 17.4922 24.0049 17.293C24.0049 17.2949 24.2565 17.8549 23.3849 18.0803Z" fill="#B69260"/>
<path d="M24.3174 17.9595C24.3174 17.9614 24.1571 17.3605 25.0454 17.2686C25.0448 17.2711 25.2229 17.8407 24.3174 17.9595Z" fill="#B69260"/>
<path d="M25.2162 18.0392C25.2156 18.0418 25.137 17.2985 26.2628 17.347C26.2622 17.3502 26.3682 18.0513 25.2162 18.0392Z" fill="#B69260"/>
<path d="M22.9839 19.8865C22.9839 19.8833 23.86 19.4216 24.7348 20.5059C24.7342 20.5027 23.9034 20.9752 22.9839 19.8865Z" fill="#B69260"/>
<path d="M20.0423 16.9455C20.0423 16.9468 19.6835 16.2622 20.4638 15.7539C20.4644 15.7558 20.8323 16.4059 20.0423 16.9455Z" fill="#B69260"/>
<path d="M19.3366 17.3638C19.3366 17.3644 18.8117 16.8331 19.3966 16.0566C19.3966 16.0573 19.9228 16.5579 19.3366 17.3638Z" fill="#B69260"/>
<path d="M22.6826 16.8246C22.6832 16.8227 21.6954 16.8316 21.7471 15.8208C21.7477 15.8182 22.7145 15.7952 22.6826 16.8246Z" fill="#B69260"/>
<path d="M23.9162 16.9261C23.9168 16.9242 22.9315 16.9146 22.9845 15.9133C22.9845 15.9108 23.9494 15.9076 23.9162 16.9261Z" fill="#B69260"/>
<mask id="mask5_1_1521" style="mask-type:luminance" maskUnits="userSpaceOnUse" x="28" y="14" width="1" height="2">
<path d="M28.0078 14.1846H28.981V15.0147H28.0078V14.1846Z" fill="white"/>
</mask>
<g mask="url(#mask5_1_1521)">
<path d="M28.9458 14.2361C28.9452 14.2399 29.2428 15.0733 28.1144 14.9628C28.1138 14.9666 27.8002 14.1224 28.9458 14.2361Z" fill="#B69260"/>
</g>
<path d="M28.7116 12.7181C28.7103 12.7232 28.8603 13.8305 27.3239 13.4218C27.322 13.4275 27.149 12.2794 28.7116 12.7181Z" fill="#B69260"/>
<path d="M24.8813 16.8611C24.8819 16.8605 24.1297 16.8394 24.1706 16.0801C24.1706 16.0789 24.9068 16.0884 24.8813 16.8611Z" fill="#B69260"/>
<path d="M26.1055 16.6177C26.1055 16.6151 25.3412 16.7537 25.1592 15.9919C25.1592 15.99 25.9031 15.8425 26.1055 16.6177Z" fill="#B69260"/>
<path d="M27.0517 16.4793C27.0517 16.4774 26.2899 16.6 26.1079 15.842C26.1085 15.8395 26.8493 15.7079 27.0517 16.4793Z" fill="#B69260"/>
<path d="M28.0499 16.0214C28.0499 16.0189 27.4069 16.3688 26.9126 15.7239C26.9126 15.7219 27.5314 15.3618 28.0499 16.0214Z" fill="#B69260"/>
<path d="M23.8383 19.2935C23.8389 19.2923 23.0465 19.4136 22.9424 18.6441C22.9424 18.6422 23.7151 18.5113 23.8383 19.2935Z" fill="#B69260"/>
<path d="M23.0332 20.5796C23.0339 20.5783 22.2165 20.6122 22.2408 19.8446C22.2408 19.8433 23.0396 19.7986 23.0332 20.5796Z" fill="#B69260"/>
<path d="M21.83 20.3405C21.83 20.3399 21.0273 20.1157 21.3696 19.4248C21.3696 19.4242 22.1614 19.633 21.83 20.3405Z" fill="#B69260"/>
<path d="M20.7957 19.9115C20.7957 19.9122 20.1098 19.462 20.7146 18.9326C20.7146 18.9333 21.3978 19.3617 20.7957 19.9115Z" fill="#B69260"/>
<path d="M19.7446 19.4408C19.7446 19.4421 19.371 18.7659 20.2139 18.5781C20.2139 18.58 20.5977 19.2295 19.7446 19.4408Z" fill="#B69260"/>
<path d="M22.91 19.1998C22.91 19.1979 22.1169 19.33 22.0122 18.5567C22.0122 18.5555 22.7855 18.4131 22.91 19.1998Z" fill="#B69260"/>
<path d="M24.8188 19.1715C24.8188 19.1702 24.0283 19.2794 23.9248 18.5144C23.9254 18.5125 24.6956 18.3937 24.8188 19.1715Z" fill="#B69260"/>
<path d="M25.8903 18.7254C25.8903 18.7229 25.1937 19.0664 24.7588 18.4106C24.7588 18.4087 25.4306 18.0569 25.8903 18.7254Z" fill="#B69260"/>
<path d="M28.7065 15.5562C28.7065 15.5549 28.2301 15.8685 27.7773 15.3819C27.7773 15.3806 28.2339 15.0588 28.7065 15.5562Z" fill="#B69260"/>
<path d="M1.19922 14.8864C1.19986 14.8838 1.97253 15.7037 3.29437 14.721C3.295 14.719 2.55809 13.8519 1.19922 14.8864Z" fill="#B69260"/>
<path d="M3.46338 17.5787C3.46338 17.5774 4.10386 18.3546 5.25329 17.5909C5.25393 17.5902 4.64856 16.7863 3.46338 17.5787Z" fill="#B69260"/>
<path d="M4.84473 19.0516C4.84473 19.0497 5.5778 19.7355 6.58547 18.9214C6.58547 18.9201 5.88815 18.2132 4.84473 19.0516Z" fill="#B69260"/>
<path d="M4.32031 16.3254C4.31967 16.3228 5.25454 16.3694 5.4972 15.4186C5.4972 15.416 4.58787 15.3541 4.32031 16.3254Z" fill="#B69260"/>
<path d="M6.96849 16.3872C6.96849 16.386 7.89314 16.0533 7.60067 15.1631C7.60003 15.1618 6.69007 15.4741 6.96849 16.3872Z" fill="#B69260"/>
<path d="M5.63146 16.5871C5.63082 16.5845 6.70617 16.4281 6.53823 15.4102C6.53759 15.4083 5.48331 15.5481 5.63146 16.5871Z" fill="#B69260"/>
<path d="M3.30469 15.8349C3.30469 15.833 4.01542 16.1446 4.58374 15.3668C4.58374 15.3655 3.8992 15.0373 3.30469 15.8349Z" fill="#B69260"/>
<path d="M2.65576 15.443C2.65576 15.4417 3.18194 15.7368 3.69918 15.1403C3.69918 15.1397 3.19535 14.8325 2.65576 15.443Z" fill="#B69260"/>
<path d="M6.06592 19.6079C6.06592 19.6072 6.59593 19.9565 7.11828 19.3901C7.11828 19.3895 6.61062 19.0306 6.06592 19.6079Z" fill="#B69260"/>
<path d="M9.44131 19.8678C9.44067 19.8672 10.3123 19.4495 9.85638 18.5996C9.85638 18.599 8.99495 18.9923 9.44131 19.8678Z" fill="#B69260"/>
<path d="M10.7989 19.4371C10.7989 19.4377 11.6348 18.7864 10.7727 18.082C10.7721 18.0827 9.93682 18.704 10.7989 19.4371Z" fill="#B69260"/>
<path d="M8.16493 19.9762C8.16493 19.9755 9.0385 19.8753 8.99891 19.0049C8.99891 19.0036 8.14386 19.086 8.16493 19.9762Z" fill="#B69260"/>
<path d="M7.28223 19.9858C7.28223 19.9852 7.98274 19.9603 8.03127 19.2598C8.03127 19.2591 7.34736 19.2694 7.28223 19.9858Z" fill="#B69260"/>
<path d="M36.981 10.1025H42.1034C43.5983 10.1025 44.7616 10.4597 45.5932 11.1638C46.4197 11.8729 46.8381 12.8883 46.8381 14.2046C46.8381 15.5821 46.4197 16.6485 45.5932 17.4087C44.7616 18.174 43.5983 18.5515 42.1034 18.5515H39.9605V21.8576H36.981V10.1025ZM39.9605 12.4495V16.2046H41.9401C42.6034 16.2046 43.1136 16.0413 43.4708 15.7148C43.8228 15.3883 44.0014 14.9189 44.0014 14.3066C44.0014 13.6944 43.8228 13.2352 43.4708 12.9189C43.1136 12.6076 42.6034 12.4495 41.9401 12.4495H39.9605Z" fill="#B69260"/>
<path d="M60.6965 10C62.518 10 64.0333 10.5714 65.2476 11.7143C66.4568 12.8469 67.0639 14.2602 67.0639 15.9592C67.0639 17.6735 66.4516 19.1122 65.2272 20.2653C64.0129 21.4235 62.5027 22 60.6965 22C58.8853 22 57.3751 21.4286 56.1659 20.2857C54.9517 19.1327 54.3496 17.6888 54.3496 15.9592C54.3496 14.2449 54.9517 12.8265 56.1659 11.6939C57.3751 10.5663 58.8853 10 60.6965 10ZM60.717 12.5102C59.8037 12.5102 59.0231 12.8469 58.37 13.5102C57.7272 14.1786 57.4108 15 57.4108 15.9796C57.4108 16.9592 57.7374 17.7908 58.3904 18.4694C59.0435 19.1531 59.819 19.4898 60.717 19.4898C61.6251 19.4898 62.3955 19.1531 63.0231 18.4694C63.6608 17.7908 63.9823 16.9592 63.9823 15.9796C63.9823 15 63.6608 14.1786 63.0231 13.5102C62.3955 12.8469 61.6251 12.5102 60.717 12.5102Z" fill="#B69260"/>
<path d="M82.4503 21.8576L80.6952 18.5515H78.3482V21.8576H75.3687V10.1025H80.6136C82.1748 10.1025 83.3789 10.4597 84.2258 11.1638C85.0829 11.8729 85.5115 12.8883 85.5115 14.2046C85.5115 16.0158 84.7972 17.276 83.3687 17.9801L85.838 21.8576H82.4503ZM78.3482 16.2046H80.6136C81.2666 16.2046 81.7666 16.0413 82.1238 15.7148C82.4911 15.3883 82.6748 14.9189 82.6748 14.3066C82.6748 13.6944 82.4911 13.2352 82.1238 12.9189C81.7666 12.6076 81.2666 12.4495 80.6136 12.4495H78.3482V16.2046Z" fill="#B69260"/>
<path d="M103.232 12.5106H99.6807V21.8575H96.7011V12.5106H93.1909V10.082H103.232V12.5106Z" fill="#B69260"/>
<path d="M116.809 10C118.63 10 120.146 10.5714 121.36 11.7143C122.569 12.8469 123.176 14.2602 123.176 15.9592C123.176 17.6735 122.564 19.1122 121.339 20.2653C120.125 21.4235 118.615 22 116.809 22C114.998 22 113.487 21.4286 112.278 20.2857C111.064 19.1327 110.462 17.6888 110.462 15.9592C110.462 14.2449 111.064 12.8265 112.278 11.6939C113.487 10.5663 114.998 10 116.809 10ZM116.829 12.5102C115.916 12.5102 115.135 12.8469 114.482 13.5102C113.839 14.1786 113.523 15 113.523 15.9796C113.523 16.9592 113.85 17.7908 114.503 18.4694C115.156 19.1531 115.931 19.4898 116.829 19.4898C117.737 19.4898 118.508 19.1531 119.135 18.4694C119.773 17.7908 120.095 16.9592 120.095 15.9796C120.095 15 119.773 14.1786 119.135 13.5102C118.508 12.8469 117.737 12.5102 116.829 12.5102Z" fill="#B69260"/>
</svg>
