<svg width="47" height="33" viewBox="0 0 47 33" fill="none" xmlns="http://www.w3.org/2000/svg">
<g filter="url(#filter0_d_232_3271)">
<path d="M11.9796 21V12.2695H15.4191C16.0792 12.2695 16.6417 12.3965 17.1066 12.6504C17.5753 12.9004 17.9327 13.248 18.1788 13.6934C18.4288 14.1387 18.5538 14.6523 18.5538 15.2344C18.5538 15.8125 18.4288 16.3223 18.1788 16.7637C17.9288 17.2051 17.5656 17.5508 17.089 17.8008C16.6163 18.0469 16.0441 18.1699 15.3722 18.1699H13.1808V16.6934H15.0734C15.4288 16.6934 15.7218 16.6309 15.9523 16.5059C16.1866 16.3809 16.3605 16.209 16.4738 15.9902C16.5909 15.7715 16.6495 15.5195 16.6495 15.2344C16.6495 14.9414 16.5909 14.6875 16.4738 14.4727C16.3605 14.2539 16.1866 14.084 15.9523 13.9629C15.7179 13.8418 15.423 13.7812 15.0675 13.7812H13.8195V21H11.9796ZM19.3624 21V12.2695H22.8019C23.462 12.2695 24.0245 12.3867 24.4894 12.6211C24.9581 12.8555 25.3156 13.1875 25.5616 13.6172C25.8116 14.043 25.9366 14.5449 25.9366 15.123C25.9366 15.7012 25.8116 16.1992 25.5616 16.6172C25.3116 17.0352 24.9484 17.3555 24.4718 17.5781C23.9991 17.7969 23.4269 17.9062 22.755 17.9062H20.4523V16.4238H22.4562C22.8116 16.4238 23.1046 16.375 23.3351 16.2773C23.5695 16.1797 23.7433 16.0352 23.8566 15.8438C23.9738 15.6523 24.0323 15.4121 24.0323 15.123C24.0323 14.8301 23.9738 14.5859 23.8566 14.3906C23.7433 14.1914 23.5695 14.041 23.3351 13.9395C23.1007 13.834 22.8058 13.7812 22.4503 13.7812H21.2023V21H19.3624ZM24.2081 21L22.0812 17.0273H24.0734L26.2472 21H24.2081ZM30.7823 21.1172C30.0089 21.1172 29.3136 20.9414 28.6964 20.5898C28.0792 20.2383 27.5909 19.7285 27.2316 19.0605C26.8722 18.3926 26.6925 17.5859 26.6925 16.6406C26.6925 15.6875 26.8722 14.877 27.2316 14.209C27.5909 13.5371 28.0792 13.0273 28.6964 12.6797C29.3136 12.3281 30.0089 12.1523 30.7823 12.1523C31.5558 12.1523 32.2511 12.3281 32.8683 12.6797C33.4855 13.0273 33.9718 13.5371 34.3273 14.209C34.6866 14.877 34.8663 15.6875 34.8663 16.6406C34.8663 17.5898 34.6866 18.3984 34.3273 19.0664C33.9718 19.7344 33.4855 20.2441 32.8683 20.5957C32.2511 20.9434 31.5558 21.1172 30.7823 21.1172ZM30.7823 19.4883C31.2316 19.4883 31.6222 19.3789 31.9542 19.1602C32.2863 18.9414 32.5421 18.6211 32.7218 18.1992C32.9054 17.7734 32.9972 17.2539 32.9972 16.6406C32.9972 16.0234 32.9054 15.502 32.7218 15.0762C32.5421 14.6504 32.2863 14.3281 31.9542 14.1094C31.6222 13.8906 31.2316 13.7812 30.7823 13.7812C30.337 13.7812 29.9484 13.8906 29.6163 14.1094C29.2843 14.3281 29.0245 14.6504 28.837 15.0762C28.6534 15.502 28.5616 16.0234 28.5616 16.6406C28.5616 17.2539 28.6534 17.7734 28.837 18.1992C29.0245 18.6211 29.2843 18.9414 29.6163 19.1602C29.9484 19.3789 30.337 19.4883 30.7823 19.4883Z" fill="url(#paint0_linear_232_3271)"/>
</g>
<defs>
<filter id="filter0_d_232_3271" x="0.562508" y="0.735237" width="45.7209" height="31.7991" filterUnits="userSpaceOnUse" color-interpolation-filters="sRGB">
<feFlood flood-opacity="0" result="BackgroundImageFix"/>
<feColorMatrix in="SourceAlpha" type="matrix" values="0 0 0 0 0 0 0 0 0 0 0 0 0 0 0 0 0 0 127 0" result="hardAlpha"/>
<feOffset/>
<feGaussianBlur stdDeviation="5.70855"/>
<feComposite in2="hardAlpha" operator="out"/>
<feColorMatrix type="matrix" values="0 0 0 0 0.670588 0 0 0 0 0.760784 0 0 0 0 1 0 0 0 0.7 0"/>
<feBlend mode="normal" in2="BackgroundImageFix" result="effect1_dropShadow_232_3271"/>
<feBlend mode="normal" in="SourceGraphic" in2="effect1_dropShadow_232_3271" result="shape"/>
</filter>
<linearGradient id="paint0_linear_232_3271" x1="23.4171" y1="8" x2="23.4171" y2="25" gradientUnits="userSpaceOnUse">
<stop stop-color="#5686FE"/>
<stop offset="1" stop-color="#CCDBFF"/>
</linearGradient>
</defs>
</svg>
