<svg width="19" height="23" viewBox="0 0 19 23" fill="none" xmlns="http://www.w3.org/2000/svg">
<path fill-rule="evenodd" clip-rule="evenodd" d="M9.33331 0.75C8.07353 0.75 6.86535 1.25044 5.97455 2.14124C5.08375 3.03204 4.58331 4.24022 4.58331 5.5C4.58331 6.75978 5.08375 7.96796 5.97455 8.85876C6.86535 9.74955 8.07353 10.25 9.33331 10.25C10.5931 10.25 11.8013 9.74955 12.6921 8.85876C13.5829 7.96796 14.0833 6.75978 14.0833 5.5C14.0833 4.24022 13.5829 3.03204 12.6921 2.14124C11.8013 1.25044 10.5931 0.75 9.33331 0.75ZM6.08331 5.5C6.08331 4.63805 6.42572 3.8114 7.03521 3.2019C7.6447 2.59241 8.47135 2.25 9.33331 2.25C10.1953 2.25 11.0219 2.59241 11.6314 3.2019C12.2409 3.8114 12.5833 4.63805 12.5833 5.5C12.5833 6.36195 12.2409 7.1886 11.6314 7.7981C11.0219 8.40759 10.1953 8.75 9.33331 8.75C8.47135 8.75 7.6447 8.40759 7.03521 7.7981C6.42572 7.1886 6.08331 6.36195 6.08331 5.5ZM9.33331 11.75C7.02031 11.75 4.88831 12.276 3.30931 13.164C1.75331 14.04 0.583308 15.366 0.583308 17V17.102C0.582308 18.264 0.581308 19.722 1.86031 20.764C2.48931 21.276 3.37031 21.641 4.56031 21.881C5.75231 22.123 7.30731 22.25 9.33331 22.25C11.3593 22.25 12.9133 22.123 14.1073 21.881C15.2973 21.641 16.1773 21.276 16.8073 20.764C18.0863 19.722 18.0843 18.264 18.0833 17.102V17C18.0833 15.366 16.9133 14.04 15.3583 13.164C13.7783 12.276 11.6473 11.75 9.33331 11.75ZM2.08331 17C2.08331 16.149 2.70531 15.225 4.04431 14.472C5.36031 13.732 7.22831 13.25 9.33431 13.25C11.4383 13.25 13.3063 13.732 14.6223 14.472C15.9623 15.225 16.5833 16.149 16.5833 17C16.5833 18.308 16.5433 19.044 15.8593 19.6C15.4893 19.902 14.8693 20.197 13.8093 20.411C12.7523 20.625 11.3073 20.75 9.33331 20.75C7.35931 20.75 5.91331 20.625 4.85731 20.411C3.79731 20.197 3.17731 19.902 2.80731 19.601C2.12331 19.044 2.08331 18.308 2.08331 17Z" fill="#B9BABB"/>
</svg>
