<svg width="14" height="18" viewBox="0 0 14 18" fill="none" xmlns="http://www.w3.org/2000/svg">
<path d="M11.1667 0.666504C11.8297 0.666504 12.4656 0.929896 12.9344 1.39874C13.4033 1.86758 13.6667 2.50346 13.6667 3.1665V16.4998C13.6667 16.6507 13.6258 16.7988 13.5482 16.9282C13.4707 17.0576 13.3595 17.1636 13.2265 17.2347C13.0934 17.3059 12.9436 17.3396 12.7929 17.3323C12.6422 17.325 12.4963 17.2769 12.3708 17.1932L10.4392 15.9057L9.25583 17.089C9.11234 17.2325 8.92142 17.3187 8.7189 17.3314C8.51638 17.3441 8.31617 17.2825 8.15583 17.1582L8.0775 17.089L7 16.0123L5.9225 17.089C5.77901 17.2325 5.58809 17.3187 5.38557 17.3314C5.18305 17.3441 4.98284 17.2825 4.8225 17.1582L4.74417 17.089L3.56 15.9057L1.62917 17.1932L1.61333 17.2032L1.56833 17.2282L1.545 17.2423L1.5 17.2615L1.45833 17.2807L1.4175 17.2932L1.3675 17.309L1.32417 17.3165L1.27667 17.3257L1.20667 17.3307L1.185 17.3332H1.16667L1.12583 17.3307H1.09333L1.0825 17.3282H1.06917L1.035 17.3215L1.00333 17.3173L0.990833 17.3132L0.975833 17.3115L0.9475 17.3023L0.914166 17.294L0.898333 17.2882L0.885833 17.2848L0.861666 17.274L0.828333 17.2615L0.810833 17.2523L0.8 17.2482L0.776666 17.2348L0.746666 17.2198L0.735 17.2115L0.72 17.2032L0.688333 17.1807L0.67 17.169L0.661666 17.1615L0.645 17.1498L0.6075 17.1157L0.5975 17.109L0.5775 17.089L0.548333 17.0565L0.531666 17.0398L0.525833 17.0307L0.516666 17.0207L0.49 16.9832L0.473333 16.9623L0.463333 16.9465L0.438333 16.9015L0.424167 16.8782L0.405 16.8332L0.385833 16.7915C0.374697 16.7621 0.365237 16.732 0.3575 16.7015L0.349166 16.654L0.340833 16.6098L0.333333 16.4998V3.1665C0.333333 2.50346 0.596725 1.86758 1.06557 1.39874C1.53441 0.929896 2.17029 0.666504 2.83333 0.666504H11.1667ZM9.5 10.6665H7.83333C7.61232 10.6665 7.40036 10.7543 7.24408 10.9106C7.0878 11.0669 7 11.2788 7 11.4998C7 11.7209 7.0878 11.9328 7.24408 12.0891C7.40036 12.2454 7.61232 12.3332 7.83333 12.3332H9.5C9.72101 12.3332 9.93297 12.2454 10.0893 12.0891C10.2455 11.9328 10.3333 11.7209 10.3333 11.4998C10.3333 11.2788 10.2455 11.0669 10.0893 10.9106C9.93297 10.7543 9.72101 10.6665 9.5 10.6665ZM9.5 7.33317H4.5C4.27899 7.33317 4.06702 7.42097 3.91074 7.57725C3.75446 7.73353 3.66667 7.94549 3.66667 8.1665C3.66667 8.38752 3.75446 8.59948 3.91074 8.75576C4.06702 8.91204 4.27899 8.99984 4.5 8.99984H9.5C9.72101 8.99984 9.93297 8.91204 10.0893 8.75576C10.2455 8.59948 10.3333 8.38752 10.3333 8.1665C10.3333 7.94549 10.2455 7.73353 10.0893 7.57725C9.93297 7.42097 9.72101 7.33317 9.5 7.33317ZM9.5 3.99984H4.5C4.27899 3.99984 4.06702 4.08763 3.91074 4.24392C3.75446 4.4002 3.66667 4.61216 3.66667 4.83317C3.66667 5.05418 3.75446 5.26615 3.91074 5.42243C4.06702 5.57871 4.27899 5.6665 4.5 5.6665H9.5C9.72101 5.6665 9.93297 5.57871 10.0893 5.42243C10.2455 5.26615 10.3333 5.05418 10.3333 4.83317C10.3333 4.61216 10.2455 4.4002 10.0893 4.24392C9.93297 4.08763 9.72101 3.99984 9.5 3.99984Z" fill="#B69260"/>
</svg>
