<svg width="11" height="9" viewBox="0 0 11 9" fill="none" xmlns="http://www.w3.org/2000/svg">
<path d="M7.5 9L7.35 8.25C7.25 8.20833 7.15633 8.16467 7.069 8.119C6.98167 8.07333 6.892 8.017 6.8 7.95L6.075 8.175L5.575 7.325L6.15 6.825C6.13333 6.725 6.125 6.61667 6.125 6.5C6.125 6.38333 6.13333 6.275 6.15 6.175L5.575 5.675L6.075 4.825L6.8 5.05C6.89167 4.98333 6.98133 4.92717 7.069 4.8815C7.15667 4.83583 7.25033 4.792 7.35 4.75L7.5 4H8.5L8.65 4.75C8.75 4.79167 8.84383 4.8355 8.9315 4.8815C9.01917 4.9275 9.10867 4.98367 9.2 5.05L9.925 4.825L10.425 5.675L9.85 6.175C9.86667 6.275 9.875 6.38333 9.875 6.5C9.875 6.61667 9.86667 6.725 9.85 6.825L10.425 7.325L9.925 8.175L9.2 7.95C9.10833 8.01667 9.01883 8.073 8.9315 8.119C8.84417 8.165 8.75033 8.20867 8.65 8.25L8.5 9H7.5ZM8 7.5C8.275 7.5 8.5105 7.40217 8.7065 7.2065C8.9025 7.01083 9.00033 6.77533 9 6.5C8.99967 6.22467 8.90183 5.98933 8.7065 5.794C8.51117 5.59867 8.27567 5.50067 8 5.5C7.72433 5.49933 7.489 5.59733 7.294 5.794C7.099 5.99067 7.001 6.226 7 6.5C6.999 6.774 7.097 7.0095 7.294 7.2065C7.491 7.4035 7.72633 7.50133 8 7.5ZM0 8V0H4L5 1H10V3.6375C9.70833 3.42917 9.39167 3.27083 9.05 3.1625C8.70833 3.05417 8.35417 3 7.9875 3C7.00417 3 6.17717 3.34383 5.5065 4.0315C4.83583 4.71917 4.50033 5.53783 4.5 6.4875C4.5 6.75417 4.52917 7.0125 4.5875 7.2625C4.64583 7.5125 4.73333 7.75833 4.85 8H0Z" fill="#F7685B"/>
</svg>
