<svg width="13" height="15" viewBox="0 0 13 15" fill="none" xmlns="http://www.w3.org/2000/svg">
<path d="M12.3889 2.9606C11.3818 2.69181 10.3978 2.34253 9.44666 1.91616C8.51085 1.51021 7.60748 1.03326 6.74444 0.48949L6.49999 0.338379L6.25999 0.493934C5.39695 1.03771 4.49358 1.51465 3.55777 1.9206C2.60501 2.34569 1.61961 2.69347 0.611104 2.9606L0.277771 3.04505V6.75171C0.277771 12.7028 6.2911 14.9295 6.34888 14.9517L6.49999 15.005L6.6511 14.9517C6.71333 14.9517 12.7222 12.7073 12.7222 6.75171V3.04505L12.3889 2.9606ZM10.3578 5.91616L5.39333 10.7384L2.58444 7.92505C2.46656 7.80717 2.40034 7.6473 2.40034 7.4806C2.40034 7.3139 2.46656 7.15403 2.58444 7.03616C2.70231 6.91828 2.86218 6.85206 3.02888 6.85206C3.19558 6.85206 3.35545 6.91828 3.47333 7.03616L5.40666 9.00505L9.4911 5.00505C9.54947 4.94668 9.61876 4.90038 9.69502 4.8688C9.77128 4.83721 9.85301 4.82095 9.93555 4.82095C10.0181 4.82095 10.0998 4.83721 10.1761 4.8688C10.2523 4.90038 10.3216 4.94668 10.38 5.00505C10.4384 5.06341 10.4847 5.1327 10.5162 5.20896C10.5478 5.28522 10.5641 5.36695 10.5641 5.44949C10.5641 5.53203 10.5478 5.61376 10.5162 5.69002C10.4847 5.76628 10.4384 5.83557 10.38 5.89393L10.3578 5.91616Z" fill="#20B958"/>
</svg>
