<svg width="30" height="22" viewBox="0 0 30 22" fill="none" xmlns="http://www.w3.org/2000/svg">
<path d="M15.0002 21.6152C14.2464 21.6152 13.6092 21.355 13.0886 20.8346C12.5681 20.3141 12.3079 19.6769 12.3079 18.9229C12.3079 18.1691 12.5681 17.532 13.0886 17.0116C13.6092 16.4911 14.2464 16.2309 15.0002 16.2309C15.754 16.2309 16.3912 16.4911 16.9119 17.0116C17.4323 17.532 17.6926 18.1691 17.6926 18.9229C17.6926 19.6769 17.4323 20.3141 16.9119 20.8346C16.3912 21.355 15.754 21.6152 15.0002 21.6152ZM15.0002 8.35889C16.6156 8.35889 18.1433 8.62555 19.5836 9.15889C21.0238 9.69222 22.325 10.4299 23.4872 11.3719C23.8206 11.6281 23.9928 11.9601 24.0039 12.3679C24.015 12.7757 23.8719 13.1282 23.5746 13.4256C23.2908 13.7093 22.9417 13.8524 22.5272 13.8549C22.1126 13.8576 21.7386 13.7376 21.4052 13.4949C20.5268 12.8231 19.5422 12.2949 18.4516 11.9102C17.3609 11.5256 16.2104 11.3332 15.0002 11.3332C13.79 11.3332 12.6396 11.5256 11.5489 11.9102C10.4582 12.2949 9.47366 12.8231 8.59522 13.4949C8.26188 13.7376 7.88788 13.8542 7.47322 13.8449C7.05877 13.8353 6.70966 13.6887 6.42588 13.4049C6.14211 13.1076 6.00233 12.755 6.00655 12.3472C6.01099 11.9397 6.17988 11.6077 6.51322 11.3512C7.67544 10.4094 8.97666 9.67522 10.4169 9.14855C11.8571 8.62211 13.3849 8.35889 15.0002 8.35889ZM15.0002 0.358887C17.7438 0.358887 20.3134 0.820885 22.7092 1.74489C25.105 2.66889 27.2464 3.96422 29.1336 5.63089C29.4669 5.91444 29.6426 6.26566 29.6606 6.68455C29.6783 7.10344 29.5386 7.46155 29.2412 7.75889C28.949 8.05111 28.5934 8.19211 28.1746 8.18189C27.7559 8.17166 27.3756 8.02722 27.0336 7.74855C25.408 6.35211 23.5708 5.26711 21.5219 4.49355C19.4732 3.72 17.2993 3.33322 15.0002 3.33322C12.7011 3.33322 10.5272 3.72 8.47855 4.49355C6.42966 5.26711 4.59244 6.35211 2.96688 7.74855C2.62488 8.02722 2.24455 8.17166 1.82588 8.18189C1.40699 8.19211 1.05144 8.05111 0.759217 7.75889C0.461883 7.46155 0.322106 7.10344 0.339883 6.68455C0.357883 6.26566 0.53355 5.91444 0.866883 5.63089C2.75399 3.96422 4.89544 2.66889 7.29122 1.74489C9.68699 0.820885 12.2567 0.358887 15.0002 0.358887Z" fill="#FF9500"/>
</svg>
